<svg xmlns="http://www.w3.org/2000/svg" viewBox="0 0 64 64"><defs><style>.cls-1{fill:#1d1d1b;}.cls-2{fill:#dfdd00;}</style></defs><g id="Arrow"><polygon class="cls-1" points="30.47 9.4 39.95 22.58 49.44 35.77 30.47 35.77 11.51 35.77 20.99 22.58 30.47 9.4"/><polygon class="cls-1" points="30.55 9.35 40.03 22.53 49.51 35.72 30.55 35.72 11.58 35.72 21.07 22.53 30.55 9.35"/><polygon class="cls-1" points="30.62 9.3 40.1 22.48 49.59 35.67 30.62 35.67 11.66 35.67 21.14 22.48 30.62 9.3"/><polygon class="cls-1" points="30.7 9.25 40.18 22.43 49.66 35.62 30.7 35.62 11.73 35.62 21.22 22.43 30.7 9.25"/><polygon class="cls-1" points="30.77 9.2 40.25 22.38 49.73 35.57 30.77 35.57 11.81 35.57 21.29 22.38 30.77 9.2"/><polygon class="cls-1" points="30.85 9.15 40.33 22.33 49.81 35.52 30.85 35.52 11.88 35.52 21.37 22.33 30.85 9.15"/><polygon class="cls-1" points="30.92 9.1 40.4 22.28 49.88 35.47 30.92 35.47 11.96 35.47 21.44 22.28 30.92 9.1"/><polygon class="cls-1" points="31 9.05 40.48 22.23 49.96 35.42 31 35.42 12.03 35.42 21.52 22.23 31 9.05"/><polygon class="cls-1" points="31.07 9 40.55 22.18 50.03 35.37 31.07 35.37 12.11 35.37 21.59 22.18 31.07 9"/><polygon class="cls-1" points="31.15 8.95 40.63 22.13 50.11 35.32 31.15 35.32 12.18 35.32 21.67 22.13 31.15 8.95"/><polygon class="cls-1" points="31.22 8.9 40.7 22.08 50.19 35.27 31.22 35.27 12.26 35.27 21.74 22.08 31.22 8.9"/><polygon class="cls-1" points="31.3 8.85 40.78 22.03 50.26 35.22 31.3 35.22 12.33 35.22 21.82 22.03 31.3 8.85"/><polygon class="cls-1" points="31.37 8.8 40.85 21.98 50.34 35.17 31.37 35.17 12.41 35.17 21.89 21.98 31.37 8.8"/><polygon class="cls-1" points="31.45 8.75 40.93 21.93 50.41 35.12 31.45 35.12 12.48 35.12 21.97 21.93 31.45 8.75"/><polygon class="cls-1" points="31.52 8.7 41 21.88 50.48 35.07 31.52 35.07 12.56 35.07 22.04 21.88 31.52 8.7"/><polygon class="cls-1" points="31.6 8.65 41.08 21.83 50.56 35.02 31.6 35.02 12.63 35.02 22.12 21.83 31.6 8.65"/><polygon class="cls-1" points="31.67 8.6 41.15 21.78 50.63 34.97 31.67 34.97 12.71 34.97 22.19 21.78 31.67 8.6"/><polygon class="cls-1" points="31.75 8.55 41.23 21.73 50.71 34.92 31.75 34.92 12.78 34.92 22.27 21.73 31.75 8.55"/><polygon class="cls-1" points="31.82 8.5 41.3 21.68 50.78 34.87 31.82 34.87 12.86 34.87 22.34 21.68 31.82 8.5"/><polygon class="cls-1" points="31.9 8.45 41.38 21.63 50.86 34.82 31.9 34.82 12.93 34.82 22.42 21.63 31.9 8.45"/><polygon class="cls-1" points="31.97 8.4 41.45 21.58 50.94 34.77 31.97 34.77 13.01 34.77 22.49 21.58 31.97 8.4"/><polygon class="cls-1" points="32.05 8.35 41.53 21.53 51.01 34.72 32.05 34.72 13.08 34.72 22.57 21.53 32.05 8.35"/><polygon class="cls-1" points="32.12 8.3 41.6 21.48 51.09 34.67 32.12 34.67 13.16 34.67 22.64 21.48 32.12 8.3"/><polygon class="cls-1" points="32.2 8.25 41.68 21.43 51.16 34.62 32.2 34.62 13.23 34.62 22.72 21.43 32.2 8.25"/><polygon class="cls-1" points="32.27 8.2 41.75 21.38 51.23 34.57 32.27 34.57 13.31 34.57 22.79 21.38 32.27 8.2"/><polygon class="cls-1" points="32.35 8.15 41.83 21.33 51.31 34.52 32.35 34.52 13.38 34.52 22.87 21.33 32.35 8.15"/><polygon class="cls-1" points="32.42 8.1 41.9 21.28 51.38 34.47 32.42 34.47 13.46 34.47 22.94 21.28 32.42 8.1"/><polygon class="cls-1" points="32.5 8.05 41.98 21.23 51.46 34.42 32.5 34.42 13.53 34.42 23.02 21.23 32.5 8.05"/><polygon class="cls-1" points="32.57 8 42.05 21.18 51.53 34.37 32.57 34.37 13.61 34.37 23.09 21.18 32.57 8"/><polygon class="cls-1" points="32.65 7.95 42.13 21.13 51.61 34.32 32.65 34.32 13.68 34.32 23.17 21.13 32.65 7.95"/><polygon class="cls-1" points="32.72 7.9 42.2 21.08 51.69 34.27 32.72 34.27 13.76 34.27 23.24 21.08 32.72 7.9"/><polygon class="cls-1" points="32.8 7.85 42.28 21.03 51.76 34.22 32.8 34.22 13.83 34.22 23.32 21.03 32.8 7.85"/><polygon class="cls-1" points="32.87 7.8 42.35 20.98 51.84 34.17 32.87 34.17 13.91 34.17 23.39 20.98 32.87 7.8"/><polygon class="cls-1" points="32.95 7.75 42.43 20.93 51.91 34.12 32.95 34.12 13.98 34.12 23.47 20.93 32.95 7.75"/><polygon class="cls-1" points="33.02 7.7 42.5 20.88 51.98 34.07 33.02 34.07 14.06 34.07 23.54 20.88 33.02 7.7"/><polygon class="cls-1" points="33.1 7.65 42.58 20.83 52.06 34.02 33.1 34.02 14.13 34.02 23.62 20.83 33.1 7.65"/><polygon class="cls-1" points="33.17 7.6 42.65 20.78 52.13 33.97 33.17 33.97 14.21 33.97 23.69 20.78 33.17 7.6"/><polygon class="cls-1" points="33.25 7.55 42.73 20.73 52.21 33.92 33.25 33.92 14.28 33.92 23.77 20.73 33.25 7.55"/><polygon class="cls-1" points="33.32 7.5 42.8 20.68 52.28 33.87 33.32 33.87 14.36 33.87 23.84 20.68 33.32 7.5"/><polygon class="cls-1" points="33.4 7.45 42.88 20.63 52.36 33.82 33.4 33.82 14.43 33.82 23.92 20.63 33.4 7.45"/><polygon class="cls-1" points="33.47 7.4 42.95 20.58 52.44 33.77 33.47 33.77 14.51 33.77 23.99 20.58 33.47 7.4"/><polygon class="cls-1" points="33.55 7.35 43.03 20.53 52.51 33.72 33.55 33.72 14.58 33.72 24.07 20.53 33.55 7.35"/><polygon class="cls-1" points="33.62 7.3 43.1 20.48 52.59 33.67 33.62 33.67 14.66 33.67 24.14 20.48 33.62 7.3"/><polygon class="cls-1" points="33.7 7.25 43.18 20.43 52.66 33.62 33.7 33.62 14.73 33.62 24.22 20.43 33.7 7.25"/><polygon class="cls-1" points="33.77 7.2 43.25 20.38 52.73 33.57 33.77 33.57 14.81 33.57 24.29 20.38 33.77 7.2"/><polygon class="cls-1" points="33.85 7.15 43.33 20.33 52.81 33.52 33.85 33.52 14.88 33.52 24.37 20.33 33.85 7.15"/><polygon class="cls-1" points="33.92 7.1 43.4 20.28 52.88 33.47 33.92 33.47 14.96 33.47 24.44 20.28 33.92 7.1"/><polygon class="cls-1" points="34 7.05 43.48 20.23 52.96 33.42 34 33.42 15.03 33.42 24.52 20.23 34 7.05"/><polygon class="cls-1" points="34.07 7 43.55 20.18 53.03 33.37 34.07 33.37 15.11 33.37 24.59 20.18 34.07 7"/><polygon class="cls-1" points="34.15 6.95 43.63 20.13 53.11 33.32 34.15 33.32 15.18 33.32 24.67 20.13 34.15 6.95"/><polygon class="cls-1" points="34.22 6.9 43.7 20.08 53.19 33.27 34.22 33.27 15.26 33.27 24.74 20.08 34.22 6.9"/><polygon class="cls-2" points="16.23 32.77 34.22 7.75 52.21 32.77 16.23 32.77"/><path class="cls-1" d="M34.22,8.61l8.67,12.06,8.34,11.6h-34l8.34-11.6L34.22,8.61m0-1.71L24.74,20.08,15.26,33.27H53.19L43.7,20.08,34.22,6.9Z"/><rect class="cls-1" x="24.2" y="34.95" width="12.55" height="23.42"/><rect class="cls-1" x="24.27" y="34.9" width="12.55" height="23.42"/><rect class="cls-1" x="24.35" y="34.85" width="12.55" height="23.42"/><rect class="cls-1" x="24.42" y="34.8" width="12.55" height="23.42"/><rect class="cls-1" x="24.5" y="34.75" width="12.55" height="23.42"/><rect class="cls-1" x="24.57" y="34.7" width="12.55" height="23.42"/><rect class="cls-1" x="24.65" y="34.65" width="12.55" height="23.42"/><rect class="cls-1" x="24.72" y="34.6" width="12.55" height="23.42"/><rect class="cls-1" x="24.8" y="34.55" width="12.55" height="23.42"/><rect class="cls-1" x="24.87" y="34.5" width="12.55" height="23.42"/><rect class="cls-1" x="24.95" y="34.45" width="12.55" height="23.42"/><rect class="cls-1" x="25.02" y="34.4" width="12.55" height="23.42"/><rect class="cls-1" x="25.1" y="34.35" width="12.55" height="23.42"/><rect class="cls-1" x="25.17" y="34.3" width="12.55" height="23.42"/><rect class="cls-1" x="25.25" y="34.25" width="12.55" height="23.42"/><rect class="cls-1" x="25.32" y="34.2" width="12.55" height="23.42"/><rect class="cls-1" x="25.4" y="34.15" width="12.55" height="23.42"/><rect class="cls-1" x="25.47" y="34.1" width="12.55" height="23.42"/><rect class="cls-1" x="25.55" y="34.05" width="12.55" height="23.42"/><rect class="cls-1" x="25.62" y="34" width="12.55" height="23.42"/><rect class="cls-1" x="25.7" y="33.95" width="12.55" height="23.42"/><rect class="cls-1" x="25.77" y="33.9" width="12.55" height="23.42"/><rect class="cls-1" x="25.85" y="33.85" width="12.55" height="23.42"/><rect class="cls-1" x="25.92" y="33.8" width="12.55" height="23.42"/><rect class="cls-1" x="26" y="33.75" width="12.55" height="23.42"/><rect class="cls-1" x="26.07" y="33.7" width="12.55" height="23.42"/><rect class="cls-1" x="26.15" y="33.65" width="12.55" height="23.42"/><rect class="cls-1" x="26.22" y="33.6" width="12.55" height="23.42"/><rect class="cls-1" x="26.3" y="33.55" width="12.55" height="23.42"/><rect class="cls-1" x="26.37" y="33.5" width="12.55" height="23.42"/><rect class="cls-1" x="26.45" y="33.45" width="12.55" height="23.42"/><rect class="cls-1" x="26.52" y="33.4" width="12.55" height="23.42"/><rect class="cls-1" x="26.6" y="33.35" width="12.55" height="23.42"/><rect class="cls-1" x="26.67" y="33.3" width="12.55" height="23.42"/><rect class="cls-1" x="26.75" y="33.25" width="12.55" height="23.42"/><rect class="cls-1" x="26.82" y="33.2" width="12.55" height="23.42"/><rect class="cls-1" x="26.9" y="33.15" width="12.55" height="23.42"/><rect class="cls-1" x="26.97" y="33.1" width="12.55" height="23.42"/><rect class="cls-1" x="27.05" y="33.05" width="12.55" height="23.42"/><rect class="cls-1" x="27.12" y="33" width="12.55" height="23.42"/><rect class="cls-1" x="27.2" y="32.95" width="12.55" height="23.42"/><rect class="cls-1" x="27.27" y="32.9" width="12.55" height="23.42"/><rect class="cls-1" x="27.35" y="32.85" width="12.55" height="23.42"/><rect class="cls-1" x="27.42" y="32.8" width="12.55" height="23.42"/><rect class="cls-1" x="27.5" y="32.75" width="12.55" height="23.42"/><rect class="cls-1" x="27.57" y="32.7" width="12.55" height="23.42"/><rect class="cls-1" x="27.65" y="32.65" width="12.55" height="23.42"/><rect class="cls-1" x="27.72" y="32.6" width="12.55" height="23.42"/><rect class="cls-1" x="27.8" y="32.55" width="12.55" height="23.42"/><rect class="cls-1" x="27.87" y="32.5" width="12.55" height="23.42"/><rect class="cls-1" x="27.95" y="32.45" width="12.55" height="23.42"/><rect class="cls-2" x="28.45" y="32.95" width="11.55" height="22.42"/><path class="cls-1" d="M39.5,33.45V54.87H29V33.45H39.5m1-1H28V55.87H40.5V32.45Z"/><rect class="cls-2" x="28.93" y="29.96" width="10.61" height="24.96"/></g></svg>