<svg xmlns="http://www.w3.org/2000/svg" viewBox="0 0 64 64"><defs><style>.cls-1{fill:#1d1d1b;}.cls-2{fill:#dfdd00;}</style></defs><g id="Arrow"><polygon class="cls-1" points="31.02 3.06 39.41 19.11 47.79 35.17 31.02 35.17 14.26 35.17 22.64 19.11 31.02 3.06"/><polygon class="cls-1" points="31.1 3 39.48 19.06 47.86 35.12 31.1 35.12 14.34 35.12 22.72 19.06 31.1 3"/><polygon class="cls-1" points="31.17 2.96 39.55 19.01 47.94 35.07 31.17 35.07 14.41 35.07 22.79 19.01 31.17 2.96"/><polygon class="cls-1" points="31.25 2.9 39.63 18.96 48.01 35.02 31.25 35.02 14.49 35.02 22.87 18.96 31.25 2.9"/><polygon class="cls-1" points="31.32 2.85 39.7 18.91 48.09 34.97 31.32 34.97 14.56 34.97 22.94 18.91 31.32 2.85"/><polygon class="cls-1" points="31.4 2.81 39.78 18.86 48.16 34.92 31.4 34.92 14.64 34.92 23.02 18.86 31.4 2.81"/><polygon class="cls-1" points="31.47 2.75 39.85 18.81 48.24 34.87 31.47 34.87 14.71 34.87 23.09 18.81 31.47 2.75"/><polygon class="cls-1" points="31.55 2.71 39.93 18.76 48.31 34.82 31.55 34.82 14.79 34.82 23.17 18.76 31.55 2.71"/><polygon class="cls-1" points="31.62 2.65 40.01 18.71 48.39 34.77 31.62 34.77 14.86 34.77 23.24 18.71 31.62 2.65"/><polygon class="cls-1" points="31.7 2.6 40.08 18.66 48.46 34.72 31.7 34.72 14.94 34.72 23.32 18.66 31.7 2.6"/><polygon class="cls-1" points="31.77 2.56 40.16 18.61 48.54 34.67 31.77 34.67 15.01 34.67 23.39 18.61 31.77 2.56"/><polygon class="cls-1" points="31.85 2.5 40.23 18.56 48.61 34.62 31.85 34.62 15.09 34.62 23.47 18.56 31.85 2.5"/><polygon class="cls-1" points="31.92 2.46 40.3 18.51 48.69 34.57 31.92 34.57 15.16 34.57 23.54 18.51 31.92 2.46"/><polygon class="cls-1" points="32 2.4 40.38 18.46 48.76 34.52 32 34.52 15.24 34.52 23.62 18.46 32 2.4"/><polygon class="cls-1" points="32.07 2.35 40.45 18.41 48.84 34.47 32.07 34.47 15.31 34.47 23.69 18.41 32.07 2.35"/><polygon class="cls-1" points="32.15 2.31 40.53 18.36 48.91 34.42 32.15 34.42 15.39 34.42 23.77 18.36 32.15 2.31"/><polygon class="cls-1" points="32.22 2.25 40.6 18.31 48.99 34.37 32.22 34.37 15.46 34.37 23.84 18.31 32.22 2.25"/><polygon class="cls-1" points="32.3 2.21 40.68 18.26 49.06 34.32 32.3 34.32 15.54 34.32 23.92 18.26 32.3 2.21"/><polygon class="cls-1" points="32.37 2.15 40.76 18.21 49.14 34.27 32.37 34.27 15.61 34.27 23.99 18.21 32.37 2.15"/><polygon class="cls-1" points="32.45 2.1 40.83 18.16 49.21 34.22 32.45 34.22 15.69 34.22 24.07 18.16 32.45 2.1"/><polygon class="cls-1" points="32.52 2.06 40.91 18.11 49.29 34.17 32.52 34.17 15.76 34.17 24.14 18.11 32.52 2.06"/><polygon class="cls-1" points="32.6 2 40.98 18.06 49.36 34.12 32.6 34.12 15.84 34.12 24.22 18.06 32.6 2"/><polygon class="cls-1" points="32.67 1.96 41.05 18.01 49.44 34.07 32.67 34.07 15.91 34.07 24.29 18.01 32.67 1.96"/><polygon class="cls-1" points="32.75 1.91 41.13 17.96 49.51 34.02 32.75 34.02 15.99 34.02 24.37 17.96 32.75 1.91"/><polygon class="cls-1" points="32.82 1.85 41.2 17.91 49.59 33.97 32.82 33.97 16.06 33.97 24.44 17.91 32.82 1.85"/><polygon class="cls-1" points="32.9 1.8 41.28 17.86 49.66 33.92 32.9 33.92 16.14 33.92 24.52 17.86 32.9 1.8"/><polygon class="cls-1" points="32.97 1.75 41.35 17.81 49.74 33.87 32.97 33.87 16.21 33.87 24.59 17.81 32.97 1.75"/><polygon class="cls-1" points="33.05 1.71 41.43 17.76 49.81 33.82 33.05 33.82 16.29 33.82 24.67 17.76 33.05 1.71"/><polygon class="cls-1" points="33.12 1.66 41.51 17.71 49.89 33.77 33.12 33.77 16.36 33.77 24.74 17.71 33.12 1.66"/><polygon class="cls-1" points="33.2 1.6 41.58 17.66 49.96 33.72 33.2 33.72 16.44 33.72 24.82 17.66 33.2 1.6"/><polygon class="cls-1" points="33.27 1.55 41.66 17.61 50.04 33.67 33.27 33.67 16.51 33.67 24.89 17.61 33.27 1.55"/><polygon class="cls-1" points="33.35 1.5 41.73 17.56 50.11 33.62 33.35 33.62 16.59 33.62 24.97 17.56 33.35 1.5"/><polygon class="cls-1" points="33.42 1.46 41.8 17.51 50.19 33.57 33.42 33.57 16.66 33.57 25.04 17.51 33.42 1.46"/><polygon class="cls-1" points="33.5 1.41 41.88 17.46 50.26 33.52 33.5 33.52 16.74 33.52 25.12 17.46 33.5 1.41"/><polygon class="cls-1" points="33.57 1.35 41.95 17.41 50.34 33.47 33.57 33.47 16.81 33.47 25.19 17.41 33.57 1.35"/><polygon class="cls-1" points="33.65 1.3 42.03 17.36 50.41 33.42 33.65 33.42 16.89 33.42 25.27 17.36 33.65 1.3"/><polygon class="cls-1" points="33.72 1.25 42.1 17.31 50.49 33.37 33.72 33.37 16.96 33.37 25.34 17.31 33.72 1.25"/><polygon class="cls-1" points="33.8 1.21 42.18 17.26 50.56 33.32 33.8 33.32 17.04 33.32 25.42 17.26 33.8 1.21"/><polygon class="cls-1" points="33.87 1.16 42.26 17.21 50.64 33.27 33.87 33.27 17.11 33.27 25.49 17.21 33.87 1.16"/><polygon class="cls-1" points="33.95 1.1 42.33 17.16 50.71 33.22 33.95 33.22 17.19 33.22 25.57 17.16 33.95 1.1"/><polygon class="cls-1" points="34.02 1.05 42.41 17.11 50.79 33.17 34.02 33.17 17.26 33.17 25.64 17.11 34.02 1.05"/><polygon class="cls-1" points="34.1 1 42.48 17.06 50.86 33.12 34.1 33.12 17.34 33.12 25.72 17.06 34.1 1"/><polygon class="cls-1" points="34.17 0.95 42.55 17.01 50.94 33.07 34.17 33.07 17.41 33.07 25.79 17.01 34.17 0.95"/><polygon class="cls-1" points="34.25 0.91 42.63 16.96 51.01 33.02 34.25 33.02 17.49 33.02 25.87 16.96 34.25 0.91"/><polygon class="cls-1" points="34.32 0.85 42.7 16.91 51.09 32.97 34.32 32.97 17.56 32.97 25.94 16.91 34.32 0.85"/><polygon class="cls-1" points="34.4 0.81 42.78 16.86 51.16 32.92 34.4 32.92 17.64 32.92 26.02 16.86 34.4 0.81"/><polygon class="cls-1" points="34.47 0.76 42.85 16.81 51.24 32.87 34.47 32.87 17.71 32.87 26.09 16.81 34.47 0.76"/><polygon class="cls-1" points="34.55 0.7 42.93 16.76 51.31 32.82 34.55 32.82 17.79 32.82 26.17 16.76 34.55 0.7"/><polygon class="cls-1" points="34.62 0.66 43.01 16.71 51.39 32.77 34.62 32.77 17.86 32.77 26.24 16.71 34.62 0.66"/><polygon class="cls-1" points="34.7 0.6 43.08 16.66 51.46 32.72 34.7 32.72 17.94 32.72 26.32 16.66 34.7 0.6"/><polygon class="cls-1" points="34.77 0.56 43.16 16.61 51.54 32.67 34.77 32.67 18.01 32.67 26.39 16.61 34.77 0.56"/><polygon class="cls-2" points="18.84 32.17 34.77 1.64 50.71 32.17 18.84 32.17"/><path class="cls-1" d="M34.77,2.72l7.5,14.35,7.62,14.6H19.66l7.62-14.6L34.77,2.72m0-2.17L26.39,16.61,18,32.67H51.54L43.16,16.61,34.77.55Z"/><rect class="cls-1" x="25.48" y="34.17" width="11.1" height="28.52"/><rect class="cls-1" x="25.55" y="34.12" width="11.1" height="28.52"/><rect class="cls-1" x="25.63" y="34.07" width="11.1" height="28.52"/><rect class="cls-1" x="25.7" y="34.02" width="11.1" height="28.52"/><rect class="cls-1" x="25.78" y="33.97" width="11.1" height="28.52"/><rect class="cls-1" x="25.85" y="33.92" width="11.1" height="28.52"/><rect class="cls-1" x="25.93" y="33.87" width="11.1" height="28.52"/><rect class="cls-1" x="26" y="33.82" width="11.1" height="28.52"/><rect class="cls-1" x="26.08" y="33.77" width="11.1" height="28.52"/><rect class="cls-1" x="26.15" y="33.72" width="11.1" height="28.52"/><rect class="cls-1" x="26.23" y="33.67" width="11.1" height="28.52"/><rect class="cls-1" x="26.3" y="33.62" width="11.1" height="28.52"/><rect class="cls-1" x="26.38" y="33.57" width="11.1" height="28.52"/><rect class="cls-1" x="26.45" y="33.52" width="11.1" height="28.52"/><rect class="cls-1" x="26.53" y="33.47" width="11.1" height="28.52"/><rect class="cls-1" x="26.6" y="33.42" width="11.1" height="28.52"/><rect class="cls-1" x="26.68" y="33.37" width="11.1" height="28.52"/><rect class="cls-1" x="26.75" y="33.32" width="11.1" height="28.52"/><rect class="cls-1" x="26.83" y="33.27" width="11.1" height="28.52"/><rect class="cls-1" x="26.9" y="33.22" width="11.1" height="28.52"/><rect class="cls-1" x="26.98" y="33.17" width="11.1" height="28.52"/><rect class="cls-1" x="27.05" y="33.12" width="11.1" height="28.52"/><rect class="cls-1" x="27.13" y="33.07" width="11.1" height="28.52"/><rect class="cls-1" x="27.2" y="33.02" width="11.1" height="28.52"/><rect class="cls-1" x="27.28" y="32.97" width="11.1" height="28.52"/><rect class="cls-1" x="27.35" y="32.92" width="11.1" height="28.52"/><rect class="cls-1" x="27.43" y="32.87" width="11.1" height="28.52"/><rect class="cls-1" x="27.5" y="32.82" width="11.1" height="28.52"/><rect class="cls-1" x="27.58" y="32.77" width="11.1" height="28.52"/><rect class="cls-1" x="27.65" y="32.72" width="11.1" height="28.52"/><rect class="cls-1" x="27.73" y="32.67" width="11.1" height="28.52"/><rect class="cls-1" x="27.8" y="32.62" width="11.1" height="28.52"/><rect class="cls-1" x="27.88" y="32.57" width="11.1" height="28.52"/><rect class="cls-1" x="27.95" y="32.52" width="11.1" height="28.52"/><rect class="cls-1" x="28.03" y="32.47" width="11.1" height="28.52"/><rect class="cls-1" x="28.1" y="32.42" width="11.1" height="28.52"/><rect class="cls-1" x="28.18" y="32.37" width="11.1" height="28.52"/><rect class="cls-1" x="28.25" y="32.32" width="11.1" height="28.52"/><rect class="cls-1" x="28.33" y="32.27" width="11.1" height="28.52"/><rect class="cls-1" x="28.4" y="32.22" width="11.1" height="28.52"/><rect class="cls-1" x="28.48" y="32.17" width="11.1" height="28.52"/><rect class="cls-1" x="28.55" y="32.12" width="11.1" height="28.52"/><rect class="cls-1" x="28.63" y="32.07" width="11.1" height="28.52"/><rect class="cls-1" x="28.7" y="32.02" width="11.1" height="28.52"/><rect class="cls-1" x="28.78" y="31.97" width="11.1" height="28.52"/><rect class="cls-1" x="28.85" y="31.92" width="11.1" height="28.52"/><rect class="cls-1" x="28.93" y="31.87" width="11.1" height="28.52"/><rect class="cls-1" x="29" y="31.82" width="11.1" height="28.52"/><rect class="cls-1" x="29.08" y="31.77" width="11.1" height="28.52"/><rect class="cls-1" x="29.15" y="31.72" width="11.1" height="28.52"/><rect class="cls-1" x="29.23" y="31.67" width="11.1" height="28.52"/><rect class="cls-2" x="29.73" y="32.17" width="10.1" height="27.52"/><path class="cls-1" d="M39.32,32.67V59.19H30.23V32.67h9.09m1-1H29.23V60.19H40.32V31.67Z"/><rect class="cls-2" x="30.22" y="30.53" width="9.1" height="28.92"/></g></svg>