<svg xmlns="http://www.w3.org/2000/svg" viewBox="0 0 64 64"><defs><style>.cls-1{fill:#1d1d1b;}.cls-2{fill:#dfdd00;}</style></defs><g id="Arrow2"><polygon class="cls-1" points="56.17 32.46 42.98 41.94 29.8 51.43 29.8 32.46 29.8 13.5 42.98 22.98 56.17 32.46"/><polygon class="cls-1" points="56.24 32.41 43.06 41.89 29.87 51.38 29.87 32.41 29.87 13.45 43.06 22.93 56.24 32.41"/><polygon class="cls-1" points="56.32 32.36 43.13 41.84 29.95 51.33 29.95 32.36 29.95 13.4 43.13 22.88 56.32 32.36"/><polygon class="cls-1" points="56.39 32.31 43.21 41.79 30.02 51.28 30.02 32.31 30.02 13.35 43.21 22.83 56.39 32.31"/><polygon class="cls-1" points="56.47 32.26 43.28 41.74 30.1 51.23 30.1 32.26 30.1 13.3 43.28 22.78 56.47 32.26"/><polygon class="cls-1" points="56.54 32.21 43.36 41.69 30.17 51.18 30.17 32.21 30.17 13.25 43.36 22.73 56.54 32.21"/><polygon class="cls-1" points="56.62 32.16 43.43 41.64 30.25 51.13 30.25 32.16 30.25 13.2 43.43 22.68 56.62 32.16"/><polygon class="cls-1" points="56.69 32.11 43.51 41.59 30.32 51.08 30.32 32.11 30.32 13.15 43.51 22.63 56.69 32.11"/><polygon class="cls-1" points="56.77 32.06 43.58 41.54 30.4 51.03 30.4 32.06 30.4 13.1 43.58 22.58 56.77 32.06"/><polygon class="cls-1" points="56.84 32.01 43.66 41.49 30.47 50.98 30.47 32.01 30.47 13.05 43.66 22.53 56.84 32.01"/><polygon class="cls-1" points="56.92 31.96 43.73 41.44 30.55 50.93 30.55 31.96 30.55 13 43.73 22.48 56.92 31.96"/><polygon class="cls-1" points="56.99 31.91 43.81 41.39 30.62 50.88 30.62 31.91 30.62 12.95 43.81 22.43 56.99 31.91"/><polygon class="cls-1" points="57.07 31.86 43.88 41.34 30.7 50.83 30.7 31.86 30.7 12.9 43.88 22.38 57.07 31.86"/><polygon class="cls-1" points="57.14 31.81 43.96 41.29 30.77 50.78 30.77 31.81 30.77 12.85 43.96 22.33 57.14 31.81"/><polygon class="cls-1" points="57.22 31.76 44.03 41.24 30.85 50.73 30.85 31.76 30.85 12.8 44.03 22.28 57.22 31.76"/><polygon class="cls-1" points="57.29 31.71 44.11 41.19 30.92 50.68 30.92 31.71 30.92 12.75 44.11 22.23 57.29 31.71"/><polygon class="cls-1" points="57.37 31.66 44.18 41.14 31 50.63 31 31.66 31 12.7 44.18 22.18 57.37 31.66"/><polygon class="cls-1" points="57.44 31.61 44.26 41.09 31.07 50.58 31.07 31.61 31.07 12.65 44.26 22.13 57.44 31.61"/><polygon class="cls-1" points="57.52 31.56 44.33 41.04 31.15 50.53 31.15 31.56 31.15 12.6 44.33 22.08 57.52 31.56"/><polygon class="cls-1" points="57.59 31.51 44.41 40.99 31.22 50.48 31.22 31.51 31.22 12.55 44.41 22.03 57.59 31.51"/><polygon class="cls-1" points="57.67 31.46 44.48 40.94 31.3 50.43 31.3 31.46 31.3 12.5 44.48 21.98 57.67 31.46"/><polygon class="cls-1" points="57.74 31.41 44.56 40.89 31.37 50.38 31.37 31.41 31.37 12.45 44.56 21.93 57.74 31.41"/><polygon class="cls-1" points="57.82 31.36 44.63 40.84 31.45 50.33 31.45 31.36 31.45 12.4 44.63 21.88 57.82 31.36"/><polygon class="cls-1" points="57.89 31.31 44.71 40.79 31.52 50.28 31.52 31.31 31.52 12.35 44.71 21.83 57.89 31.31"/><polygon class="cls-1" points="57.97 31.26 44.78 40.74 31.6 50.23 31.6 31.26 31.6 12.3 44.78 21.78 57.97 31.26"/><polygon class="cls-1" points="58.04 31.21 44.86 40.69 31.67 50.18 31.67 31.21 31.67 12.25 44.86 21.73 58.04 31.21"/><polygon class="cls-1" points="58.12 31.16 44.93 40.64 31.75 50.13 31.75 31.16 31.75 12.2 44.93 21.68 58.12 31.16"/><polygon class="cls-1" points="58.19 31.11 45.01 40.59 31.82 50.08 31.82 31.11 31.82 12.15 45.01 21.63 58.19 31.11"/><polygon class="cls-1" points="58.27 31.06 45.08 40.54 31.9 50.03 31.9 31.06 31.9 12.1 45.08 21.58 58.27 31.06"/><polygon class="cls-1" points="58.34 31.01 45.16 40.49 31.97 49.98 31.97 31.01 31.97 12.05 45.16 21.53 58.34 31.01"/><polygon class="cls-1" points="58.42 30.96 45.23 40.44 32.05 49.93 32.05 30.96 32.05 12 45.23 21.48 58.42 30.96"/><polygon class="cls-1" points="58.49 30.91 45.31 40.39 32.12 49.88 32.12 30.91 32.12 11.95 45.31 21.43 58.49 30.91"/><polygon class="cls-1" points="58.57 30.86 45.38 40.34 32.2 49.83 32.2 30.86 32.2 11.9 45.38 21.38 58.57 30.86"/><polygon class="cls-1" points="58.64 30.81 45.46 40.29 32.27 49.78 32.27 30.81 32.27 11.85 45.46 21.33 58.64 30.81"/><polygon class="cls-1" points="58.72 30.76 45.53 40.24 32.35 49.73 32.35 30.76 32.35 11.8 45.53 21.28 58.72 30.76"/><polygon class="cls-1" points="58.79 30.71 45.61 40.19 32.42 49.68 32.42 30.71 32.42 11.75 45.61 21.23 58.79 30.71"/><polygon class="cls-1" points="58.87 30.66 45.68 40.14 32.5 49.63 32.5 30.66 32.5 11.7 45.68 21.18 58.87 30.66"/><polygon class="cls-1" points="58.94 30.61 45.76 40.09 32.57 49.58 32.57 30.61 32.57 11.65 45.76 21.13 58.94 30.61"/><polygon class="cls-1" points="59.02 30.56 45.83 40.04 32.65 49.53 32.65 30.56 32.65 11.6 45.83 21.08 59.02 30.56"/><polygon class="cls-1" points="59.09 30.51 45.91 39.99 32.72 49.48 32.72 30.51 32.72 11.55 45.91 21.03 59.09 30.51"/><polygon class="cls-1" points="59.17 30.46 45.98 39.94 32.8 49.43 32.8 30.46 32.8 11.5 45.98 20.98 59.17 30.46"/><polygon class="cls-1" points="59.24 30.41 46.06 39.89 32.87 49.38 32.87 30.41 32.87 11.45 46.06 20.93 59.24 30.41"/><polygon class="cls-1" points="59.32 30.36 46.13 39.84 32.95 49.33 32.95 30.36 32.95 11.4 46.13 20.88 59.32 30.36"/><polygon class="cls-1" points="59.39 30.31 46.21 39.79 33.02 49.28 33.02 30.31 33.02 11.35 46.21 20.83 59.39 30.31"/><polygon class="cls-1" points="59.47 30.26 46.28 39.74 33.1 49.23 33.1 30.26 33.1 11.3 46.28 20.78 59.47 30.26"/><polygon class="cls-1" points="59.54 30.21 46.36 39.69 33.17 49.18 33.17 30.21 33.17 11.25 46.36 20.73 59.54 30.21"/><polygon class="cls-1" points="59.62 30.16 46.43 39.64 33.25 49.13 33.25 30.16 33.25 11.2 46.43 20.68 59.62 30.16"/><polygon class="cls-1" points="59.69 30.11 46.51 39.59 33.32 49.08 33.32 30.11 33.32 11.15 46.51 20.63 59.69 30.11"/><polygon class="cls-1" points="59.77 30.06 46.58 39.54 33.4 49.03 33.4 30.06 33.4 11.1 46.58 20.58 59.77 30.06"/><polygon class="cls-1" points="59.84 30.01 46.66 39.49 33.47 48.98 33.47 30.01 33.47 11.05 46.66 20.53 59.84 30.01"/><polygon class="cls-1" points="59.92 29.96 46.73 39.44 33.55 48.93 33.55 29.96 33.55 11 46.73 20.48 59.92 29.96"/><polygon class="cls-2" points="34.05 11.97 59.06 29.96 34.05 47.95 34.05 11.97"/><path class="cls-1" d="M34.55,13l11.6,8.34L58.21,30,46.15,38.63,34.55,47V13m-1-1.95V48.93l13.18-9.49L59.92,30,46.73,20.48,33.55,11Z"/><rect class="cls-1" x="7.19" y="26.19" width="23.42" height="12.55"/><rect class="cls-1" x="7.27" y="26.14" width="23.42" height="12.55"/><rect class="cls-1" x="7.34" y="26.09" width="23.42" height="12.55"/><rect class="cls-1" x="7.42" y="26.04" width="23.42" height="12.55"/><rect class="cls-1" x="7.49" y="25.99" width="23.42" height="12.55"/><rect class="cls-1" x="7.57" y="25.94" width="23.42" height="12.55"/><rect class="cls-1" x="7.64" y="25.89" width="23.42" height="12.55"/><rect class="cls-1" x="7.72" y="25.84" width="23.42" height="12.55"/><rect class="cls-1" x="7.79" y="25.79" width="23.42" height="12.55"/><rect class="cls-1" x="7.87" y="25.74" width="23.42" height="12.55"/><rect class="cls-1" x="7.94" y="25.69" width="23.42" height="12.55"/><rect class="cls-1" x="8.02" y="25.64" width="23.42" height="12.55"/><rect class="cls-1" x="8.09" y="25.59" width="23.42" height="12.55"/><rect class="cls-1" x="8.17" y="25.54" width="23.42" height="12.55"/><rect class="cls-1" x="8.24" y="25.49" width="23.42" height="12.55"/><rect class="cls-1" x="8.32" y="25.44" width="23.42" height="12.55"/><rect class="cls-1" x="8.39" y="25.39" width="23.42" height="12.55"/><rect class="cls-1" x="8.47" y="25.34" width="23.42" height="12.55"/><rect class="cls-1" x="8.54" y="25.29" width="23.42" height="12.55"/><rect class="cls-1" x="8.62" y="25.24" width="23.42" height="12.55"/><rect class="cls-1" x="8.69" y="25.19" width="23.42" height="12.55"/><rect class="cls-1" x="8.77" y="25.14" width="23.42" height="12.55"/><rect class="cls-1" x="8.84" y="25.09" width="23.42" height="12.55"/><rect class="cls-1" x="8.92" y="25.04" width="23.42" height="12.55"/><rect class="cls-1" x="8.99" y="24.99" width="23.42" height="12.55"/><rect class="cls-1" x="9.07" y="24.94" width="23.42" height="12.55"/><rect class="cls-1" x="9.14" y="24.89" width="23.42" height="12.55"/><rect class="cls-1" x="9.22" y="24.84" width="23.42" height="12.55"/><rect class="cls-1" x="9.29" y="24.79" width="23.42" height="12.55"/><rect class="cls-1" x="9.37" y="24.74" width="23.42" height="12.55"/><rect class="cls-1" x="9.44" y="24.69" width="23.42" height="12.55"/><rect class="cls-1" x="9.52" y="24.64" width="23.42" height="12.55"/><rect class="cls-1" x="9.59" y="24.59" width="23.42" height="12.55"/><rect class="cls-1" x="9.67" y="24.54" width="23.42" height="12.55"/><rect class="cls-1" x="9.74" y="24.49" width="23.42" height="12.55"/><rect class="cls-1" x="9.82" y="24.44" width="23.42" height="12.55"/><rect class="cls-1" x="9.89" y="24.39" width="23.42" height="12.55"/><rect class="cls-1" x="9.97" y="24.34" width="23.42" height="12.55"/><rect class="cls-1" x="10.04" y="24.29" width="23.42" height="12.55"/><rect class="cls-1" x="10.12" y="24.24" width="23.42" height="12.55"/><rect class="cls-1" x="10.19" y="24.19" width="23.42" height="12.55"/><rect class="cls-1" x="10.27" y="24.14" width="23.42" height="12.55"/><rect class="cls-1" x="10.34" y="24.09" width="23.42" height="12.55"/><rect class="cls-1" x="10.42" y="24.04" width="23.42" height="12.55"/><rect class="cls-1" x="10.49" y="23.99" width="23.42" height="12.55"/><rect class="cls-1" x="10.57" y="23.94" width="23.42" height="12.55"/><rect class="cls-1" x="10.64" y="23.89" width="23.42" height="12.55"/><rect class="cls-1" x="10.72" y="23.84" width="23.42" height="12.55"/><rect class="cls-1" x="10.79" y="23.79" width="23.42" height="12.55"/><rect class="cls-1" x="10.87" y="23.74" width="23.42" height="12.55"/><rect class="cls-1" x="10.94" y="23.69" width="23.42" height="12.55"/><rect class="cls-2" x="11.44" y="24.19" width="22.42" height="11.55"/><path class="cls-1" d="M33.37,24.69V35.24H11.94V24.69H33.37m1-1H10.94V36.24H34.37V23.69Z"/><rect class="cls-2" x="11.89" y="24.67" width="24.96" height="10.61"/></g></svg>