<svg xmlns="http://www.w3.org/2000/svg" viewBox="0 0 64 64"><defs><style>.cls-1{fill:#fff;stroke:#1d1d1b;stroke-linecap:round;stroke-linejoin:round;stroke-width:2px;}</style></defs><g id="Badminton"><polygon class="cls-1" points="36.66 6.94 31.28 9.29 19.26 34.77 21.97 37.07 37.41 11.65 36.66 6.94"/><polygon class="cls-1" points="56.85 23.94 55.45 29.64 32.39 45.82 29.66 43.55 52.08 24 56.85 23.94"/><polygon class="cls-1" points="43.36 7.44 37.41 11.65 21.97 37.07 24.6 39.29 42.4 13.69 43.36 7.44"/><polygon class="cls-1" points="55.22 17.42 52.08 24 29.66 43.55 27.02 41.33 49.23 19.43 55.22 17.42"/><polygon class="cls-1" points="50.63 10.74 42.4 13.69 24.6 39.29 27.02 41.33 49.23 19.43 50.63 10.74"/><polygon class="cls-1" points="28.75 50.14 15.59 39.12 19.26 34.77 32.39 45.82 28.75 50.14"/><path class="cls-1" d="M28.75,50.14c-1.26,1.5-6.47,7.69-13,2.15-7.09-6-1.38-11.68-.13-13.17"/></g></svg>