<svg id="Fusball" xmlns="http://www.w3.org/2000/svg" viewBox="0 0 64 64"><defs><style>.cls-1{fill:#fff;}.cls-1,.cls-2,.cls-3{stroke:#1d1d1b;stroke-width:2px;}.cls-1,.cls-2{stroke-miterlimit:10;}.cls-2,.cls-3{fill:none;stroke-linecap:square;}.cls-3{stroke-linejoin:round;}</style></defs><circle class="cls-1" cx="32.01" cy="32" r="30.18"/><polygon points="32 20.84 20.26 29.36 24.75 43.16 39.25 43.16 43.74 29.36 32 20.84"/><path d="M21.24,50.44,8.11,51.82A31.92,31.92,0,0,0,26.64,62.56Z"/><path d="M11.22,27.77,5.85,15.7A32,32,0,0,0,1.37,36.64Z"/><path d="M32.1,10.72,42.78,3a32,32,0,0,0-21.41,0Z"/><path d="M52.74,27.91l9.94,8.71A32,32,0,0,0,58,15.72Z"/><path d="M44.14,49.61,39.73,62.06A32,32,0,0,0,57.4,50Z"/><line class="cls-2" x1="32.03" y1="10.13" x2="32" y2="20.84"/><line class="cls-3" x1="24.75" y1="43.16" x2="20.76" y2="51.34"/><line class="cls-2" x1="39.25" y1="43.16" x2="44.43" y2="49.9"/><line class="cls-2" x1="52.74" y1="27.91" x2="43.74" y2="29.36"/><line class="cls-2" x1="10.63" y1="27.73" x2="20.26" y2="29.36"/></svg>