<svg xmlns="http://www.w3.org/2000/svg" viewBox="0 0 64 64"><defs><style>.cls-1{fill:#ffde00;}.cls-1,.cls-2,.cls-3,.cls-4{stroke:#1d1d1b;stroke-width:2px;}.cls-1,.cls-3{stroke-miterlimit:10;}.cls-2{fill:#be1622;}.cls-2,.cls-4{stroke-linecap:round;stroke-linejoin:round;}.cls-3{fill:none;}.cls-4{fill:#e94e1b;}</style></defs><g id="Handball"><circle class="cls-1" cx="32" cy="32.2" r="25.4"/><polygon class="cls-2" points="32.23 23.61 41.05 29.91 49.78 28.12 48.73 18.73 40.65 12.93 33.22 14.49 32.23 23.61"/><polygon class="cls-2" points="37.69 40.39 26.78 40.39 21.77 48.17 27.22 53.94 37.17 53.83 42.23 48.17 37.69 40.39"/><polygon class="cls-2" points="40.98 30.04 37.62 40.42 42.23 48.17 50.65 44.18 53.61 34.68 49.78 28.12 40.98 30.04"/><polygon class="cls-2" points="23.54 30 32.3 23.64 33.22 14.49 24.12 12.82 16.06 18.64 15.19 26.19 23.54 30"/><polygon class="cls-2" points="26.79 40.42 23.54 30 15.32 26.14 10.66 34.66 13.84 44.08 21.77 48.17 26.79 40.42"/><line class="cls-3" x1="24.12" y1="12.82" x2="23.74" y2="8.7"/><line class="cls-3" x1="16.06" y1="18.64" x2="11.6" y2="17.06"/><line class="cls-3" x1="10.66" y1="34.66" x2="6.6" y2="34.88"/><line class="cls-3" x1="13.84" y1="44.08" x2="11.12" y2="46.67"/><line class="cls-3" x1="27.22" y1="53.94" x2="24.91" y2="56.59"/><line class="cls-3" x1="37.17" y1="53.83" x2="38.18" y2="56.84"/><line class="cls-3" x1="50.65" y1="44.18" x2="53.12" y2="46.32"/><line class="cls-3" x1="53.61" y1="34.68" x2="57.3" y2="34.43"/><line class="cls-3" x1="48.72" y1="18.73" x2="52.11" y2="16.68"/><line class="cls-3" x1="40.65" y1="12.93" x2="41.76" y2="8.74"/><polygon class="cls-4" points="32.23 23.61 23.41 30.02 26.78 40.39 37.69 40.39 41.06 30.02 32.23 23.61"/></g></svg>