<svg xmlns="http://www.w3.org/2000/svg" viewBox="0 0 302.26 52.18"><defs><style>.cls-1{fill:#1d1d1b;}.cls-2{fill:#dfdd00;}</style></defs><g id="Stars"><polygon class="cls-1" points="3.75 19.52 23.31 19.52 29.38 0.55 35.45 19.52 55.01 19.52 39.2 31.11 45.2 49.68 29.34 38.35 13.59 49.68 19.58 31.2 3.75 19.52"/><polygon class="cls-1" points="3.67 19.57 23.23 19.57 29.3 0.6 35.38 19.57 54.93 19.57 39.12 31.16 45.13 49.73 29.27 38.4 13.52 49.73 19.5 31.25 3.67 19.57"/><polygon class="cls-1" points="3.6 19.62 23.16 19.62 29.23 0.65 35.3 19.62 54.86 19.62 39.05 31.21 45.05 49.78 29.19 38.45 13.44 49.78 19.43 31.3 3.6 19.62"/><polygon class="cls-1" points="3.52 19.67 23.08 19.67 29.16 0.7 35.23 19.67 54.78 19.67 38.97 31.26 44.98 49.83 29.12 38.5 13.37 49.83 19.35 31.35 3.52 19.67"/><polygon class="cls-1" points="3.45 19.72 23.01 19.72 29.08 0.75 35.15 19.72 54.71 19.72 38.9 31.31 44.9 49.88 29.04 38.55 13.29 49.88 19.28 31.4 3.45 19.72"/><polygon class="cls-1" points="3.38 19.77 22.93 19.77 29 0.8 35.08 19.77 54.63 19.77 38.82 31.36 44.83 49.93 28.97 38.6 13.22 49.93 19.2 31.45 3.38 19.77"/><polygon class="cls-1" points="3.3 19.82 22.86 19.82 28.93 0.85 35 19.82 54.56 19.82 38.74 31.41 44.75 49.98 28.89 38.65 13.14 49.98 19.13 31.5 3.3 19.82"/><polygon class="cls-1" points="3.23 19.87 22.78 19.87 28.86 0.9 34.93 19.87 54.48 19.87 38.67 31.46 44.68 50.03 28.82 38.7 13.07 50.03 19.05 31.55 3.23 19.87"/><polygon class="cls-1" points="3.15 19.92 22.71 19.92 28.78 0.95 34.85 19.92 54.41 19.92 38.59 31.51 44.6 50.08 28.74 38.75 12.99 50.08 18.98 31.6 3.15 19.92"/><polygon class="cls-1" points="3.08 19.97 22.63 19.97 28.7 1 34.78 19.97 54.33 19.97 38.52 31.56 44.53 50.13 28.67 38.8 12.92 50.13 18.9 31.65 3.08 19.97"/><polygon class="cls-1" points="3 20.02 22.56 20.02 28.63 1.05 34.7 20.02 54.26 20.02 38.45 31.61 44.45 50.18 28.59 38.85 12.84 50.18 18.83 31.7 3 20.02"/><polygon class="cls-1" points="2.92 20.07 22.48 20.07 28.55 1.1 34.63 20.07 54.18 20.07 38.37 31.66 44.38 50.23 28.52 38.9 12.77 50.23 18.75 31.75 2.92 20.07"/><polygon class="cls-1" points="2.85 20.12 22.41 20.12 28.48 1.15 34.55 20.12 54.11 20.12 38.3 31.71 44.3 50.28 28.44 38.95 12.69 50.28 18.68 31.8 2.85 20.12"/><polygon class="cls-1" points="2.77 20.17 22.33 20.17 28.41 1.2 34.48 20.17 54.03 20.17 38.22 31.76 44.23 50.33 28.37 39 12.62 50.33 18.6 31.85 2.77 20.17"/><polygon class="cls-1" points="2.7 20.22 22.26 20.22 28.33 1.25 34.4 20.22 53.96 20.22 38.15 31.81 44.15 50.38 28.29 39.05 12.54 50.38 18.53 31.9 2.7 20.22"/><polygon class="cls-1" points="2.63 20.27 22.18 20.27 28.25 1.3 34.33 20.27 53.88 20.27 38.07 31.86 44.08 50.43 28.22 39.1 12.47 50.43 18.45 31.95 2.63 20.27"/><polygon class="cls-1" points="2.55 20.32 22.11 20.32 28.18 1.35 34.25 20.32 53.81 20.32 37.99 31.91 44 50.48 28.14 39.15 12.39 50.48 18.38 32 2.55 20.32"/><polygon class="cls-1" points="2.48 20.37 22.03 20.37 28.11 1.4 34.18 20.37 53.73 20.37 37.92 31.96 43.93 50.53 28.07 39.2 12.32 50.53 18.3 32.05 2.48 20.37"/><polygon class="cls-1" points="2.4 20.42 21.96 20.42 28.03 1.45 34.1 20.42 53.66 20.42 37.84 32.01 43.85 50.58 27.99 39.25 12.24 50.58 18.23 32.1 2.4 20.42"/><polygon class="cls-1" points="2.33 20.47 21.88 20.47 27.95 1.5 34.03 20.47 53.58 20.47 37.77 32.06 43.78 50.63 27.92 39.3 12.17 50.63 18.15 32.15 2.33 20.47"/><polygon class="cls-1" points="2.25 20.52 21.81 20.52 27.88 1.55 33.95 20.52 53.51 20.52 37.7 32.11 43.7 50.68 27.84 39.35 12.09 50.68 18.08 32.2 2.25 20.52"/><polygon class="cls-1" points="2.17 20.57 21.73 20.57 27.8 1.6 33.88 20.57 53.43 20.57 37.62 32.16 43.63 50.73 27.77 39.4 12.02 50.73 18 32.25 2.17 20.57"/><polygon class="cls-1" points="2.1 20.62 21.66 20.62 27.73 1.65 33.8 20.62 53.36 20.62 37.55 32.21 43.55 50.78 27.69 39.45 11.94 50.78 17.93 32.3 2.1 20.62"/><polygon class="cls-1" points="2.02 20.67 21.58 20.67 27.66 1.7 33.73 20.67 53.28 20.67 37.47 32.26 43.48 50.83 27.62 39.5 11.87 50.83 17.85 32.35 2.02 20.67"/><polygon class="cls-1" points="1.95 20.72 21.51 20.72 27.58 1.75 33.65 20.72 53.21 20.72 37.4 32.31 43.4 50.88 27.54 39.55 11.79 50.88 17.78 32.4 1.95 20.72"/><polygon class="cls-1" points="1.88 20.77 21.43 20.77 27.5 1.8 33.58 20.77 53.13 20.77 37.32 32.36 43.33 50.93 27.47 39.6 11.72 50.93 17.7 32.45 1.88 20.77"/><polygon class="cls-1" points="1.8 20.82 21.36 20.82 27.43 1.85 33.5 20.82 53.06 20.82 37.24 32.41 43.25 50.98 27.39 39.65 11.64 50.98 17.63 32.5 1.8 20.82"/><polygon class="cls-1" points="1.73 20.87 21.28 20.87 27.36 1.9 33.43 20.87 52.98 20.87 37.17 32.46 43.18 51.03 27.32 39.7 11.57 51.03 17.55 32.55 1.73 20.87"/><polygon class="cls-1" points="1.65 20.92 21.21 20.92 27.28 1.95 33.35 20.92 52.91 20.92 37.09 32.51 43.1 51.08 27.24 39.75 11.49 51.08 17.48 32.6 1.65 20.92"/><polygon class="cls-1" points="1.57 20.97 21.13 20.97 27.2 2 33.28 20.97 52.83 20.97 37.02 32.56 43.03 51.13 27.17 39.8 11.42 51.13 17.4 32.65 1.57 20.97"/><polygon class="cls-1" points="1.5 21.02 21.06 21.02 27.13 2.05 33.2 21.02 52.76 21.02 36.95 32.61 42.95 51.18 27.09 39.85 11.34 51.18 17.33 32.7 1.5 21.02"/><polygon class="cls-1" points="1.43 21.07 20.98 21.07 27.05 2.1 33.13 21.07 52.68 21.07 36.87 32.66 42.88 51.23 27.02 39.9 11.27 51.23 17.25 32.75 1.43 21.07"/><polygon class="cls-1" points="1.35 21.12 20.91 21.12 26.98 2.15 33.05 21.12 52.61 21.12 36.8 32.71 42.8 51.28 26.94 39.95 11.19 51.28 17.18 32.8 1.35 21.12"/><polygon class="cls-1" points="1.27 21.17 20.83 21.17 26.91 2.2 32.98 21.17 52.53 21.17 36.72 32.76 42.73 51.33 26.87 40 11.12 51.33 17.1 32.85 1.27 21.17"/><polygon class="cls-1" points="1.2 21.22 20.76 21.22 26.83 2.25 32.9 21.22 52.46 21.22 36.65 32.81 42.65 51.38 26.79 40.05 11.04 51.38 17.03 32.9 1.2 21.22"/><polygon class="cls-1" points="1.13 21.27 20.68 21.27 26.75 2.3 32.83 21.27 52.38 21.27 36.57 32.86 42.58 51.43 26.72 40.1 10.97 51.43 16.95 32.95 1.13 21.27"/><polygon class="cls-1" points="1.05 21.32 20.61 21.32 26.68 2.35 32.75 21.32 52.31 21.32 36.49 32.91 42.5 51.48 26.64 40.15 10.89 51.48 16.88 33 1.05 21.32"/><polygon class="cls-1" points="0.97 21.37 20.53 21.37 26.61 2.4 32.68 21.37 52.23 21.37 36.42 32.96 42.43 51.53 26.57 40.2 10.82 51.53 16.8 33.05 0.97 21.37"/><polygon class="cls-1" points="0.9 21.42 20.46 21.42 26.53 2.45 32.6 21.42 52.16 21.42 36.34 33.01 42.35 51.58 26.49 40.25 10.74 51.58 16.73 33.1 0.9 21.42"/><polygon class="cls-1" points="0.82 21.47 20.38 21.47 26.45 2.5 32.53 21.47 52.08 21.47 36.27 33.06 42.28 51.63 26.42 40.3 10.67 51.63 16.65 33.15 0.82 21.47"/><polygon class="cls-1" points="0.75 21.52 20.31 21.52 26.38 2.55 32.45 21.52 52.01 21.52 36.2 33.11 42.2 51.68 26.34 40.35 10.59 51.68 16.58 33.2 0.75 21.52"/><polygon class="cls-1" points="0.68 21.57 20.23 21.57 26.3 2.6 32.38 21.57 51.93 21.57 36.12 33.16 42.13 51.73 26.27 40.4 10.52 51.73 16.5 33.25 0.68 21.57"/><polygon class="cls-1" points="0.6 21.62 20.16 21.62 26.23 2.65 32.3 21.62 51.86 21.62 36.05 33.21 42.05 51.78 26.19 40.45 10.44 51.78 16.43 33.3 0.6 21.62"/><polygon class="cls-1" points="0.53 21.67 20.08 21.67 26.16 2.7 32.23 21.67 51.78 21.67 35.97 33.26 41.98 51.83 26.12 40.5 10.37 51.83 16.35 33.35 0.53 21.67"/><polygon class="cls-1" points="0.45 21.72 20.01 21.72 26.08 2.75 32.15 21.72 51.71 21.72 35.9 33.31 41.9 51.88 26.04 40.55 10.29 51.88 16.28 33.4 0.45 21.72"/><polygon class="cls-1" points="0.38 21.77 19.93 21.77 26 2.8 32.08 21.77 51.63 21.77 35.82 33.36 41.83 51.93 25.97 40.6 10.22 51.93 16.2 33.45 0.38 21.77"/><polygon class="cls-1" points="0.3 21.82 19.86 21.82 25.93 2.85 32 21.82 51.56 21.82 35.74 33.41 41.75 51.98 25.89 40.65 10.14 51.98 16.13 33.5 0.3 21.82"/><polygon class="cls-1" points="0.23 21.87 19.78 21.87 25.86 2.9 31.93 21.87 51.48 21.87 35.67 33.46 41.68 52.03 25.82 40.7 10.07 52.03 16.05 33.55 0.23 21.87"/><polygon class="cls-1" points="0.15 21.92 19.71 21.92 25.78 2.95 31.85 21.92 51.41 21.92 35.59 33.51 41.6 52.08 25.74 40.75 9.99 52.08 15.98 33.6 0.15 21.92"/><polygon class="cls-1" points="0.07 21.97 19.63 21.97 25.7 3 31.78 21.97 51.33 21.97 35.52 33.56 41.53 52.13 25.67 40.8 9.92 52.13 15.9 33.65 0.07 21.97"/><polygon class="cls-1" points="0 22.02 19.56 22.02 25.63 3.05 31.7 22.02 51.26 22.02 35.45 33.61 41.45 52.18 25.59 40.85 9.84 52.18 15.83 33.7 0 22.02"/><polygon class="cls-2" points="25.59 40.23 10.79 50.89 16.42 33.52 1.52 22.52 19.92 22.52 25.63 4.69 31.34 22.52 49.73 22.52 34.86 33.42 40.51 50.9 25.59 40.23"/><path class="cls-1" d="M25.63,6.33l5.12,16L31,23H48.2L34.85,32.81l-.58.42.22.69,5.08,15.69L26.17,40l-.58-.42L25,40,11.73,49.59,16.78,34l.22-.68-.58-.43L3,23H20.29l.22-.7,5.12-16m0-3.28L19.56,22H0L15.83,33.7l-6,18.48L25.59,40.85,41.45,52.18l-6-18.57L51.26,22H31.7l-6.07-19Z"/><polygon class="cls-1" points="65.5 20.06 85.05 20.06 91.13 1.1 97.2 20.06 116.76 20.06 100.94 31.66 106.95 50.23 91.09 38.9 75.34 50.23 81.33 31.75 65.5 20.06"/><polygon class="cls-1" points="65.42 20.11 84.98 20.11 91.05 1.15 97.13 20.11 116.68 20.11 100.87 31.71 106.88 50.28 91.02 38.95 75.27 50.28 81.25 31.8 65.42 20.11"/><polygon class="cls-1" points="65.35 20.16 84.9 20.16 90.98 1.2 97.05 20.16 116.61 20.16 100.79 31.76 106.8 50.33 90.94 38.99 75.19 50.33 81.18 31.85 65.35 20.16"/><polygon class="cls-1" points="65.27 20.21 84.83 20.21 90.9 1.25 96.98 20.21 116.53 20.21 100.72 31.81 106.72 50.38 90.86 39.05 75.12 50.38 81.1 31.9 65.27 20.21"/><polygon class="cls-1" points="65.2 20.26 84.75 20.26 90.83 1.3 96.9 20.26 116.46 20.26 100.64 31.86 106.65 50.43 90.79 39.09 75.04 50.43 81.03 31.95 65.2 20.26"/><polygon class="cls-1" points="65.12 20.31 84.68 20.31 90.75 1.35 96.83 20.31 116.38 20.31 100.57 31.91 106.58 50.48 90.72 39.15 74.97 50.48 80.95 32 65.12 20.31"/><polygon class="cls-1" points="65.05 20.36 84.6 20.36 90.68 1.4 96.75 20.36 116.31 20.36 100.49 31.96 106.5 50.53 90.64 39.2 74.89 50.53 80.88 32.05 65.05 20.36"/><polygon class="cls-1" points="64.97 20.41 84.53 20.41 90.6 1.45 96.68 20.41 116.23 20.41 100.42 32.01 106.42 50.58 90.56 39.24 74.82 50.58 80.8 32.1 64.97 20.41"/><polygon class="cls-1" points="64.9 20.46 84.45 20.46 90.53 1.5 96.6 20.46 116.16 20.46 100.34 32.06 106.35 50.63 90.49 39.3 74.74 50.63 80.73 32.15 64.9 20.46"/><polygon class="cls-1" points="64.82 20.51 84.38 20.51 90.45 1.55 96.53 20.51 116.08 20.51 100.27 32.11 106.28 50.68 90.42 39.34 74.67 50.68 80.65 32.2 64.82 20.51"/><polygon class="cls-1" points="64.75 20.56 84.3 20.56 90.38 1.6 96.45 20.56 116.01 20.56 100.19 32.16 106.2 50.73 90.34 39.4 74.59 50.73 80.58 32.25 64.75 20.56"/><polygon class="cls-1" points="64.67 20.61 84.23 20.61 90.3 1.65 96.38 20.61 115.93 20.61 100.12 32.21 106.13 50.78 90.27 39.45 74.52 50.78 80.5 32.3 64.67 20.61"/><polygon class="cls-1" points="64.6 20.66 84.15 20.66 90.23 1.7 96.3 20.66 115.86 20.66 100.04 32.26 106.05 50.83 90.19 39.49 74.44 50.83 80.43 32.35 64.6 20.66"/><polygon class="cls-1" points="64.52 20.71 84.08 20.71 90.15 1.75 96.23 20.71 115.78 20.71 99.97 32.31 105.97 50.88 90.11 39.55 74.37 50.88 80.35 32.4 64.52 20.71"/><polygon class="cls-1" points="64.45 20.76 84 20.76 90.08 1.8 96.15 20.76 115.71 20.76 99.89 32.36 105.9 50.93 90.04 39.59 74.29 50.93 80.28 32.45 64.45 20.76"/><polygon class="cls-1" points="64.37 20.81 83.93 20.81 90 1.85 96.08 20.81 115.63 20.81 99.82 32.41 105.83 50.98 89.97 39.65 74.22 50.98 80.2 32.5 64.37 20.81"/><polygon class="cls-1" points="64.3 20.86 83.85 20.86 89.93 1.9 96 20.86 115.56 20.86 99.74 32.46 105.75 51.03 89.89 39.7 74.14 51.03 80.13 32.55 64.3 20.86"/><polygon class="cls-1" points="64.22 20.91 83.78 20.91 89.85 1.95 95.93 20.91 115.48 20.91 99.67 32.51 105.67 51.08 89.81 39.74 74.07 51.08 80.05 32.6 64.22 20.91"/><polygon class="cls-1" points="64.15 20.96 83.7 20.96 89.78 2 95.85 20.96 115.41 20.96 99.59 32.56 105.6 51.13 89.74 39.8 73.99 51.13 79.98 32.65 64.15 20.96"/><polygon class="cls-1" points="64.07 21.01 83.63 21.01 89.7 2.05 95.78 21.01 115.33 21.01 99.52 32.61 105.53 51.18 89.67 39.84 73.92 51.18 79.9 32.7 64.07 21.01"/><polygon class="cls-1" points="64 21.06 83.55 21.06 89.63 2.1 95.7 21.06 115.26 21.06 99.44 32.66 105.45 51.23 89.59 39.9 73.84 51.23 79.83 32.75 64 21.06"/><polygon class="cls-1" points="63.92 21.11 83.48 21.11 89.55 2.15 95.63 21.11 115.18 21.11 99.37 32.71 105.38 51.28 89.52 39.95 73.77 51.28 79.75 32.8 63.92 21.11"/><polygon class="cls-1" points="63.85 21.16 83.4 21.16 89.48 2.2 95.55 21.16 115.11 21.16 99.29 32.76 105.3 51.33 89.44 39.99 73.69 51.33 79.68 32.85 63.85 21.16"/><polygon class="cls-1" points="63.77 21.21 83.33 21.21 89.4 2.25 95.48 21.21 115.03 21.21 99.22 32.81 105.22 51.38 89.36 40.05 73.62 51.38 79.6 32.9 63.77 21.21"/><polygon class="cls-1" points="63.7 21.26 83.25 21.26 89.33 2.3 95.4 21.26 114.96 21.26 99.14 32.86 105.15 51.43 89.29 40.09 73.54 51.43 79.53 32.95 63.7 21.26"/><polygon class="cls-1" points="63.62 21.31 83.18 21.31 89.25 2.35 95.33 21.31 114.88 21.31 99.07 32.91 105.08 51.48 89.22 40.15 73.47 51.48 79.45 33 63.62 21.31"/><polygon class="cls-1" points="63.55 21.36 83.1 21.36 89.18 2.4 95.25 21.36 114.81 21.36 98.99 32.96 105 51.53 89.14 40.2 73.39 51.53 79.38 33.05 63.55 21.36"/><polygon class="cls-1" points="63.47 21.41 83.03 21.41 89.1 2.45 95.18 21.41 114.73 21.41 98.92 33.01 104.92 51.58 89.06 40.24 73.32 51.58 79.3 33.1 63.47 21.41"/><polygon class="cls-1" points="63.4 21.46 82.95 21.46 89.03 2.5 95.1 21.46 114.66 21.46 98.84 33.06 104.85 51.63 88.99 40.3 73.24 51.63 79.23 33.15 63.4 21.46"/><polygon class="cls-1" points="63.32 21.51 82.88 21.51 88.95 2.55 95.03 21.51 114.58 21.51 98.77 33.11 104.78 51.68 88.92 40.34 73.17 51.68 79.15 33.2 63.32 21.51"/><polygon class="cls-1" points="63.25 21.56 82.8 21.56 88.88 2.6 94.95 21.56 114.51 21.56 98.69 33.16 104.7 51.73 88.84 40.4 73.09 51.73 79.08 33.25 63.25 21.56"/><polygon class="cls-1" points="63.17 21.61 82.73 21.61 88.8 2.65 94.88 21.61 114.43 21.61 98.62 33.21 104.63 51.78 88.77 40.45 73.02 51.78 79 33.3 63.17 21.61"/><polygon class="cls-1" points="63.1 21.66 82.65 21.66 88.73 2.7 94.8 21.66 114.36 21.66 98.54 33.26 104.55 51.83 88.69 40.49 72.94 51.83 78.93 33.35 63.1 21.66"/><polygon class="cls-1" points="63.02 21.71 82.58 21.71 88.65 2.75 94.73 21.71 114.28 21.71 98.47 33.31 104.47 51.88 88.61 40.55 72.87 51.88 78.85 33.4 63.02 21.71"/><polygon class="cls-1" points="62.95 21.76 82.5 21.76 88.58 2.8 94.65 21.76 114.21 21.76 98.39 33.36 104.4 51.93 88.54 40.59 72.79 51.93 78.78 33.45 62.95 21.76"/><polygon class="cls-1" points="62.87 21.81 82.43 21.81 88.5 2.85 94.58 21.81 114.13 21.81 98.32 33.41 104.33 51.98 88.47 40.65 72.72 51.98 78.7 33.5 62.87 21.81"/><polygon class="cls-1" points="62.8 21.86 82.35 21.86 88.43 2.9 94.5 21.86 114.06 21.86 98.24 33.46 104.25 52.03 88.39 40.7 72.64 52.03 78.63 33.55 62.8 21.86"/><polygon class="cls-1" points="62.72 21.91 82.28 21.91 88.35 2.95 94.43 21.91 113.98 21.91 98.17 33.51 104.17 52.08 88.31 40.74 72.57 52.08 78.55 33.6 62.72 21.91"/><polygon class="cls-1" points="62.65 21.96 82.2 21.96 88.28 3 94.35 21.96 113.91 21.96 98.09 33.56 104.1 52.13 88.24 40.8 72.49 52.13 78.48 33.65 62.65 21.96"/><polygon class="cls-1" points="62.57 22.01 82.13 22.01 88.2 3.05 94.28 22.01 113.83 22.01 98.02 33.61 104.03 52.18 88.17 40.84 72.42 52.18 78.4 33.7 62.57 22.01"/><polygon class="cls-1" points="62.5 22.06 82.05 22.06 88.13 3.1 94.2 22.06 113.76 22.06 97.94 33.66 103.95 52.23 88.09 40.9 72.34 52.23 78.33 33.75 62.5 22.06"/><polygon class="cls-1" points="62.42 22.11 81.98 22.11 88.05 3.15 94.13 22.11 113.68 22.11 97.87 33.71 103.88 52.28 88.02 40.95 72.27 52.28 78.25 33.8 62.42 22.11"/><polygon class="cls-1" points="62.35 22.16 81.9 22.16 87.98 3.2 94.05 22.16 113.61 22.16 97.79 33.76 103.8 52.33 87.94 40.99 72.19 52.33 78.18 33.85 62.35 22.16"/><polygon class="cls-1" points="62.27 22.21 81.83 22.21 87.9 3.25 93.98 22.21 113.53 22.21 97.72 33.81 103.72 52.38 87.86 41.05 72.12 52.38 78.1 33.9 62.27 22.21"/><polygon class="cls-1" points="62.2 22.26 81.75 22.26 87.83 3.3 93.9 22.26 113.46 22.26 97.64 33.86 103.65 52.43 87.79 41.09 72.04 52.43 78.03 33.95 62.2 22.26"/><polygon class="cls-1" points="62.12 22.31 81.68 22.31 87.75 3.35 93.83 22.31 113.38 22.31 97.57 33.91 103.58 52.48 87.72 41.15 71.97 52.48 77.95 34 62.12 22.31"/><polygon class="cls-1" points="62.05 22.36 81.6 22.36 87.68 3.4 93.75 22.36 113.31 22.36 97.49 33.96 103.5 52.53 87.64 41.2 71.89 52.53 77.88 34.05 62.05 22.36"/><polygon class="cls-1" points="61.97 22.41 81.53 22.41 87.6 3.45 93.68 22.41 113.23 22.41 97.42 34.01 103.42 52.58 87.56 41.24 71.82 52.58 77.8 34.1 61.97 22.41"/><polygon class="cls-1" points="61.9 22.46 81.45 22.46 87.53 3.5 93.6 22.46 113.16 22.46 97.34 34.06 103.35 52.63 87.49 41.3 71.74 52.63 77.73 34.15 61.9 22.46"/><polygon class="cls-1" points="61.82 22.51 81.38 22.51 87.45 3.55 93.53 22.51 113.08 22.51 97.27 34.11 103.28 52.68 87.42 41.34 71.67 52.68 77.65 34.2 61.82 22.51"/><polygon class="cls-1" points="61.75 22.56 81.3 22.56 87.38 3.6 93.45 22.56 113.01 22.56 97.19 34.16 103.2 52.73 87.34 41.4 71.59 52.73 77.58 34.25 61.75 22.56"/><polygon class="cls-2" points="87.34 40.78 72.54 51.43 78.16 34.06 63.27 23.06 81.67 23.06 87.38 5.24 93.09 23.06 111.48 23.06 96.61 33.97 102.26 51.44 87.34 40.78"/><path class="cls-1" d="M87.38,6.88l5.12,16,.22.69H110L96.6,33.35l-.58.43.22.69,5.08,15.68-13.4-9.57-.58-.42-.58.42L73.48,50.14l5-15.58.22-.69-.58-.43L64.79,23.56H82l.23-.69,5.12-16m0-3.28-6.08,19H61.75L77.58,34.25l-6,18.48L87.34,41.4,103.2,52.73l-6-18.57L113,22.56H93.45l-6.07-19Z"/><polygon class="cls-1" points="127.25 19.52 146.8 19.52 152.87 0.55 158.95 19.52 178.5 19.52 162.69 31.11 168.7 49.68 152.84 38.35 137.09 49.68 143.07 31.2 127.25 19.52"/><polygon class="cls-1" points="127.17 19.57 146.72 19.57 152.8 0.6 158.87 19.57 178.43 19.57 162.62 31.16 168.62 49.73 152.76 38.4 137.01 49.73 143 31.25 127.17 19.57"/><polygon class="cls-1" points="127.09 19.62 146.65 19.62 152.72 0.65 158.8 19.62 178.35 19.62 162.54 31.21 168.55 49.78 152.69 38.45 136.94 49.78 142.92 31.3 127.09 19.62"/><polygon class="cls-1" points="127.02 19.67 146.57 19.67 152.65 0.7 158.72 19.67 178.28 19.67 162.47 31.26 168.47 49.83 152.61 38.5 136.86 49.83 142.85 31.35 127.02 19.67"/><polygon class="cls-1" points="126.94 19.72 146.5 19.72 152.57 0.75 158.65 19.72 178.2 19.72 162.39 31.31 168.4 49.88 152.54 38.55 136.79 49.88 142.77 31.4 126.94 19.72"/><polygon class="cls-1" points="126.87 19.77 146.43 19.77 152.5 0.8 158.57 19.77 178.13 19.77 162.31 31.36 168.32 49.93 152.46 38.6 136.71 49.93 142.7 31.45 126.87 19.77"/><polygon class="cls-1" points="126.8 19.82 146.35 19.82 152.42 0.85 158.5 19.82 178.05 19.82 162.24 31.41 168.25 49.98 152.39 38.65 136.64 49.98 142.62 31.5 126.8 19.82"/><polygon class="cls-1" points="126.72 19.87 146.28 19.87 152.35 0.9 158.42 19.87 177.98 19.87 162.16 31.46 168.17 50.03 152.31 38.7 136.56 50.03 142.55 31.55 126.72 19.87"/><polygon class="cls-1" points="126.64 19.92 146.2 19.92 152.27 0.95 158.35 19.92 177.9 19.92 162.09 31.51 168.1 50.08 152.24 38.75 136.49 50.08 142.47 31.6 126.64 19.92"/><polygon class="cls-1" points="126.57 19.97 146.13 19.97 152.2 1 158.27 19.97 177.83 19.97 162.01 31.56 168.02 50.13 152.16 38.8 136.41 50.13 142.4 31.65 126.57 19.97"/><polygon class="cls-1" points="126.5 20.02 146.05 20.02 152.12 1.05 158.2 20.02 177.75 20.02 161.94 31.61 167.95 50.18 152.09 38.85 136.34 50.18 142.32 31.7 126.5 20.02"/><polygon class="cls-1" points="126.42 20.07 145.97 20.07 152.05 1.1 158.12 20.07 177.68 20.07 161.87 31.66 167.87 50.23 152.01 38.9 136.26 50.23 142.25 31.75 126.42 20.07"/><polygon class="cls-1" points="126.34 20.12 145.9 20.12 151.97 1.15 158.05 20.12 177.6 20.12 161.79 31.71 167.8 50.28 151.94 38.95 136.19 50.28 142.17 31.8 126.34 20.12"/><polygon class="cls-1" points="126.27 20.17 145.82 20.17 151.9 1.2 157.97 20.17 177.53 20.17 161.72 31.76 167.72 50.33 151.86 39 136.11 50.33 142.1 31.85 126.27 20.17"/><polygon class="cls-1" points="126.19 20.22 145.75 20.22 151.82 1.25 157.9 20.22 177.45 20.22 161.64 31.81 167.65 50.38 151.79 39.05 136.04 50.38 142.02 31.9 126.19 20.22"/><polygon class="cls-1" points="126.12 20.27 145.68 20.27 151.75 1.3 157.82 20.27 177.38 20.27 161.56 31.86 167.57 50.43 151.71 39.1 135.96 50.43 141.95 31.95 126.12 20.27"/><polygon class="cls-1" points="126.05 20.32 145.6 20.32 151.67 1.35 157.75 20.32 177.3 20.32 161.49 31.91 167.5 50.48 151.64 39.15 135.89 50.48 141.87 32 126.05 20.32"/><polygon class="cls-1" points="125.97 20.37 145.53 20.37 151.6 1.4 157.67 20.37 177.23 20.37 161.41 31.96 167.42 50.53 151.56 39.2 135.81 50.53 141.8 32.05 125.97 20.37"/><polygon class="cls-1" points="125.89 20.42 145.45 20.42 151.52 1.45 157.6 20.42 177.15 20.42 161.34 32.01 167.35 50.58 151.49 39.25 135.74 50.58 141.72 32.1 125.89 20.42"/><polygon class="cls-1" points="125.82 20.47 145.38 20.47 151.45 1.5 157.52 20.47 177.08 20.47 161.26 32.06 167.27 50.63 151.41 39.3 135.66 50.63 141.65 32.15 125.82 20.47"/><polygon class="cls-1" points="125.75 20.52 145.3 20.52 151.37 1.55 157.45 20.52 177 20.52 161.19 32.11 167.2 50.68 151.34 39.35 135.59 50.68 141.57 32.2 125.75 20.52"/><polygon class="cls-1" points="125.67 20.57 145.22 20.57 151.3 1.6 157.37 20.57 176.93 20.57 161.12 32.16 167.12 50.73 151.26 39.4 135.51 50.73 141.5 32.25 125.67 20.57"/><polygon class="cls-1" points="125.59 20.62 145.15 20.62 151.22 1.65 157.3 20.62 176.85 20.62 161.04 32.21 167.05 50.78 151.19 39.45 135.44 50.78 141.42 32.3 125.59 20.62"/><polygon class="cls-1" points="125.52 20.67 145.07 20.67 151.15 1.7 157.22 20.67 176.78 20.67 160.97 32.26 166.97 50.83 151.11 39.5 135.36 50.83 141.35 32.35 125.52 20.67"/><polygon class="cls-1" points="125.44 20.72 145 20.72 151.07 1.75 157.15 20.72 176.7 20.72 160.89 32.31 166.9 50.88 151.04 39.55 135.29 50.88 141.27 32.4 125.44 20.72"/><polygon class="cls-1" points="125.37 20.77 144.93 20.77 151 1.8 157.07 20.77 176.63 20.77 160.81 32.36 166.82 50.93 150.96 39.6 135.21 50.93 141.2 32.45 125.37 20.77"/><polygon class="cls-1" points="125.3 20.82 144.85 20.82 150.92 1.85 157 20.82 176.55 20.82 160.74 32.41 166.75 50.98 150.89 39.65 135.14 50.98 141.12 32.5 125.3 20.82"/><polygon class="cls-1" points="125.22 20.87 144.78 20.87 150.85 1.9 156.92 20.87 176.48 20.87 160.66 32.46 166.67 51.03 150.81 39.7 135.06 51.03 141.05 32.55 125.22 20.87"/><polygon class="cls-1" points="125.14 20.92 144.7 20.92 150.77 1.95 156.85 20.92 176.4 20.92 160.59 32.51 166.6 51.08 150.74 39.75 134.99 51.08 140.97 32.6 125.14 20.92"/><polygon class="cls-1" points="125.07 20.97 144.63 20.97 150.7 2 156.77 20.97 176.33 20.97 160.51 32.56 166.52 51.13 150.66 39.8 134.91 51.13 140.9 32.65 125.07 20.97"/><polygon class="cls-1" points="125 21.02 144.55 21.02 150.62 2.05 156.7 21.02 176.25 21.02 160.44 32.61 166.45 51.18 150.59 39.85 134.84 51.18 140.82 32.7 125 21.02"/><polygon class="cls-1" points="124.92 21.07 144.47 21.07 150.55 2.1 156.62 21.07 176.18 21.07 160.37 32.66 166.37 51.23 150.51 39.9 134.76 51.23 140.75 32.75 124.92 21.07"/><polygon class="cls-1" points="124.84 21.12 144.4 21.12 150.47 2.15 156.55 21.12 176.1 21.12 160.29 32.71 166.3 51.28 150.44 39.95 134.69 51.28 140.67 32.8 124.84 21.12"/><polygon class="cls-1" points="124.77 21.17 144.32 21.17 150.4 2.2 156.47 21.17 176.03 21.17 160.22 32.76 166.22 51.33 150.36 40 134.61 51.33 140.6 32.85 124.77 21.17"/><polygon class="cls-1" points="124.69 21.22 144.25 21.22 150.32 2.25 156.4 21.22 175.95 21.22 160.14 32.81 166.15 51.38 150.29 40.05 134.54 51.38 140.52 32.9 124.69 21.22"/><polygon class="cls-1" points="124.62 21.27 144.18 21.27 150.25 2.3 156.32 21.27 175.88 21.27 160.06 32.86 166.07 51.43 150.21 40.1 134.46 51.43 140.45 32.95 124.62 21.27"/><polygon class="cls-1" points="124.55 21.32 144.1 21.32 150.17 2.35 156.25 21.32 175.8 21.32 159.99 32.91 166 51.48 150.14 40.15 134.39 51.48 140.37 33 124.55 21.32"/><polygon class="cls-1" points="124.47 21.37 144.03 21.37 150.1 2.4 156.17 21.37 175.73 21.37 159.91 32.96 165.92 51.53 150.06 40.2 134.31 51.53 140.3 33.05 124.47 21.37"/><polygon class="cls-1" points="124.39 21.42 143.95 21.42 150.02 2.45 156.1 21.42 175.65 21.42 159.84 33.01 165.85 51.58 149.99 40.25 134.24 51.58 140.22 33.1 124.39 21.42"/><polygon class="cls-1" points="124.32 21.47 143.88 21.47 149.95 2.5 156.02 21.47 175.58 21.47 159.76 33.06 165.77 51.63 149.91 40.3 134.16 51.63 140.15 33.15 124.32 21.47"/><polygon class="cls-1" points="124.25 21.52 143.8 21.52 149.87 2.55 155.95 21.52 175.5 21.52 159.69 33.11 165.7 51.68 149.84 40.35 134.09 51.68 140.07 33.2 124.25 21.52"/><polygon class="cls-1" points="124.17 21.57 143.72 21.57 149.8 2.6 155.87 21.57 175.43 21.57 159.62 33.16 165.62 51.73 149.76 40.4 134.01 51.73 140 33.25 124.17 21.57"/><polygon class="cls-1" points="124.09 21.62 143.65 21.62 149.72 2.65 155.8 21.62 175.35 21.62 159.54 33.21 165.55 51.78 149.69 40.45 133.94 51.78 139.92 33.3 124.09 21.62"/><polygon class="cls-1" points="124.02 21.67 143.57 21.67 149.65 2.7 155.72 21.67 175.28 21.67 159.47 33.26 165.47 51.83 149.61 40.5 133.86 51.83 139.85 33.35 124.02 21.67"/><polygon class="cls-1" points="123.94 21.72 143.5 21.72 149.57 2.75 155.65 21.72 175.2 21.72 159.39 33.31 165.4 51.88 149.54 40.55 133.79 51.88 139.77 33.4 123.94 21.72"/><polygon class="cls-1" points="123.87 21.77 143.43 21.77 149.5 2.8 155.57 21.77 175.13 21.77 159.31 33.36 165.32 51.93 149.46 40.6 133.71 51.93 139.7 33.45 123.87 21.77"/><polygon class="cls-1" points="123.8 21.82 143.35 21.82 149.42 2.85 155.5 21.82 175.05 21.82 159.24 33.41 165.25 51.98 149.39 40.65 133.64 51.98 139.62 33.5 123.8 21.82"/><polygon class="cls-1" points="123.72 21.87 143.28 21.87 149.35 2.9 155.42 21.87 174.98 21.87 159.16 33.46 165.17 52.03 149.31 40.7 133.56 52.03 139.55 33.55 123.72 21.87"/><polygon class="cls-1" points="123.64 21.92 143.2 21.92 149.27 2.95 155.35 21.92 174.9 21.92 159.09 33.51 165.1 52.08 149.24 40.75 133.49 52.08 139.47 33.6 123.64 21.92"/><polygon class="cls-1" points="123.57 21.97 143.13 21.97 149.2 3 155.27 21.97 174.83 21.97 159.01 33.56 165.02 52.13 149.16 40.8 133.41 52.13 139.4 33.65 123.57 21.97"/><polygon class="cls-1" points="123.5 22.02 143.05 22.02 149.12 3.05 155.2 22.02 174.75 22.02 158.94 33.61 164.95 52.18 149.09 40.85 133.34 52.18 139.32 33.7 123.5 22.02"/><polygon class="cls-2" points="149.09 40.23 134.28 50.89 139.91 33.52 125.01 22.52 143.41 22.52 149.12 4.69 154.83 22.52 173.23 22.52 158.35 33.42 164 50.9 149.09 40.23"/><path class="cls-1" d="M149.12,6.33l5.13,16,.22.7H171.7l-13.35,9.79-.58.42.22.69,5.07,15.69L149.67,40l-.58-.42-.59.42-13.27,9.55L140.28,34l.22-.68-.58-.43L126.53,23h17.25l.22-.7,5.12-16m0-3.28-6.07,19H123.49L139.32,33.7l-6,18.48,15.75-11.33L165,52.18l-6-18.57L174.75,22H155.2l-6.08-19Z"/><polygon class="cls-1" points="188.99 20.06 208.55 20.06 214.62 1.1 220.7 20.06 240.25 20.06 224.44 31.66 230.44 50.23 214.59 38.9 198.84 50.23 204.82 31.75 188.99 20.06"/><polygon class="cls-1" points="188.92 20.11 208.47 20.11 214.55 1.15 220.62 20.11 240.18 20.11 224.36 31.71 230.37 50.28 214.51 38.95 198.76 50.28 204.75 31.8 188.92 20.11"/><polygon class="cls-1" points="188.84 20.16 208.4 20.16 214.47 1.2 220.55 20.16 240.1 20.16 224.29 31.76 230.29 50.33 214.44 38.99 198.69 50.33 204.67 31.85 188.84 20.16"/><polygon class="cls-1" points="188.77 20.21 208.32 20.21 214.4 1.25 220.47 20.21 240.03 20.21 224.21 31.81 230.22 50.38 214.36 39.05 198.61 50.38 204.6 31.9 188.77 20.21"/><polygon class="cls-1" points="188.69 20.26 208.25 20.26 214.32 1.3 220.4 20.26 239.95 20.26 224.14 31.86 230.15 50.43 214.28 39.09 198.54 50.43 204.52 31.95 188.69 20.26"/><polygon class="cls-1" points="188.62 20.31 208.17 20.31 214.25 1.35 220.32 20.31 239.88 20.31 224.06 31.91 230.07 50.48 214.21 39.15 198.46 50.48 204.45 32 188.62 20.31"/><polygon class="cls-1" points="188.54 20.36 208.1 20.36 214.17 1.4 220.25 20.36 239.8 20.36 223.99 31.96 230 50.53 214.13 39.2 198.39 50.53 204.37 32.05 188.54 20.36"/><polygon class="cls-1" points="188.47 20.41 208.02 20.41 214.1 1.45 220.17 20.41 239.73 20.41 223.91 32.01 229.92 50.58 214.06 39.24 198.31 50.58 204.3 32.1 188.47 20.41"/><polygon class="cls-1" points="188.39 20.46 207.95 20.46 214.02 1.5 220.1 20.46 239.65 20.46 223.84 32.06 229.84 50.63 213.99 39.3 198.24 50.63 204.22 32.15 188.39 20.46"/><polygon class="cls-1" points="188.32 20.51 207.87 20.51 213.95 1.55 220.02 20.51 239.58 20.51 223.76 32.11 229.77 50.68 213.91 39.34 198.16 50.68 204.15 32.2 188.32 20.51"/><polygon class="cls-1" points="188.24 20.56 207.8 20.56 213.87 1.6 219.95 20.56 239.5 20.56 223.69 32.16 229.69 50.73 213.84 39.4 198.09 50.73 204.07 32.25 188.24 20.56"/><polygon class="cls-1" points="188.17 20.61 207.72 20.61 213.8 1.65 219.87 20.61 239.43 20.61 223.61 32.21 229.62 50.78 213.76 39.45 198.01 50.78 204 32.3 188.17 20.61"/><polygon class="cls-1" points="188.09 20.66 207.65 20.66 213.72 1.7 219.8 20.66 239.35 20.66 223.54 32.26 229.54 50.83 213.69 39.49 197.94 50.83 203.92 32.35 188.09 20.66"/><polygon class="cls-1" points="188.02 20.71 207.57 20.71 213.65 1.75 219.72 20.71 239.28 20.71 223.46 32.31 229.47 50.88 213.61 39.55 197.86 50.88 203.85 32.4 188.02 20.71"/><polygon class="cls-1" points="187.94 20.76 207.5 20.76 213.57 1.8 219.65 20.76 239.2 20.76 223.39 32.36 229.4 50.93 213.53 39.59 197.79 50.93 203.77 32.45 187.94 20.76"/><polygon class="cls-1" points="187.87 20.81 207.42 20.81 213.5 1.85 219.57 20.81 239.13 20.81 223.31 32.41 229.32 50.98 213.46 39.65 197.71 50.98 203.7 32.5 187.87 20.81"/><polygon class="cls-1" points="187.79 20.86 207.35 20.86 213.42 1.9 219.5 20.86 239.05 20.86 223.24 32.46 229.25 51.03 213.38 39.7 197.64 51.03 203.62 32.55 187.79 20.86"/><polygon class="cls-1" points="187.72 20.91 207.27 20.91 213.35 1.95 219.42 20.91 238.98 20.91 223.16 32.51 229.17 51.08 213.31 39.74 197.56 51.08 203.55 32.6 187.72 20.91"/><polygon class="cls-1" points="187.64 20.96 207.2 20.96 213.27 2 219.35 20.96 238.9 20.96 223.09 32.56 229.09 51.13 213.24 39.8 197.49 51.13 203.47 32.65 187.64 20.96"/><polygon class="cls-1" points="187.57 21.01 207.12 21.01 213.2 2.05 219.27 21.01 238.83 21.01 223.01 32.61 229.02 51.18 213.16 39.84 197.41 51.18 203.4 32.7 187.57 21.01"/><polygon class="cls-1" points="187.49 21.06 207.05 21.06 213.12 2.1 219.2 21.06 238.75 21.06 222.94 32.66 228.94 51.23 213.09 39.9 197.34 51.23 203.32 32.75 187.49 21.06"/><polygon class="cls-1" points="187.42 21.11 206.97 21.11 213.05 2.15 219.12 21.11 238.68 21.11 222.86 32.71 228.87 51.28 213.01 39.95 197.26 51.28 203.25 32.8 187.42 21.11"/><polygon class="cls-1" points="187.34 21.16 206.9 21.16 212.97 2.2 219.05 21.16 238.6 21.16 222.79 32.76 228.79 51.33 212.94 39.99 197.19 51.33 203.17 32.85 187.34 21.16"/><polygon class="cls-1" points="187.27 21.21 206.82 21.21 212.9 2.25 218.97 21.21 238.53 21.21 222.71 32.81 228.72 51.38 212.86 40.05 197.11 51.38 203.1 32.9 187.27 21.21"/><polygon class="cls-1" points="187.19 21.26 206.75 21.26 212.82 2.3 218.9 21.26 238.45 21.26 222.64 32.86 228.65 51.43 212.78 40.09 197.04 51.43 203.02 32.95 187.19 21.26"/><polygon class="cls-1" points="187.12 21.31 206.67 21.31 212.75 2.35 218.82 21.31 238.38 21.31 222.56 32.91 228.57 51.48 212.71 40.15 196.96 51.48 202.95 33 187.12 21.31"/><polygon class="cls-1" points="187.04 21.36 206.6 21.36 212.67 2.4 218.75 21.36 238.3 21.36 222.49 32.96 228.5 51.53 212.63 40.2 196.89 51.53 202.87 33.05 187.04 21.36"/><polygon class="cls-1" points="186.97 21.41 206.52 21.41 212.6 2.45 218.67 21.41 238.23 21.41 222.41 33.01 228.42 51.58 212.56 40.24 196.81 51.58 202.8 33.1 186.97 21.41"/><polygon class="cls-1" points="186.89 21.46 206.45 21.46 212.52 2.5 218.6 21.46 238.15 21.46 222.34 33.06 228.34 51.63 212.49 40.3 196.74 51.63 202.72 33.15 186.89 21.46"/><polygon class="cls-1" points="186.82 21.51 206.37 21.51 212.45 2.55 218.52 21.51 238.08 21.51 222.26 33.11 228.27 51.68 212.41 40.34 196.66 51.68 202.65 33.2 186.82 21.51"/><polygon class="cls-1" points="186.74 21.56 206.3 21.56 212.37 2.6 218.45 21.56 238 21.56 222.19 33.16 228.19 51.73 212.34 40.4 196.59 51.73 202.57 33.25 186.74 21.56"/><polygon class="cls-1" points="186.67 21.61 206.22 21.61 212.3 2.65 218.37 21.61 237.93 21.61 222.11 33.21 228.12 51.78 212.26 40.45 196.51 51.78 202.5 33.3 186.67 21.61"/><polygon class="cls-1" points="186.59 21.66 206.15 21.66 212.22 2.7 218.3 21.66 237.85 21.66 222.04 33.26 228.04 51.83 212.19 40.49 196.44 51.83 202.42 33.35 186.59 21.66"/><polygon class="cls-1" points="186.52 21.71 206.07 21.71 212.15 2.75 218.22 21.71 237.78 21.71 221.96 33.31 227.97 51.88 212.11 40.55 196.36 51.88 202.35 33.4 186.52 21.71"/><polygon class="cls-1" points="186.44 21.76 206 21.76 212.07 2.8 218.15 21.76 237.7 21.76 221.89 33.36 227.9 51.93 212.03 40.59 196.29 51.93 202.27 33.45 186.44 21.76"/><polygon class="cls-1" points="186.37 21.81 205.92 21.81 212 2.85 218.07 21.81 237.63 21.81 221.81 33.41 227.82 51.98 211.96 40.65 196.21 51.98 202.2 33.5 186.37 21.81"/><polygon class="cls-1" points="186.29 21.86 205.85 21.86 211.92 2.9 218 21.86 237.55 21.86 221.74 33.46 227.75 52.03 211.88 40.7 196.14 52.03 202.12 33.55 186.29 21.86"/><polygon class="cls-1" points="186.22 21.91 205.77 21.91 211.85 2.95 217.92 21.91 237.48 21.91 221.66 33.51 227.67 52.08 211.81 40.74 196.06 52.08 202.05 33.6 186.22 21.91"/><polygon class="cls-1" points="186.14 21.96 205.7 21.96 211.77 3 217.85 21.96 237.4 21.96 221.59 33.56 227.59 52.13 211.74 40.8 195.99 52.13 201.97 33.65 186.14 21.96"/><polygon class="cls-1" points="186.07 22.01 205.62 22.01 211.7 3.05 217.77 22.01 237.33 22.01 221.51 33.61 227.52 52.18 211.66 40.84 195.91 52.18 201.9 33.7 186.07 22.01"/><polygon class="cls-1" points="185.99 22.06 205.55 22.06 211.62 3.1 217.7 22.06 237.25 22.06 221.44 33.66 227.44 52.23 211.59 40.9 195.84 52.23 201.82 33.75 185.99 22.06"/><polygon class="cls-1" points="185.92 22.11 205.47 22.11 211.55 3.15 217.62 22.11 237.18 22.11 221.36 33.71 227.37 52.28 211.51 40.95 195.76 52.28 201.75 33.8 185.92 22.11"/><polygon class="cls-1" points="185.84 22.16 205.4 22.16 211.47 3.2 217.55 22.16 237.1 22.16 221.29 33.76 227.29 52.33 211.44 40.99 195.69 52.33 201.67 33.85 185.84 22.16"/><polygon class="cls-1" points="185.77 22.21 205.32 22.21 211.4 3.25 217.47 22.21 237.03 22.21 221.21 33.81 227.22 52.38 211.36 41.05 195.61 52.38 201.6 33.9 185.77 22.21"/><polygon class="cls-1" points="185.69 22.26 205.25 22.26 211.32 3.3 217.4 22.26 236.95 22.26 221.14 33.86 227.15 52.43 211.28 41.09 195.54 52.43 201.52 33.95 185.69 22.26"/><polygon class="cls-1" points="185.62 22.31 205.17 22.31 211.25 3.35 217.32 22.31 236.88 22.31 221.06 33.91 227.07 52.48 211.21 41.15 195.46 52.48 201.45 34 185.62 22.31"/><polygon class="cls-1" points="185.54 22.36 205.1 22.36 211.17 3.4 217.25 22.36 236.8 22.36 220.99 33.96 227 52.53 211.13 41.2 195.39 52.53 201.37 34.05 185.54 22.36"/><polygon class="cls-1" points="185.47 22.41 205.02 22.41 211.1 3.45 217.17 22.41 236.73 22.41 220.91 34.01 226.92 52.58 211.06 41.24 195.31 52.58 201.3 34.1 185.47 22.41"/><polygon class="cls-1" points="185.39 22.46 204.95 22.46 211.02 3.5 217.1 22.46 236.65 22.46 220.84 34.06 226.84 52.63 210.99 41.3 195.24 52.63 201.22 34.15 185.39 22.46"/><polygon class="cls-1" points="185.32 22.51 204.87 22.51 210.95 3.55 217.02 22.51 236.58 22.51 220.76 34.11 226.77 52.68 210.91 41.34 195.16 52.68 201.15 34.2 185.32 22.51"/><polygon class="cls-1" points="185.24 22.56 204.8 22.56 210.87 3.6 216.95 22.56 236.5 22.56 220.69 34.16 226.69 52.73 210.84 41.4 195.09 52.73 201.07 34.25 185.24 22.56"/><polygon class="cls-2" points="210.83 40.78 196.03 51.43 201.66 34.06 186.76 23.06 205.16 23.06 210.87 5.24 216.58 23.06 234.97 23.06 220.1 33.97 225.75 51.44 210.83 40.78"/><path class="cls-1" d="M210.87,6.88l5.12,16,.23.69h17.23L220.1,33.35l-.59.43.23.69,5.07,15.68-13.39-9.57-.59-.42-.58.42L197,50.14l5-15.58.22-.69-.57-.43-13.39-9.88h17.25l.22-.69,5.12-16m0-3.28-6.07,19H185.24l15.83,11.69-6,18.48L210.83,41.4l15.86,11.33-6-18.57,15.81-11.6H217l-6.08-19Z"/><polygon class="cls-1" points="250.74 19.52 270.3 19.52 276.37 0.55 282.44 19.52 302 19.52 286.19 31.11 292.19 49.68 276.33 38.35 260.58 49.68 266.57 31.2 250.74 19.52"/><polygon class="cls-1" points="250.66 19.57 270.22 19.57 276.29 0.6 282.37 19.57 301.92 19.57 286.11 31.16 292.12 49.73 276.26 38.4 260.51 49.73 266.49 31.25 250.66 19.57"/><polygon class="cls-1" points="250.59 19.62 270.14 19.62 276.22 0.65 282.29 19.62 301.85 19.62 286.04 31.21 292.04 49.78 276.18 38.45 260.43 49.78 266.42 31.3 250.59 19.62"/><polygon class="cls-1" points="250.51 19.67 270.07 19.67 276.14 0.7 282.22 19.67 301.77 19.67 285.96 31.26 291.97 49.83 276.11 38.5 260.36 49.83 266.34 31.35 250.51 19.67"/><polygon class="cls-1" points="250.44 19.72 270 19.72 276.07 0.75 282.14 19.72 301.7 19.72 285.88 31.31 291.89 49.88 276.03 38.55 260.28 49.88 266.27 31.4 250.44 19.72"/><polygon class="cls-1" points="250.36 19.77 269.92 19.77 275.99 0.8 282.07 19.77 301.62 19.77 285.81 31.36 291.82 49.93 275.96 38.6 260.21 49.93 266.19 31.45 250.36 19.77"/><polygon class="cls-1" points="250.29 19.82 269.85 19.82 275.92 0.85 281.99 19.82 301.55 19.82 285.74 31.41 291.74 49.98 275.88 38.65 260.13 49.98 266.12 31.5 250.29 19.82"/><polygon class="cls-1" points="250.21 19.87 269.77 19.87 275.84 0.9 281.92 19.87 301.47 19.87 285.66 31.46 291.67 50.03 275.81 38.7 260.06 50.03 266.04 31.55 250.21 19.87"/><polygon class="cls-1" points="250.14 19.92 269.69 19.92 275.77 0.95 281.84 19.92 301.4 19.92 285.58 31.51 291.59 50.08 275.73 38.75 259.98 50.08 265.97 31.6 250.14 19.92"/><polygon class="cls-1" points="250.06 19.97 269.62 19.97 275.69 1 281.77 19.97 301.32 19.97 285.51 31.56 291.52 50.13 275.66 38.8 259.91 50.13 265.89 31.65 250.06 19.97"/><polygon class="cls-1" points="249.99 20.02 269.55 20.02 275.62 1.05 281.69 20.02 301.25 20.02 285.44 31.61 291.44 50.18 275.58 38.85 259.83 50.18 265.82 31.7 249.99 20.02"/><polygon class="cls-1" points="249.91 20.07 269.47 20.07 275.54 1.1 281.62 20.07 301.17 20.07 285.36 31.66 291.37 50.23 275.51 38.9 259.76 50.23 265.74 31.75 249.91 20.07"/><polygon class="cls-1" points="249.84 20.12 269.39 20.12 275.47 1.15 281.54 20.12 301.1 20.12 285.29 31.71 291.29 50.28 275.43 38.95 259.68 50.28 265.67 31.8 249.84 20.12"/><polygon class="cls-1" points="249.76 20.17 269.32 20.17 275.39 1.2 281.47 20.17 301.02 20.17 285.21 31.76 291.22 50.33 275.36 39 259.61 50.33 265.59 31.85 249.76 20.17"/><polygon class="cls-1" points="249.69 20.22 269.25 20.22 275.32 1.25 281.39 20.22 300.95 20.22 285.13 31.81 291.14 50.38 275.28 39.05 259.53 50.38 265.52 31.9 249.69 20.22"/><polygon class="cls-1" points="249.61 20.27 269.17 20.27 275.24 1.3 281.32 20.27 300.87 20.27 285.06 31.86 291.07 50.43 275.21 39.1 259.46 50.43 265.44 31.95 249.61 20.27"/><polygon class="cls-1" points="249.54 20.32 269.1 20.32 275.17 1.35 281.24 20.32 300.8 20.32 284.99 31.91 290.99 50.48 275.13 39.15 259.38 50.48 265.37 32 249.54 20.32"/><polygon class="cls-1" points="249.46 20.37 269.02 20.37 275.09 1.4 281.17 20.37 300.72 20.37 284.91 31.96 290.92 50.53 275.06 39.2 259.31 50.53 265.29 32.05 249.46 20.37"/><polygon class="cls-1" points="249.39 20.42 268.94 20.42 275.02 1.45 281.09 20.42 300.65 20.42 284.83 32.01 290.84 50.58 274.98 39.25 259.23 50.58 265.22 32.1 249.39 20.42"/><polygon class="cls-1" points="249.31 20.47 268.87 20.47 274.94 1.5 281.02 20.47 300.57 20.47 284.76 32.06 290.77 50.63 274.91 39.3 259.16 50.63 265.14 32.15 249.31 20.47"/><polygon class="cls-1" points="249.24 20.52 268.8 20.52 274.87 1.55 280.94 20.52 300.5 20.52 284.69 32.11 290.69 50.68 274.83 39.35 259.08 50.68 265.07 32.2 249.24 20.52"/><polygon class="cls-1" points="249.16 20.57 268.72 20.57 274.79 1.6 280.87 20.57 300.42 20.57 284.61 32.16 290.62 50.73 274.76 39.4 259.01 50.73 264.99 32.25 249.16 20.57"/><polygon class="cls-1" points="249.09 20.62 268.64 20.62 274.72 1.65 280.79 20.62 300.35 20.62 284.54 32.21 290.54 50.78 274.68 39.45 258.93 50.78 264.92 32.3 249.09 20.62"/><polygon class="cls-1" points="249.01 20.67 268.57 20.67 274.64 1.7 280.72 20.67 300.27 20.67 284.46 32.26 290.47 50.83 274.61 39.5 258.86 50.83 264.84 32.35 249.01 20.67"/><polygon class="cls-1" points="248.94 20.72 268.5 20.72 274.57 1.75 280.64 20.72 300.2 20.72 284.38 32.31 290.39 50.88 274.53 39.55 258.78 50.88 264.77 32.4 248.94 20.72"/><polygon class="cls-1" points="248.86 20.77 268.42 20.77 274.49 1.8 280.57 20.77 300.12 20.77 284.31 32.36 290.32 50.93 274.46 39.6 258.71 50.93 264.69 32.45 248.86 20.77"/><polygon class="cls-1" points="248.79 20.82 268.35 20.82 274.42 1.85 280.49 20.82 300.05 20.82 284.24 32.41 290.24 50.98 274.38 39.65 258.63 50.98 264.62 32.5 248.79 20.82"/><polygon class="cls-1" points="248.71 20.87 268.27 20.87 274.34 1.9 280.42 20.87 299.97 20.87 284.16 32.46 290.17 51.03 274.31 39.7 258.56 51.03 264.54 32.55 248.71 20.87"/><polygon class="cls-1" points="248.64 20.92 268.19 20.92 274.27 1.95 280.34 20.92 299.9 20.92 284.08 32.51 290.09 51.08 274.23 39.75 258.48 51.08 264.47 32.6 248.64 20.92"/><polygon class="cls-1" points="248.56 20.97 268.12 20.97 274.19 2 280.27 20.97 299.82 20.97 284.01 32.56 290.02 51.13 274.16 39.8 258.41 51.13 264.39 32.65 248.56 20.97"/><polygon class="cls-1" points="248.49 21.02 268.05 21.02 274.12 2.05 280.19 21.02 299.75 21.02 283.94 32.61 289.94 51.18 274.08 39.85 258.33 51.18 264.32 32.7 248.49 21.02"/><polygon class="cls-1" points="248.41 21.07 267.97 21.07 274.04 2.1 280.12 21.07 299.67 21.07 283.86 32.66 289.87 51.23 274.01 39.9 258.26 51.23 264.24 32.75 248.41 21.07"/><polygon class="cls-1" points="248.34 21.12 267.89 21.12 273.97 2.15 280.04 21.12 299.6 21.12 283.79 32.71 289.79 51.28 273.93 39.95 258.18 51.28 264.17 32.8 248.34 21.12"/><polygon class="cls-1" points="248.26 21.17 267.82 21.17 273.89 2.2 279.97 21.17 299.52 21.17 283.71 32.76 289.72 51.33 273.86 40 258.11 51.33 264.09 32.85 248.26 21.17"/><polygon class="cls-1" points="248.19 21.22 267.75 21.22 273.82 2.25 279.89 21.22 299.45 21.22 283.63 32.81 289.64 51.38 273.78 40.05 258.03 51.38 264.02 32.9 248.19 21.22"/><polygon class="cls-1" points="248.11 21.27 267.67 21.27 273.74 2.3 279.82 21.27 299.37 21.27 283.56 32.86 289.57 51.43 273.71 40.1 257.96 51.43 263.94 32.95 248.11 21.27"/><polygon class="cls-1" points="248.04 21.32 267.6 21.32 273.67 2.35 279.74 21.32 299.3 21.32 283.49 32.91 289.49 51.48 273.63 40.15 257.88 51.48 263.87 33 248.04 21.32"/><polygon class="cls-1" points="247.96 21.37 267.52 21.37 273.59 2.4 279.67 21.37 299.22 21.37 283.41 32.96 289.42 51.53 273.56 40.2 257.81 51.53 263.79 33.05 247.96 21.37"/><polygon class="cls-1" points="247.89 21.42 267.44 21.42 273.52 2.45 279.59 21.42 299.15 21.42 283.33 33.01 289.34 51.58 273.48 40.25 257.73 51.58 263.72 33.1 247.89 21.42"/><polygon class="cls-1" points="247.81 21.47 267.37 21.47 273.44 2.5 279.52 21.47 299.07 21.47 283.26 33.06 289.27 51.63 273.41 40.3 257.66 51.63 263.64 33.15 247.81 21.47"/><polygon class="cls-1" points="247.74 21.52 267.3 21.52 273.37 2.55 279.44 21.52 299 21.52 283.19 33.11 289.19 51.68 273.33 40.35 257.58 51.68 263.57 33.2 247.74 21.52"/><polygon class="cls-1" points="247.66 21.57 267.22 21.57 273.29 2.6 279.37 21.57 298.92 21.57 283.11 33.16 289.12 51.73 273.26 40.4 257.51 51.73 263.49 33.25 247.66 21.57"/><polygon class="cls-1" points="247.59 21.62 267.14 21.62 273.22 2.65 279.29 21.62 298.85 21.62 283.04 33.21 289.04 51.78 273.18 40.45 257.43 51.78 263.42 33.3 247.59 21.62"/><polygon class="cls-1" points="247.51 21.67 267.07 21.67 273.14 2.7 279.22 21.67 298.77 21.67 282.96 33.26 288.97 51.83 273.11 40.5 257.36 51.83 263.34 33.35 247.51 21.67"/><polygon class="cls-1" points="247.44 21.72 267 21.72 273.07 2.75 279.14 21.72 298.7 21.72 282.88 33.31 288.89 51.88 273.03 40.55 257.28 51.88 263.27 33.4 247.44 21.72"/><polygon class="cls-1" points="247.36 21.77 266.92 21.77 272.99 2.8 279.07 21.77 298.62 21.77 282.81 33.36 288.82 51.93 272.96 40.6 257.21 51.93 263.19 33.45 247.36 21.77"/><polygon class="cls-1" points="247.29 21.82 266.85 21.82 272.92 2.85 278.99 21.82 298.55 21.82 282.74 33.41 288.74 51.98 272.88 40.65 257.13 51.98 263.12 33.5 247.29 21.82"/><polygon class="cls-1" points="247.21 21.87 266.77 21.87 272.84 2.9 278.92 21.87 298.47 21.87 282.66 33.46 288.67 52.03 272.81 40.7 257.06 52.03 263.04 33.55 247.21 21.87"/><polygon class="cls-1" points="247.14 21.92 266.69 21.92 272.77 2.95 278.84 21.92 298.4 21.92 282.58 33.51 288.59 52.08 272.73 40.75 256.98 52.08 262.97 33.6 247.14 21.92"/><polygon class="cls-1" points="247.06 21.97 266.62 21.97 272.69 3 278.77 21.97 298.32 21.97 282.51 33.56 288.52 52.13 272.66 40.8 256.91 52.13 262.89 33.65 247.06 21.97"/><polygon class="cls-1" points="246.99 22.02 266.55 22.02 272.62 3.05 278.69 22.02 298.25 22.02 282.44 33.61 288.44 52.18 272.58 40.85 256.83 52.18 262.82 33.7 246.99 22.02"/><polygon class="cls-2" points="272.58 40.23 257.78 50.89 263.4 33.52 248.51 22.52 266.91 22.52 272.62 4.69 278.33 22.52 296.72 22.52 281.85 33.42 287.5 50.9 272.58 40.23"/><path class="cls-1" d="M272.62,6.33l5.12,16,.22.7h17.23l-13.35,9.79-.58.42.22.69,5.08,15.69L273.16,40l-.58-.42L272,40l-13.28,9.55,5-15.58.22-.68-.58-.43L250,23h17.24l.23-.7,5.12-16m0-3.28-6.07,19H247L262.82,33.7l-6,18.48,15.75-11.33,15.86,11.33-6-18.57L298.25,22H278.69l-6.07-19Z"/></g></svg>