<svg xmlns="http://www.w3.org/2000/svg" viewBox="0 0 320 64"><defs><style>.cls-1{fill:#1d1d1b;}.cls-2{fill:#fff;}.cls-3{fill:#dfdd00;}</style></defs><g id="Stars"><polygon class="cls-1" points="12.63 23.35 32.18 23.35 38.26 4.39 44.33 23.35 63.88 23.35 48.07 34.95 54.08 53.52 38.22 42.19 22.47 53.52 28.45 35.04 12.63 23.35"/><polygon class="cls-1" points="12.55 23.4 32.11 23.4 38.18 4.44 44.25 23.4 63.81 23.4 48 35 54 53.57 38.14 42.24 22.39 53.57 28.38 35.09 12.55 23.4"/><polygon class="cls-1" points="12.48 23.45 32.03 23.45 38.1 4.49 44.18 23.45 63.73 23.45 47.92 35.05 53.93 53.62 38.07 42.29 22.32 53.62 28.3 35.14 12.48 23.45"/><polygon class="cls-1" points="12.4 23.5 31.96 23.5 38.03 4.54 44.1 23.5 63.66 23.5 47.85 35.1 53.85 53.67 37.99 42.34 22.24 53.67 28.23 35.19 12.4 23.5"/><polygon class="cls-1" points="12.33 23.55 31.88 23.55 37.95 4.59 44.03 23.55 63.59 23.55 47.77 35.15 53.78 53.72 37.92 42.39 22.17 53.72 28.16 35.24 12.33 23.55"/><polygon class="cls-1" points="12.25 23.6 31.81 23.6 37.88 4.64 43.95 23.6 63.51 23.6 47.7 35.2 53.7 53.77 37.84 42.44 22.09 53.77 28.08 35.29 12.25 23.6"/><polygon class="cls-1" points="12.18 23.65 31.73 23.65 37.8 4.69 43.88 23.65 63.44 23.65 47.62 35.25 53.63 53.82 37.77 42.49 22.02 53.82 28 35.34 12.18 23.65"/><polygon class="cls-1" points="12.1 23.7 31.66 23.7 37.73 4.74 43.8 23.7 63.36 23.7 47.55 35.3 53.55 53.87 37.69 42.54 21.94 53.87 27.93 35.39 12.1 23.7"/><polygon class="cls-1" points="12.03 23.75 31.58 23.75 37.66 4.79 43.73 23.75 63.28 23.75 47.47 35.35 53.48 53.92 37.62 42.59 21.87 53.92 27.86 35.44 12.03 23.75"/><polygon class="cls-1" points="11.95 23.8 31.51 23.8 37.58 4.84 43.65 23.8 63.21 23.8 47.4 35.4 53.4 53.97 37.54 42.64 21.79 53.97 27.78 35.49 11.95 23.8"/><polygon class="cls-1" points="11.88 23.85 31.43 23.85 37.51 4.89 43.58 23.85 63.13 23.85 47.32 35.45 53.33 54.02 37.47 42.69 21.72 54.02 27.7 35.54 11.88 23.85"/><polygon class="cls-1" points="11.8 23.9 31.36 23.9 37.43 4.94 43.5 23.9 63.06 23.9 47.25 35.5 53.25 54.07 37.39 42.74 21.64 54.07 27.63 35.59 11.8 23.9"/><polygon class="cls-1" points="11.73 23.95 31.28 23.95 37.35 4.99 43.43 23.95 62.98 23.95 47.17 35.55 53.18 54.12 37.32 42.79 21.57 54.12 27.55 35.64 11.73 23.95"/><polygon class="cls-1" points="11.65 24 31.21 24 37.28 5.04 43.35 24 62.91 24 47.1 35.6 53.1 54.17 37.24 42.84 21.49 54.17 27.48 35.69 11.65 24"/><polygon class="cls-1" points="11.58 24.05 31.13 24.05 37.2 5.09 43.28 24.05 62.84 24.05 47.02 35.65 53.03 54.22 37.17 42.89 21.42 54.22 27.41 35.74 11.58 24.05"/><polygon class="cls-1" points="11.5 24.1 31.06 24.1 37.13 5.14 43.2 24.1 62.76 24.1 46.95 35.7 52.95 54.27 37.09 42.94 21.34 54.27 27.33 35.79 11.5 24.1"/><polygon class="cls-1" points="11.43 24.15 30.98 24.15 37.05 5.19 43.13 24.15 62.69 24.15 46.87 35.75 52.88 54.32 37.02 42.99 21.27 54.32 27.25 35.84 11.43 24.15"/><polygon class="cls-1" points="11.35 24.2 30.91 24.2 36.98 5.24 43.05 24.2 62.61 24.2 46.8 35.8 52.8 54.37 36.94 43.04 21.19 54.37 27.18 35.89 11.35 24.2"/><polygon class="cls-1" points="11.28 24.25 30.83 24.25 36.91 5.29 42.98 24.25 62.53 24.25 46.72 35.85 52.73 54.42 36.87 43.09 21.12 54.42 27.11 35.94 11.28 24.25"/><polygon class="cls-1" points="11.2 24.3 30.76 24.3 36.83 5.34 42.9 24.3 62.46 24.3 46.65 35.9 52.65 54.47 36.79 43.14 21.04 54.47 27.03 35.99 11.2 24.3"/><polygon class="cls-1" points="11.13 24.35 30.68 24.35 36.76 5.39 42.83 24.35 62.38 24.35 46.57 35.95 52.58 54.52 36.72 43.19 20.97 54.52 26.95 36.04 11.13 24.35"/><polygon class="cls-1" points="11.05 24.4 30.61 24.4 36.68 5.44 42.75 24.4 62.31 24.4 46.5 36 52.5 54.57 36.64 43.24 20.89 54.57 26.88 36.09 11.05 24.4"/><polygon class="cls-1" points="10.98 24.45 30.53 24.45 36.6 5.49 42.68 24.45 62.23 24.45 46.42 36.05 52.43 54.62 36.57 43.29 20.82 54.62 26.8 36.14 10.98 24.45"/><polygon class="cls-1" points="10.9 24.5 30.46 24.5 36.53 5.54 42.6 24.5 62.16 24.5 46.35 36.1 52.35 54.67 36.49 43.34 20.74 54.67 26.73 36.19 10.9 24.5"/><polygon class="cls-1" points="10.83 24.55 30.38 24.55 36.45 5.59 42.53 24.55 62.09 24.55 46.27 36.15 52.28 54.72 36.42 43.39 20.67 54.72 26.66 36.24 10.83 24.55"/><polygon class="cls-1" points="10.75 24.6 30.31 24.6 36.38 5.64 42.45 24.6 62.01 24.6 46.2 36.2 52.2 54.77 36.34 43.44 20.59 54.77 26.58 36.29 10.75 24.6"/><polygon class="cls-1" points="10.68 24.65 30.23 24.65 36.3 5.69 42.38 24.65 61.94 24.65 46.12 36.25 52.13 54.82 36.27 43.49 20.52 54.82 26.5 36.34 10.68 24.65"/><polygon class="cls-1" points="10.6 24.7 30.16 24.7 36.23 5.74 42.3 24.7 61.86 24.7 46.05 36.3 52.05 54.87 36.19 43.54 20.44 54.87 26.43 36.39 10.6 24.7"/><polygon class="cls-1" points="10.53 24.75 30.08 24.75 36.16 5.79 42.23 24.75 61.78 24.75 45.97 36.35 51.98 54.92 36.12 43.59 20.37 54.92 26.36 36.44 10.53 24.75"/><polygon class="cls-1" points="10.45 24.8 30.01 24.8 36.08 5.84 42.15 24.8 61.71 24.8 45.9 36.4 51.9 54.97 36.04 43.64 20.29 54.97 26.28 36.49 10.45 24.8"/><polygon class="cls-1" points="10.38 24.85 29.93 24.85 36.01 5.89 42.08 24.85 61.63 24.85 45.82 36.45 51.83 55.02 35.97 43.69 20.22 55.02 26.2 36.54 10.38 24.85"/><polygon class="cls-1" points="10.3 24.9 29.86 24.9 35.93 5.94 42 24.9 61.56 24.9 45.75 36.5 51.75 55.07 35.89 43.74 20.14 55.07 26.13 36.59 10.3 24.9"/><polygon class="cls-1" points="10.23 24.95 29.78 24.95 35.85 5.99 41.93 24.95 61.48 24.95 45.67 36.55 51.68 55.12 35.82 43.79 20.07 55.12 26.05 36.64 10.23 24.95"/><polygon class="cls-1" points="10.15 25 29.71 25 35.78 6.04 41.85 25 61.41 25 45.6 36.6 51.6 55.17 35.74 43.84 19.99 55.17 25.98 36.69 10.15 25"/><polygon class="cls-1" points="10.08 25.05 29.63 25.05 35.7 6.09 41.78 25.05 61.34 25.05 45.52 36.65 51.53 55.22 35.67 43.89 19.92 55.22 25.91 36.74 10.08 25.05"/><polygon class="cls-1" points="10 25.1 29.56 25.1 35.63 6.14 41.7 25.1 61.26 25.1 45.45 36.7 51.45 55.27 35.59 43.94 19.84 55.27 25.83 36.79 10 25.1"/><polygon class="cls-1" points="9.93 25.15 29.48 25.15 35.55 6.19 41.63 25.15 61.19 25.15 45.37 36.75 51.38 55.32 35.52 43.99 19.77 55.32 25.75 36.84 9.93 25.15"/><polygon class="cls-1" points="9.85 25.2 29.41 25.2 35.48 6.24 41.55 25.2 61.11 25.2 45.3 36.8 51.3 55.37 35.44 44.04 19.69 55.37 25.68 36.89 9.85 25.2"/><polygon class="cls-1" points="9.78 25.25 29.33 25.25 35.41 6.29 41.48 25.25 61.03 25.25 45.22 36.85 51.23 55.42 35.37 44.09 19.62 55.42 25.61 36.94 9.78 25.25"/><polygon class="cls-1" points="9.7 25.3 29.26 25.3 35.33 6.34 41.4 25.3 60.96 25.3 45.15 36.9 51.15 55.47 35.29 44.14 19.54 55.47 25.53 36.99 9.7 25.3"/><polygon class="cls-1" points="9.63 25.35 29.18 25.35 35.26 6.39 41.33 25.35 60.88 25.35 45.07 36.95 51.08 55.52 35.22 44.19 19.47 55.52 25.45 37.04 9.63 25.35"/><polygon class="cls-1" points="9.55 25.4 29.11 25.4 35.18 6.44 41.25 25.4 60.81 25.4 45 37 51 55.57 35.14 44.24 19.39 55.57 25.38 37.09 9.55 25.4"/><polygon class="cls-1" points="9.48 25.45 29.03 25.45 35.1 6.49 41.18 25.45 60.73 25.45 44.92 37.05 50.93 55.62 35.07 44.29 19.32 55.62 25.3 37.14 9.48 25.45"/><polygon class="cls-1" points="9.4 25.5 28.96 25.5 35.03 6.54 41.1 25.5 60.66 25.5 44.85 37.1 50.85 55.67 34.99 44.34 19.24 55.67 25.23 37.19 9.4 25.5"/><polygon class="cls-1" points="9.33 25.55 28.88 25.55 34.95 6.59 41.03 25.55 60.59 25.55 44.77 37.15 50.78 55.72 34.92 44.39 19.17 55.72 25.16 37.24 9.33 25.55"/><polygon class="cls-1" points="9.25 25.6 28.81 25.6 34.88 6.64 40.95 25.6 60.51 25.6 44.7 37.2 50.7 55.77 34.84 44.44 19.09 55.77 25.08 37.29 9.25 25.6"/><polygon class="cls-1" points="9.18 25.65 28.73 25.65 34.8 6.69 40.88 25.65 60.44 25.65 44.62 37.25 50.63 55.82 34.77 44.49 19.02 55.82 25 37.34 9.18 25.65"/><polygon class="cls-1" points="9.1 25.7 28.66 25.7 34.73 6.74 40.8 25.7 60.36 25.7 44.55 37.3 50.55 55.87 34.69 44.54 18.94 55.87 24.93 37.39 9.1 25.7"/><polygon class="cls-1" points="9.03 25.75 28.58 25.75 34.66 6.79 40.73 25.75 60.28 25.75 44.47 37.35 50.48 55.92 34.62 44.59 18.87 55.92 24.86 37.44 9.03 25.75"/><polygon class="cls-1" points="8.95 25.8 28.51 25.8 34.58 6.84 40.65 25.8 60.21 25.8 44.4 37.4 50.4 55.97 34.54 44.64 18.79 55.97 24.78 37.49 8.95 25.8"/><polygon class="cls-1" points="8.88 25.85 28.43 25.85 34.51 6.89 40.58 25.85 60.13 25.85 44.32 37.45 50.33 56.02 34.47 44.69 18.72 56.02 24.7 37.54 8.88 25.85"/><polygon class="cls-2" points="34.47 44.07 19.66 54.72 25.29 37.35 10.39 26.35 28.8 26.35 34.51 8.53 40.21 26.35 58.61 26.35 43.73 37.26 49.39 54.73 34.47 44.07"/><path class="cls-1" d="M34.51,10.17l5.12,16,.22.69H57.08L43.73,36.64l-.58.43.22.69,5.07,15.68L35.05,43.87l-.58-.41-.59.41L20.61,53.43l5.05-15.58.22-.69-.58-.42L11.91,26.85H29.16l.22-.69,5.13-16m0-3.28-6.08,19H8.88L24.7,37.54,18.72,56,34.47,44.69,50.33,56l-6-18.57,15.81-11.6H40.58l-6.07-19Z"/><polygon class="cls-1" points="74.37 23.9 93.93 23.9 100 4.93 106.08 23.9 125.63 23.9 109.82 35.49 115.83 54.06 99.97 42.73 84.22 54.06 90.2 35.59 74.37 23.9"/><polygon class="cls-1" points="74.3 23.95 93.85 23.95 99.93 4.99 106 23.95 125.56 23.95 109.74 35.55 115.75 54.12 99.89 42.78 84.14 54.12 90.13 35.63 74.3 23.95"/><polygon class="cls-1" points="74.22 24 93.78 24 99.85 5.04 105.93 24 125.48 24 109.67 35.59 115.67 54.16 99.82 42.83 84.07 54.16 90.05 35.69 74.22 24"/><polygon class="cls-1" points="74.15 24.05 93.7 24.05 99.78 5.08 105.85 24.05 125.41 24.05 109.59 35.65 115.6 54.22 99.74 42.88 83.99 54.22 89.98 35.73 74.15 24.05"/><polygon class="cls-1" points="74.07 24.1 93.63 24.1 99.7 5.13 105.78 24.1 125.33 24.1 109.52 35.7 115.53 54.27 99.67 42.93 83.92 54.27 89.9 35.78 74.07 24.1"/><polygon class="cls-1" points="74 24.15 93.55 24.15 99.63 5.18 105.7 24.15 125.26 24.15 109.44 35.74 115.45 54.31 99.59 42.98 83.84 54.31 89.83 35.84 74 24.15"/><polygon class="cls-1" points="73.92 24.2 93.48 24.2 99.55 5.24 105.63 24.2 125.18 24.2 109.37 35.8 115.38 54.37 99.52 43.03 83.77 54.37 89.75 35.88 73.92 24.2"/><polygon class="cls-1" points="73.85 24.25 93.4 24.25 99.48 5.29 105.55 24.25 125.11 24.25 109.29 35.84 115.3 54.41 99.44 43.08 83.69 54.41 89.68 35.94 73.85 24.25"/><polygon class="cls-1" points="73.77 24.3 93.33 24.3 99.4 5.33 105.48 24.3 125.03 24.3 109.22 35.9 115.22 54.47 99.37 43.13 83.62 54.47 89.6 35.98 73.77 24.3"/><polygon class="cls-1" points="73.7 24.35 93.25 24.35 99.33 5.38 105.4 24.35 124.96 24.35 109.14 35.95 115.15 54.52 99.29 43.18 83.54 54.52 89.53 36.03 73.7 24.35"/><polygon class="cls-1" points="73.62 24.4 93.18 24.4 99.25 5.43 105.33 24.4 124.88 24.4 109.07 35.99 115.08 54.56 99.22 43.23 83.47 54.56 89.45 36.09 73.62 24.4"/><polygon class="cls-1" points="73.55 24.45 93.1 24.45 99.18 5.49 105.25 24.45 124.81 24.45 108.99 36.05 115 54.62 99.14 43.28 83.39 54.62 89.38 36.13 73.55 24.45"/><polygon class="cls-1" points="73.47 24.5 93.03 24.5 99.1 5.54 105.18 24.5 124.73 24.5 108.92 36.09 114.92 54.66 99.07 43.33 83.32 54.66 89.3 36.19 73.47 24.5"/><polygon class="cls-1" points="73.4 24.55 92.95 24.55 99.03 5.58 105.1 24.55 124.66 24.55 108.84 36.15 114.85 54.72 98.99 43.38 83.24 54.72 89.23 36.23 73.4 24.55"/><polygon class="cls-1" points="73.32 24.6 92.88 24.6 98.95 5.63 105.03 24.6 124.58 24.6 108.77 36.2 114.78 54.77 98.92 43.43 83.17 54.77 89.15 36.28 73.32 24.6"/><polygon class="cls-1" points="73.25 24.65 92.8 24.65 98.88 5.68 104.95 24.65 124.51 24.65 108.69 36.24 114.7 54.81 98.84 43.48 83.09 54.81 89.08 36.34 73.25 24.65"/><polygon class="cls-1" points="73.17 24.7 92.73 24.7 98.8 5.74 104.88 24.7 124.43 24.7 108.62 36.3 114.63 54.87 98.77 43.53 83.02 54.87 89 36.38 73.17 24.7"/><polygon class="cls-1" points="73.1 24.75 92.65 24.75 98.73 5.79 104.8 24.75 124.36 24.75 108.54 36.34 114.55 54.91 98.69 43.58 82.94 54.91 88.93 36.44 73.1 24.75"/><polygon class="cls-1" points="73.02 24.8 92.58 24.8 98.65 5.83 104.73 24.8 124.28 24.8 108.47 36.4 114.47 54.97 98.62 43.63 82.87 54.97 88.85 36.48 73.02 24.8"/><polygon class="cls-1" points="72.95 24.85 92.5 24.85 98.58 5.88 104.65 24.85 124.21 24.85 108.39 36.45 114.4 55.02 98.54 43.68 82.79 55.02 88.78 36.53 72.95 24.85"/><polygon class="cls-1" points="72.87 24.9 92.43 24.9 98.5 5.93 104.58 24.9 124.13 24.9 108.32 36.49 114.33 55.06 98.47 43.73 82.72 55.06 88.7 36.59 72.87 24.9"/><polygon class="cls-1" points="72.8 24.95 92.35 24.95 98.43 5.99 104.5 24.95 124.06 24.95 108.24 36.55 114.25 55.12 98.39 43.78 82.64 55.12 88.63 36.63 72.8 24.95"/><polygon class="cls-1" points="72.72 25 92.28 25 98.35 6.04 104.43 25 123.98 25 108.17 36.59 114.17 55.16 98.32 43.83 82.57 55.16 88.55 36.69 72.72 25"/><polygon class="cls-1" points="72.65 25.05 92.2 25.05 98.28 6.08 104.35 25.05 123.91 25.05 108.09 36.65 114.1 55.22 98.24 43.88 82.49 55.22 88.48 36.73 72.65 25.05"/><polygon class="cls-1" points="72.57 25.1 92.13 25.1 98.2 6.13 104.28 25.1 123.83 25.1 108.02 36.7 114.03 55.27 98.17 43.93 82.42 55.27 88.4 36.78 72.57 25.1"/><polygon class="cls-1" points="72.5 25.15 92.05 25.15 98.13 6.18 104.2 25.15 123.76 25.15 107.94 36.74 113.95 55.31 98.09 43.98 82.34 55.31 88.33 36.84 72.5 25.15"/><polygon class="cls-1" points="72.42 25.2 91.98 25.2 98.05 6.24 104.13 25.2 123.68 25.2 107.87 36.8 113.88 55.37 98.02 44.03 82.27 55.37 88.25 36.88 72.42 25.2"/><polygon class="cls-1" points="72.35 25.25 91.9 25.25 97.98 6.29 104.05 25.25 123.61 25.25 107.79 36.84 113.8 55.41 97.94 44.08 82.19 55.41 88.18 36.94 72.35 25.25"/><polygon class="cls-1" points="72.27 25.3 91.83 25.3 97.9 6.33 103.98 25.3 123.53 25.3 107.72 36.9 113.72 55.47 97.87 44.13 82.12 55.47 88.1 36.98 72.27 25.3"/><polygon class="cls-1" points="72.2 25.35 91.75 25.35 97.83 6.38 103.9 25.35 123.46 25.35 107.64 36.95 113.65 55.52 97.79 44.18 82.04 55.52 88.03 37.03 72.2 25.35"/><polygon class="cls-1" points="72.12 25.4 91.68 25.4 97.75 6.43 103.83 25.4 123.38 25.4 107.57 36.99 113.58 55.56 97.72 44.23 81.97 55.56 87.95 37.09 72.12 25.4"/><polygon class="cls-1" points="72.05 25.45 91.6 25.45 97.68 6.49 103.75 25.45 123.31 25.45 107.49 37.05 113.5 55.62 97.64 44.28 81.89 55.62 87.88 37.13 72.05 25.45"/><polygon class="cls-1" points="71.97 25.5 91.53 25.5 97.6 6.54 103.68 25.5 123.23 25.5 107.42 37.09 113.42 55.66 97.57 44.33 81.82 55.66 87.8 37.19 71.97 25.5"/><polygon class="cls-1" points="71.9 25.55 91.45 25.55 97.53 6.58 103.6 25.55 123.16 25.55 107.34 37.15 113.35 55.72 97.49 44.38 81.74 55.72 87.73 37.23 71.9 25.55"/><polygon class="cls-1" points="71.82 25.6 91.38 25.6 97.45 6.63 103.53 25.6 123.08 25.6 107.27 37.2 113.28 55.77 97.42 44.43 81.67 55.77 87.65 37.28 71.82 25.6"/><polygon class="cls-1" points="71.75 25.65 91.3 25.65 97.38 6.68 103.45 25.65 123.01 25.65 107.19 37.24 113.2 55.81 97.34 44.48 81.59 55.81 87.58 37.34 71.75 25.65"/><polygon class="cls-1" points="71.67 25.7 91.23 25.7 97.3 6.74 103.38 25.7 122.93 25.7 107.12 37.3 113.13 55.87 97.27 44.53 81.52 55.87 87.5 37.38 71.67 25.7"/><polygon class="cls-1" points="71.6 25.75 91.15 25.75 97.23 6.79 103.3 25.75 122.86 25.75 107.04 37.34 113.05 55.91 97.19 44.58 81.44 55.91 87.43 37.44 71.6 25.75"/><polygon class="cls-1" points="71.52 25.8 91.08 25.8 97.15 6.83 103.23 25.8 122.78 25.8 106.97 37.4 112.97 55.97 97.12 44.63 81.37 55.97 87.35 37.48 71.52 25.8"/><polygon class="cls-1" points="71.45 25.85 91 25.85 97.08 6.88 103.15 25.85 122.71 25.85 106.89 37.45 112.9 56.02 97.04 44.68 81.29 56.02 87.28 37.53 71.45 25.85"/><polygon class="cls-1" points="71.37 25.9 90.93 25.9 97 6.93 103.08 25.9 122.63 25.9 106.82 37.49 112.83 56.06 96.97 44.73 81.22 56.06 87.2 37.59 71.37 25.9"/><polygon class="cls-1" points="71.3 25.95 90.85 25.95 96.93 6.99 103 25.95 122.56 25.95 106.74 37.55 112.75 56.12 96.89 44.78 81.14 56.12 87.13 37.63 71.3 25.95"/><polygon class="cls-1" points="71.22 26 90.78 26 96.85 7.04 102.93 26 122.48 26 106.67 37.59 112.67 56.16 96.82 44.83 81.07 56.16 87.05 37.69 71.22 26"/><polygon class="cls-1" points="71.15 26.05 90.7 26.05 96.78 7.08 102.85 26.05 122.41 26.05 106.59 37.65 112.6 56.22 96.74 44.88 80.99 56.22 86.98 37.73 71.15 26.05"/><polygon class="cls-1" points="71.07 26.1 90.63 26.1 96.7 7.13 102.78 26.1 122.33 26.1 106.52 37.7 112.53 56.27 96.67 44.93 80.92 56.27 86.9 37.78 71.07 26.1"/><polygon class="cls-1" points="71 26.15 90.55 26.15 96.63 7.18 102.7 26.15 122.26 26.15 106.44 37.74 112.45 56.31 96.59 44.98 80.84 56.31 86.83 37.84 71 26.15"/><polygon class="cls-1" points="70.92 26.2 90.48 26.2 96.55 7.24 102.63 26.2 122.18 26.2 106.37 37.8 112.38 56.37 96.52 45.03 80.77 56.37 86.75 37.88 70.92 26.2"/><polygon class="cls-1" points="70.85 26.25 90.4 26.25 96.48 7.29 102.55 26.25 122.11 26.25 106.29 37.84 112.3 56.41 96.44 45.08 80.69 56.41 86.68 37.94 70.85 26.25"/><polygon class="cls-1" points="70.77 26.3 90.33 26.3 96.4 7.33 102.48 26.3 122.03 26.3 106.22 37.9 112.22 56.47 96.37 45.13 80.62 56.47 86.6 37.98 70.77 26.3"/><polygon class="cls-1" points="70.7 26.35 90.25 26.35 96.33 7.38 102.4 26.35 121.96 26.35 106.14 37.95 112.15 56.52 96.29 45.18 80.54 56.52 86.53 38.03 70.7 26.35"/><polygon class="cls-1" points="70.62 26.4 90.18 26.4 96.25 7.43 102.33 26.4 121.88 26.4 106.07 37.99 112.08 56.56 96.22 45.23 80.47 56.56 86.45 38.09 70.62 26.4"/><polygon class="cls-2" points="96.21 44.62 81.41 55.27 87.04 37.9 72.14 26.9 90.54 26.9 96.25 9.07 101.96 26.9 120.36 26.9 105.48 37.8 111.13 55.28 96.21 44.62"/><path class="cls-1" d="M96.25,10.71l5.12,16,.23.7h17.23l-13.35,9.79-.59.43.23.68L110.19,54,96.8,44.42,96.21,44l-.58.42L82.36,54l5-15.58.23-.68-.58-.43L73.66,27.4H90.91l.22-.7,5.12-16m0-3.27-6.07,19H70.62L86.45,38.09l-6,18.47L96.22,45.23l15.86,11.33-6-18.56,15.81-11.6H102.33l-6.08-19Z"/><polygon class="cls-1" points="136.12 23.35 155.68 23.35 161.75 4.39 167.82 23.35 187.38 23.35 171.57 34.95 177.57 53.52 161.71 42.19 145.96 53.52 151.95 35.04 136.12 23.35"/><polygon class="cls-1" points="136.04 23.4 155.6 23.4 161.68 4.44 167.75 23.4 187.31 23.4 171.49 35 177.5 53.57 161.64 42.24 145.89 53.57 151.87 35.09 136.04 23.4"/><polygon class="cls-1" points="135.97 23.45 155.53 23.45 161.6 4.49 167.67 23.45 187.23 23.45 171.42 35.05 177.42 53.62 161.56 42.29 145.81 53.62 151.8 35.14 135.97 23.45"/><polygon class="cls-1" points="135.9 23.5 155.45 23.5 161.53 4.54 167.6 23.5 187.16 23.5 171.34 35.1 177.35 53.67 161.49 42.34 145.74 53.67 151.72 35.19 135.9 23.5"/><polygon class="cls-1" points="135.82 23.55 155.38 23.55 161.45 4.59 167.52 23.55 187.08 23.55 171.27 35.15 177.27 53.72 161.41 42.39 145.66 53.72 151.65 35.24 135.82 23.55"/><polygon class="cls-1" points="135.75 23.6 155.3 23.6 161.38 4.64 167.45 23.6 187 23.6 171.19 35.2 177.2 53.77 161.34 42.44 145.59 53.77 151.57 35.29 135.75 23.6"/><polygon class="cls-1" points="135.67 23.65 155.23 23.65 161.3 4.69 167.37 23.65 186.93 23.65 171.12 35.25 177.12 53.82 161.26 42.49 145.51 53.82 151.5 35.34 135.67 23.65"/><polygon class="cls-1" points="135.59 23.7 155.15 23.7 161.22 4.74 167.3 23.7 186.85 23.7 171.04 35.3 177.05 53.87 161.19 42.54 145.44 53.87 151.42 35.39 135.59 23.7"/><polygon class="cls-1" points="135.52 23.75 155.08 23.75 161.15 4.79 167.22 23.75 186.78 23.75 170.97 35.35 176.97 53.92 161.11 42.59 145.36 53.92 151.35 35.44 135.52 23.75"/><polygon class="cls-1" points="135.44 23.8 155 23.8 161.07 4.84 167.15 23.8 186.71 23.8 170.89 35.4 176.9 53.97 161.04 42.64 145.29 53.97 151.27 35.49 135.44 23.8"/><polygon class="cls-1" points="135.37 23.85 154.93 23.85 161 4.89 167.07 23.85 186.63 23.85 170.82 35.45 176.82 54.02 160.96 42.69 145.21 54.02 151.2 35.54 135.37 23.85"/><polygon class="cls-1" points="135.29 23.9 154.85 23.9 160.93 4.94 167 23.9 186.56 23.9 170.74 35.5 176.75 54.07 160.89 42.74 145.14 54.07 151.12 35.59 135.29 23.9"/><polygon class="cls-1" points="135.22 23.95 154.78 23.95 160.85 4.99 166.92 23.95 186.48 23.95 170.67 35.55 176.67 54.12 160.81 42.79 145.06 54.12 151.05 35.64 135.22 23.95"/><polygon class="cls-1" points="135.15 24 154.7 24 160.78 5.04 166.85 24 186.41 24 170.59 35.6 176.6 54.17 160.74 42.84 144.99 54.17 150.97 35.69 135.15 24"/><polygon class="cls-1" points="135.07 24.05 154.63 24.05 160.7 5.09 166.77 24.05 186.33 24.05 170.52 35.65 176.52 54.22 160.66 42.89 144.91 54.22 150.9 35.74 135.07 24.05"/><polygon class="cls-1" points="135 24.1 154.55 24.1 160.63 5.14 166.7 24.1 186.25 24.1 170.44 35.7 176.45 54.27 160.59 42.94 144.84 54.27 150.82 35.79 135 24.1"/><polygon class="cls-1" points="134.92 24.15 154.48 24.15 160.55 5.19 166.62 24.15 186.18 24.15 170.37 35.75 176.37 54.32 160.51 42.99 144.76 54.32 150.75 35.84 134.92 24.15"/><polygon class="cls-1" points="134.84 24.2 154.4 24.2 160.47 5.24 166.55 24.2 186.1 24.2 170.29 35.8 176.3 54.37 160.44 43.04 144.69 54.37 150.67 35.89 134.84 24.2"/><polygon class="cls-1" points="134.77 24.25 154.33 24.25 160.4 5.29 166.47 24.25 186.03 24.25 170.22 35.85 176.22 54.42 160.36 43.09 144.61 54.42 150.6 35.94 134.77 24.25"/><polygon class="cls-1" points="134.69 24.3 154.25 24.3 160.32 5.34 166.4 24.3 185.96 24.3 170.14 35.9 176.15 54.47 160.29 43.14 144.54 54.47 150.52 35.99 134.69 24.3"/><polygon class="cls-1" points="134.62 24.35 154.18 24.35 160.25 5.39 166.32 24.35 185.88 24.35 170.07 35.95 176.07 54.52 160.21 43.19 144.46 54.52 150.45 36.04 134.62 24.35"/><polygon class="cls-1" points="134.54 24.4 154.1 24.4 160.18 5.44 166.25 24.4 185.81 24.4 169.99 36 176 54.57 160.14 43.24 144.39 54.57 150.37 36.09 134.54 24.4"/><polygon class="cls-1" points="134.47 24.45 154.03 24.45 160.1 5.49 166.17 24.45 185.73 24.45 169.92 36.05 175.92 54.62 160.06 43.29 144.31 54.62 150.3 36.14 134.47 24.45"/><polygon class="cls-1" points="134.4 24.5 153.95 24.5 160.03 5.54 166.1 24.5 185.66 24.5 169.84 36.1 175.85 54.67 159.99 43.34 144.24 54.67 150.22 36.19 134.4 24.5"/><polygon class="cls-1" points="134.32 24.55 153.88 24.55 159.95 5.59 166.02 24.55 185.58 24.55 169.77 36.15 175.77 54.72 159.91 43.39 144.16 54.72 150.15 36.24 134.32 24.55"/><polygon class="cls-1" points="134.25 24.6 153.8 24.6 159.88 5.64 165.95 24.6 185.5 24.6 169.69 36.2 175.7 54.77 159.84 43.44 144.09 54.77 150.07 36.29 134.25 24.6"/><polygon class="cls-1" points="134.17 24.65 153.73 24.65 159.8 5.69 165.87 24.65 185.43 24.65 169.62 36.25 175.62 54.82 159.76 43.49 144.01 54.82 150 36.34 134.17 24.65"/><polygon class="cls-1" points="134.09 24.7 153.65 24.7 159.72 5.74 165.8 24.7 185.35 24.7 169.54 36.3 175.55 54.87 159.69 43.54 143.94 54.87 149.92 36.39 134.09 24.7"/><polygon class="cls-1" points="134.02 24.75 153.58 24.75 159.65 5.79 165.72 24.75 185.28 24.75 169.47 36.35 175.47 54.92 159.61 43.59 143.86 54.92 149.85 36.44 134.02 24.75"/><polygon class="cls-1" points="133.94 24.8 153.5 24.8 159.57 5.84 165.65 24.8 185.21 24.8 169.39 36.4 175.4 54.97 159.54 43.64 143.79 54.97 149.77 36.49 133.94 24.8"/><polygon class="cls-1" points="133.87 24.85 153.43 24.85 159.5 5.89 165.57 24.85 185.13 24.85 169.32 36.45 175.32 55.02 159.46 43.69 143.71 55.02 149.7 36.54 133.87 24.85"/><polygon class="cls-1" points="133.79 24.9 153.35 24.9 159.43 5.94 165.5 24.9 185.06 24.9 169.24 36.5 175.25 55.07 159.39 43.74 143.64 55.07 149.62 36.59 133.79 24.9"/><polygon class="cls-1" points="133.72 24.95 153.28 24.95 159.35 5.99 165.42 24.95 184.98 24.95 169.17 36.55 175.17 55.12 159.31 43.79 143.56 55.12 149.55 36.64 133.72 24.95"/><polygon class="cls-1" points="133.65 25 153.2 25 159.28 6.04 165.35 25 184.91 25 169.09 36.6 175.1 55.17 159.24 43.84 143.49 55.17 149.47 36.69 133.65 25"/><polygon class="cls-1" points="133.57 25.05 153.13 25.05 159.2 6.09 165.27 25.05 184.83 25.05 169.02 36.65 175.02 55.22 159.16 43.89 143.41 55.22 149.4 36.74 133.57 25.05"/><polygon class="cls-1" points="133.5 25.1 153.05 25.1 159.13 6.14 165.2 25.1 184.75 25.1 168.94 36.7 174.95 55.27 159.09 43.94 143.34 55.27 149.32 36.79 133.5 25.1"/><polygon class="cls-1" points="133.42 25.15 152.98 25.15 159.05 6.19 165.12 25.15 184.68 25.15 168.87 36.75 174.87 55.32 159.01 43.99 143.26 55.32 149.25 36.84 133.42 25.15"/><polygon class="cls-1" points="133.34 25.2 152.9 25.2 158.97 6.24 165.05 25.2 184.6 25.2 168.79 36.8 174.8 55.37 158.94 44.04 143.19 55.37 149.17 36.89 133.34 25.2"/><polygon class="cls-1" points="133.27 25.25 152.83 25.25 158.9 6.29 164.97 25.25 184.53 25.25 168.72 36.85 174.72 55.42 158.86 44.09 143.11 55.42 149.1 36.94 133.27 25.25"/><polygon class="cls-1" points="133.19 25.3 152.75 25.3 158.82 6.34 164.9 25.3 184.46 25.3 168.64 36.9 174.65 55.47 158.79 44.14 143.04 55.47 149.02 36.99 133.19 25.3"/><polygon class="cls-1" points="133.12 25.35 152.68 25.35 158.75 6.39 164.82 25.35 184.38 25.35 168.57 36.95 174.57 55.52 158.71 44.19 142.96 55.52 148.95 37.04 133.12 25.35"/><polygon class="cls-1" points="133.04 25.4 152.6 25.4 158.68 6.44 164.75 25.4 184.31 25.4 168.49 37 174.5 55.57 158.64 44.24 142.89 55.57 148.87 37.09 133.04 25.4"/><polygon class="cls-1" points="132.97 25.45 152.53 25.45 158.6 6.49 164.67 25.45 184.23 25.45 168.42 37.05 174.42 55.62 158.56 44.29 142.81 55.62 148.8 37.14 132.97 25.45"/><polygon class="cls-1" points="132.9 25.5 152.45 25.5 158.53 6.54 164.6 25.5 184.16 25.5 168.34 37.1 174.35 55.67 158.49 44.34 142.74 55.67 148.72 37.19 132.9 25.5"/><polygon class="cls-1" points="132.82 25.55 152.38 25.55 158.45 6.59 164.52 25.55 184.08 25.55 168.27 37.15 174.27 55.72 158.41 44.39 142.66 55.72 148.65 37.24 132.82 25.55"/><polygon class="cls-1" points="132.75 25.6 152.3 25.6 158.38 6.64 164.45 25.6 184 25.6 168.19 37.2 174.2 55.77 158.34 44.44 142.59 55.77 148.57 37.29 132.75 25.6"/><polygon class="cls-1" points="132.67 25.65 152.23 25.65 158.3 6.69 164.37 25.65 183.93 25.65 168.12 37.25 174.12 55.82 158.26 44.49 142.51 55.82 148.5 37.34 132.67 25.65"/><polygon class="cls-1" points="132.59 25.7 152.15 25.7 158.22 6.74 164.3 25.7 183.85 25.7 168.04 37.3 174.05 55.87 158.19 44.54 142.44 55.87 148.42 37.39 132.59 25.7"/><polygon class="cls-1" points="132.52 25.75 152.08 25.75 158.15 6.79 164.22 25.75 183.78 25.75 167.97 37.35 173.97 55.92 158.11 44.59 142.36 55.92 148.35 37.44 132.52 25.75"/><polygon class="cls-1" points="132.44 25.8 152 25.8 158.07 6.84 164.15 25.8 183.71 25.8 167.89 37.4 173.9 55.97 158.04 44.64 142.29 55.97 148.27 37.49 132.44 25.8"/><polygon class="cls-1" points="132.37 25.85 151.93 25.85 158 6.89 164.07 25.85 183.63 25.85 167.82 37.45 173.82 56.02 157.96 44.69 142.21 56.02 148.2 37.54 132.37 25.85"/><polygon class="cls-3" points="157.96 44.07 143.16 54.72 148.79 37.35 133.89 26.35 152.29 26.35 158 8.53 163.71 26.35 182.1 26.35 167.23 37.26 172.88 54.73 157.96 44.07"/><path class="cls-1" d="M158,10.17l5.12,16,.22.69h17.23l-13.35,9.79-.58.43.22.69,5.08,15.68-13.4-9.57-.58-.41-.58.41L144.1,53.43l5.05-15.58.22-.69-.58-.42-13.38-9.89h17.25l.22-.69,5.12-16m0-3.28-6.07,19H132.37L148.2,37.54l-6,18.48L158,44.69,173.82,56l-6-18.57,15.81-11.6H164.07L158,6.89Z"/><polygon class="cls-1" points="197.87 23.9 217.42 23.9 223.5 4.93 229.57 23.9 249.13 23.9 233.31 35.49 239.32 54.06 223.46 42.73 207.71 54.06 213.7 35.59 197.87 23.9"/><polygon class="cls-1" points="197.79 23.95 217.35 23.95 223.42 4.99 229.5 23.95 249.05 23.95 233.24 35.55 239.25 54.12 223.38 42.78 207.64 54.12 213.62 35.63 197.79 23.95"/><polygon class="cls-1" points="197.72 24 217.27 24 223.35 5.04 229.42 24 248.98 24 233.16 35.59 239.17 54.16 223.31 42.83 207.56 54.16 213.55 35.69 197.72 24"/><polygon class="cls-1" points="197.64 24.05 217.2 24.05 223.27 5.08 229.35 24.05 248.9 24.05 233.09 35.65 239.09 54.22 223.24 42.88 207.49 54.22 213.47 35.73 197.64 24.05"/><polygon class="cls-1" points="197.57 24.1 217.12 24.1 223.2 5.13 229.27 24.1 248.83 24.1 233.01 35.7 239.02 54.27 223.16 42.93 207.41 54.27 213.4 35.78 197.57 24.1"/><polygon class="cls-1" points="197.49 24.15 217.05 24.15 223.12 5.18 229.2 24.15 248.75 24.15 232.94 35.74 238.94 54.31 223.09 42.98 207.34 54.31 213.32 35.84 197.49 24.15"/><polygon class="cls-1" points="197.42 24.2 216.97 24.2 223.05 5.24 229.12 24.2 248.68 24.2 232.86 35.8 238.87 54.37 223.01 43.03 207.26 54.37 213.25 35.88 197.42 24.2"/><polygon class="cls-1" points="197.34 24.25 216.9 24.25 222.97 5.29 229.05 24.25 248.6 24.25 232.79 35.84 238.79 54.41 222.94 43.08 207.19 54.41 213.17 35.94 197.34 24.25"/><polygon class="cls-1" points="197.27 24.3 216.82 24.3 222.9 5.33 228.97 24.3 248.53 24.3 232.71 35.9 238.72 54.47 222.86 43.13 207.11 54.47 213.1 35.98 197.27 24.3"/><polygon class="cls-1" points="197.19 24.35 216.75 24.35 222.82 5.38 228.9 24.35 248.45 24.35 232.64 35.95 238.65 54.52 222.78 43.18 207.04 54.52 213.02 36.03 197.19 24.35"/><polygon class="cls-1" points="197.12 24.4 216.67 24.4 222.75 5.43 228.82 24.4 248.38 24.4 232.56 35.99 238.57 54.56 222.71 43.23 206.96 54.56 212.95 36.09 197.12 24.4"/><polygon class="cls-1" points="197.04 24.45 216.6 24.45 222.67 5.49 228.75 24.45 248.3 24.45 232.49 36.05 238.5 54.62 222.63 43.28 206.89 54.62 212.87 36.13 197.04 24.45"/><polygon class="cls-1" points="196.97 24.5 216.52 24.5 222.6 5.54 228.67 24.5 248.23 24.5 232.41 36.09 238.42 54.66 222.56 43.33 206.81 54.66 212.8 36.19 196.97 24.5"/><polygon class="cls-1" points="196.89 24.55 216.45 24.55 222.52 5.58 228.6 24.55 248.15 24.55 232.34 36.15 238.34 54.72 222.49 43.38 206.74 54.72 212.72 36.23 196.89 24.55"/><polygon class="cls-1" points="196.82 24.6 216.37 24.6 222.45 5.63 228.52 24.6 248.08 24.6 232.26 36.2 238.27 54.77 222.41 43.43 206.66 54.77 212.65 36.28 196.82 24.6"/><polygon class="cls-1" points="196.74 24.65 216.3 24.65 222.37 5.68 228.45 24.65 248 24.65 232.19 36.24 238.19 54.81 222.34 43.48 206.59 54.81 212.57 36.34 196.74 24.65"/><polygon class="cls-1" points="196.67 24.7 216.22 24.7 222.3 5.74 228.37 24.7 247.93 24.7 232.11 36.3 238.12 54.87 222.26 43.53 206.51 54.87 212.5 36.38 196.67 24.7"/><polygon class="cls-1" points="196.59 24.75 216.15 24.75 222.22 5.79 228.3 24.75 247.85 24.75 232.04 36.34 238.04 54.91 222.19 43.58 206.44 54.91 212.42 36.44 196.59 24.75"/><polygon class="cls-1" points="196.52 24.8 216.07 24.8 222.15 5.83 228.22 24.8 247.78 24.8 231.96 36.4 237.97 54.97 222.11 43.63 206.36 54.97 212.35 36.48 196.52 24.8"/><polygon class="cls-1" points="196.44 24.85 216 24.85 222.07 5.88 228.15 24.85 247.7 24.85 231.89 36.45 237.9 55.02 222.03 43.68 206.29 55.02 212.27 36.53 196.44 24.85"/><polygon class="cls-1" points="196.37 24.9 215.92 24.9 222 5.93 228.07 24.9 247.63 24.9 231.81 36.49 237.82 55.06 221.96 43.73 206.21 55.06 212.2 36.59 196.37 24.9"/><polygon class="cls-1" points="196.29 24.95 215.85 24.95 221.92 5.99 228 24.95 247.55 24.95 231.74 36.55 237.75 55.12 221.88 43.78 206.14 55.12 212.12 36.63 196.29 24.95"/><polygon class="cls-1" points="196.22 25 215.77 25 221.85 6.04 227.92 25 247.48 25 231.66 36.59 237.67 55.16 221.81 43.83 206.06 55.16 212.05 36.69 196.22 25"/><polygon class="cls-1" points="196.14 25.05 215.7 25.05 221.77 6.08 227.85 25.05 247.4 25.05 231.59 36.65 237.59 55.22 221.74 43.88 205.99 55.22 211.97 36.73 196.14 25.05"/><polygon class="cls-1" points="196.07 25.1 215.62 25.1 221.7 6.13 227.77 25.1 247.33 25.1 231.51 36.7 237.52 55.27 221.66 43.93 205.91 55.27 211.9 36.78 196.07 25.1"/><polygon class="cls-1" points="195.99 25.15 215.55 25.15 221.62 6.18 227.7 25.15 247.25 25.15 231.44 36.74 237.44 55.31 221.59 43.98 205.84 55.31 211.82 36.84 195.99 25.15"/><polygon class="cls-1" points="195.92 25.2 215.47 25.2 221.55 6.24 227.62 25.2 247.18 25.2 231.36 36.8 237.37 55.37 221.51 44.03 205.76 55.37 211.75 36.88 195.92 25.2"/><polygon class="cls-1" points="195.84 25.25 215.4 25.25 221.47 6.29 227.55 25.25 247.1 25.25 231.29 36.84 237.29 55.41 221.44 44.08 205.69 55.41 211.67 36.94 195.84 25.25"/><polygon class="cls-1" points="195.77 25.3 215.32 25.3 221.4 6.33 227.47 25.3 247.03 25.3 231.21 36.9 237.22 55.47 221.36 44.13 205.61 55.47 211.6 36.98 195.77 25.3"/><polygon class="cls-1" points="195.69 25.35 215.25 25.35 221.32 6.38 227.4 25.35 246.95 25.35 231.14 36.95 237.15 55.52 221.28 44.18 205.54 55.52 211.52 37.03 195.69 25.35"/><polygon class="cls-1" points="195.62 25.4 215.17 25.4 221.25 6.43 227.32 25.4 246.88 25.4 231.06 36.99 237.07 55.56 221.21 44.23 205.46 55.56 211.45 37.09 195.62 25.4"/><polygon class="cls-1" points="195.54 25.45 215.1 25.45 221.17 6.49 227.25 25.45 246.8 25.45 230.99 37.05 237 55.62 221.13 44.28 205.39 55.62 211.37 37.13 195.54 25.45"/><polygon class="cls-1" points="195.47 25.5 215.02 25.5 221.1 6.54 227.17 25.5 246.73 25.5 230.91 37.09 236.92 55.66 221.06 44.33 205.31 55.66 211.3 37.19 195.47 25.5"/><polygon class="cls-1" points="195.39 25.55 214.95 25.55 221.02 6.58 227.1 25.55 246.65 25.55 230.84 37.15 236.84 55.72 220.99 44.38 205.24 55.72 211.22 37.23 195.39 25.55"/><polygon class="cls-1" points="195.32 25.6 214.87 25.6 220.95 6.63 227.02 25.6 246.58 25.6 230.76 37.2 236.77 55.77 220.91 44.43 205.16 55.77 211.15 37.28 195.32 25.6"/><polygon class="cls-1" points="195.24 25.65 214.8 25.65 220.87 6.68 226.95 25.65 246.5 25.65 230.69 37.24 236.69 55.81 220.84 44.48 205.09 55.81 211.07 37.34 195.24 25.65"/><polygon class="cls-1" points="195.17 25.7 214.72 25.7 220.8 6.74 226.87 25.7 246.43 25.7 230.61 37.3 236.62 55.87 220.76 44.53 205.01 55.87 211 37.38 195.17 25.7"/><polygon class="cls-1" points="195.09 25.75 214.65 25.75 220.72 6.79 226.8 25.75 246.35 25.75 230.54 37.34 236.54 55.91 220.69 44.58 204.94 55.91 210.92 37.44 195.09 25.75"/><polygon class="cls-1" points="195.02 25.8 214.57 25.8 220.65 6.83 226.72 25.8 246.28 25.8 230.46 37.4 236.47 55.97 220.61 44.63 204.86 55.97 210.85 37.48 195.02 25.8"/><polygon class="cls-1" points="194.94 25.85 214.5 25.85 220.57 6.88 226.65 25.85 246.2 25.85 230.39 37.45 236.4 56.02 220.53 44.68 204.79 56.02 210.77 37.53 194.94 25.85"/><polygon class="cls-1" points="194.87 25.9 214.42 25.9 220.5 6.93 226.57 25.9 246.13 25.9 230.31 37.49 236.32 56.06 220.46 44.73 204.71 56.06 210.7 37.59 194.87 25.9"/><polygon class="cls-1" points="194.79 25.95 214.35 25.95 220.42 6.99 226.5 25.95 246.05 25.95 230.24 37.55 236.25 56.12 220.38 44.78 204.64 56.12 210.62 37.63 194.79 25.95"/><polygon class="cls-1" points="194.72 26 214.27 26 220.35 7.04 226.42 26 245.98 26 230.16 37.59 236.17 56.16 220.31 44.83 204.56 56.16 210.55 37.69 194.72 26"/><polygon class="cls-1" points="194.64 26.05 214.2 26.05 220.27 7.08 226.35 26.05 245.9 26.05 230.09 37.65 236.09 56.22 220.24 44.88 204.49 56.22 210.47 37.73 194.64 26.05"/><polygon class="cls-1" points="194.57 26.1 214.12 26.1 220.2 7.13 226.27 26.1 245.83 26.1 230.01 37.7 236.02 56.27 220.16 44.93 204.41 56.27 210.4 37.78 194.57 26.1"/><polygon class="cls-1" points="194.49 26.15 214.05 26.15 220.12 7.18 226.2 26.15 245.75 26.15 229.94 37.74 235.94 56.31 220.09 44.98 204.34 56.31 210.32 37.84 194.49 26.15"/><polygon class="cls-1" points="194.42 26.2 213.97 26.2 220.05 7.24 226.12 26.2 245.68 26.2 229.86 37.8 235.87 56.37 220.01 45.03 204.26 56.37 210.25 37.88 194.42 26.2"/><polygon class="cls-1" points="194.34 26.25 213.9 26.25 219.97 7.29 226.05 26.25 245.6 26.25 229.79 37.84 235.79 56.41 219.94 45.08 204.19 56.41 210.17 37.94 194.34 26.25"/><polygon class="cls-1" points="194.27 26.3 213.82 26.3 219.9 7.33 225.97 26.3 245.53 26.3 229.71 37.9 235.72 56.47 219.86 45.13 204.11 56.47 210.1 37.98 194.27 26.3"/><polygon class="cls-1" points="194.19 26.35 213.75 26.35 219.82 7.38 225.9 26.35 245.45 26.35 229.64 37.95 235.65 56.52 219.78 45.18 204.04 56.52 210.02 38.03 194.19 26.35"/><polygon class="cls-1" points="194.12 26.4 213.67 26.4 219.75 7.43 225.82 26.4 245.38 26.4 229.56 37.99 235.57 56.56 219.71 45.23 203.96 56.56 209.95 38.09 194.12 26.4"/><polygon class="cls-3" points="219.71 44.62 204.91 55.27 210.53 37.9 195.64 26.9 214.04 26.9 219.75 9.07 225.46 26.9 243.85 26.9 228.98 37.81 234.63 55.28 219.71 44.62"/><path class="cls-1" d="M219.75,10.71l5.12,16,.22.7h17.23L229,37.19l-.58.43.22.68L233.69,54l-13.4-9.57-.58-.42-.58.42L205.85,54l5.05-15.58.22-.68-.58-.43L197.16,27.4H214.4l.23-.7,5.12-16m0-3.27-6.08,19H194.12L210,38.09l-6,18.47,15.75-11.33,15.86,11.33-6-18.56,15.82-11.6H225.82l-6.07-19Z"/><polygon class="cls-1" points="259.62 23.35 279.17 23.35 285.25 4.39 291.32 23.35 310.87 23.35 295.06 34.95 301.07 53.52 285.21 42.19 269.46 53.52 275.44 35.04 259.62 23.35"/><polygon class="cls-1" points="259.54 23.4 279.1 23.4 285.17 4.44 291.24 23.4 310.8 23.4 294.99 35 300.99 53.57 285.13 42.24 269.38 53.57 275.37 35.09 259.54 23.4"/><polygon class="cls-1" points="259.46 23.45 279.02 23.45 285.1 4.49 291.17 23.45 310.72 23.45 294.91 35.05 300.92 53.62 285.06 42.29 269.31 53.62 275.29 35.14 259.46 23.45"/><polygon class="cls-1" points="259.39 23.5 278.95 23.5 285.02 4.54 291.09 23.5 310.65 23.5 294.83 35.1 300.84 53.67 284.98 42.34 269.23 53.67 275.22 35.19 259.39 23.5"/><polygon class="cls-1" points="259.31 23.55 278.87 23.55 284.94 4.59 291.02 23.55 310.57 23.55 294.76 35.15 300.77 53.72 284.91 42.39 269.16 53.72 275.14 35.24 259.31 23.55"/><polygon class="cls-1" points="259.24 23.6 278.8 23.6 284.87 4.64 290.94 23.6 310.5 23.6 294.69 35.2 300.69 53.77 284.83 42.44 269.08 53.77 275.07 35.29 259.24 23.6"/><polygon class="cls-1" points="259.17 23.65 278.72 23.65 284.8 4.69 290.87 23.65 310.42 23.65 294.61 35.25 300.62 53.82 284.76 42.49 269.01 53.82 274.99 35.34 259.17 23.65"/><polygon class="cls-1" points="259.09 23.7 278.65 23.7 284.72 4.74 290.79 23.7 310.35 23.7 294.54 35.3 300.54 53.87 284.68 42.54 268.93 53.87 274.92 35.39 259.09 23.7"/><polygon class="cls-1" points="259.01 23.75 278.57 23.75 284.64 4.79 290.72 23.75 310.27 23.75 294.46 35.35 300.47 53.92 284.61 42.59 268.86 53.92 274.84 35.44 259.01 23.75"/><polygon class="cls-1" points="258.94 23.8 278.5 23.8 284.57 4.84 290.64 23.8 310.2 23.8 294.38 35.4 300.39 53.97 284.53 42.64 268.78 53.97 274.77 35.49 258.94 23.8"/><polygon class="cls-1" points="258.87 23.85 278.42 23.85 284.5 4.89 290.57 23.85 310.12 23.85 294.31 35.45 300.32 54.02 284.46 42.69 268.71 54.02 274.69 35.54 258.87 23.85"/><polygon class="cls-1" points="258.79 23.9 278.35 23.9 284.42 4.94 290.49 23.9 310.05 23.9 294.24 35.5 300.24 54.07 284.38 42.74 268.63 54.07 274.62 35.59 258.79 23.9"/><polygon class="cls-1" points="258.71 23.95 278.27 23.95 284.35 4.99 290.42 23.95 309.97 23.95 294.16 35.55 300.17 54.12 284.31 42.79 268.56 54.12 274.54 35.64 258.71 23.95"/><polygon class="cls-1" points="258.64 24 278.2 24 284.27 5.04 290.34 24 309.9 24 294.08 35.6 300.09 54.17 284.23 42.84 268.48 54.17 274.47 35.69 258.64 24"/><polygon class="cls-1" points="258.56 24.05 278.12 24.05 284.19 5.09 290.27 24.05 309.82 24.05 294.01 35.65 300.02 54.22 284.16 42.89 268.41 54.22 274.39 35.74 258.56 24.05"/><polygon class="cls-1" points="258.49 24.1 278.05 24.1 284.12 5.14 290.19 24.1 309.75 24.1 293.94 35.7 299.94 54.27 284.08 42.94 268.33 54.27 274.32 35.79 258.49 24.1"/><polygon class="cls-1" points="258.42 24.15 277.97 24.15 284.05 5.19 290.12 24.15 309.67 24.15 293.86 35.75 299.87 54.32 284.01 42.99 268.26 54.32 274.24 35.84 258.42 24.15"/><polygon class="cls-1" points="258.34 24.2 277.9 24.2 283.97 5.24 290.04 24.2 309.6 24.2 293.79 35.8 299.79 54.37 283.93 43.04 268.18 54.37 274.17 35.89 258.34 24.2"/><polygon class="cls-1" points="258.26 24.25 277.82 24.25 283.89 5.29 289.97 24.25 309.52 24.25 293.71 35.85 299.72 54.42 283.86 43.09 268.11 54.42 274.09 35.94 258.26 24.25"/><polygon class="cls-1" points="258.19 24.3 277.75 24.3 283.82 5.34 289.89 24.3 309.45 24.3 293.63 35.9 299.64 54.47 283.78 43.14 268.03 54.47 274.02 35.99 258.19 24.3"/><polygon class="cls-1" points="258.12 24.35 277.67 24.35 283.75 5.39 289.82 24.35 309.37 24.35 293.56 35.95 299.57 54.52 283.71 43.19 267.96 54.52 273.94 36.04 258.12 24.35"/><polygon class="cls-1" points="258.04 24.4 277.6 24.4 283.67 5.44 289.74 24.4 309.3 24.4 293.49 36 299.49 54.57 283.63 43.24 267.88 54.57 273.87 36.09 258.04 24.4"/><polygon class="cls-1" points="257.96 24.45 277.52 24.45 283.6 5.49 289.67 24.45 309.22 24.45 293.41 36.05 299.42 54.62 283.56 43.29 267.81 54.62 273.79 36.14 257.96 24.45"/><polygon class="cls-1" points="257.89 24.5 277.45 24.5 283.52 5.54 289.59 24.5 309.15 24.5 293.33 36.1 299.34 54.67 283.48 43.34 267.73 54.67 273.72 36.19 257.89 24.5"/><polygon class="cls-1" points="257.81 24.55 277.37 24.55 283.44 5.59 289.52 24.55 309.07 24.55 293.26 36.15 299.27 54.72 283.41 43.39 267.66 54.72 273.64 36.24 257.81 24.55"/><polygon class="cls-1" points="257.74 24.6 277.3 24.6 283.37 5.64 289.44 24.6 309 24.6 293.19 36.2 299.19 54.77 283.33 43.44 267.58 54.77 273.57 36.29 257.74 24.6"/><polygon class="cls-1" points="257.67 24.65 277.22 24.65 283.3 5.69 289.37 24.65 308.92 24.65 293.11 36.25 299.12 54.82 283.26 43.49 267.51 54.82 273.49 36.34 257.67 24.65"/><polygon class="cls-1" points="257.59 24.7 277.15 24.7 283.22 5.74 289.29 24.7 308.85 24.7 293.04 36.3 299.04 54.87 283.18 43.54 267.43 54.87 273.42 36.39 257.59 24.7"/><polygon class="cls-1" points="257.51 24.75 277.07 24.75 283.14 5.79 289.22 24.75 308.77 24.75 292.96 36.35 298.97 54.92 283.11 43.59 267.36 54.92 273.34 36.44 257.51 24.75"/><polygon class="cls-1" points="257.44 24.8 277 24.8 283.07 5.84 289.14 24.8 308.7 24.8 292.88 36.4 298.89 54.97 283.03 43.64 267.28 54.97 273.27 36.49 257.44 24.8"/><polygon class="cls-1" points="257.37 24.85 276.92 24.85 283 5.89 289.07 24.85 308.62 24.85 292.81 36.45 298.82 55.02 282.96 43.69 267.21 55.02 273.19 36.54 257.37 24.85"/><polygon class="cls-1" points="257.29 24.9 276.85 24.9 282.92 5.94 288.99 24.9 308.55 24.9 292.74 36.5 298.74 55.07 282.88 43.74 267.13 55.07 273.12 36.59 257.29 24.9"/><polygon class="cls-1" points="257.21 24.95 276.77 24.95 282.85 5.99 288.92 24.95 308.47 24.95 292.66 36.55 298.67 55.12 282.81 43.79 267.06 55.12 273.04 36.64 257.21 24.95"/><polygon class="cls-1" points="257.14 25 276.7 25 282.77 6.04 288.84 25 308.4 25 292.58 36.6 298.59 55.17 282.73 43.84 266.98 55.17 272.97 36.69 257.14 25"/><polygon class="cls-1" points="257.06 25.05 276.62 25.05 282.69 6.09 288.77 25.05 308.32 25.05 292.51 36.65 298.52 55.22 282.66 43.89 266.91 55.22 272.89 36.74 257.06 25.05"/><polygon class="cls-1" points="256.99 25.1 276.55 25.1 282.62 6.14 288.69 25.1 308.25 25.1 292.44 36.7 298.44 55.27 282.58 43.94 266.83 55.27 272.82 36.79 256.99 25.1"/><polygon class="cls-1" points="256.92 25.15 276.47 25.15 282.55 6.19 288.62 25.15 308.17 25.15 292.36 36.75 298.37 55.32 282.51 43.99 266.76 55.32 272.74 36.84 256.92 25.15"/><polygon class="cls-1" points="256.84 25.2 276.4 25.2 282.47 6.24 288.54 25.2 308.1 25.2 292.29 36.8 298.29 55.37 282.43 44.04 266.68 55.37 272.67 36.89 256.84 25.2"/><polygon class="cls-1" points="256.76 25.25 276.32 25.25 282.39 6.29 288.47 25.25 308.02 25.25 292.21 36.85 298.22 55.42 282.36 44.09 266.61 55.42 272.59 36.94 256.76 25.25"/><polygon class="cls-1" points="256.69 25.3 276.25 25.3 282.32 6.34 288.39 25.3 307.95 25.3 292.13 36.9 298.14 55.47 282.28 44.14 266.53 55.47 272.52 36.99 256.69 25.3"/><polygon class="cls-1" points="256.62 25.35 276.17 25.35 282.25 6.39 288.32 25.35 307.87 25.35 292.06 36.95 298.07 55.52 282.21 44.19 266.46 55.52 272.44 37.04 256.62 25.35"/><polygon class="cls-1" points="256.54 25.4 276.1 25.4 282.17 6.44 288.24 25.4 307.8 25.4 291.99 37 297.99 55.57 282.13 44.24 266.38 55.57 272.37 37.09 256.54 25.4"/><polygon class="cls-1" points="256.46 25.45 276.02 25.45 282.1 6.49 288.17 25.45 307.72 25.45 291.91 37.05 297.92 55.62 282.06 44.29 266.31 55.62 272.29 37.14 256.46 25.45"/><polygon class="cls-1" points="256.39 25.5 275.95 25.5 282.02 6.54 288.09 25.5 307.65 25.5 291.83 37.1 297.84 55.67 281.98 44.34 266.23 55.67 272.22 37.19 256.39 25.5"/><polygon class="cls-1" points="256.31 25.55 275.87 25.55 281.94 6.59 288.02 25.55 307.57 25.55 291.76 37.15 297.77 55.72 281.91 44.39 266.16 55.72 272.14 37.24 256.31 25.55"/><polygon class="cls-1" points="256.24 25.6 275.8 25.6 281.87 6.64 287.94 25.6 307.5 25.6 291.69 37.2 297.69 55.77 281.83 44.44 266.08 55.77 272.07 37.29 256.24 25.6"/><polygon class="cls-1" points="256.17 25.65 275.72 25.65 281.8 6.69 287.87 25.65 307.42 25.65 291.61 37.25 297.62 55.82 281.76 44.49 266.01 55.82 271.99 37.34 256.17 25.65"/><polygon class="cls-1" points="256.09 25.7 275.65 25.7 281.72 6.74 287.79 25.7 307.35 25.7 291.54 37.3 297.54 55.87 281.68 44.54 265.93 55.87 271.92 37.39 256.09 25.7"/><polygon class="cls-1" points="256.01 25.75 275.57 25.75 281.64 6.79 287.72 25.75 307.27 25.75 291.46 37.35 297.47 55.92 281.61 44.59 265.86 55.92 271.84 37.44 256.01 25.75"/><polygon class="cls-1" points="255.94 25.8 275.5 25.8 281.57 6.84 287.64 25.8 307.2 25.8 291.38 37.4 297.39 55.97 281.53 44.64 265.78 55.97 271.77 37.49 255.94 25.8"/><polygon class="cls-1" points="255.87 25.85 275.42 25.85 281.5 6.89 287.57 25.85 307.12 25.85 291.31 37.45 297.32 56.02 281.46 44.69 265.71 56.02 271.69 37.54 255.87 25.85"/><polygon class="cls-3" points="281.46 44.07 266.65 54.72 272.28 37.35 257.38 26.35 275.79 26.35 281.49 8.53 287.2 26.35 305.6 26.35 290.72 37.26 296.38 54.73 281.46 44.07"/><path class="cls-1" d="M281.49,10.17l5.13,16,.22.69h17.23l-13.35,9.79-.58.43.22.69,5.07,15.68L282,43.87l-.58-.41-.59.41L267.6,53.43l5-15.58.22-.69-.58-.42L258.9,26.85h17.25l.22-.69,5.12-16m0-3.28-6.07,19H255.87l15.82,11.69-6,18.48,15.75-11.33L297.32,56l-6-18.57,15.81-11.6H287.57l-6.08-19Z"/></g></svg>