<svg xmlns="http://www.w3.org/2000/svg" viewBox="0 0 64 64"><defs><style>.cls-1,.cls-2{fill:none;stroke:#1d1d1b;stroke-linecap:round;stroke-linejoin:round;}.cls-1{stroke-width:2px;}.cls-2{stroke-width:4px;}</style></defs><g id="Skate"><path class="cls-1" d="M31.3,37.31l22.76-22.2a20.2,20.2,0,0,0,3-5.17,14.13,14.13,0,0,0,1.21-4.22"/><path class="cls-2" d="M54.28,24.72a2.77,2.77,0,1,1-3.91,0A2.77,2.77,0,0,1,54.28,24.72Z"/><line class="cls-1" x1="46.35" y1="22.62" x2="49.99" y2="25.51"/><line class="cls-1" x1="50.96" y1="18.13" x2="51.74" y2="23.11"/><path class="cls-1" d="M38.75,30.05,16,52.23a19.69,19.69,0,0,1-5.23,2.83,14.34,14.34,0,0,1-4.26,1.1"/><line class="cls-1" x1="23.68" y1="44.72" x2="26.47" y2="48.43"/><line class="cls-1" x1="19.08" y1="49.21" x2="24.03" y2="50.12"/><path class="cls-2" d="M29.36,48.8a2.77,2.77,0,1,1-3.91,0A2.77,2.77,0,0,1,29.36,48.8Z"/></g></svg>