<svg xmlns="http://www.w3.org/2000/svg" viewBox="0 0 64 64"><defs><style>.cls-1{fill:none;stroke:#1d1d1b;stroke-linecap:round;stroke-linejoin:round;stroke-width:2px;}</style></defs><g id="Sun"><circle class="cls-1" cx="32" cy="32" r="15"/><line class="cls-1" x1="32" y1="1.38" x2="32" y2="12.21"/><line class="cls-1" x1="32" y1="51.79" x2="32" y2="62.62"/><line class="cls-1" x1="1.38" y1="32" x2="12.21" y2="32"/><line class="cls-1" x1="51.79" y1="32" x2="62.62" y2="32"/><line class="cls-1" x1="10.38" y1="10.35" x2="18.04" y2="18.01"/><line class="cls-1" x1="46.03" y1="45.99" x2="53.69" y2="53.65"/><line class="cls-1" x1="10.38" y1="53.65" x2="18.04" y2="45.99"/><line class="cls-1" x1="46.03" y1="18.01" x2="53.69" y2="10.35"/><line class="cls-1" x1="20.87" y1="5.32" x2="24.81" y2="14.83"/><line class="cls-1" x1="39.2" y1="49.57" x2="43.13" y2="59.07"/><line class="cls-1" x1="5.12" y1="43.33" x2="14.63" y2="39.39"/><line class="cls-1" x1="49.37" y1="25" x2="58.88" y2="21.06"/><line class="cls-1" x1="5.16" y1="21.05" x2="14.66" y2="24.99"/><line class="cls-1" x1="49.4" y1="39.38" x2="58.91" y2="43.31"/><line class="cls-1" x1="20.9" y1="59.06" x2="24.84" y2="49.55"/><line class="cls-1" x1="39.23" y1="14.81" x2="43.17" y2="5.31"/></g></svg>