<svg xmlns="http://www.w3.org/2000/svg" viewBox="0 0 64 64"><defs><style>.cls-1{fill:#e94e1b;}.cls-2{fill:#f9b233;}.cls-3,.cls-4{fill:none;}.cls-3,.cls-4,.cls-5{stroke:#1d1d1b;stroke-width:2px;}.cls-3{stroke-linecap:round;stroke-linejoin:round;}.cls-4,.cls-5{stroke-miterlimit:10;}.cls-5{fill:#ededed;}</style></defs><g id="TT"><path class="cls-1" d="M38.19,39.66c1.58.17-.75-.26-.74-.27s1.11.4.31.08.26,0,.29.25c0-.1-.37-.37-.44-.44-.57-.55.1.08.24.34a12.2,12.2,0,0,0-.72-1,23.09,23.09,0,0,0-2.33-3c-.19-.2-.38-.39-.58-.57-.72-.62.12.14,0,.19a10.79,10.79,0,0,1-.76-1.49,12.36,12.36,0,0,0-6-6.11c-.47-.23.59.64,0,0-.24-.25-.46-.5-.69-.76a19.67,19.67,0,0,0-1.49-1.54,34.46,34.46,0,0,1-3.18-3.1l1.29,2.21a6.34,6.34,0,0,1,0,2.16,4.18,4.18,0,0,0,.1-.51c.09-.41.19-.81.28-1.22a23.55,23.55,0,0,0,.47-3l-.69,2.52a14.39,14.39,0,0,1,1-1.7c.21-.32.43-.62.64-.94s.53-.79-.09.1A18.77,18.77,0,0,1,28,18.68c.42-.38.86-.75,1.3-1.11.6-.49-1,.66,0,0,.27-.18.52-.37.79-.54a28.31,28.31,0,0,1,3.49-2c1.12-.53-.7.25,0,0,.3-.1.59-.23.89-.33.6-.21,1.2-.4,1.82-.57s1.33-.29,2-.44c.18,0,1-.17,0,0,.52-.08,1.06-.12,1.59-.15.7,0,1.41,0,2.12,0,.12,0,1.63.22.58,0l.82.17c.36.09.7.22,1.05.33.56.17.27-.12-.19-.09A5.22,5.22,0,0,1,46.2,15c-.34-.55-.51-.45-.15-.11s.54.48.8.74.34.35.51.53.79,1,.31.34.22.34.25.39q.26.39.48.78c.15.27.28.55.43.82.56,1-.3-1,.07.15.21.67.43,1.34.58,2,0,0,.24,1.39.13.61s0,.64,0,.63a17.63,17.63,0,0,1,0,2.18c0,.29,0,.58-.07.87q-.11.88,0,0c0,.22-.07.44-.12.65a23.13,23.13,0,0,1-1.18,4c.43-1.1-.1.15-.18.31l-.37.71a21.36,21.36,0,0,1-1.24,2,4.61,4.61,0,0,1-.46.63c.86-.85,0,0-.18.21-.41.5-.84,1-1.28,1.47l-1.23,1.33-.71.75-.58.6.65-.51a3.88,3.88,0,0,0-.8.43s1.11-.42.5-.24l3.78,1.12c.53.71.63.82.28.33L46,38.11a30.7,30.7,0,0,0-3.47-3.91c-1.94-1.83-4.08-3.42-6.12-5.13-1-.85-2-1.72-3-2.66-.47-.47-.9-1-1.36-1.45-.15-.17-.54-.75,0,.06-.23-.34-.43-.7-.67-1l-.19-.36c.22.58.23.6.05.07l-.1-.36.06.59c-.14-.19.15-1.61-.08-.14.06-.37.38-.62-.11.17-.94,1.52.43-1-.55.48.08-.13.53-.33.62-.39s1.17-.52.43-.22.82-.3,1-.36a49.84,49.84,0,0,1,9-2.57c1.44-.25-.59,0,.28,0l1.15-.09a6.3,6.3,0,0,1,2.25,0l-.54-.09.38.08a2.57,2.57,0,0,1-1.2-1.06c-.5-1-.16-.58-.09-.24a5.63,5.63,0,0,1,.14.69c-.08-.69-.11-.83-.07-.41a35.61,35.61,0,0,1-.09,4c.15-1.25,0,.14-.09.33l-.18.83a25,25,0,0,1-.76,2.41c-.31.89-.06.15,0,0-.18.38-.36.76-.55,1.13-.33.63-.71,1.21-1.08,1.81-.14.22-.57.75.14-.19l-.24.24a2.15,2.15,0,0,1,2.53-.66l1.19.15c-.47-.31-.47-.28,0,.08-.4-.27-.77-.61-1.15-.92-1.49-1.18-3-2.32-4.48-3.57-.21-.18-.41-.37-.62-.57-.68-.64.12.23.24.58-.38-1.17.34,1.07,0-.07,0-.46,0-.48,0-.05s0,.41.07,0c-.43,1.11-.09.32,0,0s.12-.21-.24.29A5.58,5.58,0,0,1,39,25c-.15.07-.89.49-.08.13s-.85.2.4-.17a2.75,2.75,0,0,1,1-.23c-.63.07-.75.09-.37.06.21,0,.41,0,.62,0H41c-.62-.12-.64-.11-.07,0-.27-.13-1.21-1-.66-.32-.73-.87-.35-.48-.21-.2-.26-.69-.31-.77-.15-.25-.06-.72-.08-.88-.06-.49s-.14,1.09.1-.15c-.16.84.25-.43.5-.67A3.28,3.28,0,0,1,44,22.16c-.83-.37.46.65-.16-.09-.07-.09-.68-1-.32-.33s-.32-.65-.39-.76-.48-.88,0,.16a9.74,9.74,0,0,1-.39-1.07c-.26-.78-.47-1.58-.72-2.37a17.73,17.73,0,0,0-2.4-5.36c-1.52-2.12-4.42-3.35-6.84-1.79-2.1,1.35-3.42,4.56-1.79,6.84a12.71,12.71,0,0,1,.87,1.41c.44.82.06.14,0,0,.09.26.19.52.28.79.37,1.11.65,2.25,1,3.36a14.69,14.69,0,0,0,4,6.59c3,2.58,7.21,3.29,10.28.31a8.91,8.91,0,0,0,1.93-8.74,8.72,8.72,0,0,0-7.37-6.15,13.06,13.06,0,0,0-8.33,1.7C28.1,20.05,26.74,28,32,32.45c2.08,1.79,4.29,3.46,6.46,5.13a7.2,7.2,0,0,0,10-.58c3.57-3.86,5.25-9.77,5.44-14.92.1-2.58-.09-5.49-1.58-7.69-2.08-3.07-5.61-3.76-9.09-3.61a45.81,45.81,0,0,0-16,4.17,9.4,9.4,0,0,0-5.57,6.19,10.87,10.87,0,0,0,1.82,8.76c2.72,3.84,6.45,6.54,10,9.53a45.12,45.12,0,0,1,4.53,4.43c-.74-.82.12.18.3.43a7.13,7.13,0,0,0,2.09,2.11,6.27,6.27,0,0,0,5.1.43c2.55-.8,4.25-2.62,6-4.53a39,39,0,0,0,4.4-5.6c5.4-8.64,5.63-21.43-2.39-28.61A18.43,18.43,0,0,0,38.58,3.64,30.59,30.59,0,0,0,24.89,8.48a30.19,30.19,0,0,0-9.66,10.19c-.43.79-1.32,2.43-1,3.29.26.66-.13-.92.15-1,0,0-.05.25-.06.28-.17.68-.31,1.38-.46,2.07a9,9,0,0,0-.25,3c.25,1.85,1.55,3.24,2.87,4.48.81.77,1.68,1.47,2.46,2.27a24.46,24.46,0,0,0,3,2.83c.82.59,1.71,1,2.54,1.62-.16-.11-.61-.61-.15-.07-.12-.14-.55-1-.22-.23.21.46.45.9.65,1.36a11.17,11.17,0,0,0,1.8,2.92c.28.33.61.6.91.9s1.13,1.3.6.63.22.36.32.51.38.57.58.85a14.41,14.41,0,0,0,2,2.43,12,12,0,0,0,7.21,2.87c2.6.29,5.11-2.52,5-5-.14-3-2.21-4.69-5-5Z"/><path class="cls-2" d="M10.67,58.74q5-5.13,10.21-10.07c.42-.38.83-.77,1.24-1.16.23-.21.75-.87,1.11-.91-.14,0,.53.4.54.41.45.31.88.63,1.35.9a13.87,13.87,0,0,0,6,1.7c1.91.11,2.47-2.59.94-3.5a32.17,32.17,0,0,1-8.21-6.46c-1.14-1.32-2.09-2.78-3.29-4a44.64,44.64,0,0,1-3.69-4.21c-1-1.37-3.61-1.09-3.49.94a12.26,12.26,0,0,0,2.34,6.3c.68,1,1.44,1.9,2.18,2.84A8.24,8.24,0,0,1,19.61,44l.19-1.45c.74-1.05,1-.66.29-.57a4.05,4.05,0,0,0-.71.13,3,3,0,0,0-1.7,1.23,7.4,7.4,0,0,1-1.12,1.54,15.92,15.92,0,0,0-1.88,2c-1.1,1.35-2.14,2.75-3.32,4q-.91,1-1.89,1.92c-.4.38-1.37,1.58-1.92,1.71L9,54.72c-.58-.26-1.19-1.31-1.6-1.78v2.65A28.62,28.62,0,0,1,11,52.48a39,39,0,0,0,3.62-3.65c1.85-2.07,2.74-4.75,4.51-6.84,1.56-1.83-1.08-4.49-2.65-2.65-1.78,2.1-2.68,4.79-4.51,6.83a39.54,39.54,0,0,1-3.45,3.52,30.47,30.47,0,0,0-3.74,3.25,1.92,1.92,0,0,0,0,2.65c1.11,1.3,2.33,3.26,4.33,2.39,1.49-.65,2.88-2.31,4-3.46a47.76,47.76,0,0,0,3.6-4.18c.52-.66,1-1.33,1.62-1.94a16.39,16.39,0,0,0,1.84-1.79c.1-.13.6-.85.52-1,.11-.14.07-.14-.11,0s-.23.15,0,.07a3.46,3.46,0,0,0,1.61-.43c1.66-.89,1-2.66.23-3.91-1.83-2.82-5.08-5.44-5.29-9l-3.5,1a43.87,43.87,0,0,0,3.8,4.48c1.38,1.43,2.47,3.05,3.77,4.54a35.49,35.49,0,0,0,9,7.05l.95-3.49c-2.32-.14-3.89-1.16-5.8-2.32-2.35-1.43-4.27-.16-6,1.48Q13.53,50.44,8,56.09c-1.68,1.73,1,4.38,2.66,2.65Z"/><path class="cls-3" d="M52.09,41.36c9.87-9.87,11.11-24.63,2.78-33s-23.1-7.09-33,2.78C13.83,19.24,11.53,30.57,15.51,39A2.59,2.59,0,0,1,15,42L5.09,51.89a2.59,2.59,0,0,0,0,3.66l2.62,2.62a2.59,2.59,0,0,0,3.66,0l9.93-9.93a2.6,2.6,0,0,1,3-.5C32.69,51.72,44,49.43,52.09,41.36Z"/><line class="cls-4" x1="13.69" y1="28.28" x2="34.98" y2="49.57"/><circle class="cls-5" cx="53.54" cy="38.39" r="6.27"/></g></svg>