<svg xmlns="http://www.w3.org/2000/svg" viewBox="0 0 64 64"><defs><style>.cls-1,.cls-8{fill:#36a9e1;}.cls-2,.cls-6{fill:#00a19a;}.cls-3,.cls-7{fill:#f9b233;}.cls-4,.cls-9{fill:#fff;}.cls-5{fill:none;}.cls-5,.cls-6,.cls-7,.cls-8,.cls-9{stroke:#1d1d1b;stroke-miterlimit:10;stroke-width:2px;}</style></defs><g id="Volleyball"><path class="cls-1" d="M23,60.4c3.87-1.19,6-5.13,8.12-8.28q3.9-5.77,7.47-11.78c.61-1,1.2-2,1.79-3.06a9.57,9.57,0,0,0,1.3-2.57c.51-2.37-2-3.08-3.78-2.95s-4.54-.13-6.19,1.05-2,3.8-2.54,5.69a1.9,1.9,0,0,0,2.76,2.12A23.33,23.33,0,0,0,34,38.87,5.55,5.55,0,0,1,36.49,38l-2.31-1.31c.24.85-1.64,2.27-2.13,2.91-.87,1.12-1.61,2.33-2.39,3.52l-5.29,8.12c-.7,1.09-3.06,5.35-4.52,4.7a4.91,4.91,0,0,1-1.14-1,6.14,6.14,0,0,0-1.58-1.1,4.06,4.06,0,0,0-1.41-.35,2.64,2.64,0,0,0-.63,0c-.55.06-.11-.44.32.49l.25.94c-.27.42-.24.48.12.18l.48-.26c.39-.22.78-.44,1.15-.67.83-.51,1.61-1.06,2.38-1.64,1.51-1.14,2.95-2.34,4.39-3.56A32.87,32.87,0,0,0,28.24,45a30.77,30.77,0,0,1,3.69-4.13L28.8,40c.38,1-.93,2.88-1.45,3.76a20.54,20.54,0,0,1-2.76,3.54c-1.07,1.13-2.18,2.22-3.27,3.33-.71.72-2.08,2.69-3.28,2.41-2.35-.54-3.35,3.07-1,3.62s4.06-.52,5.63-2.06,3.08-3.08,4.57-4.65A23.74,23.74,0,0,0,30.9,45.1c1-1.75,2.26-4.05,1.51-6.09a1.91,1.91,0,0,0-3.13-.83,51.79,51.79,0,0,0-4.41,5,47.93,47.93,0,0,1-5.25,4.72A40.34,40.34,0,0,1,14,51.72c-1.55.9-3.14,3.13-1.39,4.69a3.83,3.83,0,0,0,2.32.75c.74.07.8.14,1.44.77C18,59.48,19.9,60.42,22,59.35a12.18,12.18,0,0,0,4.3-4.23c1.39-2,2.68-4.08,4-6.12,1.48-2.27,2.88-4.62,4.46-6.81s3.82-3.58,3-6.46a1.93,1.93,0,0,0-2.31-1.31,8.72,8.72,0,0,0-3.15,1c-.87.54-1.48,1.41-2.35,1.93l2.76,2.12c.25-.91.49-1.82.76-2.73.17-.57.15-.84.69-1a12.77,12.77,0,0,1,2.48-.18c.47,0,.94-.08,1.41-.1l.47,0q.93.09-.54-.75v-1a12.62,12.62,0,0,1-1.63,2.89c-.63,1.09-1.27,2.18-1.93,3.26q-2,3.35-4.14,6.61T26.1,52.77c-1.07,1.55-2.23,3.43-4.14,4-2.3.7-1.32,4.32,1,3.62Z"/><path class="cls-1" d="M41.47,61c5.68-3.06,11.35-7.15,14.92-12.63a35.11,35.11,0,0,0,2.24-4.08,29.7,29.7,0,0,0,1.94-4.4c.45-1.54-.5-2.72-1.73-3.49-1.57-1-3.23-1.86-4.84-2.78a1.89,1.89,0,0,0-2.75,1.12c-1.26,3.59-1.2,7.48-2.54,11.06a26.4,26.4,0,0,1-5.86,8.75l2.95,2.28a40.25,40.25,0,0,1,2.65-4.48A34.3,34.3,0,0,1,52,48.47a22.11,22.11,0,0,0,5.44-8.68c.75-2.29-2.87-3.28-3.62-1-1.05,3.21-3,5.57-5.38,7.92a34,34,0,0,0-5.9,8.19c-1,1.83,1.43,3.87,2.95,2.28A31.78,31.78,0,0,0,52,47.51c1.56-3.79,1.48-7.95,2.82-11.8l-2.75,1.12,2.82,1.63,1.21.7.81.46c.33.23.35.21.06,0v-1a12.51,12.51,0,0,1-1.17,2.84c-.47,1-1,2-1.5,3a24.56,24.56,0,0,1-3.83,5.28,44.44,44.44,0,0,1-10.94,8c-2.12,1.14-.23,4.38,1.9,3.24Z"/><path class="cls-2" d="M11.85,11.06a71.84,71.84,0,0,0,1,7.76A23.19,23.19,0,0,0,16,26.06c1.39,2.22,3,4.27,4.5,6.42.69,1,1.28,2,2,3a10,10,0,0,0,1,1.32,6.1,6.1,0,0,0,.89.72c.05,0,.61.36.38.18l-.64-1.11.09.26L24.46,35l-.1.23L29,36.44c.11-1.09,1.24-1.58,1.66-2.51.75-1.68-.14-2.79-1.3-3.85a12.34,12.34,0,0,1-2.1-2.77,27.7,27.7,0,0,1-2-3.7,39.44,39.44,0,0,1-1.89-8.26c-.54-3.06-.93-6.15-1.2-9.25a2.54,2.54,0,0,0-4.27-1.77A21,21,0,0,0,14.59,8c-1.08,1.65-.84,3.35-.45,5.19q1.15,5.36,2.77,10.61c.95,3.07,5.77,1.76,4.83-1.33-.89-2.87-1.68-5.78-2.35-8.71-.17-.71-.33-1.43-.48-2.14a5.4,5.4,0,0,1-.18-.89c0-.33-.17.22.08-.07a37.58,37.58,0,0,1,2.62-2.74L17.16,6.1a118.23,118.23,0,0,0,2.48,16.09A24,24,0,0,0,22.46,29a27.68,27.68,0,0,0,1.82,2.82,17.48,17.48,0,0,0,1.15,1.4c.18.19.37.37.56.54s.63.67.32.17L26.06,32,26,32.3l.65-1.11A8.06,8.06,0,0,0,24,36.44c-.23,2.42,3.66,3.49,4.66,1.26a2.94,2.94,0,0,0-.85-3.87A5.37,5.37,0,0,1,26.1,31.9c-1.43-2.32-3.12-4.45-4.67-6.68A24.42,24.42,0,0,1,18,18.77a40.76,40.76,0,0,1-1.14-7.71,2.57,2.57,0,0,0-2.5-2.5,2.51,2.51,0,0,0-2.5,2.5Z"/><path class="cls-2" d="M1.73,25.59A44.58,44.58,0,0,0,5.22,44.94,31,31,0,0,0,7.29,49.1C8,50.27,9,51.92,10.35,52.38c1.59.53,2.75-.86,4.08-1.45s2.72-.71,3.89-1.56a1.9,1.9,0,0,0,.38-2.95,44.39,44.39,0,0,1-6.62-8.14,78.41,78.41,0,0,1-5.5-9.37c-.93-1.87-4.24-.54-3.43,1.45a10.53,10.53,0,0,1,.52,3.7,11.13,11.13,0,0,0,.78,3.82c.5,1.2,1.18,2.31,1.72,3.5S7,43.86,7.43,45.1c.73,2.17,2.34,4.86,5.08,3.76a3,3,0,0,0,1.82-2.93c0-1.39-1-2.71-1.61-3.89-1.16-2.11-4.4-.22-3.24,1.9.25.45.68,1.72,1.13,2,.81-.09,1.11-.32.88-.69l-.15-.3a6.16,6.16,0,0,0-.43-1.25,32.74,32.74,0,0,0-1.79-4.78,12,12,0,0,1-1.68-4.42c-.14-1.74,0-3.48-.67-5.13L3.34,30.8a77.59,77.59,0,0,0,5.77,9.75,47.09,47.09,0,0,0,6.94,8.52l.38-2.94a11.61,11.61,0,0,1-2.88,1.14A12.81,12.81,0,0,0,12,48a8.85,8.85,0,0,1-1.39.86h1c.28.15.25.07-.11-.25a7.37,7.37,0,0,1-.49-.65c-.24-.36-.47-.72-.69-1.09C9.79,46,9.34,45,8.92,44.1a38.34,38.34,0,0,1-2.1-6A41.17,41.17,0,0,1,5.48,25.59c.11-2.41-3.64-2.41-3.75,0Z"/><path class="cls-3" d="M25.73,17.91c2.88-.92,6-.95,9-1.14s6.24-.36,9.36-.42a15.12,15.12,0,0,1,8,1.77c2.14,1.25,3.38,3.58,4.57,5.67l3.42-3.42a39.87,39.87,0,0,0-7.88-4.29,28,28,0,0,0-8.6-1.62,40.07,40.07,0,0,0-8.67.7c-1.45.26-2.9.59-4.33,1q-1.12.3-2.25.63l-.89.27c-.11,0-1.18.22-.71.24L28,17.6l.35.51a2.57,2.57,0,0,0-2.5-2.5,2.52,2.52,0,0,0-2.5,2.5c.19,1.8,1.05,3.78,3.06,4.11,1.49.24,3.19-.64,4.61-1a44.82,44.82,0,0,1,9.19-1.69,26.42,26.42,0,0,1,8.94.84,30.89,30.89,0,0,1,8.4,4.34c2.14,1.42,4.61-1.33,3.42-3.42-1.52-2.64-3.16-5.26-5.7-7a18.41,18.41,0,0,0-9.78-2.89c-3.5-.07-7,.19-10.52.41S27.76,12,24.4,13.09c-3.06,1-1.75,5.79,1.33,4.82Z"/><path class="cls-3" d="M43.49,36.32l4.3,1.38L46.3,34l-.09.13,2.16-1.23-.18,0,1.77.73-.12-.12c-1.23-1.19-3.86-.83-4.18,1.11a50.86,50.86,0,0,1-2.36,8.55,28.93,28.93,0,0,1-3.69,7.16,48.65,48.65,0,0,1-4.88,6.35c-.43.44-.41.48-.93.46-.69,0-1.36-.26-2.06-.24a11.23,11.23,0,0,0-4.44,1.31l2.52,4.32C35,59.12,39.9,55.46,43.08,49.94a33.53,33.53,0,0,0,3.24-7.89c.73-2.72,2.23-7.13-1.24-8.46a2.54,2.54,0,0,0-2.82,1.15A11.86,11.86,0,0,0,40.83,39a31.42,31.42,0,0,1-1.39,4.45A29,29,0,0,1,34.89,51a2.57,2.57,0,0,0,0,3.54,2.52,2.52,0,0,0,3.53,0,34.57,34.57,0,0,0,5.26-8.45,35.52,35.52,0,0,0,1.66-4.6c.38-1.36.42-3.08,1.24-4.26l-2.83,1.15.21.08-1.49-1.15c-.14-.22,0-.6-.19-.39s-.1.63-.13.8c-.1.6-.22,1.2-.36,1.79a32.12,32.12,0,0,1-.94,3.32,27.28,27.28,0,0,1-2.93,5.93c-2.68,4.08-6.62,6.82-10.62,9.47a2.5,2.5,0,0,0,2.52,4.32A6.59,6.59,0,0,1,31.58,62a8,8,0,0,1,1.89.19A5.39,5.39,0,0,0,38,60.54a44.43,44.43,0,0,0,5.68-7.27,32.25,32.25,0,0,0,4.16-7.87A55,55,0,0,0,50.48,36l-4.17,1.1a2.73,2.73,0,0,0,4.31-.55,2.53,2.53,0,0,0-1.5-3.67l-4.3-1.38c-3.07-1-4.39,3.84-1.33,4.82Z"/><path class="cls-3" d="M22.25,42.28c-4-3.86-8-7.76-10.72-12.68a20.4,20.4,0,0,1-2.39-7,5.61,5.61,0,0,1,.28-3.22,29.49,29.49,0,0,1,2.36-3.51l-4.57-.6c.21,1.38.16,2.81.32,4.21a42.17,42.17,0,0,0,.75,4.45,31.6,31.6,0,0,0,3.18,8.29A25.72,25.72,0,0,0,17,39.09c1.3,1.12,2.67,2.14,4.06,3.15,1.61,1.17,3.3,1.34,4.59-.4a2.52,2.52,0,0,0-.89-3.42,2.57,2.57,0,0,0-3.42.9L20.09,41a2.52,2.52,0,0,0,.9,3.42,2.56,2.56,0,0,0,3.42-.89l1.28-1.68-4.31-2.52-.09.11,2.16-1.23h-.18l1.26.34a15,15,0,0,1-2.92-2.12,26.8,26.8,0,0,1-2.94-2.69,22.57,22.57,0,0,1-3.81-5.8,27.91,27.91,0,0,1-2-6.51c-.48-2.47-.45-5-.81-7.47A2.46,2.46,0,0,0,10,12.15a2.57,2.57,0,0,0-2.49,1.19c-1.88,2.71-3.63,5.09-3.4,8.56A24.79,24.79,0,0,0,6.63,31c2.81,5.79,7.52,10.39,12.08,14.81,2.31,2.25,5.85-1.29,3.54-3.53Z"/><path class="cls-4" d="M28.39,27c3.06-.23,5.84-1.77,8.92-2.08a34.55,34.55,0,0,1,9.52.45c1.58.28,3.14.63,4.7,1a16.64,16.64,0,0,1,4.18,1.42,3.4,3.4,0,0,1,1.83,2.13,6.22,6.22,0,0,1-.17,1.87,8.64,8.64,0,0,0,.07,3l4.18-2.44a32.18,32.18,0,0,0-4-3.82,7.32,7.32,0,0,0-5.43-1.18c-2.16.33-2.37,3.62-.59,4.57l2.6,1.39,1.92-4.57A52.86,52.86,0,0,0,43.7,26.39a49.86,49.86,0,0,0-6-.07c-1.07.05-2.12.17-3.18.26-.42,0-.83,0-1.26.06s-.07-.06-.05,0l-1.75,3.07c3.57-.69,7.3,0,10.86.36l11.34,1.31c2.19.25,3.24-2.88,1.77-4.27-4.08-3.84-9.61-3.88-14.86-3.46a2.56,2.56,0,0,0-2.5,2.5,2.51,2.51,0,0,0,2.5,2.5c3.75-.3,8.33-.82,11.32,2l1.77-4.26L41.85,25c-3.93-.46-7.78-.89-11.71-.13A2.55,2.55,0,0,0,28.4,28c.54,2.65,3.24,3.79,5.71,3.64,2.28-.14,4.53-.39,6.83-.35a47.62,47.62,0,0,1,13.85,2.31c2.68.85,4.43-3.24,1.92-4.57l-2.6-1.39-.6,4.56c.7-.1,1.57.65,2,1.07.89.84,1.67,1.79,2.54,2.65a2.52,2.52,0,0,0,4.18-2.43,7.27,7.27,0,0,1,.21-2.27,7.5,7.5,0,0,0-.13-2.67,7.94,7.94,0,0,0-2.73-4.09c-2.78-2.25-6.68-3-10.1-3.66a43.56,43.56,0,0,0-10.86-1,29.68,29.68,0,0,0-5.55.78C31.56,21,30,21.86,28.39,22a2.57,2.57,0,0,0-2.5,2.5,2.53,2.53,0,0,0,2.5,2.5Z"/><path class="cls-4" d="M52.82,9.17c-2.64-1.82-6-3-9-4.14a35.76,35.76,0,0,0-10-2.44c-1.76-.15-3.52-.16-5.27-.17A9.56,9.56,0,0,0,26,2.67c-.62.18-1.17.55-1.8.7a2.76,2.76,0,0,0-2.44,3c0,1.71.69,3.28.58,5-.1,1.52,1.64,2.19,2.82,1.62A20,20,0,0,1,34,10.53c3.27,0,6.54.08,9.8.25,2.11.11,2.54-3.18.5-3.68a33.67,33.67,0,0,0-4.47-.65,35.49,35.49,0,0,1-4.33-.93,21.09,21.09,0,0,0-4.24-.7,21.45,21.45,0,0,0-5,.61c-2.36.47-1.36,4.09,1,3.61a16.51,16.51,0,0,1,4.26-.46,21.62,21.62,0,0,1,3.89.78c2.62.67,5.32.71,7.93,1.35L43.81,7c-3.55-.18-7.13-.36-10.69-.24a24.29,24.29,0,0,0-9.84,3l2.82,1.62a12.4,12.4,0,0,0-.18-2.92c-.08-.44-.21-.86-.3-1.3s-.07-.88-.09-.85l-1.12.86c.28-.11.84-.18,1.21-.3s.91-.44,1.39-.58a13.9,13.9,0,0,1,3.76-.09A31.92,31.92,0,0,1,37.93,7a46.23,46.23,0,0,1,6.59,2.28,35.75,35.75,0,0,1,6.41,3.1c2,1.37,3.87-1.88,1.89-3.24Z"/><circle class="cls-5" cx="31.99" cy="32" r="30.18"/><path class="cls-5" d="M21.89,3.56c0,1.35.08,6.26.37,8.4a35.91,35.91,0,0,0,1.93,8,33.5,33.5,0,0,0,3.55,7A30,30,0,0,0,32,32"/><path class="cls-6" d="M26.94,39.52c-3.42-1.63-5.05-3.37-7.88-6.76a33.65,33.65,0,0,1-4.17-6.69,36.1,36.1,0,0,1-2.65-7.79c-.48-2.11-1-7-1.13-8.34"/><path class="cls-7" d="M3.87,20.87C4.18,22.19,5.33,27,6.09,29a35.93,35.93,0,0,0,3.64,7.38,35.28,35.28,0,0,0,5,6.08,36.75,36.75,0,0,0,5.82,4.94"/><path class="cls-5" d="M31.72,31.74c-1.29,2.42-2.32,5.12-4.42,7.93a43,43,0,0,1-7.78,8.59,35,35,0,0,1-8.22,4.89"/><path class="cls-8" d="M41.21,31.52c.46,3.76-.14,6.07-1.48,10.27a33.8,33.8,0,0,1-3.4,7.12,35.77,35.77,0,0,1-5.16,6.41c-1.52,1.54-6.21,4.92-7.28,5.76"/><path class="cls-7" d="M36,61.9c1-1,6.17-5.41,7.47-7.14a35.09,35.09,0,0,0,4.27-7,34.21,34.21,0,0,0,2.44-7.5,37,37,0,0,0,1.05-7.55"/><path class="cls-5" d="M32.08,31.66c2.73-.21,5.56-.79,9.06-.52a42.08,42.08,0,0,1,11.42,2A34.45,34.45,0,0,1,61.1,37.4"/><path class="cls-9" d="M25.67,23.41a30.92,30.92,0,0,1,12.07-3.78,33.46,33.46,0,0,1,7.88.24,36.87,36.87,0,0,1,8,2.13c2,.77,6.36,3.05,7.56,3.7"/><path class="cls-7" d="M56.06,13.61c-1.27-.49-5.88-2.18-8-2.67a35.41,35.41,0,0,0-8.16-1.08,34.91,34.91,0,0,0-7.84.8,52.86,52.86,0,0,0-9.52,3.26"/></g></svg>