<svg xmlns="http://www.w3.org/2000/svg" xmlns:xlink="http://www.w3.org/1999/xlink" viewBox="0 0 500 500">
  <defs>
    <style>
      .cls-1 {
        fill: #fff;
      }

      .cls-2 {
        fill: #eaff00;
      }

      .cls-3 {
        fill: none;
      }

      .cls-3, .cls-6 {
        stroke: #fff;
        stroke-miterlimit: 10;
        stroke-width: 2px;
      }

      .cls-4 {
        fill: #336bff;
      }

      .cls-5 {
        fill: #fd6326;
      }

      .cls-6 {
        fill: #121212;
      }

      .cls-7 {
        fill: url(#Unbenannter_Verlauf_5);
      }

      .cls-8 {
        fill: url(#Unbenannter_Verlauf_5-2);
      }

      .cls-9 {
        fill: url(#Unbenannter_Verlauf_5-3);
      }

      .cls-10 {
        fill: url(#Unbenannter_Verlauf_5-4);
      }

      .cls-11 {
        fill: url(#Unbenannter_Verlauf_5-5);
      }

      .cls-12 {
        fill: url(#Unbenannter_Verlauf_5-6);
      }

      .cls-13 {
        fill: url(#Unbenannter_Verlauf_5-7);
      }

      .cls-14 {
        fill: url(#Unbenannter_Verlauf_5-8);
      }

      .cls-15 {
        fill: url(#Unbenannter_Verlauf_5-9);
      }
    </style>
    <linearGradient id="Unbenannter_Verlauf_5" data-name="Unbenannter Verlauf 5" x1="203.12" y1="90.75" x2="381.28" y2="90.75" gradientUnits="userSpaceOnUse">
      <stop offset="0" stop-color="#4d4d4d"/>
      <stop offset="1" stop-color="#666"/>
    </linearGradient>
    <linearGradient id="Unbenannter_Verlauf_5-2" x1="203.12" y1="106.85" x2="343.53" y2="106.85" xlink:href="#Unbenannter_Verlauf_5"/>
    <linearGradient id="Unbenannter_Verlauf_5-3" x1="202.74" y1="122.53" x2="359.76" y2="122.53" xlink:href="#Unbenannter_Verlauf_5"/>
    <linearGradient id="Unbenannter_Verlauf_5-4" x1="203.56" y1="394.11" x2="366.56" y2="394.11" xlink:href="#Unbenannter_Verlauf_5"/>
    <linearGradient id="Unbenannter_Verlauf_5-5" x1="203.56" y1="410.01" x2="359.76" y2="410.01" xlink:href="#Unbenannter_Verlauf_5"/>
    <linearGradient id="Unbenannter_Verlauf_5-6" x1="203.18" y1="425.85" x2="351.84" y2="425.85" xlink:href="#Unbenannter_Verlauf_5"/>
    <linearGradient id="Unbenannter_Verlauf_5-7" x1="-413.56" y1="247.84" x2="-235.4" y2="247.84" gradientTransform="matrix(1, 0, 0, -1, 524.51, 495.68)" xlink:href="#Unbenannter_Verlauf_5"/>
    <linearGradient id="Unbenannter_Verlauf_5-8" x1="-413.56" y1="263.93" x2="-273.14" y2="263.93" gradientTransform="matrix(1, 0, 0, -1, 562.26, 527.87)" xlink:href="#Unbenannter_Verlauf_5"/>
    <linearGradient id="Unbenannter_Verlauf_5-9" x1="-413.94" y1="279.62" x2="-256.91" y2="279.62" gradientTransform="matrix(1, 0, 0, -1, 546.4, 559.23)" xlink:href="#Unbenannter_Verlauf_5"/>
  </defs>
  <g id="Ebene_2" data-name="Ebene 2">
    <g>
      <g>
        <ellipse class="cls-1" cx="59.52" cy="87.97" rx="21.43" ry="21.62"/>
        <ellipse class="cls-1" cx="59.44" cy="87.92" rx="21.43" ry="21.62"/>
        <ellipse class="cls-1" cx="59.37" cy="87.87" rx="21.43" ry="21.62"/>
        <ellipse class="cls-1" cx="59.29" cy="87.82" rx="21.43" ry="21.62"/>
        <ellipse class="cls-1" cx="59.22" cy="87.77" rx="21.43" ry="21.62"/>
        <ellipse class="cls-1" cx="59.14" cy="87.72" rx="21.43" ry="21.62"/>
        <ellipse class="cls-1" cx="59.07" cy="87.67" rx="21.43" ry="21.62"/>
        <ellipse class="cls-1" cx="58.99" cy="87.62" rx="21.43" ry="21.62"/>
        <ellipse class="cls-1" cx="58.92" cy="87.57" rx="21.43" ry="21.62"/>
        <ellipse class="cls-1" cx="58.84" cy="87.52" rx="21.43" ry="21.62"/>
        <ellipse class="cls-1" cx="58.77" cy="87.47" rx="21.43" ry="21.62"/>
        <ellipse class="cls-1" cx="58.69" cy="87.42" rx="21.43" ry="21.62"/>
        <ellipse class="cls-1" cx="58.62" cy="87.37" rx="21.43" ry="21.62"/>
        <ellipse class="cls-1" cx="58.54" cy="87.32" rx="21.43" ry="21.62"/>
        <ellipse class="cls-1" cx="58.47" cy="87.27" rx="21.43" ry="21.62"/>
        <ellipse class="cls-1" cx="58.39" cy="87.22" rx="21.43" ry="21.62"/>
        <ellipse class="cls-1" cx="58.32" cy="87.17" rx="21.43" ry="21.62"/>
        <ellipse class="cls-1" cx="58.24" cy="87.12" rx="21.43" ry="21.62"/>
        <ellipse class="cls-1" cx="58.17" cy="87.07" rx="21.43" ry="21.62"/>
        <ellipse class="cls-1" cx="58.09" cy="87.02" rx="21.43" ry="21.62"/>
        <ellipse class="cls-1" cx="58.02" cy="86.97" rx="21.43" ry="21.62"/>
        <ellipse class="cls-1" cx="57.94" cy="86.92" rx="21.43" ry="21.62"/>
        <ellipse class="cls-1" cx="57.87" cy="86.87" rx="21.43" ry="21.62"/>
        <ellipse class="cls-1" cx="57.79" cy="86.82" rx="21.43" ry="21.62"/>
        <ellipse class="cls-1" cx="57.72" cy="86.77" rx="21.43" ry="21.62"/>
        <ellipse class="cls-1" cx="57.64" cy="86.72" rx="21.43" ry="21.62"/>
        <ellipse class="cls-1" cx="57.57" cy="86.67" rx="21.43" ry="21.62"/>
        <ellipse class="cls-1" cx="57.49" cy="86.62" rx="21.43" ry="21.62"/>
        <ellipse class="cls-1" cx="57.42" cy="86.57" rx="21.43" ry="21.62"/>
        <ellipse class="cls-1" cx="57.34" cy="86.52" rx="21.43" ry="21.62"/>
        <ellipse class="cls-1" cx="57.27" cy="86.47" rx="21.43" ry="21.62"/>
        <ellipse class="cls-1" cx="57.19" cy="86.42" rx="21.43" ry="21.62"/>
        <ellipse class="cls-1" cx="57.12" cy="86.37" rx="21.43" ry="21.62"/>
        <ellipse class="cls-1" cx="57.04" cy="86.32" rx="21.43" ry="21.62"/>
        <ellipse class="cls-1" cx="56.97" cy="86.27" rx="21.43" ry="21.62"/>
        <ellipse class="cls-1" cx="56.89" cy="86.22" rx="21.43" ry="21.62"/>
        <ellipse class="cls-1" cx="56.82" cy="86.17" rx="21.43" ry="21.62"/>
        <ellipse class="cls-1" cx="56.74" cy="86.12" rx="21.43" ry="21.62"/>
        <ellipse class="cls-1" cx="56.67" cy="86.07" rx="21.43" ry="21.62"/>
        <ellipse class="cls-1" cx="56.59" cy="86.02" rx="21.43" ry="21.62"/>
        <ellipse class="cls-1" cx="56.52" cy="85.97" rx="21.43" ry="21.62"/>
        <ellipse class="cls-1" cx="56.44" cy="85.92" rx="21.43" ry="21.62"/>
        <ellipse class="cls-1" cx="56.37" cy="85.87" rx="21.43" ry="21.62"/>
        <ellipse class="cls-1" cx="56.29" cy="85.82" rx="21.43" ry="21.62"/>
        <ellipse class="cls-1" cx="56.22" cy="85.77" rx="21.43" ry="21.62"/>
        <ellipse class="cls-1" cx="56.14" cy="85.72" rx="21.43" ry="21.62"/>
        <ellipse class="cls-1" cx="56.07" cy="85.67" rx="21.43" ry="21.62"/>
        <ellipse class="cls-1" cx="55.99" cy="85.62" rx="21.43" ry="21.62"/>
        <ellipse class="cls-1" cx="55.92" cy="85.57" rx="21.43" ry="21.62"/>
        <ellipse class="cls-1" cx="55.84" cy="85.52" rx="21.43" ry="21.62"/>
        <ellipse class="cls-1" cx="55.77" cy="85.47" rx="21.43" ry="21.62"/>
      </g>
      <ellipse class="cls-2" cx="55.77" cy="85.47" rx="21.43" ry="21.62"/>
      <ellipse class="cls-3" cx="55.77" cy="85.47" rx="21.43" ry="21.62"/>
    </g>
    <g>
      <g>
        <path class="cls-1" d="M59.52,116.63C34.84,116.63,14.84,128,14.84,142v15H104.2V142C104.2,128,84.19,116.63,59.52,116.63Z"/>
        <path class="cls-1" d="M59.44,116.58c-24.67,0-44.67,11.33-44.67,25.32v15h89.35v-15C104.12,127.91,84.12,116.58,59.44,116.58Z"/>
        <path class="cls-1" d="M59.37,116.53c-24.68,0-44.68,11.33-44.68,25.32v15h89.36v-15C104.05,127.86,84,116.53,59.37,116.53Z"/>
        <path class="cls-1" d="M59.29,116.48c-24.67,0-44.67,11.33-44.67,25.32v15H104v-15C104,127.81,84,116.48,59.29,116.48Z"/>
        <path class="cls-1" d="M59.22,116.43c-24.68,0-44.68,11.33-44.68,25.32v15H103.9v-15C103.9,127.76,83.89,116.43,59.22,116.43Z"/>
        <path class="cls-1" d="M59.14,116.38c-24.67,0-44.67,11.33-44.67,25.32v15h89.35v-15C103.82,127.71,83.82,116.38,59.14,116.38Z"/>
        <path class="cls-1" d="M59.07,116.33c-24.68,0-44.68,11.33-44.68,25.32v15h89.36v-15C103.75,127.66,83.74,116.33,59.07,116.33Z"/>
        <path class="cls-1" d="M59,116.28c-24.67,0-44.67,11.33-44.67,25.32v15h89.35v-15C103.67,127.61,83.67,116.28,59,116.28Z"/>
        <path class="cls-1" d="M58.92,116.23c-24.68,0-44.68,11.33-44.68,25.32v15H103.6v-15C103.6,127.56,83.59,116.23,58.92,116.23Z"/>
        <path class="cls-1" d="M58.84,116.18c-24.67,0-44.67,11.33-44.67,25.32v15h89.35v-15C103.52,127.51,83.52,116.18,58.84,116.18Z"/>
        <path class="cls-1" d="M58.77,116.13c-24.68,0-44.68,11.33-44.68,25.32v15h89.36v-15C103.45,127.46,83.44,116.13,58.77,116.13Z"/>
        <path class="cls-1" d="M58.69,116.08C34,116.08,14,127.41,14,141.4v15h89.35v-15C103.37,127.41,83.37,116.08,58.69,116.08Z"/>
        <path class="cls-1" d="M58.62,116c-24.68,0-44.68,11.33-44.68,25.32v15H103.3v-15C103.3,127.36,83.29,116,58.62,116Z"/>
        <path class="cls-1" d="M58.54,116c-24.67,0-44.67,11.33-44.67,25.32v15h89.35v-15C103.22,127.31,83.22,116,58.54,116Z"/>
        <path class="cls-1" d="M58.47,115.93c-24.68,0-44.68,11.33-44.68,25.32v15h89.36v-15C103.15,127.26,83.14,115.93,58.47,115.93Z"/>
        <path class="cls-1" d="M58.39,115.88c-24.67,0-44.67,11.33-44.67,25.32v15h89.35v-15C103.07,127.21,83.07,115.88,58.39,115.88Z"/>
        <path class="cls-1" d="M58.32,115.83c-24.68,0-44.68,11.33-44.68,25.32v15H103v-15C103,127.16,83,115.83,58.32,115.83Z"/>
        <path class="cls-1" d="M58.24,115.78c-24.67,0-44.67,11.33-44.67,25.32v15h89.35v-15C102.92,127.11,82.92,115.78,58.24,115.78Z"/>
        <path class="cls-1" d="M58.17,115.73c-24.68,0-44.68,11.33-44.68,25.32v15h89.36v-15C102.85,127.06,82.84,115.73,58.17,115.73Z"/>
        <path class="cls-1" d="M58.09,115.68C33.42,115.68,13.42,127,13.42,141v15h89.35V141C102.77,127,82.77,115.68,58.09,115.68Z"/>
        <path class="cls-1" d="M58,115.63C33.34,115.63,13.34,127,13.34,141v15H102.7V141C102.7,127,82.69,115.63,58,115.63Z"/>
        <path class="cls-1" d="M57.94,115.58c-24.67,0-44.67,11.33-44.67,25.32v15h89.35v-15C102.62,126.91,82.62,115.58,57.94,115.58Z"/>
        <path class="cls-1" d="M57.87,115.53c-24.68,0-44.68,11.33-44.68,25.32v15h89.36v-15C102.55,126.86,82.54,115.53,57.87,115.53Z"/>
        <path class="cls-1" d="M57.79,115.48c-24.67,0-44.67,11.33-44.67,25.32v15h89.35v-15C102.47,126.81,82.47,115.48,57.79,115.48Z"/>
        <path class="cls-1" d="M57.72,115.43C33,115.43,13,126.76,13,140.75v15H102.4v-15C102.4,126.76,82.39,115.43,57.72,115.43Z"/>
        <path class="cls-1" d="M57.64,115.38C33,115.38,13,126.71,13,140.7v15h89.35v-15C102.32,126.71,82.32,115.38,57.64,115.38Z"/>
        <path class="cls-1" d="M57.57,115.33c-24.68,0-44.68,11.33-44.68,25.32v15h89.36v-15C102.25,126.66,82.24,115.33,57.57,115.33Z"/>
        <path class="cls-1" d="M57.49,115.28c-24.67,0-44.67,11.33-44.67,25.32v15h89.35v-15C102.17,126.61,82.17,115.28,57.49,115.28Z"/>
        <path class="cls-1" d="M57.42,115.23c-24.68,0-44.68,11.33-44.68,25.32v15H102.1v-15C102.1,126.56,82.09,115.23,57.42,115.23Z"/>
        <path class="cls-1" d="M57.34,115.18c-24.67,0-44.67,11.33-44.67,25.32v15H102v-15C102,126.51,82,115.18,57.34,115.18Z"/>
        <path class="cls-1" d="M57.27,115.13c-24.68,0-44.68,11.33-44.68,25.32v15H102v-15C102,126.46,81.94,115.13,57.27,115.13Z"/>
        <path class="cls-1" d="M57.19,115.08c-24.67,0-44.67,11.33-44.67,25.32v15h89.35v-15C101.87,126.41,81.87,115.08,57.19,115.08Z"/>
        <path class="cls-1" d="M57.12,115c-24.68,0-44.68,11.33-44.68,25.32v15H101.8v-15C101.8,126.36,81.79,115,57.12,115Z"/>
        <path class="cls-1" d="M57,115c-24.67,0-44.67,11.33-44.67,25.32v15h89.35v-15C101.72,126.31,81.72,115,57,115Z"/>
        <path class="cls-1" d="M57,114.93c-24.68,0-44.68,11.33-44.68,25.32v15h89.36v-15C101.65,126.26,81.64,114.93,57,114.93Z"/>
        <path class="cls-1" d="M56.89,114.88c-24.67,0-44.67,11.33-44.67,25.32v15h89.35v-15C101.57,126.21,81.57,114.88,56.89,114.88Z"/>
        <path class="cls-1" d="M56.82,114.83c-24.68,0-44.68,11.33-44.68,25.32v15H101.5v-15C101.5,126.16,81.49,114.83,56.82,114.83Z"/>
        <path class="cls-1" d="M56.74,114.78c-24.67,0-44.67,11.33-44.67,25.32v15h89.35v-15C101.42,126.11,81.42,114.78,56.74,114.78Z"/>
        <path class="cls-1" d="M56.67,114.73C32,114.73,12,126.06,12,140.05v15h89.36v-15C101.35,126.06,81.34,114.73,56.67,114.73Z"/>
        <path class="cls-1" d="M56.59,114.68C31.92,114.68,11.92,126,11.92,140v15h89.35V140C101.27,126,81.27,114.68,56.59,114.68Z"/>
        <path class="cls-1" d="M56.52,114.63C31.84,114.63,11.84,126,11.84,140v15H101.2V140C101.2,126,81.19,114.63,56.52,114.63Z"/>
        <path class="cls-1" d="M56.44,114.58c-24.67,0-44.67,11.33-44.67,25.32v15h89.35v-15C101.12,125.91,81.12,114.58,56.44,114.58Z"/>
        <path class="cls-1" d="M56.37,114.53c-24.68,0-44.68,11.33-44.68,25.32v15h89.36v-15C101.05,125.86,81,114.53,56.37,114.53Z"/>
        <path class="cls-1" d="M56.29,114.48c-24.67,0-44.67,11.33-44.67,25.32v15H101v-15C101,125.81,81,114.48,56.29,114.48Z"/>
        <path class="cls-1" d="M56.22,114.43c-24.68,0-44.68,11.33-44.68,25.32v15H100.9v-15C100.9,125.76,80.89,114.43,56.22,114.43Z"/>
        <path class="cls-1" d="M56.14,114.38c-24.67,0-44.67,11.33-44.67,25.32v15h89.35v-15C100.82,125.71,80.82,114.38,56.14,114.38Z"/>
        <path class="cls-1" d="M56.07,114.33c-24.68,0-44.68,11.33-44.68,25.32v15h89.36v-15C100.75,125.66,80.74,114.33,56.07,114.33Z"/>
        <path class="cls-1" d="M56,114.28c-24.67,0-44.67,11.33-44.67,25.32v15h89.35v-15C100.67,125.61,80.67,114.28,56,114.28Z"/>
        <path class="cls-1" d="M55.92,114.23c-24.68,0-44.68,11.33-44.68,25.32v15H100.6v-15C100.6,125.56,80.59,114.23,55.92,114.23Z"/>
        <path class="cls-1" d="M55.84,114.18c-24.67,0-44.67,11.33-44.67,25.32v15h89.35v-15C100.52,125.51,80.52,114.18,55.84,114.18Z"/>
        <path class="cls-1" d="M55.77,114.13c-24.68,0-44.68,11.33-44.68,25.32v15h89.36v-15C100.45,125.46,80.44,114.13,55.77,114.13Z"/>
      </g>
      <path class="cls-2" d="M12.09,153.48v-14c0-13.41,19.6-24.32,43.68-24.32S99.45,126,99.45,139.45v14Z"/>
      <path class="cls-1" d="M55.77,116.13c11.59,0,22.46,2.54,30.6,7.15,7.79,4.42,12.08,10.16,12.08,16.17v13H13.09v-13c0-6,4.29-11.75,12.07-16.17,8.15-4.61,19-7.15,30.61-7.15m0-2c-24.68,0-44.68,11.33-44.68,25.32v15h89.36v-15c0-14-20-25.32-44.68-25.32Z"/>
    </g>
    <g>
      <g>
        <ellipse class="cls-1" cx="447.07" cy="250.08" rx="21.43" ry="21.62"/>
        <ellipse class="cls-1" cx="447" cy="250.03" rx="21.43" ry="21.62"/>
        <ellipse class="cls-1" cx="446.92" cy="249.98" rx="21.43" ry="21.62"/>
        <ellipse class="cls-1" cx="446.85" cy="249.93" rx="21.43" ry="21.62"/>
        <ellipse class="cls-1" cx="446.77" cy="249.88" rx="21.43" ry="21.62"/>
        <ellipse class="cls-1" cx="446.7" cy="249.83" rx="21.43" ry="21.62"/>
        <ellipse class="cls-1" cx="446.62" cy="249.78" rx="21.43" ry="21.62"/>
        <ellipse class="cls-1" cx="446.55" cy="249.73" rx="21.43" ry="21.62"/>
        <ellipse class="cls-1" cx="446.47" cy="249.68" rx="21.43" ry="21.62"/>
        <ellipse class="cls-1" cx="446.4" cy="249.63" rx="21.43" ry="21.62"/>
        <ellipse class="cls-1" cx="446.32" cy="249.58" rx="21.43" ry="21.62"/>
        <ellipse class="cls-1" cx="446.25" cy="249.53" rx="21.43" ry="21.62"/>
        <ellipse class="cls-1" cx="446.17" cy="249.48" rx="21.43" ry="21.62"/>
        <ellipse class="cls-1" cx="446.1" cy="249.43" rx="21.43" ry="21.62"/>
        <ellipse class="cls-1" cx="446.02" cy="249.38" rx="21.43" ry="21.62"/>
        <ellipse class="cls-1" cx="445.95" cy="249.33" rx="21.43" ry="21.62"/>
        <ellipse class="cls-1" cx="445.87" cy="249.28" rx="21.43" ry="21.62"/>
        <ellipse class="cls-1" cx="445.8" cy="249.23" rx="21.43" ry="21.62"/>
        <ellipse class="cls-1" cx="445.72" cy="249.18" rx="21.43" ry="21.62"/>
        <ellipse class="cls-1" cx="445.65" cy="249.13" rx="21.43" ry="21.62"/>
        <ellipse class="cls-1" cx="445.57" cy="249.08" rx="21.43" ry="21.62"/>
        <ellipse class="cls-1" cx="445.5" cy="249.03" rx="21.43" ry="21.62"/>
        <ellipse class="cls-1" cx="445.42" cy="248.98" rx="21.43" ry="21.62"/>
        <ellipse class="cls-1" cx="445.35" cy="248.93" rx="21.43" ry="21.62"/>
        <ellipse class="cls-1" cx="445.27" cy="248.88" rx="21.43" ry="21.62"/>
        <ellipse class="cls-1" cx="445.2" cy="248.83" rx="21.43" ry="21.62"/>
        <ellipse class="cls-1" cx="445.12" cy="248.78" rx="21.43" ry="21.62"/>
        <ellipse class="cls-1" cx="445.05" cy="248.73" rx="21.43" ry="21.62"/>
        <ellipse class="cls-1" cx="444.97" cy="248.68" rx="21.43" ry="21.62"/>
        <ellipse class="cls-1" cx="444.9" cy="248.63" rx="21.43" ry="21.62"/>
        <ellipse class="cls-1" cx="444.82" cy="248.58" rx="21.43" ry="21.62"/>
        <ellipse class="cls-1" cx="444.75" cy="248.53" rx="21.43" ry="21.62"/>
        <ellipse class="cls-1" cx="444.67" cy="248.48" rx="21.43" ry="21.62"/>
        <ellipse class="cls-1" cx="444.6" cy="248.43" rx="21.43" ry="21.62"/>
        <ellipse class="cls-1" cx="444.52" cy="248.38" rx="21.43" ry="21.62"/>
        <ellipse class="cls-1" cx="444.45" cy="248.33" rx="21.43" ry="21.62"/>
        <ellipse class="cls-1" cx="444.37" cy="248.28" rx="21.43" ry="21.62"/>
        <ellipse class="cls-1" cx="444.3" cy="248.23" rx="21.43" ry="21.62"/>
        <ellipse class="cls-1" cx="444.22" cy="248.18" rx="21.43" ry="21.62"/>
        <ellipse class="cls-1" cx="444.15" cy="248.13" rx="21.43" ry="21.62"/>
        <ellipse class="cls-1" cx="444.07" cy="248.08" rx="21.43" ry="21.62"/>
        <ellipse class="cls-1" cx="444" cy="248.03" rx="21.43" ry="21.62"/>
        <ellipse class="cls-1" cx="443.92" cy="247.98" rx="21.43" ry="21.62"/>
        <ellipse class="cls-1" cx="443.85" cy="247.93" rx="21.43" ry="21.62"/>
        <ellipse class="cls-1" cx="443.77" cy="247.88" rx="21.43" ry="21.62"/>
        <ellipse class="cls-1" cx="443.7" cy="247.83" rx="21.43" ry="21.62"/>
        <ellipse class="cls-1" cx="443.62" cy="247.78" rx="21.43" ry="21.62"/>
        <ellipse class="cls-1" cx="443.55" cy="247.73" rx="21.43" ry="21.62"/>
        <ellipse class="cls-1" cx="443.47" cy="247.68" rx="21.43" ry="21.62"/>
        <ellipse class="cls-1" cx="443.4" cy="247.63" rx="21.43" ry="21.62"/>
        <ellipse class="cls-1" cx="443.32" cy="247.58" rx="21.43" ry="21.62"/>
      </g>
      <ellipse class="cls-4" cx="443.32" cy="247.58" rx="21.43" ry="21.62"/>
      <ellipse class="cls-3" cx="443.32" cy="247.58" rx="21.43" ry="21.62"/>
    </g>
    <g>
      <g>
        <path class="cls-1" d="M447.07,278.74c-24.67,0-44.67,11.34-44.67,25.32v15h89.35v-15C491.75,290.08,471.75,278.74,447.07,278.74Z"/>
        <path class="cls-1" d="M447,278.69c-24.68,0-44.68,11.34-44.68,25.32v15h89.36V304C491.68,290,471.67,278.69,447,278.69Z"/>
        <path class="cls-1" d="M446.92,278.64c-24.67,0-44.67,11.34-44.67,25.32v15H491.6V304C491.6,290,471.6,278.64,446.92,278.64Z"/>
        <path class="cls-1" d="M446.85,278.59c-24.68,0-44.68,11.34-44.68,25.32v15h89.36v-15C491.53,289.93,471.52,278.59,446.85,278.59Z"/>
        <path class="cls-1" d="M446.77,278.54c-24.67,0-44.67,11.34-44.67,25.32v15h89.35v-15C491.45,289.88,471.45,278.54,446.77,278.54Z"/>
        <path class="cls-1" d="M446.7,278.49C422,278.49,402,289.83,402,303.81v15h89.36v-15C491.38,289.83,471.37,278.49,446.7,278.49Z"/>
        <path class="cls-1" d="M446.62,278.44C422,278.44,402,289.78,402,303.76v15H491.3v-15C491.3,289.78,471.3,278.44,446.62,278.44Z"/>
        <path class="cls-1" d="M446.55,278.39c-24.68,0-44.68,11.34-44.68,25.32v15h89.36v-15C491.23,289.73,471.22,278.39,446.55,278.39Z"/>
        <path class="cls-1" d="M446.47,278.34c-24.67,0-44.67,11.34-44.67,25.32v15h89.35v-15C491.15,289.68,471.15,278.34,446.47,278.34Z"/>
        <path class="cls-1" d="M446.4,278.29c-24.68,0-44.68,11.34-44.68,25.32v15h89.36v-15C491.08,289.63,471.07,278.29,446.4,278.29Z"/>
        <path class="cls-1" d="M446.32,278.24c-24.67,0-44.67,11.34-44.67,25.32v15H491v-15C491,289.58,471,278.24,446.32,278.24Z"/>
        <path class="cls-1" d="M446.25,278.19c-24.68,0-44.68,11.34-44.68,25.32v15h89.36v-15C490.93,289.53,470.92,278.19,446.25,278.19Z"/>
        <path class="cls-1" d="M446.17,278.14c-24.67,0-44.67,11.34-44.67,25.32v15h89.35v-15C490.85,289.48,470.85,278.14,446.17,278.14Z"/>
        <path class="cls-1" d="M446.1,278.09c-24.68,0-44.68,11.34-44.68,25.32v15h89.36v-15C490.78,289.43,470.77,278.09,446.1,278.09Z"/>
        <path class="cls-1" d="M446,278c-24.67,0-44.67,11.34-44.67,25.32v15H490.7v-15C490.7,289.38,470.7,278,446,278Z"/>
        <path class="cls-1" d="M446,278c-24.68,0-44.68,11.34-44.68,25.32v15h89.36v-15C490.63,289.33,470.62,278,446,278Z"/>
        <path class="cls-1" d="M445.87,277.94c-24.67,0-44.67,11.34-44.67,25.32v15h89.35v-15C490.55,289.28,470.55,277.94,445.87,277.94Z"/>
        <path class="cls-1" d="M445.8,277.89c-24.68,0-44.68,11.34-44.68,25.32v15h89.36v-15C490.48,289.23,470.47,277.89,445.8,277.89Z"/>
        <path class="cls-1" d="M445.72,277.84c-24.67,0-44.67,11.34-44.67,25.32v15H490.4v-15C490.4,289.18,470.4,277.84,445.72,277.84Z"/>
        <path class="cls-1" d="M445.65,277.79C421,277.79,401,289.13,401,303.11v15h89.36v-15C490.33,289.13,470.32,277.79,445.65,277.79Z"/>
        <path class="cls-1" d="M445.57,277.74c-24.67,0-44.67,11.34-44.67,25.32v15h89.35v-15C490.25,289.08,470.25,277.74,445.57,277.74Z"/>
        <path class="cls-1" d="M445.5,277.69c-24.68,0-44.68,11.34-44.68,25.32v15h89.36V303C490.18,289,470.17,277.69,445.5,277.69Z"/>
        <path class="cls-1" d="M445.42,277.64c-24.67,0-44.67,11.34-44.67,25.32v15H490.1V303C490.1,289,470.1,277.64,445.42,277.64Z"/>
        <path class="cls-1" d="M445.35,277.59c-24.68,0-44.68,11.34-44.68,25.32v15H490v-15C490,288.93,470,277.59,445.35,277.59Z"/>
        <path class="cls-1" d="M445.27,277.54c-24.67,0-44.67,11.34-44.67,25.32v15H490v-15C490,288.88,470,277.54,445.27,277.54Z"/>
        <path class="cls-1" d="M445.2,277.49c-24.68,0-44.68,11.34-44.68,25.32v15h89.36v-15C489.88,288.83,469.87,277.49,445.2,277.49Z"/>
        <path class="cls-1" d="M445.12,277.44c-24.67,0-44.67,11.34-44.67,25.32v15H489.8v-15C489.8,288.78,469.8,277.44,445.12,277.44Z"/>
        <path class="cls-1" d="M445.05,277.39c-24.68,0-44.68,11.34-44.68,25.32v15h89.36v-15C489.73,288.73,469.72,277.39,445.05,277.39Z"/>
        <path class="cls-1" d="M445,277.34c-24.67,0-44.67,11.34-44.67,25.32v15h89.35v-15C489.65,288.68,469.65,277.34,445,277.34Z"/>
        <path class="cls-1" d="M444.9,277.29c-24.68,0-44.68,11.34-44.68,25.32v15h89.36v-15C489.58,288.63,469.57,277.29,444.9,277.29Z"/>
        <path class="cls-1" d="M444.82,277.24c-24.67,0-44.67,11.34-44.67,25.32v15H489.5v-15C489.5,288.58,469.5,277.24,444.82,277.24Z"/>
        <path class="cls-1" d="M444.75,277.19c-24.68,0-44.68,11.34-44.68,25.32v15h89.36v-15C489.43,288.53,469.42,277.19,444.75,277.19Z"/>
        <path class="cls-1" d="M444.67,277.14C420,277.14,400,288.48,400,302.46v15h89.35v-15C489.35,288.48,469.35,277.14,444.67,277.14Z"/>
        <path class="cls-1" d="M444.6,277.09c-24.68,0-44.68,11.34-44.68,25.32v15h89.36v-15C489.28,288.43,469.27,277.09,444.6,277.09Z"/>
        <path class="cls-1" d="M444.52,277c-24.67,0-44.67,11.34-44.67,25.32v15H489.2v-15C489.2,288.38,469.2,277,444.52,277Z"/>
        <path class="cls-1" d="M444.45,277c-24.68,0-44.68,11.34-44.68,25.32v15h89.36v-15C489.13,288.33,469.12,277,444.45,277Z"/>
        <path class="cls-1" d="M444.37,276.94c-24.67,0-44.67,11.34-44.67,25.32v15h89.35v-15C489.05,288.28,469.05,276.94,444.37,276.94Z"/>
        <path class="cls-1" d="M444.3,276.89c-24.68,0-44.68,11.34-44.68,25.32v15H489v-15C489,288.23,469,276.89,444.3,276.89Z"/>
        <path class="cls-1" d="M444.22,276.84c-24.67,0-44.67,11.34-44.67,25.32v15H488.9v-15C488.9,288.18,468.9,276.84,444.22,276.84Z"/>
        <path class="cls-1" d="M444.15,276.79c-24.68,0-44.68,11.34-44.68,25.32v15h89.36v-15C488.83,288.13,468.82,276.79,444.15,276.79Z"/>
        <path class="cls-1" d="M444.07,276.74c-24.67,0-44.67,11.34-44.67,25.32v15h89.35v-15C488.75,288.08,468.75,276.74,444.07,276.74Z"/>
        <path class="cls-1" d="M444,276.69c-24.68,0-44.68,11.34-44.68,25.32v15h89.36V302C488.68,288,468.67,276.69,444,276.69Z"/>
        <path class="cls-1" d="M443.92,276.64c-24.67,0-44.67,11.34-44.67,25.32v15H488.6V302C488.6,288,468.6,276.64,443.92,276.64Z"/>
        <path class="cls-1" d="M443.85,276.59c-24.68,0-44.68,11.34-44.68,25.32v15h89.36v-15C488.53,287.93,468.52,276.59,443.85,276.59Z"/>
        <path class="cls-1" d="M443.77,276.54c-24.67,0-44.67,11.34-44.67,25.32v15h89.35v-15C488.45,287.88,468.45,276.54,443.77,276.54Z"/>
        <path class="cls-1" d="M443.7,276.49C419,276.49,399,287.83,399,301.81v15h89.36v-15C488.38,287.83,468.37,276.49,443.7,276.49Z"/>
        <path class="cls-1" d="M443.62,276.44C419,276.44,399,287.78,399,301.76v15H488.3v-15C488.3,287.78,468.3,276.44,443.62,276.44Z"/>
        <path class="cls-1" d="M443.55,276.39c-24.68,0-44.68,11.34-44.68,25.32v15h89.36v-15C488.23,287.73,468.22,276.39,443.55,276.39Z"/>
        <path class="cls-1" d="M443.47,276.34c-24.67,0-44.67,11.34-44.67,25.32v15h89.35v-15C488.15,287.68,468.15,276.34,443.47,276.34Z"/>
        <path class="cls-1" d="M443.4,276.29c-24.68,0-44.68,11.34-44.68,25.32v15h89.36v-15C488.08,287.63,468.07,276.29,443.4,276.29Z"/>
        <path class="cls-1" d="M443.32,276.24c-24.67,0-44.67,11.34-44.67,25.32v15H488v-15C488,287.58,468,276.24,443.32,276.24Z"/>
      </g>
      <path class="cls-4" d="M399.65,315.59v-14c0-13.41,19.59-24.32,43.67-24.32S487,288.15,487,301.56v14Z"/>
      <path class="cls-1" d="M443.32,278.24c11.6,0,22.47,2.54,30.61,7.16,7.78,4.41,12.07,10.15,12.07,16.16v13H400.65v-13c0-6,4.28-11.75,12.07-16.16,8.14-4.62,19-7.16,30.6-7.16m0-2c-24.67,0-44.67,11.34-44.67,25.32v15H488v-15c0-14-20-25.32-44.68-25.32Z"/>
    </g>
    <g>
      <g>
        <ellipse class="cls-1" cx="59.8" cy="393.89" rx="21.43" ry="21.62"/>
        <ellipse class="cls-1" cx="59.72" cy="393.84" rx="21.43" ry="21.62"/>
        <ellipse class="cls-1" cx="59.65" cy="393.79" rx="21.43" ry="21.62"/>
        <ellipse class="cls-1" cx="59.57" cy="393.74" rx="21.43" ry="21.62"/>
        <ellipse class="cls-1" cx="59.5" cy="393.69" rx="21.43" ry="21.62"/>
        <ellipse class="cls-1" cx="59.42" cy="393.64" rx="21.43" ry="21.62"/>
        <ellipse class="cls-1" cx="59.35" cy="393.59" rx="21.43" ry="21.62"/>
        <ellipse class="cls-1" cx="59.27" cy="393.54" rx="21.43" ry="21.62"/>
        <ellipse class="cls-1" cx="59.2" cy="393.49" rx="21.43" ry="21.62"/>
        <ellipse class="cls-1" cx="59.12" cy="393.44" rx="21.43" ry="21.62"/>
        <ellipse class="cls-1" cx="59.05" cy="393.39" rx="21.43" ry="21.62"/>
        <ellipse class="cls-1" cx="58.97" cy="393.34" rx="21.43" ry="21.62"/>
        <ellipse class="cls-1" cx="58.9" cy="393.29" rx="21.43" ry="21.62"/>
        <ellipse class="cls-1" cx="58.82" cy="393.24" rx="21.43" ry="21.62"/>
        <ellipse class="cls-1" cx="58.75" cy="393.19" rx="21.43" ry="21.62"/>
        <ellipse class="cls-1" cx="58.67" cy="393.14" rx="21.43" ry="21.62"/>
        <ellipse class="cls-1" cx="58.6" cy="393.09" rx="21.43" ry="21.62"/>
        <ellipse class="cls-1" cx="58.52" cy="393.04" rx="21.43" ry="21.62"/>
        <ellipse class="cls-1" cx="58.45" cy="392.99" rx="21.43" ry="21.62"/>
        <ellipse class="cls-1" cx="58.37" cy="392.94" rx="21.43" ry="21.62"/>
        <ellipse class="cls-1" cx="58.3" cy="392.89" rx="21.43" ry="21.62"/>
        <ellipse class="cls-1" cx="58.22" cy="392.84" rx="21.43" ry="21.62"/>
        <ellipse class="cls-1" cx="58.15" cy="392.79" rx="21.43" ry="21.62"/>
        <ellipse class="cls-1" cx="58.07" cy="392.74" rx="21.43" ry="21.62"/>
        <ellipse class="cls-1" cx="58" cy="392.69" rx="21.43" ry="21.62"/>
        <ellipse class="cls-1" cx="57.92" cy="392.64" rx="21.43" ry="21.62"/>
        <ellipse class="cls-1" cx="57.85" cy="392.59" rx="21.43" ry="21.62"/>
        <ellipse class="cls-1" cx="57.77" cy="392.54" rx="21.43" ry="21.62"/>
        <ellipse class="cls-1" cx="57.7" cy="392.49" rx="21.43" ry="21.62"/>
        <ellipse class="cls-1" cx="57.62" cy="392.44" rx="21.43" ry="21.62"/>
        <ellipse class="cls-1" cx="57.55" cy="392.39" rx="21.43" ry="21.62"/>
        <ellipse class="cls-1" cx="57.47" cy="392.34" rx="21.43" ry="21.62"/>
        <ellipse class="cls-1" cx="57.4" cy="392.29" rx="21.43" ry="21.62"/>
        <ellipse class="cls-1" cx="57.32" cy="392.24" rx="21.43" ry="21.62"/>
        <ellipse class="cls-1" cx="57.25" cy="392.19" rx="21.43" ry="21.62"/>
        <ellipse class="cls-1" cx="57.17" cy="392.14" rx="21.43" ry="21.62"/>
        <ellipse class="cls-1" cx="57.1" cy="392.09" rx="21.43" ry="21.62"/>
        <ellipse class="cls-1" cx="57.02" cy="392.04" rx="21.43" ry="21.62"/>
        <ellipse class="cls-1" cx="56.95" cy="391.99" rx="21.43" ry="21.62"/>
        <ellipse class="cls-1" cx="56.87" cy="391.94" rx="21.43" ry="21.62"/>
        <ellipse class="cls-1" cx="56.8" cy="391.89" rx="21.43" ry="21.62"/>
        <ellipse class="cls-1" cx="56.72" cy="391.84" rx="21.43" ry="21.62"/>
        <ellipse class="cls-1" cx="56.65" cy="391.79" rx="21.43" ry="21.62"/>
        <ellipse class="cls-1" cx="56.57" cy="391.74" rx="21.43" ry="21.62"/>
        <ellipse class="cls-1" cx="56.5" cy="391.69" rx="21.43" ry="21.62"/>
        <ellipse class="cls-1" cx="56.42" cy="391.64" rx="21.43" ry="21.62"/>
        <ellipse class="cls-1" cx="56.35" cy="391.59" rx="21.43" ry="21.62"/>
        <ellipse class="cls-1" cx="56.27" cy="391.54" rx="21.43" ry="21.62"/>
        <ellipse class="cls-1" cx="56.2" cy="391.49" rx="21.43" ry="21.62"/>
        <ellipse class="cls-1" cx="56.12" cy="391.44" rx="21.43" ry="21.62"/>
        <ellipse class="cls-1" cx="56.05" cy="391.39" rx="21.43" ry="21.62"/>
      </g>
      <ellipse class="cls-5" cx="56.05" cy="391.39" rx="21.43" ry="21.62"/>
      <ellipse class="cls-3" cx="56.05" cy="391.39" rx="21.43" ry="21.62"/>
    </g>
    <g>
      <g>
        <path class="cls-1" d="M59.8,422.55c-24.68,0-44.68,11.34-44.68,25.32v15h89.35v-15C104.47,433.89,84.47,422.55,59.8,422.55Z"/>
        <path class="cls-1" d="M59.72,422.5c-24.67,0-44.67,11.34-44.67,25.32v15H104.4v-15C104.4,433.84,84.4,422.5,59.72,422.5Z"/>
        <path class="cls-1" d="M59.65,422.45C35,422.45,15,433.79,15,447.77v15h89.35v-15C104.32,433.79,84.32,422.45,59.65,422.45Z"/>
        <path class="cls-1" d="M59.57,422.4c-24.67,0-44.67,11.34-44.67,25.32v15h89.35v-15C104.25,433.74,84.25,422.4,59.57,422.4Z"/>
        <path class="cls-1" d="M59.5,422.35c-24.68,0-44.68,11.34-44.68,25.32v15h89.35v-15C104.17,433.69,84.17,422.35,59.5,422.35Z"/>
        <path class="cls-1" d="M59.42,422.3c-24.67,0-44.67,11.34-44.67,25.32v15H104.1v-15C104.1,433.64,84.1,422.3,59.42,422.3Z"/>
        <path class="cls-1" d="M59.35,422.25c-24.68,0-44.68,11.34-44.68,25.32v15H104v-15C104,433.59,84,422.25,59.35,422.25Z"/>
        <path class="cls-1" d="M59.27,422.2c-24.67,0-44.67,11.34-44.67,25.32v15H104v-15C104,433.54,84,422.2,59.27,422.2Z"/>
        <path class="cls-1" d="M59.2,422.15c-24.68,0-44.68,11.34-44.68,25.32v15h89.35v-15C103.87,433.49,83.87,422.15,59.2,422.15Z"/>
        <path class="cls-1" d="M59.12,422.1c-24.67,0-44.67,11.34-44.67,25.32v15H103.8v-15C103.8,433.44,83.8,422.1,59.12,422.1Z"/>
        <path class="cls-1" d="M59.05,422.05c-24.68,0-44.68,11.34-44.68,25.32v15h89.35v-15C103.72,433.39,83.72,422.05,59.05,422.05Z"/>
        <path class="cls-1" d="M59,422C34.3,422,14.3,433.34,14.3,447.32v15h89.35v-15C103.65,433.34,83.65,422,59,422Z"/>
        <path class="cls-1" d="M58.9,422c-24.68,0-44.68,11.34-44.68,25.32v15h89.35v-15C103.57,433.29,83.57,422,58.9,422Z"/>
        <path class="cls-1" d="M58.82,421.9c-24.67,0-44.67,11.34-44.67,25.32v15H103.5v-15C103.5,433.24,83.5,421.9,58.82,421.9Z"/>
        <path class="cls-1" d="M58.75,421.85c-24.68,0-44.68,11.34-44.68,25.32v15h89.35v-15C103.42,433.19,83.42,421.85,58.75,421.85Z"/>
        <path class="cls-1" d="M58.67,421.8C34,421.8,14,433.14,14,447.12v15h89.35v-15C103.35,433.14,83.35,421.8,58.67,421.8Z"/>
        <path class="cls-1" d="M58.6,421.75c-24.68,0-44.68,11.34-44.68,25.32v15h89.35v-15C103.27,433.09,83.27,421.75,58.6,421.75Z"/>
        <path class="cls-1" d="M58.52,421.7C33.85,421.7,13.85,433,13.85,447v15H103.2V447C103.2,433,83.2,421.7,58.52,421.7Z"/>
        <path class="cls-1" d="M58.45,421.65C33.77,421.65,13.77,433,13.77,447v15h89.35V447C103.12,433,83.12,421.65,58.45,421.65Z"/>
        <path class="cls-1" d="M58.37,421.6c-24.67,0-44.67,11.34-44.67,25.32v15h89.35v-15C103.05,432.94,83.05,421.6,58.37,421.6Z"/>
        <path class="cls-1" d="M58.3,421.55c-24.68,0-44.68,11.34-44.68,25.32v15H103v-15C103,432.89,83,421.55,58.3,421.55Z"/>
        <path class="cls-1" d="M58.22,421.5c-24.67,0-44.67,11.34-44.67,25.32v15H102.9v-15C102.9,432.84,82.9,421.5,58.22,421.5Z"/>
        <path class="cls-1" d="M58.15,421.45c-24.68,0-44.68,11.34-44.68,25.32v15h89.35v-15C102.82,432.79,82.82,421.45,58.15,421.45Z"/>
        <path class="cls-1" d="M58.07,421.4c-24.67,0-44.67,11.34-44.67,25.32v15h89.35v-15C102.75,432.74,82.75,421.4,58.07,421.4Z"/>
        <path class="cls-1" d="M58,421.35c-24.68,0-44.68,11.34-44.68,25.32v15h89.35v-15C102.67,432.69,82.67,421.35,58,421.35Z"/>
        <path class="cls-1" d="M57.92,421.3c-24.67,0-44.67,11.34-44.67,25.32v15H102.6v-15C102.6,432.64,82.6,421.3,57.92,421.3Z"/>
        <path class="cls-1" d="M57.85,421.25c-24.68,0-44.68,11.34-44.68,25.32v15h89.35v-15C102.52,432.59,82.52,421.25,57.85,421.25Z"/>
        <path class="cls-1" d="M57.77,421.2c-24.67,0-44.67,11.34-44.67,25.32v15h89.35v-15C102.45,432.54,82.45,421.2,57.77,421.2Z"/>
        <path class="cls-1" d="M57.7,421.15C33,421.15,13,432.49,13,446.47v15h89.35v-15C102.37,432.49,82.37,421.15,57.7,421.15Z"/>
        <path class="cls-1" d="M57.62,421.1C33,421.1,13,432.44,13,446.42v15H102.3v-15C102.3,432.44,82.3,421.1,57.62,421.1Z"/>
        <path class="cls-1" d="M57.55,421.05c-24.68,0-44.68,11.34-44.68,25.32v15h89.35v-15C102.22,432.39,82.22,421.05,57.55,421.05Z"/>
        <path class="cls-1" d="M57.47,421C32.8,421,12.8,432.34,12.8,446.32v15h89.35v-15C102.15,432.34,82.15,421,57.47,421Z"/>
        <path class="cls-1" d="M57.4,421c-24.68,0-44.68,11.34-44.68,25.32v15h89.35v-15C102.07,432.29,82.07,421,57.4,421Z"/>
        <path class="cls-1" d="M57.32,420.9c-24.67,0-44.67,11.34-44.67,25.32v15H102v-15C102,432.24,82,420.9,57.32,420.9Z"/>
        <path class="cls-1" d="M57.25,420.85c-24.68,0-44.68,11.34-44.68,25.32v15h89.35v-15C101.92,432.19,81.92,420.85,57.25,420.85Z"/>
        <path class="cls-1" d="M57.17,420.8c-24.67,0-44.67,11.34-44.67,25.32v15h89.35v-15C101.85,432.14,81.85,420.8,57.17,420.8Z"/>
        <path class="cls-1" d="M57.1,420.75c-24.68,0-44.68,11.34-44.68,25.32v15h89.35v-15C101.77,432.09,81.77,420.75,57.1,420.75Z"/>
        <path class="cls-1" d="M57,420.7C32.35,420.7,12.35,432,12.35,446v15H101.7V446C101.7,432,81.7,420.7,57,420.7Z"/>
        <path class="cls-1" d="M57,420.65C32.27,420.65,12.27,432,12.27,446v15h89.35V446C101.62,432,81.62,420.65,57,420.65Z"/>
        <path class="cls-1" d="M56.87,420.6c-24.67,0-44.67,11.34-44.67,25.32v15h89.35v-15C101.55,431.94,81.55,420.6,56.87,420.6Z"/>
        <path class="cls-1" d="M56.8,420.55c-24.68,0-44.68,11.34-44.68,25.32v15h89.35v-15C101.47,431.89,81.47,420.55,56.8,420.55Z"/>
        <path class="cls-1" d="M56.72,420.5c-24.67,0-44.67,11.34-44.67,25.32v15H101.4v-15C101.4,431.84,81.4,420.5,56.72,420.5Z"/>
        <path class="cls-1" d="M56.65,420.45C32,420.45,12,431.79,12,445.77v15h89.35v-15C101.32,431.79,81.32,420.45,56.65,420.45Z"/>
        <path class="cls-1" d="M56.57,420.4c-24.67,0-44.67,11.34-44.67,25.32v15h89.35v-15C101.25,431.74,81.25,420.4,56.57,420.4Z"/>
        <path class="cls-1" d="M56.5,420.35c-24.68,0-44.68,11.34-44.68,25.32v15h89.35v-15C101.17,431.69,81.17,420.35,56.5,420.35Z"/>
        <path class="cls-1" d="M56.42,420.3c-24.67,0-44.67,11.34-44.67,25.32v15H101.1v-15C101.1,431.64,81.1,420.3,56.42,420.3Z"/>
        <path class="cls-1" d="M56.35,420.25c-24.68,0-44.68,11.34-44.68,25.32v15H101v-15C101,431.59,81,420.25,56.35,420.25Z"/>
        <path class="cls-1" d="M56.27,420.2c-24.67,0-44.67,11.34-44.67,25.32v15H101v-15C101,431.54,81,420.2,56.27,420.2Z"/>
        <path class="cls-1" d="M56.2,420.15c-24.68,0-44.68,11.34-44.68,25.32v15h89.35v-15C100.87,431.49,80.87,420.15,56.2,420.15Z"/>
        <path class="cls-1" d="M56.12,420.1c-24.67,0-44.67,11.34-44.67,25.32v15H100.8v-15C100.8,431.44,80.8,420.1,56.12,420.1Z"/>
        <path class="cls-1" d="M56.05,420.05c-24.68,0-44.68,11.34-44.68,25.32v15h89.35v-15C100.72,431.39,80.72,420.05,56.05,420.05Z"/>
      </g>
      <path class="cls-5" d="M12.37,459.4v-14c0-13.41,19.59-24.32,43.68-24.32S99.72,432,99.72,445.37v14Z"/>
      <path class="cls-1" d="M56.05,422.05c11.59,0,22.46,2.54,30.6,7.16,7.79,4.41,12.07,10.15,12.07,16.16v13H13.37v-13c0-6,4.29-11.75,12.07-16.16,8.14-4.62,19-7.16,30.61-7.16m0-2c-24.68,0-44.68,11.34-44.68,25.32v15h89.35v-15c0-14-20-25.32-44.67-25.32Z"/>
    </g>
    <polygon class="cls-6" points="187.64 71.95 187.64 78.74 128.76 78.74 128.76 83.27 187.64 101.39 187.64 143.29 408.45 143.29 408.45 71.95 187.64 71.95"/>
    <rect class="cls-7" x="203.12" y="84.72" width="178.16" height="12.07"/>
    <rect class="cls-8" x="203.12" y="100.81" width="140.42" height="12.07"/>
    <rect class="cls-9" x="202.74" y="116.49" width="157.02" height="12.07"/>
    <polygon class="cls-6" points="188.08 375.11 188.08 381.9 129.2 381.9 129.2 386.44 188.08 404.55 188.08 446.45 408.89 446.45 408.89 375.11 188.08 375.11"/>
    <rect class="cls-10" x="203.56" y="387.88" width="163" height="12.46"/>
    <rect class="cls-11" x="203.56" y="403.98" width="156.21" height="12.07"/>
    <rect class="cls-12" x="203.18" y="419.66" width="148.66" height="12.39"/>
    <polygon class="cls-6" points="304.59 229.03 304.59 235.83 363.47 235.83 363.47 240.36 304.59 258.48 304.59 300.37 83.78 300.37 83.78 229.03 304.59 229.03"/>
    <rect class="cls-13" x="110.95" y="241.8" width="178.16" height="12.07" transform="translate(400.07 495.68) rotate(-180)"/>
    <rect class="cls-14" x="148.7" y="257.9" width="140.42" height="12.07" transform="translate(437.81 527.87) rotate(-180)"/>
    <rect class="cls-15" x="132.47" y="273.58" width="157.02" height="12.07" transform="translate(421.96 559.23) rotate(-180)"/>
  </g>
</svg>
