<svg xmlns="http://www.w3.org/2000/svg" xmlns:xlink="http://www.w3.org/1999/xlink" viewBox="0 0 500 500">
  <defs>
    <style>
      .cls-1 {
        fill: #1d1d1b;
      }

      .cls-2 {
        fill: #eaff00;
      }

      .cls-10, .cls-3 {
        fill: none;
        stroke-width: 4px;
      }

      .cls-3, .cls-8 {
        stroke: #1d1d1b;
      }

      .cls-10, .cls-11, .cls-12, .cls-3, .cls-8, .cls-9 {
        stroke-miterlimit: 10;
      }

      .cls-4 {
        fill: url(#Unbenannter_Verlauf_5);
      }

      .cls-5 {
        fill: url(#Unbenannter_Verlauf_5-2);
      }

      .cls-6 {
        fill: url(#Unbenannter_Verlauf_5-3);
      }

      .cls-7 {
        fill: url(#Unbenannter_Verlauf_5-4);
      }

      .cls-8 {
        stroke-width: 3px;
        fill: url(#Unbenannter_Verlauf_10);
      }

      .cls-9 {
        fill: #fd6326;
      }

      .cls-10, .cls-11, .cls-12, .cls-9 {
        stroke: #000;
      }

      .cls-11, .cls-12, .cls-9 {
        stroke-width: 5px;
      }

      .cls-11 {
        fill: #336bff;
      }

      .cls-12 {
        fill: #5d3c81;
      }

      .cls-13 {
        fill: url(#Unbenannter_Verlauf_5-5);
      }

      .cls-14 {
        fill: url(#Unbenannter_Verlauf_5-6);
      }

      .cls-15 {
        fill: url(#Unbenannter_Verlauf_5-7);
      }

      .cls-16 {
        fill: url(#Unbenannter_Verlauf_5-8);
      }

      .cls-17 {
        fill: url(#Unbenannter_Verlauf_5-9);
      }
    </style>
    <linearGradient id="Unbenannter_Verlauf_5" data-name="Unbenannter Verlauf 5" x1="246.57" y1="61.67" x2="443.6" y2="61.67" gradientUnits="userSpaceOnUse">
      <stop offset="0" stop-color="#4d4d4d"/>
      <stop offset="1" stop-color="#666"/>
    </linearGradient>
    <linearGradient id="Unbenannter_Verlauf_5-2" x1="246.57" y1="136.72" x2="361.22" y2="136.72" xlink:href="#Unbenannter_Verlauf_5"/>
    <linearGradient id="Unbenannter_Verlauf_5-3" x1="246.57" y1="159.6" x2="393.75" y2="159.6" xlink:href="#Unbenannter_Verlauf_5"/>
    <linearGradient id="Unbenannter_Verlauf_5-4" x1="246.57" y1="182.47" x2="382.91" y2="182.47" xlink:href="#Unbenannter_Verlauf_5"/>
    <linearGradient id="Unbenannter_Verlauf_10" data-name="Unbenannter Verlauf 10" x1="52.72" y1="246.55" x2="443.6" y2="246.55" gradientUnits="userSpaceOnUse">
      <stop offset="1" stop-color="#fd6326"/>
      <stop offset="1" stop-color="#666"/>
    </linearGradient>
    <linearGradient id="Unbenannter_Verlauf_5-5" x1="52.44" y1="355.31" x2="167.09" y2="355.31" xlink:href="#Unbenannter_Verlauf_5"/>
    <linearGradient id="Unbenannter_Verlauf_5-6" x1="52.44" y1="378.19" x2="199.62" y2="378.19" xlink:href="#Unbenannter_Verlauf_5"/>
    <linearGradient id="Unbenannter_Verlauf_5-7" x1="52.44" y1="401.06" x2="188.78" y2="401.06" xlink:href="#Unbenannter_Verlauf_5"/>
    <linearGradient id="Unbenannter_Verlauf_5-8" x1="53.12" y1="442.34" x2="224.02" y2="442.34" xlink:href="#Unbenannter_Verlauf_5"/>
    <linearGradient id="Unbenannter_Verlauf_5-9" x1="53.12" y1="466.02" x2="184.85" y2="466.02" xlink:href="#Unbenannter_Verlauf_5"/>
  </defs>
  <g id="Ebene_3" data-name="Ebene 3">
    <g>
      <g>
        <ellipse class="cls-1" cx="139.93" cy="67.6" rx="39.12" ry="39.45"/>
        <ellipse class="cls-1" cx="139.86" cy="67.55" rx="39.12" ry="39.45"/>
        <ellipse class="cls-1" cx="139.78" cy="67.5" rx="39.12" ry="39.45"/>
        <ellipse class="cls-1" cx="139.71" cy="67.45" rx="39.12" ry="39.45"/>
        <ellipse class="cls-1" cx="139.63" cy="67.4" rx="39.12" ry="39.45"/>
        <ellipse class="cls-1" cx="139.56" cy="67.35" rx="39.12" ry="39.45"/>
        <ellipse class="cls-1" cx="139.48" cy="67.3" rx="39.12" ry="39.45"/>
        <ellipse class="cls-1" cx="139.41" cy="67.25" rx="39.12" ry="39.45"/>
        <ellipse class="cls-1" cx="139.33" cy="67.2" rx="39.12" ry="39.45"/>
        <ellipse class="cls-1" cx="139.26" cy="67.15" rx="39.12" ry="39.45"/>
        <ellipse class="cls-1" cx="139.18" cy="67.1" rx="39.12" ry="39.45"/>
        <ellipse class="cls-1" cx="139.11" cy="67.05" rx="39.12" ry="39.45"/>
        <ellipse class="cls-1" cx="139.03" cy="67" rx="39.12" ry="39.45"/>
        <ellipse class="cls-1" cx="138.96" cy="66.95" rx="39.12" ry="39.45"/>
        <ellipse class="cls-1" cx="138.88" cy="66.9" rx="39.12" ry="39.45"/>
        <ellipse class="cls-1" cx="138.81" cy="66.85" rx="39.12" ry="39.45"/>
        <ellipse class="cls-1" cx="138.73" cy="66.8" rx="39.12" ry="39.45"/>
        <ellipse class="cls-1" cx="138.66" cy="66.75" rx="39.12" ry="39.45"/>
        <ellipse class="cls-1" cx="138.58" cy="66.7" rx="39.12" ry="39.45"/>
        <ellipse class="cls-1" cx="138.51" cy="66.65" rx="39.12" ry="39.45"/>
        <ellipse class="cls-1" cx="138.43" cy="66.6" rx="39.12" ry="39.45"/>
        <ellipse class="cls-1" cx="138.36" cy="66.55" rx="39.12" ry="39.45"/>
        <ellipse class="cls-1" cx="138.28" cy="66.5" rx="39.12" ry="39.45"/>
        <ellipse class="cls-1" cx="138.21" cy="66.45" rx="39.12" ry="39.45"/>
        <ellipse class="cls-1" cx="138.13" cy="66.4" rx="39.12" ry="39.45"/>
        <ellipse class="cls-1" cx="138.06" cy="66.35" rx="39.12" ry="39.45"/>
        <ellipse class="cls-1" cx="137.98" cy="66.3" rx="39.12" ry="39.45"/>
        <ellipse class="cls-1" cx="137.91" cy="66.25" rx="39.12" ry="39.45"/>
        <ellipse class="cls-1" cx="137.83" cy="66.2" rx="39.12" ry="39.45"/>
        <ellipse class="cls-1" cx="137.76" cy="66.15" rx="39.12" ry="39.45"/>
        <ellipse class="cls-1" cx="137.68" cy="66.1" rx="39.12" ry="39.45"/>
        <ellipse class="cls-1" cx="137.61" cy="66.05" rx="39.12" ry="39.45"/>
        <ellipse class="cls-1" cx="137.53" cy="66" rx="39.12" ry="39.45"/>
        <ellipse class="cls-1" cx="137.46" cy="65.95" rx="39.12" ry="39.45"/>
        <ellipse class="cls-1" cx="137.38" cy="65.9" rx="39.12" ry="39.45"/>
        <ellipse class="cls-1" cx="137.31" cy="65.85" rx="39.12" ry="39.45"/>
        <ellipse class="cls-1" cx="137.23" cy="65.8" rx="39.12" ry="39.45"/>
        <ellipse class="cls-1" cx="137.16" cy="65.75" rx="39.12" ry="39.45"/>
        <ellipse class="cls-1" cx="137.08" cy="65.7" rx="39.12" ry="39.45"/>
        <ellipse class="cls-1" cx="137.01" cy="65.65" rx="39.12" ry="39.45"/>
        <ellipse class="cls-1" cx="136.93" cy="65.6" rx="39.12" ry="39.45"/>
        <ellipse class="cls-1" cx="136.86" cy="65.55" rx="39.12" ry="39.45"/>
        <ellipse class="cls-1" cx="136.78" cy="65.5" rx="39.12" ry="39.45"/>
        <ellipse class="cls-1" cx="136.71" cy="65.45" rx="39.12" ry="39.45"/>
        <ellipse class="cls-1" cx="136.63" cy="65.4" rx="39.12" ry="39.45"/>
        <ellipse class="cls-1" cx="136.56" cy="65.35" rx="39.12" ry="39.45"/>
        <ellipse class="cls-1" cx="136.48" cy="65.3" rx="39.12" ry="39.45"/>
        <ellipse class="cls-1" cx="136.41" cy="65.25" rx="39.12" ry="39.45"/>
        <ellipse class="cls-1" cx="136.33" cy="65.2" rx="39.12" ry="39.45"/>
        <ellipse class="cls-1" cx="136.26" cy="65.15" rx="39.12" ry="39.45"/>
        <ellipse class="cls-1" cx="136.18" cy="65.1" rx="39.12" ry="39.45"/>
      </g>
      <ellipse class="cls-2" cx="136.18" cy="65.1" rx="39.12" ry="39.45"/>
      <ellipse class="cls-3" cx="136.18" cy="65.1" rx="39.12" ry="39.45"/>
    </g>
    <g>
      <g>
        <path class="cls-1" d="M139.93,119.91c-45,0-81.54,20.69-81.54,46.21v27.43H221.47V166.12C221.47,140.6,185,119.91,139.93,119.91Z"/>
        <path class="cls-1" d="M139.86,119.86c-45,0-81.55,20.69-81.55,46.21V193.5H221.4V166.07C221.4,140.55,184.89,119.86,139.86,119.86Z"/>
        <path class="cls-1" d="M139.78,119.81c-45,0-81.54,20.69-81.54,46.21v27.43H221.32V166C221.32,140.5,184.82,119.81,139.78,119.81Z"/>
        <path class="cls-1" d="M139.71,119.76c-45,0-81.55,20.69-81.55,46.21V193.4H221.25V166C221.25,140.45,184.74,119.76,139.71,119.76Z"/>
        <path class="cls-1" d="M139.63,119.71c-45,0-81.54,20.69-81.54,46.21v27.43H221.17V165.92C221.17,140.4,184.67,119.71,139.63,119.71Z"/>
        <path class="cls-1" d="M139.56,119.66c-45,0-81.55,20.69-81.55,46.21V193.3H221.1V165.87C221.1,140.35,184.59,119.66,139.56,119.66Z"/>
        <path class="cls-1" d="M139.48,119.61c-45,0-81.54,20.69-81.54,46.21v27.43H221V165.82C221,140.3,184.52,119.61,139.48,119.61Z"/>
        <path class="cls-1" d="M139.41,119.56c-45,0-81.55,20.69-81.55,46.21V193.2H221V165.77C221,140.25,184.44,119.56,139.41,119.56Z"/>
        <path class="cls-1" d="M139.33,119.51c-45,0-81.54,20.69-81.54,46.21v27.43H220.87V165.72C220.87,140.2,184.37,119.51,139.33,119.51Z"/>
        <path class="cls-1" d="M139.26,119.46c-45,0-81.55,20.69-81.55,46.21V193.1H220.8V165.67C220.8,140.15,184.29,119.46,139.26,119.46Z"/>
        <path class="cls-1" d="M139.18,119.41c-45,0-81.54,20.69-81.54,46.21v27.43H220.72V165.62C220.72,140.1,184.22,119.41,139.18,119.41Z"/>
        <path class="cls-1" d="M139.11,119.36c-45,0-81.55,20.69-81.55,46.21V193H220.65V165.57C220.65,140.05,184.14,119.36,139.11,119.36Z"/>
        <path class="cls-1" d="M139,119.31c-45,0-81.54,20.69-81.54,46.21V193H220.57V165.52C220.57,140,184.07,119.31,139,119.31Z"/>
        <path class="cls-1" d="M139,119.26c-45,0-81.55,20.69-81.55,46.21V192.9H220.5V165.47C220.5,140,184,119.26,139,119.26Z"/>
        <path class="cls-1" d="M138.88,119.21c-45,0-81.54,20.69-81.54,46.21v27.43H220.42V165.42C220.42,139.9,183.92,119.21,138.88,119.21Z"/>
        <path class="cls-1" d="M138.81,119.16c-45,0-81.55,20.69-81.55,46.21V192.8H220.35V165.37C220.35,139.85,183.84,119.16,138.81,119.16Z"/>
        <path class="cls-1" d="M138.73,119.11c-45,0-81.54,20.69-81.54,46.21v27.43H220.27V165.32C220.27,139.8,183.77,119.11,138.73,119.11Z"/>
        <path class="cls-1" d="M138.66,119.06c-45,0-81.55,20.69-81.55,46.21V192.7H220.2V165.27C220.2,139.75,183.69,119.06,138.66,119.06Z"/>
        <path class="cls-1" d="M138.58,119C93.55,119,57,139.7,57,165.22v27.43H220.12V165.22C220.12,139.7,183.62,119,138.58,119Z"/>
        <path class="cls-1" d="M138.51,119C93.47,119,57,139.65,57,165.17V192.6H220.05V165.17C220.05,139.65,183.54,119,138.51,119Z"/>
        <path class="cls-1" d="M138.43,118.91c-45,0-81.54,20.69-81.54,46.21v27.43H220V165.12C220,139.6,183.47,118.91,138.43,118.91Z"/>
        <path class="cls-1" d="M138.36,118.86c-45,0-81.55,20.69-81.55,46.21V192.5H219.9V165.07C219.9,139.55,183.39,118.86,138.36,118.86Z"/>
        <path class="cls-1" d="M138.28,118.81c-45,0-81.54,20.69-81.54,46.21v27.43H219.82V165C219.82,139.5,183.32,118.81,138.28,118.81Z"/>
        <path class="cls-1" d="M138.21,118.76c-45,0-81.55,20.69-81.55,46.21V192.4H219.75V165C219.75,139.45,183.24,118.76,138.21,118.76Z"/>
        <path class="cls-1" d="M138.13,118.71c-45,0-81.54,20.69-81.54,46.21v27.43H219.67V164.92C219.67,139.4,183.17,118.71,138.13,118.71Z"/>
        <path class="cls-1" d="M138.06,118.66c-45,0-81.55,20.69-81.55,46.21V192.3H219.6V164.87C219.6,139.35,183.09,118.66,138.06,118.66Z"/>
        <path class="cls-1" d="M138,118.61c-45,0-81.54,20.69-81.54,46.21v27.43H219.52V164.82C219.52,139.3,183,118.61,138,118.61Z"/>
        <path class="cls-1" d="M137.91,118.56c-45,0-81.55,20.69-81.55,46.21V192.2H219.45V164.77C219.45,139.25,182.94,118.56,137.91,118.56Z"/>
        <path class="cls-1" d="M137.83,118.51c-45,0-81.54,20.69-81.54,46.21v27.43H219.37V164.72C219.37,139.2,182.87,118.51,137.83,118.51Z"/>
        <path class="cls-1" d="M137.76,118.46c-45,0-81.55,20.69-81.55,46.21V192.1H219.3V164.67C219.3,139.15,182.79,118.46,137.76,118.46Z"/>
        <path class="cls-1" d="M137.68,118.41c-45,0-81.54,20.69-81.54,46.21v27.43H219.22V164.62C219.22,139.1,182.72,118.41,137.68,118.41Z"/>
        <path class="cls-1" d="M137.61,118.36c-45,0-81.55,20.69-81.55,46.21V192H219.15V164.57C219.15,139.05,182.64,118.36,137.61,118.36Z"/>
        <path class="cls-1" d="M137.53,118.31C92.5,118.31,56,139,56,164.52V192H219.07V164.52C219.07,139,182.57,118.31,137.53,118.31Z"/>
        <path class="cls-1" d="M137.46,118.26c-45,0-81.55,20.69-81.55,46.21V191.9H219V164.47C219,139,182.49,118.26,137.46,118.26Z"/>
        <path class="cls-1" d="M137.38,118.21c-45,0-81.54,20.69-81.54,46.21v27.43H218.92V164.42C218.92,138.9,182.42,118.21,137.38,118.21Z"/>
        <path class="cls-1" d="M137.31,118.16c-45,0-81.55,20.69-81.55,46.21V191.8H218.85V164.37C218.85,138.85,182.34,118.16,137.31,118.16Z"/>
        <path class="cls-1" d="M137.23,118.11c-45,0-81.54,20.69-81.54,46.21v27.43H218.77V164.32C218.77,138.8,182.27,118.11,137.23,118.11Z"/>
        <path class="cls-1" d="M137.16,118.06c-45,0-81.55,20.69-81.55,46.21V191.7H218.7V164.27C218.7,138.75,182.19,118.06,137.16,118.06Z"/>
        <path class="cls-1" d="M137.08,118c-45,0-81.54,20.69-81.54,46.21v27.43H218.62V164.22C218.62,138.7,182.12,118,137.08,118Z"/>
        <path class="cls-1" d="M137,118c-45,0-81.55,20.69-81.55,46.21V191.6H218.55V164.17C218.55,138.65,182,118,137,118Z"/>
        <path class="cls-1" d="M136.93,117.91c-45,0-81.54,20.69-81.54,46.21v27.43H218.47V164.12C218.47,138.6,182,117.91,136.93,117.91Z"/>
        <path class="cls-1" d="M136.86,117.86c-45,0-81.55,20.69-81.55,46.21V191.5H218.4V164.07C218.4,138.55,181.89,117.86,136.86,117.86Z"/>
        <path class="cls-1" d="M136.78,117.81c-45,0-81.54,20.69-81.54,46.21v27.43H218.32V164C218.32,138.5,181.82,117.81,136.78,117.81Z"/>
        <path class="cls-1" d="M136.71,117.76c-45,0-81.55,20.69-81.55,46.21V191.4H218.25V164C218.25,138.45,181.74,117.76,136.71,117.76Z"/>
        <path class="cls-1" d="M136.63,117.71c-45,0-81.54,20.69-81.54,46.21v27.43H218.17V163.92C218.17,138.4,181.67,117.71,136.63,117.71Z"/>
        <path class="cls-1" d="M136.56,117.66c-45,0-81.55,20.69-81.55,46.21V191.3H218.1V163.87C218.1,138.35,181.59,117.66,136.56,117.66Z"/>
        <path class="cls-1" d="M136.48,117.61c-45,0-81.54,20.69-81.54,46.21v27.43H218V163.82C218,138.3,181.52,117.61,136.48,117.61Z"/>
        <path class="cls-1" d="M136.41,117.56c-45,0-81.55,20.69-81.55,46.21V191.2H218V163.77C218,138.25,181.44,117.56,136.41,117.56Z"/>
        <path class="cls-1" d="M136.33,117.51c-45,0-81.54,20.69-81.54,46.21v27.43H217.87V163.72C217.87,138.2,181.37,117.51,136.33,117.51Z"/>
        <path class="cls-1" d="M136.26,117.46c-45,0-81.55,20.69-81.55,46.21V191.1H217.8V163.67C217.8,138.15,181.29,117.46,136.26,117.46Z"/>
        <path class="cls-1" d="M136.18,117.41c-45,0-81.54,20.69-81.54,46.21v27.43H217.72V163.62C217.72,138.1,181.22,117.41,136.18,117.41Z"/>
      </g>
      <path class="cls-2" d="M56.64,189.05V163.62c0-24.38,35.68-44.21,79.54-44.21s79.54,19.83,79.54,44.21v25.43Z"/>
      <path class="cls-1" d="M136.18,121.41c21.1,0,40.88,4.62,55.69,13,14.09,8,21.85,18.36,21.85,29.2v23.43H58.64V163.62c0-10.84,7.76-21.21,21.86-29.2,14.8-8.39,34.58-13,55.68-13m0-4c-45,0-81.54,20.69-81.54,46.21v27.43H217.72V163.62c0-25.52-36.5-46.21-81.54-46.21Z"/>
    </g>
    <rect class="cls-4" x="246.57" y="39.12" width="197.03" height="45.1"/>
    <rect class="cls-5" x="246.57" y="128.14" width="114.64" height="17.16"/>
    <rect class="cls-6" x="246.57" y="151.02" width="147.18" height="17.16"/>
    <rect class="cls-7" x="246.57" y="173.89" width="136.33" height="17.16"/>
    <rect class="cls-8" x="52.72" y="234.39" width="390.88" height="24.32"/>
    <path class="cls-2" d="M302.84,338.76q13.46.47,26.93.4l-6-6c.24-2.78,2-3.85.65-2.45-.28.3-.57.61-.84.92a26.47,26.47,0,0,0-2.21,2.85,23,23,0,0,0-2.41,5.79c-.13.42-.27.84-.4,1.25-.45,1.36.6-1.07-.09.17-.42.76-.85,1.51-1.3,2.26-.93,1.53-1.83,3.08-2.64,4.67a39.34,39.34,0,0,0-4,11.19,36.86,36.86,0,0,0,.16,13.45c.57,2.93,3.84,4.67,6.59,4.3a6,6,0,0,0,5.2-5.89,51.61,51.61,0,0,0-4.06-21.05,37.59,37.59,0,0,0-4.82-8.05,45.45,45.45,0,0,1-4.91-7.45l-3.58,8.81c.65-.16.51-.15-.42,0,.67,0,.54,0-.39-.08l.4.1c.6.21.52.16-.24-.16a10.66,10.66,0,0,0,1.22.6c.48.24.95.48,1.43.7a25,25,0,0,0,6.83,1.89,6.56,6.56,0,0,0,4.62-.61,6.11,6.11,0,0,0,2.76-3.58c.65-2.85-.87-6.9-4.19-7.38a34.71,34.71,0,0,1-3.5-.64c-.3-.08-2.23-.53-.67-.13a8.56,8.56,0,0,1-1.42-.71c-3.06-1.55-6.2-2.53-9.62-1.59-4,1.1-5.24,5.37-3.59,8.81,2.45,5.11,6.69,9.06,9.16,14.17.36.76-.48-1.35,0,0,.12.36.25.71.38,1.07.24.72.47,1.44.68,2.17.45,1.47.87,2.95,1.23,4.45.17.74.33,1.5.47,2.25.06.38.15.76.18,1.14-.07-.77-.1-.75,0,0,.14,1.74.11,3.47.08,5.21l11.78-1.6a8,8,0,0,1-.24-1.38c0,1.52,0,0,0-.27-.07-.94-.1-1.87-.09-2.81a12.54,12.54,0,0,1,.19-2.81l-.09.67.12-.7c.08-.46.17-.92.28-1.38a22.81,22.81,0,0,1,1.59-4.9c-.68,1.35,0,.12.11-.2s.39-.81.59-1.21q.6-1.2,1.26-2.37c.82-1.48,1.75-2.91,2.57-4.39a30,30,0,0,0,2.27-5.69c.08-.25.19-1.07.41-1.25-.31.69-.37.83-.18.43a5.93,5.93,0,0,1,.29-.56,7.58,7.58,0,0,0,.66-1.05l-.31.39c.13-.16.27-.32.41-.47.52-.6,1.1-1.15,1.6-1.76a8.65,8.65,0,0,0,2.1-5.2c.28-3.23-3-6-6-6q-13.47.06-26.93-.4a6,6,0,0,0-6,6,6.12,6.12,0,0,0,6,6Z"/>
    <rect class="cls-9" x="299.08" y="386.3" width="34.73" height="11.87"/>
    <path class="cls-10" d="M328.45,386.69h-24.1v-8.56h24.1Z"/>
    <line class="cls-10" x1="294.05" y1="327.55" x2="337.97" y2="327.55"/>
    <path class="cls-10" d="M324.76,378.13a27.37,27.37,0,0,1-1.92-6.71,21.89,21.89,0,0,1,0-8.64c.75-3.16,2.09-4.36,5.27-9.11a104.91,104.91,0,0,0,5.76-9.59c1.9-3.78,3.63-9.68,2.4-18.71"/>
    <path class="cls-10" d="M307.68,378.29a28.52,28.52,0,0,0,1.92-6.72,22,22,0,0,0,0-8.63c-.75-3.17-2.09-4.37-5.28-9.12a104.91,104.91,0,0,1-5.76-9.59c-1.9-3.78-3.62-9.68-2.4-18.71"/>
    <path class="cls-10" d="M296,330.65H284a19.13,19.13,0,0,0,0,7.67c2.83,13.45,21.9,18.88,23,19.19"/>
    <path class="cls-10" d="M336.27,330.65h12a19.13,19.13,0,0,1,0,7.67c-2.83,13.45-21.9,18.88-23,19.19"/>
    <path class="cls-2" d="M394.05,338.59q13.45.46,26.93.4l-6-6c.24-2.78,2-3.85.66-2.45l-.85.92a27.71,27.71,0,0,0-2.2,2.85,22.51,22.51,0,0,0-2.41,5.8c-.13.41-.27.83-.41,1.24-.45,1.36.61-1.07-.08.17-.43.76-.86,1.51-1.31,2.26-.93,1.53-1.82,3.08-2.64,4.67a39.34,39.34,0,0,0-4,11.19,36.64,36.64,0,0,0,.17,13.45c.57,2.93,3.84,4.67,6.58,4.3a6,6,0,0,0,5.2-5.89,51.53,51.53,0,0,0-4.05-21,38.24,38.24,0,0,0-4.82-8.06,44.2,44.2,0,0,1-4.91-7.45l-3.59,8.81c.65-.16.52-.15-.41,0,.67,0,.54,0-.39-.08l.39.1c.61.21.53.16-.24-.16a10.06,10.06,0,0,0,1.23.6c.47.24.94.48,1.43.7a24.53,24.53,0,0,0,6.82,1.89,6.59,6.59,0,0,0,4.63-.61,6.09,6.09,0,0,0,2.75-3.58c.65-2.85-.87-6.9-4.19-7.38a32.12,32.12,0,0,1-3.5-.64c-.3-.08-2.23-.53-.66-.13a8.28,8.28,0,0,1-1.43-.71c-3.06-1.54-6.2-2.53-9.62-1.59-4,1.1-5.24,5.37-3.58,8.82,2.44,5.1,6.69,9.05,9.15,14.16.37.76-.48-1.35,0,0,.12.36.26.71.38,1.07.25.72.47,1.44.69,2.17.44,1.47.87,2.95,1.22,4.45.18.74.34,1.5.47,2.25a11.24,11.24,0,0,1,.18,1.14c-.06-.77-.09-.75,0,0a47.45,47.45,0,0,1,.08,5.2l11.79-1.6a7.13,7.13,0,0,1-.25-1.38c0,1.52,0,0,0-.27a26.3,26.3,0,0,1-.09-2.81,11.46,11.46,0,0,1,.19-2.81l-.09.67c0-.24.07-.47.11-.7.09-.46.18-.92.28-1.38a22.81,22.81,0,0,1,1.59-4.9c-.67,1.35,0,.12.12-.2s.38-.81.58-1.21q.6-1.2,1.26-2.37c.83-1.48,1.76-2.91,2.58-4.39a30,30,0,0,0,2.26-5.69c.08-.25.2-1.07.42-1.25-.31.69-.38.84-.19.43.09-.19.19-.38.29-.56a6.74,6.74,0,0,0,.66-1.05q-.72.92-.3.39c.13-.16.26-.32.4-.47.52-.6,1.1-1.15,1.61-1.76A8.7,8.7,0,0,0,427,333c.28-3.23-3-6-6-6q-13.47.06-26.93-.4a6.05,6.05,0,0,0-6,6,6.13,6.13,0,0,0,6,6Z"/>
    <rect class="cls-11" x="390.29" y="386.13" width="34.73" height="12.04"/>
    <path class="cls-10" d="M419.66,386.52h-24.1V378h24.1Z"/>
    <line class="cls-10" x1="385.26" y1="327.38" x2="429.18" y2="327.38"/>
    <path class="cls-10" d="M416,378a28.28,28.28,0,0,1-1.92-6.71,21.89,21.89,0,0,1,0-8.64c.75-3.16,2.09-4.36,5.28-9.11a101.87,101.87,0,0,0,5.75-9.59c1.91-3.78,3.63-9.68,2.4-18.71"/>
    <path class="cls-10" d="M398.89,378.12a28.52,28.52,0,0,0,1.92-6.72,21.84,21.84,0,0,0,0-8.63c-.75-3.17-2.09-4.37-5.28-9.12a101.87,101.87,0,0,1-5.75-9.59c-1.91-3.78-3.63-9.68-2.4-18.71"/>
    <path class="cls-10" d="M387.19,330.48h-12a19,19,0,0,0,0,7.67c2.83,13.45,21.9,18.88,23,19.19"/>
    <path class="cls-10" d="M427.48,330.48h12a18.77,18.77,0,0,1,0,7.67c-2.82,13.45-21.9,18.88-23,19.19"/>
    <path class="cls-2" d="M349,426.42q13.46.46,26.93.4l-6-6c.24-2.78,2-3.85.66-2.44-.29.3-.58.6-.85.91a26.2,26.2,0,0,0-2.2,2.86,22.33,22.33,0,0,0-2.42,5.79c-.13.42-.27.83-.4,1.25-.45,1.35.6-1.08-.09.16-.42.76-.85,1.51-1.3,2.26-.93,1.53-1.83,3.08-2.64,4.68a39.23,39.23,0,0,0-4,11.19,36.86,36.86,0,0,0,.16,13.45c.57,2.92,3.84,4.66,6.59,4.29a6,6,0,0,0,5.2-5.89,51.54,51.54,0,0,0-4.06-21,37.41,37.41,0,0,0-4.82-8.06,45.45,45.45,0,0,1-4.91-7.45l-3.58,8.82c.65-.17.51-.16-.41,0,.66,0,.53,0-.4-.08l.4.1c.61.2.52.15-.24-.17a10.66,10.66,0,0,0,1.22.6c.48.24,1,.48,1.44.7a24.53,24.53,0,0,0,6.82,1.89,6.61,6.61,0,0,0,4.62-.6,6.13,6.13,0,0,0,2.76-3.59c.65-2.84-.87-6.9-4.19-7.38a32.12,32.12,0,0,1-3.5-.64c-.3-.08-2.23-.52-.67-.13a7.85,7.85,0,0,1-1.42-.71c-3.06-1.54-6.2-2.53-9.62-1.59-4,1.1-5.24,5.37-3.59,8.82,2.45,5.11,6.69,9.05,9.16,14.16.37.76-.48-1.34,0,0,.12.36.26.71.38,1.07.24.72.47,1.44.69,2.17.44,1.47.86,3,1.22,4.45.17.75.33,1.5.47,2.25.06.38.15.76.18,1.14-.06-.77-.1-.75,0,0a50.13,50.13,0,0,1,.08,5.2l11.78-1.59a8.25,8.25,0,0,1-.24-1.39c0,1.52,0,0,0-.27-.08-.93-.11-1.87-.1-2.81a12.58,12.58,0,0,1,.19-2.81l-.09.67.12-.69c.08-.47.18-.93.28-1.38a22.72,22.72,0,0,1,1.59-4.91c-.68,1.35,0,.12.11-.2s.39-.81.59-1.21q.6-1.2,1.26-2.37c.82-1.48,1.75-2.9,2.58-4.39a30.39,30.39,0,0,0,2.26-5.69c.08-.25.19-1.07.42-1.24-.32.69-.38.83-.19.42a5.93,5.93,0,0,1,.29-.56,7,7,0,0,0,.66-1.05c-.48.61-.59.74-.31.4.13-.17.27-.32.41-.48.52-.6,1.1-1.15,1.6-1.76a8.65,8.65,0,0,0,2.1-5.2c.28-3.22-3-6-6-6q-13.47.07-26.93-.4a6.05,6.05,0,0,0-6,6,6.12,6.12,0,0,0,6,6Z"/>
    <rect class="cls-12" x="345.19" y="473.96" width="34.73" height="12.04"/>
    <path class="cls-10" d="M374.56,474.35h-24.1V465.8h24.1Z"/>
    <line class="cls-10" x1="340.16" y1="415.21" x2="384.08" y2="415.21"/>
    <path class="cls-10" d="M370.87,465.8a27.6,27.6,0,0,1-1.92-6.72,21.84,21.84,0,0,1,0-8.63c.75-3.17,2.09-4.37,5.27-9.12a104.91,104.91,0,0,0,5.76-9.59c1.9-3.78,3.63-9.68,2.4-18.71"/>
    <path class="cls-10" d="M353.79,466a28.52,28.52,0,0,0,1.92-6.72,21.84,21.84,0,0,0,0-8.63c-.75-3.17-2.09-4.37-5.28-9.12a104.91,104.91,0,0,1-5.76-9.59c-1.9-3.78-3.62-9.67-2.39-18.71"/>
    <path class="cls-10" d="M342.09,418.31h-12a19.13,19.13,0,0,0,0,7.67c2.83,13.45,21.9,18.88,23,19.19"/>
    <path class="cls-10" d="M382.38,418.31h12a19.13,19.13,0,0,1,0,7.67c-2.83,13.45-21.9,18.88-23,19.19"/>
    <rect class="cls-13" x="52.44" y="346.73" width="114.64" height="17.16"/>
    <rect class="cls-14" x="52.44" y="369.61" width="147.18" height="17.16"/>
    <rect class="cls-15" x="52.44" y="392.48" width="136.33" height="17.16"/>
    <rect class="cls-16" x="53.12" y="433.7" width="170.9" height="17.28"/>
    <rect class="cls-17" x="53.12" y="457.44" width="131.73" height="17.16"/>
  </g>
</svg>
