<svg xmlns="http://www.w3.org/2000/svg" xmlns:xlink="http://www.w3.org/1999/xlink" viewBox="0 0 500 500">
  <defs>
    <style>
      .cls-1 {
        fill: #fff;
      }

      .cls-12, .cls-16, .cls-2, .cls-3, .cls-6 {
        stroke: #000;
        stroke-miterlimit: 10;
      }

      .cls-12, .cls-16, .cls-2, .cls-6 {
        stroke-width: 2px;
      }

      .cls-3, .cls-5 {
        fill: #eaff00;
      }

      .cls-3 {
        stroke-width: 0.75px;
      }

      .cls-4 {
        fill: url(#Unbenannter_Verlauf_5);
      }

      .cls-6 {
        fill: #5d3c81;
      }

      .cls-7 {
        fill: #1d1d1b;
      }

      .cls-16, .cls-8 {
        fill: #336bff;
      }

      .cls-9 {
        fill: url(#Unbenannter_Verlauf_5-2);
      }

      .cls-10 {
        fill: url(#Unbenannter_Verlauf_5-3);
      }

      .cls-11 {
        fill: url(#Unbenannter_Verlauf_5-4);
      }

      .cls-12 {
        fill: #fd6326;
      }

      .cls-13 {
        fill: url(#Unbenannter_Verlauf_5-5);
      }

      .cls-14 {
        fill: url(#Unbenannter_Verlauf_5-6);
      }

      .cls-15 {
        fill: url(#Unbenannter_Verlauf_5-7);
      }

      .cls-17 {
        fill: url(#Unbenannter_Verlauf_5-8);
      }

      .cls-18 {
        fill: url(#Unbenannter_Verlauf_5-9);
      }

      .cls-19 {
        fill: url(#Unbenannter_Verlauf_5-10);
      }
    </style>
    <linearGradient id="Unbenannter_Verlauf_5" data-name="Unbenannter Verlauf 5" x1="75.97" y1="71.41" x2="280.31" y2="71.41" gradientUnits="userSpaceOnUse">
      <stop offset="0" stop-color="#4d4d4d"/>
      <stop offset="1" stop-color="#666"/>
    </linearGradient>
    <linearGradient id="Unbenannter_Verlauf_5-2" x1="20.87" y1="247.26" x2="118.85" y2="247.26" xlink:href="#Unbenannter_Verlauf_5"/>
    <linearGradient id="Unbenannter_Verlauf_5-3" x1="20.87" y1="266.19" x2="103.26" y2="266.19" xlink:href="#Unbenannter_Verlauf_5"/>
    <linearGradient id="Unbenannter_Verlauf_5-4" x1="20.87" y1="285.11" x2="126.64" y2="285.11" xlink:href="#Unbenannter_Verlauf_5"/>
    <linearGradient id="Unbenannter_Verlauf_5-5" x1="212.39" y1="247.71" x2="310.37" y2="247.71" xlink:href="#Unbenannter_Verlauf_5"/>
    <linearGradient id="Unbenannter_Verlauf_5-6" x1="212.39" y1="266.63" x2="294.78" y2="266.63" xlink:href="#Unbenannter_Verlauf_5"/>
    <linearGradient id="Unbenannter_Verlauf_5-7" x1="212.39" y1="285.56" x2="318.16" y2="285.56" xlink:href="#Unbenannter_Verlauf_5"/>
    <linearGradient id="Unbenannter_Verlauf_5-8" x1="405.72" y1="247.67" x2="503.7" y2="247.67" xlink:href="#Unbenannter_Verlauf_5"/>
    <linearGradient id="Unbenannter_Verlauf_5-9" x1="405.72" y1="266.6" x2="488.11" y2="266.6" xlink:href="#Unbenannter_Verlauf_5"/>
    <linearGradient id="Unbenannter_Verlauf_5-10" x1="405.72" y1="285.52" x2="511.49" y2="285.52" xlink:href="#Unbenannter_Verlauf_5"/>
  </defs>
  <g id="Ebene_2" data-name="Ebene 2">
    <g>
      <rect class="cls-1" x="1.79" y="39.5" width="497.21" height="63.83"/>
      <path d="M497.5,41v60.83H3.29V41H497.5m3-3H.29v66.83H500.5V38Z"/>
    </g>
    <path class="cls-2" d="M56,85.8,45.11,75a13.48,13.48,0,1,0-3.76,3.52l11,11Z"/>
    <circle class="cls-3" cx="34.2" cy="66.92" r="11.57"/>
    <rect class="cls-4" x="75.97" y="58.56" width="204.34" height="25.7"/>
    <g>
      <rect class="cls-5" x="2.11" y="140.24" width="161.88" height="172.78"/>
      <path d="M162.48,141.74V311.52H3.61V141.74H162.48m3-3H.61V314.52H165.48V138.74Z"/>
    </g>
    <circle class="cls-6" cx="47.48" cy="185.68" r="25.61"/>
    <g>
      <g>
        <polygon class="cls-7" points="126.22 158 137.28 158 140.71 147.27 144.15 158 155.21 158 146.27 164.56 149.66 175.06 140.69 168.65 131.78 175.06 135.17 164.61 126.22 158"/>
        <polygon class="cls-7" points="126.19 158.02 137.25 158.02 140.69 147.29 144.13 158.02 155.19 158.02 146.24 164.58 149.64 175.09 140.67 168.67 131.76 175.09 135.15 164.63 126.19 158.02"/>
        <polygon class="cls-7" points="126.17 158.04 137.23 158.04 140.66 147.31 144.1 158.04 155.16 158.04 146.22 164.6 149.62 175.1 140.64 168.69 131.73 175.1 135.12 164.65 126.17 158.04"/>
        <polygon class="cls-7" points="126.14 158.06 137.2 158.06 140.64 147.33 144.07 158.06 155.14 158.06 146.19 164.62 149.59 175.13 140.62 168.71 131.71 175.13 135.09 164.67 126.14 158.06"/>
        <polygon class="cls-7" points="126.11 158.08 137.18 158.08 140.61 147.35 144.05 158.08 155.11 158.08 146.17 164.64 149.56 175.15 140.59 168.73 131.68 175.15 135.07 164.69 126.11 158.08"/>
        <polygon class="cls-7" points="126.09 158.1 137.15 158.1 140.59 147.37 144.03 158.1 155.09 158.1 146.14 164.66 149.54 175.16 140.57 168.75 131.66 175.16 135.04 164.71 126.09 158.1"/>
        <polygon class="cls-7" points="126.06 158.12 137.13 158.12 140.56 147.39 144 158.12 155.06 158.12 146.12 164.68 149.51 175.19 140.54 168.77 131.63 175.19 135.02 164.73 126.06 158.12"/>
        <polygon class="cls-7" points="126.04 158.14 137.1 158.14 140.54 147.41 143.97 158.14 155.04 158.14 146.09 164.7 149.49 175.21 140.52 168.79 131.61 175.21 135 164.75 126.04 158.14"/>
        <polygon class="cls-7" points="126.02 158.16 137.08 158.16 140.51 147.43 143.95 158.16 155.01 158.16 146.07 164.72 149.47 175.22 140.49 168.81 131.58 175.22 134.97 164.77 126.02 158.16"/>
        <polygon class="cls-7" points="125.99 158.18 137.05 158.18 140.49 147.45 143.93 158.18 154.99 158.18 146.04 164.74 149.44 175.25 140.47 168.83 131.56 175.25 134.94 164.79 125.99 158.18"/>
        <polygon class="cls-7" points="125.97 158.2 137.03 158.2 140.46 147.47 143.9 158.2 154.96 158.2 146.02 164.76 149.41 175.26 140.44 168.85 131.53 175.26 134.92 164.81 125.97 158.2"/>
        <polygon class="cls-7" points="125.94 158.22 137 158.22 140.44 147.49 143.88 158.22 154.94 158.22 145.99 164.78 149.39 175.28 140.42 168.87 131.51 175.28 134.9 164.83 125.94 158.22"/>
        <polygon class="cls-7" points="125.92 158.24 136.98 158.24 140.41 147.51 143.85 158.24 154.91 158.24 145.97 164.8 149.37 175.31 140.39 168.89 131.48 175.31 134.87 164.85 125.92 158.24"/>
        <polygon class="cls-7" points="125.89 158.26 136.95 158.26 140.39 147.53 143.82 158.26 154.89 158.26 145.94 164.82 149.34 175.32 140.37 168.91 131.46 175.32 134.84 164.87 125.89 158.26"/>
        <polygon class="cls-7" points="125.86 158.28 136.93 158.28 140.36 147.55 143.8 158.28 154.86 158.28 145.92 164.84 149.31 175.34 140.34 168.93 131.43 175.34 134.82 164.89 125.86 158.28"/>
        <polygon class="cls-7" points="125.84 158.3 136.9 158.3 140.34 147.57 143.78 158.3 154.84 158.3 145.89 164.86 149.29 175.37 140.32 168.95 131.41 175.37 134.79 164.91 125.84 158.3"/>
        <polygon class="cls-7" points="125.81 158.32 136.88 158.32 140.31 147.59 143.75 158.32 154.81 158.32 145.87 164.88 149.26 175.38 140.29 168.97 131.38 175.38 134.77 164.93 125.81 158.32"/>
        <polygon class="cls-7" points="125.79 158.34 136.85 158.34 140.29 147.61 143.72 158.34 154.79 158.34 145.84 164.9 149.24 175.41 140.27 168.99 131.36 175.41 134.75 164.95 125.79 158.34"/>
        <polygon class="cls-7" points="125.77 158.36 136.83 158.36 140.26 147.63 143.7 158.36 154.76 158.36 145.82 164.92 149.22 175.43 140.24 169.01 131.33 175.43 134.72 164.97 125.77 158.36"/>
        <polygon class="cls-7" points="125.74 158.38 136.8 158.38 140.24 147.65 143.68 158.38 154.74 158.38 145.79 164.94 149.19 175.44 140.22 169.03 131.31 175.44 134.69 164.99 125.74 158.38"/>
        <polygon class="cls-7" points="125.72 158.4 136.78 158.4 140.21 147.67 143.65 158.4 154.71 158.4 145.77 164.96 149.16 175.47 140.19 169.05 131.28 175.47 134.67 165.01 125.72 158.4"/>
        <polygon class="cls-7" points="125.69 158.42 136.75 158.42 140.19 147.69 143.63 158.42 154.69 158.42 145.74 164.98 149.14 175.49 140.17 169.07 131.26 175.49 134.65 165.03 125.69 158.42"/>
        <polygon class="cls-7" points="125.67 158.44 136.73 158.44 140.16 147.71 143.6 158.44 154.66 158.44 145.72 165 149.12 175.5 140.14 169.09 131.23 175.5 134.62 165.05 125.67 158.44"/>
        <polygon class="cls-7" points="125.64 158.46 136.7 158.46 140.14 147.73 143.57 158.46 154.64 158.46 145.69 165.02 149.09 175.53 140.12 169.11 131.21 175.53 134.59 165.07 125.64 158.46"/>
        <polygon class="cls-7" points="125.61 158.48 136.68 158.48 140.11 147.75 143.55 158.48 154.61 158.48 145.67 165.04 149.06 175.54 140.09 169.13 131.18 175.54 134.57 165.09 125.61 158.48"/>
        <polygon class="cls-7" points="125.59 158.5 136.65 158.5 140.09 147.77 143.53 158.5 154.59 158.5 145.64 165.06 149.04 175.56 140.07 169.15 131.16 175.56 134.54 165.11 125.59 158.5"/>
        <polygon class="cls-7" points="125.56 158.52 136.63 158.52 140.06 147.79 143.5 158.52 154.56 158.52 145.62 165.08 149.01 175.59 140.04 169.17 131.13 175.59 134.52 165.13 125.56 158.52"/>
        <polygon class="cls-7" points="125.54 158.54 136.6 158.54 140.04 147.81 143.47 158.54 154.54 158.54 145.59 165.1 148.99 175.6 140.02 169.19 131.11 175.6 134.5 165.15 125.54 158.54"/>
        <polygon class="cls-7" points="125.52 158.56 136.58 158.56 140.01 147.83 143.45 158.56 154.51 158.56 145.57 165.12 148.97 175.63 139.99 169.21 131.08 175.63 134.47 165.17 125.52 158.56"/>
        <polygon class="cls-7" points="125.49 158.58 136.55 158.58 139.99 147.85 143.43 158.58 154.49 158.58 145.54 165.14 148.94 175.65 139.97 169.23 131.06 175.65 134.44 165.19 125.49 158.58"/>
        <polygon class="cls-7" points="125.47 158.6 136.53 158.6 139.96 147.87 143.4 158.6 154.46 158.6 145.52 165.16 148.91 175.66 139.94 169.25 131.03 175.66 134.42 165.21 125.47 158.6"/>
        <polygon class="cls-7" points="125.44 158.62 136.5 158.62 139.94 147.89 143.38 158.62 154.44 158.62 145.49 165.18 148.89 175.69 139.92 169.27 131.01 175.69 134.4 165.23 125.44 158.62"/>
        <polygon class="cls-7" points="125.42 158.64 136.48 158.64 139.91 147.91 143.35 158.64 154.41 158.64 145.47 165.2 148.87 175.71 139.89 169.29 130.98 175.71 134.37 165.25 125.42 158.64"/>
        <polygon class="cls-7" points="125.39 158.66 136.45 158.66 139.89 147.93 143.32 158.66 154.39 158.66 145.44 165.22 148.84 175.72 139.87 169.31 130.96 175.72 134.34 165.27 125.39 158.66"/>
        <polygon class="cls-7" points="125.36 158.68 136.43 158.68 139.86 147.95 143.3 158.68 154.36 158.68 145.42 165.24 148.81 175.75 139.84 169.33 130.93 175.75 134.32 165.29 125.36 158.68"/>
        <polygon class="cls-7" points="125.34 158.7 136.4 158.7 139.84 147.97 143.28 158.7 154.34 158.7 145.39 165.26 148.79 175.76 139.82 169.35 130.91 175.76 134.29 165.31 125.34 158.7"/>
        <polygon class="cls-7" points="125.31 158.72 136.38 158.72 139.81 147.99 143.25 158.72 154.31 158.72 145.37 165.28 148.76 175.78 139.79 169.37 130.88 175.78 134.27 165.33 125.31 158.72"/>
        <polygon class="cls-7" points="125.29 158.74 136.35 158.74 139.79 148.01 143.22 158.74 154.29 158.74 145.34 165.3 148.74 175.81 139.77 169.39 130.86 175.81 134.25 165.35 125.29 158.74"/>
        <polygon class="cls-7" points="125.27 158.76 136.33 158.76 139.76 148.03 143.2 158.76 154.26 158.76 145.32 165.32 148.72 175.82 139.74 169.41 130.83 175.82 134.22 165.37 125.27 158.76"/>
        <polygon class="cls-7" points="125.24 158.78 136.3 158.78 139.74 148.05 143.18 158.78 154.24 158.78 145.29 165.34 148.69 175.84 139.72 169.43 130.81 175.84 134.19 165.39 125.24 158.78"/>
        <polygon class="cls-7" points="125.22 158.8 136.28 158.8 139.71 148.07 143.15 158.8 154.21 158.8 145.27 165.36 148.66 175.87 139.69 169.45 130.78 175.87 134.17 165.41 125.22 158.8"/>
        <polygon class="cls-7" points="125.19 158.82 136.25 158.82 139.69 148.09 143.13 158.82 154.19 158.82 145.24 165.38 148.64 175.88 139.67 169.47 130.76 175.88 134.15 165.43 125.19 158.82"/>
        <polygon class="cls-7" points="125.17 158.84 136.23 158.84 139.66 148.11 143.1 158.84 154.16 158.84 145.22 165.4 148.62 175.91 139.64 169.49 130.73 175.91 134.12 165.45 125.17 158.84"/>
        <polygon class="cls-7" points="125.14 158.86 136.2 158.86 139.64 148.13 143.07 158.86 154.14 158.86 145.19 165.42 148.59 175.93 139.62 169.51 130.71 175.93 134.09 165.47 125.14 158.86"/>
        <polygon class="cls-7" points="125.11 158.88 136.18 158.88 139.61 148.15 143.05 158.88 154.11 158.88 145.17 165.44 148.56 175.94 139.59 169.53 130.68 175.94 134.07 165.49 125.11 158.88"/>
        <polygon class="cls-7" points="125.09 158.9 136.15 158.9 139.59 148.17 143.03 158.9 154.09 158.9 145.14 165.46 148.54 175.97 139.57 169.55 130.66 175.97 134.04 165.51 125.09 158.9"/>
        <polygon class="cls-7" points="125.06 158.92 136.13 158.92 139.56 148.19 143 158.92 154.06 158.92 145.12 165.48 148.51 175.99 139.54 169.57 130.63 175.99 134.02 165.53 125.06 158.92"/>
        <polygon class="cls-7" points="125.04 158.94 136.1 158.94 139.54 148.21 142.97 158.94 154.04 158.94 145.09 165.5 148.49 176 139.52 169.59 130.61 176 134 165.55 125.04 158.94"/>
        <polygon class="cls-7" points="125.02 158.96 136.08 158.96 139.51 148.23 142.95 158.96 154.01 158.96 145.07 165.52 148.47 176.03 139.49 169.61 130.58 176.03 133.97 165.57 125.02 158.96"/>
        <polygon class="cls-7" points="124.99 158.98 136.05 158.98 139.49 148.25 142.93 158.98 153.99 158.98 145.04 165.54 148.44 176.04 139.47 169.63 130.56 176.04 133.94 165.59 124.99 158.98"/>
        <polygon class="cls-7" points="124.97 159 136.03 159 139.46 148.27 142.9 159 153.96 159 145.02 165.56 148.41 176.06 139.44 169.65 130.53 176.06 133.92 165.61 124.97 159"/>
      </g>
      <polygon class="cls-8" points="139.44 169.35 131.01 175.42 134.21 165.52 125.72 159.25 136.21 159.25 139.46 149.09 142.72 159.25 153.2 159.25 144.72 165.47 147.94 175.42 139.44 169.35"/>
      <path class="cls-7" d="M139.46,149.91l3,9.24.12.35h9.9l-7.72,5.66-.29.21.11.34,2.93,9.07-7.74-5.53-.29-.21-.29.21-7.67,5.52,2.92-9,.11-.35-.29-.21-7.74-5.71h9.91l.11-.35,3-9.24m0-1.64L136,159H125l8.95,6.61-3.39,10.46,8.91-6.42,9,6.42L145,165.56,154,159H142.9l-3.44-10.73Z"/>
    </g>
    <rect class="cls-9" x="20.87" y="240.58" width="97.98" height="13.36"/>
    <rect class="cls-10" x="20.87" y="259.51" width="82.39" height="13.36"/>
    <rect class="cls-11" x="20.87" y="278.43" width="105.77" height="13.36"/>
    <g>
      <rect class="cls-1" x="1.11" y="342.4" width="497.39" height="122.96"/>
      <path d="M497,343.9v120H2.61v-120H497m3-3H-.39v126H500v-126Z"/>
    </g>
    <g>
      <rect class="cls-5" x="195.98" y="140.69" width="161.88" height="172.78"/>
      <path d="M356.36,142.19V312H197.48V142.19H356.36m3-3H194.48V315H359.36V139.19Z"/>
    </g>
    <circle class="cls-12" cx="239" cy="186.13" r="25.61"/>
    <g>
      <g>
        <polygon class="cls-7" points="317.74 158.45 328.8 158.45 332.23 147.72 335.67 158.45 346.73 158.45 337.79 165.01 341.19 175.51 332.21 169.1 323.3 175.51 326.69 165.06 317.74 158.45"/>
        <polygon class="cls-7" points="317.71 158.47 328.77 158.47 332.21 147.74 335.64 158.47 346.71 158.47 337.76 165.03 341.16 175.53 332.19 169.12 323.28 175.53 326.67 165.08 317.71 158.47"/>
        <polygon class="cls-7" points="317.69 158.49 328.75 158.49 332.18 147.76 335.62 158.49 346.68 158.49 337.74 165.05 341.13 175.55 332.16 169.14 323.25 175.55 326.64 165.1 317.69 158.49"/>
        <polygon class="cls-7" points="317.66 158.51 328.72 158.51 332.16 147.78 335.6 158.51 346.66 158.51 337.71 165.07 341.11 175.57 332.14 169.16 323.23 175.57 326.62 165.12 317.66 158.51"/>
        <polygon class="cls-7" points="317.63 158.53 328.7 158.53 332.13 147.8 335.57 158.53 346.63 158.53 337.69 165.09 341.08 175.59 332.11 169.18 323.2 175.59 326.59 165.14 317.63 158.53"/>
        <polygon class="cls-7" points="317.61 158.55 328.67 158.55 332.11 147.82 335.55 158.55 346.61 158.55 337.66 165.11 341.06 175.61 332.09 169.2 323.18 175.61 326.56 165.16 317.61 158.55"/>
        <polygon class="cls-7" points="317.58 158.57 328.65 158.57 332.08 147.84 335.52 158.57 346.58 158.57 337.64 165.13 341.04 175.63 332.06 169.22 323.15 175.63 326.54 165.18 317.58 158.57"/>
        <polygon class="cls-7" points="317.56 158.59 328.62 158.59 332.06 147.86 335.5 158.59 346.56 158.59 337.61 165.15 341.01 175.65 332.04 169.24 323.13 175.65 326.51 165.2 317.56 158.59"/>
        <polygon class="cls-7" points="317.54 158.61 328.6 158.61 332.03 147.88 335.47 158.61 346.53 158.61 337.59 165.17 340.99 175.67 332.01 169.26 323.1 175.67 326.49 165.22 317.54 158.61"/>
        <polygon class="cls-7" points="317.51 158.63 328.57 158.63 332.01 147.9 335.44 158.63 346.51 158.63 337.56 165.19 340.96 175.69 331.99 169.28 323.08 175.69 326.46 165.24 317.51 158.63"/>
        <polygon class="cls-7" points="317.49 158.65 328.55 158.65 331.98 147.92 335.42 158.65 346.48 158.65 337.54 165.21 340.94 175.71 331.96 169.3 323.05 175.71 326.44 165.26 317.49 158.65"/>
        <polygon class="cls-7" points="317.46 158.67 328.52 158.67 331.96 147.94 335.39 158.67 346.46 158.67 337.51 165.23 340.91 175.73 331.94 169.32 323.03 175.73 326.42 165.28 317.46 158.67"/>
        <polygon class="cls-7" points="317.44 158.69 328.5 158.69 331.93 147.96 335.37 158.69 346.43 158.69 337.49 165.25 340.88 175.75 331.91 169.34 323 175.75 326.39 165.3 317.44 158.69"/>
        <polygon class="cls-7" points="317.41 158.71 328.47 158.71 331.91 147.98 335.35 158.71 346.41 158.71 337.46 165.27 340.86 175.77 331.89 169.36 322.98 175.77 326.37 165.32 317.41 158.71"/>
        <polygon class="cls-7" points="317.38 158.73 328.45 158.73 331.88 148 335.32 158.73 346.38 158.73 337.44 165.29 340.83 175.79 331.86 169.38 322.95 175.79 326.34 165.34 317.38 158.73"/>
        <polygon class="cls-7" points="317.36 158.75 328.42 158.75 331.86 148.02 335.3 158.75 346.36 158.75 337.41 165.31 340.81 175.81 331.84 169.4 322.93 175.81 326.31 165.36 317.36 158.75"/>
        <polygon class="cls-7" points="317.33 158.77 328.4 158.77 331.83 148.04 335.27 158.77 346.33 158.77 337.39 165.33 340.79 175.83 331.81 169.42 322.9 175.83 326.29 165.38 317.33 158.77"/>
        <polygon class="cls-7" points="317.31 158.79 328.37 158.79 331.81 148.06 335.25 158.79 346.31 158.79 337.36 165.35 340.76 175.85 331.79 169.44 322.88 175.85 326.26 165.4 317.31 158.79"/>
        <polygon class="cls-7" points="317.29 158.81 328.35 158.81 331.78 148.08 335.22 158.81 346.28 158.81 337.34 165.37 340.74 175.87 331.76 169.46 322.85 175.87 326.24 165.42 317.29 158.81"/>
        <polygon class="cls-7" points="317.26 158.83 328.32 158.83 331.76 148.1 335.19 158.83 346.26 158.83 337.31 165.39 340.71 175.89 331.74 169.48 322.83 175.89 326.21 165.44 317.26 158.83"/>
        <polygon class="cls-7" points="317.24 158.85 328.3 158.85 331.73 148.12 335.17 158.85 346.23 158.85 337.29 165.41 340.69 175.91 331.71 169.5 322.8 175.91 326.19 165.46 317.24 158.85"/>
        <polygon class="cls-7" points="317.21 158.87 328.27 158.87 331.71 148.14 335.14 158.87 346.21 158.87 337.26 165.43 340.66 175.93 331.69 169.52 322.78 175.93 326.17 165.48 317.21 158.87"/>
        <polygon class="cls-7" points="317.19 158.89 328.25 158.89 331.68 148.16 335.12 158.89 346.18 158.89 337.24 165.45 340.63 175.95 331.66 169.54 322.75 175.95 326.14 165.5 317.19 158.89"/>
        <polygon class="cls-7" points="317.16 158.91 328.22 158.91 331.66 148.18 335.1 158.91 346.16 158.91 337.21 165.47 340.61 175.97 331.64 169.56 322.73 175.97 326.12 165.52 317.16 158.91"/>
        <polygon class="cls-7" points="317.13 158.93 328.2 158.93 331.63 148.2 335.07 158.93 346.13 158.93 337.19 165.49 340.58 175.99 331.61 169.58 322.7 175.99 326.09 165.54 317.13 158.93"/>
        <polygon class="cls-7" points="317.11 158.95 328.17 158.95 331.61 148.22 335.05 158.95 346.11 158.95 337.16 165.51 340.56 176.01 331.59 169.6 322.68 176.01 326.06 165.56 317.11 158.95"/>
        <polygon class="cls-7" points="317.08 158.97 328.15 158.97 331.58 148.24 335.02 158.97 346.08 158.97 337.14 165.53 340.54 176.03 331.56 169.62 322.65 176.03 326.04 165.58 317.08 158.97"/>
        <polygon class="cls-7" points="317.06 158.99 328.12 158.99 331.56 148.26 335 158.99 346.06 158.99 337.11 165.55 340.51 176.05 331.54 169.64 322.63 176.05 326.01 165.6 317.06 158.99"/>
        <polygon class="cls-7" points="317.04 159.01 328.1 159.01 331.53 148.28 334.97 159.01 346.03 159.01 337.09 165.57 340.49 176.07 331.51 169.66 322.6 176.07 325.99 165.62 317.04 159.01"/>
        <polygon class="cls-7" points="317.01 159.03 328.07 159.03 331.51 148.3 334.94 159.03 346.01 159.03 337.06 165.59 340.46 176.09 331.49 169.68 322.58 176.09 325.96 165.64 317.01 159.03"/>
        <polygon class="cls-7" points="316.99 159.05 328.05 159.05 331.48 148.32 334.92 159.05 345.98 159.05 337.04 165.61 340.44 176.11 331.46 169.7 322.55 176.11 325.94 165.66 316.99 159.05"/>
        <polygon class="cls-7" points="316.96 159.07 328.02 159.07 331.46 148.34 334.89 159.07 345.96 159.07 337.01 165.63 340.41 176.13 331.44 169.72 322.53 176.13 325.92 165.68 316.96 159.07"/>
        <polygon class="cls-7" points="316.94 159.09 328 159.09 331.43 148.36 334.87 159.09 345.93 159.09 336.99 165.65 340.38 176.15 331.41 169.74 322.5 176.15 325.89 165.7 316.94 159.09"/>
        <polygon class="cls-7" points="316.91 159.11 327.97 159.11 331.41 148.38 334.85 159.11 345.91 159.11 336.96 165.67 340.36 176.17 331.39 169.76 322.48 176.17 325.87 165.72 316.91 159.11"/>
        <polygon class="cls-7" points="316.88 159.13 327.95 159.13 331.38 148.4 334.82 159.13 345.88 159.13 336.94 165.69 340.33 176.19 331.36 169.78 322.45 176.19 325.84 165.74 316.88 159.13"/>
        <polygon class="cls-7" points="316.86 159.15 327.92 159.15 331.36 148.42 334.8 159.15 345.86 159.15 336.91 165.71 340.31 176.21 331.34 169.8 322.43 176.21 325.81 165.76 316.86 159.15"/>
        <polygon class="cls-7" points="316.83 159.17 327.9 159.17 331.33 148.44 334.77 159.17 345.83 159.17 336.89 165.73 340.29 176.23 331.31 169.82 322.4 176.23 325.79 165.78 316.83 159.17"/>
        <polygon class="cls-7" points="316.81 159.19 327.87 159.19 331.31 148.46 334.75 159.19 345.81 159.19 336.86 165.75 340.26 176.25 331.29 169.84 322.38 176.25 325.76 165.8 316.81 159.19"/>
        <polygon class="cls-7" points="316.79 159.21 327.85 159.21 331.28 148.48 334.72 159.21 345.78 159.21 336.84 165.77 340.24 176.27 331.26 169.86 322.35 176.27 325.74 165.82 316.79 159.21"/>
        <polygon class="cls-7" points="316.76 159.23 327.82 159.23 331.26 148.5 334.69 159.23 345.76 159.23 336.81 165.79 340.21 176.29 331.24 169.88 322.33 176.29 325.71 165.84 316.76 159.23"/>
        <polygon class="cls-7" points="316.74 159.25 327.8 159.25 331.23 148.52 334.67 159.25 345.73 159.25 336.79 165.81 340.19 176.31 331.21 169.9 322.3 176.31 325.69 165.86 316.74 159.25"/>
        <polygon class="cls-7" points="316.71 159.27 327.77 159.27 331.21 148.54 334.64 159.27 345.71 159.27 336.76 165.83 340.16 176.33 331.19 169.92 322.28 176.33 325.67 165.88 316.71 159.27"/>
        <polygon class="cls-7" points="316.69 159.29 327.75 159.29 331.18 148.56 334.62 159.29 345.68 159.29 336.74 165.85 340.13 176.35 331.16 169.94 322.25 176.35 325.64 165.9 316.69 159.29"/>
        <polygon class="cls-7" points="316.66 159.31 327.72 159.31 331.16 148.58 334.6 159.31 345.66 159.31 336.71 165.87 340.11 176.37 331.14 169.96 322.23 176.37 325.62 165.92 316.66 159.31"/>
        <polygon class="cls-7" points="316.63 159.33 327.7 159.33 331.13 148.6 334.57 159.33 345.63 159.33 336.69 165.89 340.08 176.39 331.11 169.98 322.2 176.39 325.59 165.94 316.63 159.33"/>
        <polygon class="cls-7" points="316.61 159.35 327.67 159.35 331.11 148.62 334.55 159.35 345.61 159.35 336.66 165.91 340.06 176.41 331.09 170 322.18 176.41 325.56 165.96 316.61 159.35"/>
        <polygon class="cls-7" points="316.58 159.37 327.65 159.37 331.08 148.64 334.52 159.37 345.58 159.37 336.64 165.93 340.04 176.43 331.06 170.02 322.15 176.43 325.54 165.98 316.58 159.37"/>
        <polygon class="cls-7" points="316.56 159.39 327.62 159.39 331.06 148.66 334.5 159.39 345.56 159.39 336.61 165.95 340.01 176.45 331.04 170.04 322.13 176.45 325.51 166 316.56 159.39"/>
        <polygon class="cls-7" points="316.54 159.41 327.6 159.41 331.03 148.68 334.47 159.41 345.53 159.41 336.59 165.97 339.99 176.47 331.01 170.06 322.1 176.47 325.49 166.02 316.54 159.41"/>
        <polygon class="cls-7" points="316.51 159.43 327.57 159.43 331.01 148.7 334.44 159.43 345.51 159.43 336.56 165.99 339.96 176.49 330.99 170.08 322.08 176.49 325.46 166.04 316.51 159.43"/>
        <polygon class="cls-7" points="316.49 159.45 327.55 159.45 330.98 148.72 334.42 159.45 345.48 159.45 336.54 166.01 339.94 176.51 330.96 170.1 322.05 176.51 325.44 166.06 316.49 159.45"/>
      </g>
      <polygon class="cls-8" points="330.96 169.79 322.53 175.86 325.73 165.96 317.25 159.7 327.73 159.7 330.98 149.54 334.24 159.7 344.72 159.7 336.24 165.91 339.46 175.87 330.96 169.79"/>
      <path class="cls-7" d="M331,150.36l3,9.24.12.35H344l-7.72,5.65-.29.22.11.34,2.93,9.06-7.74-5.53-.29-.2-.29.21L323,175.22l2.92-9,.11-.34-.29-.21L318,160h9.91l.11-.35,3-9.24m0-1.64-3.43,10.73H316.49l8.95,6.61-3.39,10.45L331,170.1l9,6.41L336.54,166l8.94-6.56H334.42L331,148.72Z"/>
    </g>
    <rect class="cls-13" x="212.39" y="241.03" width="97.98" height="13.36"/>
    <rect class="cls-14" x="212.39" y="259.95" width="82.39" height="13.36"/>
    <rect class="cls-15" x="212.39" y="278.88" width="105.77" height="13.36"/>
    <g>
      <rect class="cls-5" x="391.71" y="140.66" width="139.75" height="172.78"/>
      <path d="M530,142.16V311.93H393.21V142.16H530m3-3H390.21V314.93H533V139.16Z"/>
    </g>
    <circle class="cls-16" cx="432.33" cy="186.09" r="25.61"/>
    <rect class="cls-17" x="405.72" y="240.99" width="97.98" height="13.36"/>
    <rect class="cls-18" x="405.72" y="259.92" width="82.39" height="13.36"/>
    <rect class="cls-19" x="405.72" y="278.84" width="105.77" height="13.36"/>
  </g>
</svg>
