<svg xmlns="http://www.w3.org/2000/svg" viewBox="0 0 135 41"><defs><style>.cls-1,.cls-5,.cls-6,.cls-7,.cls-9{fill:#1d1d1b;}.cls-1,.cls-2,.cls-3,.cls-7,.cls-9{stroke:#1d1d1b;}.cls-1,.cls-2,.cls-4{stroke-linejoin:round;}.cls-2,.cls-4{fill:none;}.cls-2{stroke-width:7px;}.cls-3{fill:#dfdd00;}.cls-3,.cls-7,.cls-9{stroke-miterlimit:10;stroke-width:0.5px;}.cls-4{stroke:#dfdd00;stroke-width:5px;}.cls-6{font-size:11.02px;font-family:SportyPro-Black, Sporty Pro;font-weight:800;}.cls-7,.cls-9{font-size:24.6px;font-family:SportyPro-Shadow, Sporty Pro;}.cls-7{letter-spacing:0.31em;}.cls-8{letter-spacing:0.3em;}</style></defs><g id="Final"><polygon class="cls-1" points="93.42 2.45 98.86 11.82 103.81 21.2 93.91 21.2 83.52 21.2 88.47 11.82 93.42 2.45"/><polygon class="cls-1" points="93.96 21.14 83.58 21.14 88.53 11.77 93.48 2.39 98.91 11.77 103.86 21.14 93.96 21.14"/><polygon class="cls-1" points="94.01 21.09 83.65 21.09 88.6 11.71 93.55 2.33 98.97 11.71 103.92 21.09 94.01 21.09"/><polygon class="cls-1" points="94.07 21.03 83.72 21.03 88.67 11.65 93.62 2.28 99.02 11.65 103.97 21.03 94.07 21.03"/><polygon class="cls-1" points="94.12 20.98 83.79 20.98 88.74 11.6 93.69 2.22 99.07 11.6 104.02 20.98 94.12 20.98"/><polygon class="cls-1" points="94.17 20.92 83.86 20.92 88.81 11.54 93.76 2.17 99.12 11.54 104.07 20.92 94.17 20.92"/><polygon class="cls-1" points="94.22 20.86 83.92 20.86 88.88 11.49 93.83 2.11 99.17 11.49 104.12 20.86 94.22 20.86"/><polygon class="cls-1" points="94.28 20.81 83.99 20.81 88.94 11.43 93.89 2.05 99.23 11.43 104.18 20.81 94.28 20.81"/><polygon class="cls-1" points="94.33 20.75 84.06 20.75 89.01 11.37 93.96 2 99.28 11.37 104.23 20.75 94.33 20.75"/><polygon class="cls-1" points="94.38 20.69 84.13 20.69 89.08 11.32 94.03 1.94 99.33 11.32 104.28 20.69 94.38 20.69"/><polygon class="cls-1" points="94.43 20.64 84.2 20.64 89.15 11.26 94.1 1.88 99.38 11.26 104.33 20.64 94.43 20.64"/><polygon class="cls-1" points="94.48 20.58 84.27 20.58 89.22 11.2 94.17 1.83 99.44 11.2 104.39 20.58 94.48 20.58"/><polygon class="cls-1" points="94.54 20.52 84.33 20.52 89.28 11.15 94.24 1.77 99.49 11.15 104.44 20.52 94.54 20.52"/><polygon class="cls-1" points="94.59 20.47 84.4 20.47 89.35 11.09 94.3 1.72 99.54 11.09 104.49 20.47 94.59 20.47"/><polygon class="cls-1" points="94.64 20.41 84.47 20.41 89.42 11.04 94.37 1.66 99.59 11.04 104.54 20.41 94.64 20.41"/><polygon class="cls-1" points="94.69 20.36 84.54 20.36 89.49 10.98 94.44 1.6 99.64 10.98 104.6 20.36 94.69 20.36"/><polygon class="cls-1" points="94.75 20.3 84.61 20.3 89.56 10.92 94.51 1.55 99.7 10.92 104.65 20.3 94.75 20.3"/><polygon class="cls-1" points="94.8 20.24 84.68 20.24 89.63 10.87 94.58 1.49 99.75 10.87 104.7 20.24 94.8 20.24"/><polygon class="cls-1" points="94.85 20.19 84.74 20.19 89.69 10.81 94.64 1.43 99.8 10.81 104.75 20.19 94.85 20.19"/><polygon class="cls-1" points="94.9 20.13 84.81 20.13 89.76 10.75 94.71 1.38 99.85 10.75 104.81 20.13 94.9 20.13"/><polygon class="cls-1" points="94.96 20.07 84.88 20.07 89.83 10.7 94.78 1.32 99.91 10.7 104.86 20.07 94.96 20.07"/><polygon class="cls-1" points="95.01 20.02 84.95 20.02 89.9 10.64 94.85 1.26 99.96 10.64 104.91 20.02 95.01 20.02"/><polygon class="cls-1" points="95.06 19.96 85.02 19.96 89.97 10.58 94.92 1.21 100.01 10.58 104.96 19.96 95.06 19.96"/><polygon class="cls-1" points="95.11 19.9 85.08 19.9 90.04 10.53 94.99 1.15 100.06 10.53 105.01 19.9 95.11 19.9"/><polygon class="cls-1" points="95.17 19.85 85.15 19.85 90.1 10.47 95.06 1.09 100.12 10.47 105.07 19.85 95.17 19.85"/><polygon class="cls-1" points="95.22 19.79 85.22 19.79 90.17 10.41 95.12 1.04 100.17 10.41 105.12 19.79 95.22 19.79"/><polygon class="cls-1" points="95.27 19.73 85.29 19.73 90.24 10.36 95.19 0.98 100.22 10.36 105.17 19.73 95.27 19.73"/><polygon class="cls-1" points="95.32 19.68 85.36 19.68 90.31 10.3 95.26 0.93 100.27 10.3 105.22 19.68 95.32 19.68"/><polygon class="cls-1" points="95.38 19.62 85.43 19.62 90.38 10.25 95.33 0.87 100.33 10.25 105.28 19.62 95.38 19.62"/><polygon class="cls-1" points="95.43 19.57 85.5 19.57 90.44 10.19 95.4 0.81 100.38 10.19 105.33 19.57 95.43 19.57"/><polygon class="cls-1" points="95.48 19.51 85.56 19.51 90.51 10.13 95.46 0.76 100.43 10.13 105.38 19.51 95.48 19.51"/><polygon class="cls-1" points="95.53 0.7 100.48 10.08 105.43 19.45 95.53 19.45 85.63 19.45 90.58 10.08 95.53 0.7"/><path class="cls-2" d="M94,18.76v9.35c0,5.34-4.36,8.67-9.73,8.67H1.48"/><path class="cls-2" d="M94,18.71v9.35c0,5.34-4.36,8.67-9.73,8.67l-82.77,0"/><path class="cls-2" d="M94.07,18.67V28c0,5.35-4.35,8.68-9.73,8.68l-82.78,0"/><path class="cls-2" d="M94.13,18.62V28c0,5.34-4.36,8.67-9.74,8.67l-82.79,0"/><path class="cls-2" d="M94.18,18.58v9.34c0,5.34-4.36,8.67-9.74,8.67l-82.79,0"/><path class="cls-2" d="M94.23,18.53v9.34c0,5.35-4.36,8.68-9.73,8.68L1.69,36.6"/><path class="cls-2" d="M94.28,18.49v9.33c0,5.35-4.36,8.68-9.73,8.68l-82.82.06"/><path class="cls-2" d="M94.33,18.44v9.34c0,5.34-4.35,8.67-9.73,8.67l-82.83.08"/><path class="cls-2" d="M94.39,18.4v9.33c0,5.34-4.36,8.68-9.74,8.68l-82.83.08"/><path class="cls-2" d="M94.44,18.35v9.33c0,5.35-4.36,8.68-9.74,8.68l-82.84.09"/><path class="cls-2" d="M94.49,18.31v9.33c0,5.34-4.36,8.67-9.73,8.67L1.9,36.42"/><path class="cls-2" d="M94.54,18.26v9.33c0,5.34-4.36,8.68-9.73,8.68l-82.87.11"/><path class="cls-2" d="M94.59,18.22v9.32c0,5.35-4.35,8.68-9.73,8.68L2,36.34"/><path class="cls-2" d="M94.65,18.17V27.5c0,5.34-4.36,8.67-9.74,8.67L2,36.31"/><path class="cls-2" d="M94.7,18.13v9.32c0,5.34-4.36,8.67-9.74,8.67l-82.89.15"/><path class="cls-2" d="M94.75,18.08V27.4c0,5.35-4.36,8.68-9.73,8.68l-82.91.15"/><path class="cls-2" d="M94.8,18v9.32c0,5.34-4.36,8.67-9.73,8.67L2.16,36.2"/><path class="cls-2" d="M94.85,18v9.32c0,5.34-4.35,8.67-9.73,8.67L2.2,36.16"/><path class="cls-2" d="M94.9,18v9.31c0,5.35-4.35,8.68-9.73,8.68l-82.93.18"/><path class="cls-2" d="M95,17.9v9.31c0,5.35-4.36,8.68-9.74,8.68l-82.94.2"/><path class="cls-2" d="M95,17.86v9.31c0,5.34-4.36,8.67-9.73,8.67l-82.95.21"/><path class="cls-2" d="M95.06,17.81v9.31c0,5.34-4.36,8.68-9.73,8.68L2.37,36"/><path class="cls-2" d="M95.11,17.77v9.3c0,5.35-4.35,8.68-9.73,8.68L2.41,36"/><path class="cls-2" d="M95.16,17.72V27c0,5.34-4.35,8.67-9.73,8.67l-83,.24"/><path class="cls-2" d="M95.22,17.68V27c0,5.34-4.36,8.68-9.74,8.68l-83,.24"/><path class="cls-2" d="M95.27,17.63v9.3c0,5.35-4.36,8.68-9.73,8.68l-83,.26"/><path class="cls-2" d="M95.32,17.59v9.3c0,5.34-4.36,8.67-9.73,8.67l-83,.27"/><path class="cls-2" d="M95.37,17.54v9.3c0,5.34-4.36,8.67-9.73,8.67l-83,.28"/><path class="cls-2" d="M95.42,17.5v9.29c0,5.35-4.35,8.68-9.73,8.68l-83,.29"/><path class="cls-2" d="M95.48,17.45v9.3c0,5.34-4.36,8.67-9.74,8.67l-83,.3"/><path class="cls-2" d="M95.53,17.41V26.7c0,5.34-4.36,8.67-9.73,8.67l-83,.31"/><path class="cls-2" d="M95.58,17.36v9.29c0,5.35-4.36,8.68-9.73,8.68l-83.06.32"/><polygon class="cls-3" points="95.42 1.36 100.06 10.24 104.7 19.12 95.42 19.12 86.16 19.12 90.79 10.24 95.42 1.36"/><path class="cls-4" d="M95.51,26a9.68,9.68,0,0,1-9.68,9.68"/><line class="cls-4" x1="86.01" y1="35.71" x2="3.05" y2="35.71"/><line class="cls-4" x1="95.51" y1="15.38" x2="95.51" y2="26.14"/><path class="cls-5" d="M93.31,3.21c-.15-.19.35-1.08,1-1.62S95.55.76,95.7,1"/><path class="cls-5" d="M1.53,33.41c-.16-.19.06-.54.47-.89s.87-.47,1-.29Z"/><text class="cls-6" transform="translate(105.36 34.99)">UP</text><text class="cls-7" transform="translate(1.48 19.31)">S<tspan class="cls-8" x="26.64" y="0">QU</tspan></text><text class="cls-9" transform="translate(115.36 19.05)">D</text></g></svg>