<svg xmlns="http://www.w3.org/2000/svg" viewBox="0 0 135 41"><defs><style>.cls-1,.cls-3{fill:#dfdd00;}.cls-1,.cls-2{stroke:#dfdd00;stroke-linejoin:round;}.cls-2{fill:none;stroke-width:7px;}.cls-4{font-size:11.02px;font-family:SportyPro-Black, Sporty Pro;font-weight:800;}.cls-4,.cls-5,.cls-7{fill:#fff;}.cls-5,.cls-7{font-size:24.6px;stroke:#fff;stroke-miterlimit:10;font-family:SportyPro-Bold, Sporty Pro;font-weight:700;}.cls-5{letter-spacing:0.3em;}.cls-6{letter-spacing:0.3em;}</style></defs><g id="Final"><polygon class="cls-1" points="93.42 2.56 98.86 11.94 103.81 21.31 93.91 21.31 83.52 21.31 88.47 11.94 93.42 2.56"/><polygon class="cls-1" points="93.96 21.25 83.58 21.25 88.53 11.88 93.48 2.5 98.91 11.88 103.86 21.25 93.96 21.25"/><polygon class="cls-1" points="94.01 21.2 83.65 21.2 88.6 11.82 93.55 2.45 98.97 11.82 103.92 21.2 94.01 21.2"/><polygon class="cls-1" points="94.07 21.14 83.72 21.14 88.67 11.77 93.62 2.39 99.02 11.77 103.97 21.14 94.07 21.14"/><polygon class="cls-1" points="94.12 21.09 83.79 21.09 88.74 11.71 93.69 2.33 99.07 11.71 104.02 21.09 94.12 21.09"/><polygon class="cls-1" points="94.17 21.03 83.86 21.03 88.81 11.65 93.76 2.28 99.12 11.65 104.07 21.03 94.17 21.03"/><polygon class="cls-1" points="94.22 20.97 83.92 20.97 88.88 11.6 93.83 2.22 99.17 11.6 104.12 20.97 94.22 20.97"/><polygon class="cls-1" points="94.28 20.92 83.99 20.92 88.94 11.54 93.89 2.16 99.23 11.54 104.18 20.92 94.28 20.92"/><polygon class="cls-1" points="94.33 20.86 84.06 20.86 89.01 11.48 93.96 2.11 99.28 11.48 104.23 20.86 94.33 20.86"/><polygon class="cls-1" points="94.38 20.8 84.13 20.8 89.08 11.43 94.03 2.05 99.33 11.43 104.28 20.8 94.38 20.8"/><polygon class="cls-1" points="94.43 20.75 84.2 20.75 89.15 11.37 94.1 2 99.38 11.37 104.33 20.75 94.43 20.75"/><polygon class="cls-1" points="94.48 20.69 84.27 20.69 89.22 11.31 94.17 1.94 99.44 11.31 104.39 20.69 94.48 20.69"/><polygon class="cls-1" points="94.54 20.64 84.33 20.64 89.28 11.26 94.24 1.88 99.49 11.26 104.44 20.64 94.54 20.64"/><polygon class="cls-1" points="94.59 20.58 84.4 20.58 89.35 11.2 94.3 1.83 99.54 11.2 104.49 20.58 94.59 20.58"/><polygon class="cls-1" points="94.64 20.52 84.47 20.52 89.42 11.15 94.37 1.77 99.59 11.15 104.54 20.52 94.64 20.52"/><polygon class="cls-1" points="94.69 20.47 84.54 20.47 89.49 11.09 94.44 1.71 99.64 11.09 104.6 20.47 94.69 20.47"/><polygon class="cls-1" points="94.75 20.41 84.61 20.41 89.56 11.03 94.51 1.66 99.7 11.03 104.65 20.41 94.75 20.41"/><polygon class="cls-1" points="94.8 20.35 84.68 20.35 89.63 10.98 94.58 1.6 99.75 10.98 104.7 20.35 94.8 20.35"/><polygon class="cls-1" points="94.85 20.3 84.74 20.3 89.69 10.92 94.64 1.54 99.8 10.92 104.75 20.3 94.85 20.3"/><polygon class="cls-1" points="94.9 20.24 84.81 20.24 89.76 10.86 94.71 1.49 99.85 10.86 104.81 20.24 94.9 20.24"/><polygon class="cls-1" points="94.96 20.18 84.88 20.18 89.83 10.81 94.78 1.43 99.91 10.81 104.86 20.18 94.96 20.18"/><polygon class="cls-1" points="95.01 20.13 84.95 20.13 89.9 10.75 94.85 1.38 99.96 10.75 104.91 20.13 95.01 20.13"/><polygon class="cls-1" points="95.06 20.07 85.02 20.07 89.97 10.7 94.92 1.32 100.01 10.7 104.96 20.07 95.06 20.07"/><polygon class="cls-1" points="95.11 20.02 85.08 20.02 90.04 10.64 94.99 1.26 100.06 10.64 105.01 20.02 95.11 20.02"/><polygon class="cls-1" points="95.17 19.96 85.15 19.96 90.1 10.58 95.06 1.21 100.12 10.58 105.07 19.96 95.17 19.96"/><polygon class="cls-1" points="95.22 19.9 85.22 19.9 90.17 10.53 95.12 1.15 100.17 10.53 105.12 19.9 95.22 19.9"/><polygon class="cls-1" points="95.27 19.85 85.29 19.85 90.24 10.47 95.19 1.09 100.22 10.47 105.17 19.85 95.27 19.85"/><polygon class="cls-1" points="95.32 19.79 85.36 19.79 90.31 10.41 95.26 1.04 100.27 10.41 105.22 19.79 95.32 19.79"/><polygon class="cls-1" points="95.38 19.73 85.43 19.73 90.38 10.36 95.33 0.98 100.33 10.36 105.28 19.73 95.38 19.73"/><polygon class="cls-1" points="95.43 19.68 85.5 19.68 90.44 10.3 95.4 0.92 100.38 10.3 105.33 19.68 95.43 19.68"/><polygon class="cls-1" points="95.48 19.62 85.56 19.62 90.51 10.24 95.46 0.87 100.43 10.24 105.38 19.62 95.48 19.62"/><polygon class="cls-1" points="95.53 0.81 100.48 10.19 105.43 19.56 95.53 19.56 85.63 19.56 90.58 10.19 95.53 0.81"/><path class="cls-2" d="M94,18.87v9.35c0,5.34-4.36,8.67-9.73,8.67H1.48"/><path class="cls-2" d="M94,18.82v9.35c0,5.34-4.36,8.68-9.73,8.68H1.52"/><path class="cls-2" d="M94.07,18.78v9.34c0,5.35-4.35,8.68-9.73,8.68l-82.78,0"/><path class="cls-2" d="M94.13,18.73v9.35c0,5.34-4.36,8.67-9.74,8.67l-82.79,0"/><path class="cls-2" d="M94.18,18.69V28c0,5.34-4.36,8.68-9.74,8.68l-82.79,0"/><path class="cls-2" d="M94.23,18.64V28c0,5.35-4.36,8.68-9.73,8.68l-82.81.05"/><path class="cls-2" d="M94.28,18.6v9.34c0,5.34-4.36,8.67-9.73,8.67l-82.82.06"/><path class="cls-2" d="M94.33,18.55v9.34c0,5.34-4.35,8.67-9.73,8.67l-82.83.08"/><path class="cls-2" d="M94.39,18.51v9.33c0,5.35-4.36,8.68-9.74,8.68L1.82,36.6"/><path class="cls-2" d="M94.44,18.46V27.8c0,5.34-4.36,8.67-9.74,8.67l-82.84.09"/><path class="cls-2" d="M94.49,18.42v9.33c0,5.34-4.36,8.67-9.73,8.67L1.9,36.53"/><path class="cls-2" d="M94.54,18.37V27.7c0,5.34-4.36,8.68-9.73,8.68l-82.87.11"/><path class="cls-2" d="M94.59,18.33v9.32c0,5.35-4.35,8.68-9.73,8.68L2,36.45"/><path class="cls-2" d="M94.65,18.28v9.33c0,5.34-4.36,8.67-9.74,8.67L2,36.42"/><path class="cls-2" d="M94.7,18.24v9.32c0,5.34-4.36,8.68-9.74,8.68l-82.89.14"/><path class="cls-2" d="M94.75,18.19v9.32c0,5.35-4.36,8.68-9.73,8.68l-82.91.15"/><path class="cls-2" d="M94.8,18.15v9.32c0,5.34-4.36,8.67-9.73,8.67l-82.91.17"/><path class="cls-2" d="M94.85,18.1v9.32c0,5.34-4.35,8.67-9.73,8.67L2.2,36.27"/><path class="cls-2" d="M94.9,18.06v9.31c0,5.35-4.35,8.68-9.73,8.68l-82.93.18"/><path class="cls-2" d="M95,18v9.32C95,32.67,90.6,36,85.22,36l-82.94.2"/><path class="cls-2" d="M95,18v9.31C95,32.62,90.65,36,85.28,36l-82.95.21"/><path class="cls-2" d="M95.06,17.92v9.31c0,5.35-4.36,8.68-9.73,8.68l-83,.21"/><path class="cls-2" d="M95.11,17.88v9.3c0,5.35-4.35,8.68-9.73,8.68l-83,.23"/><path class="cls-2" d="M95.16,17.83v9.31c0,5.34-4.35,8.67-9.73,8.67l-83,.24"/><path class="cls-2" d="M95.22,17.79v9.3c0,5.34-4.36,8.68-9.74,8.68L2.5,36"/><path class="cls-2" d="M95.27,17.74V27c0,5.35-4.36,8.68-9.73,8.68L2.54,36"/><path class="cls-2" d="M95.32,17.7V27c0,5.34-4.36,8.67-9.73,8.67l-83,.27"/><path class="cls-2" d="M95.37,17.65V27c0,5.34-4.36,8.68-9.73,8.68l-83,.28"/><path class="cls-2" d="M95.42,17.61V26.9c0,5.35-4.35,8.68-9.73,8.68l-83,.29"/><path class="cls-2" d="M95.48,17.56v9.3c0,5.34-4.36,8.67-9.74,8.67l-83,.3"/><path class="cls-2" d="M95.53,17.52v9.29c0,5.34-4.36,8.67-9.73,8.67l-83,.32"/><path class="cls-2" d="M95.58,17.47v9.29c0,5.35-4.36,8.68-9.73,8.68l-83.06.32"/><polygon class="cls-3" points="95.42 1.47 100.06 10.35 104.7 19.23 95.42 19.23 86.16 19.23 90.79 10.35 95.42 1.47"/><path class="cls-3" d="M93.31,3.32c-.15-.18.35-1.08,1-1.62s1.24-.82,1.39-.64"/><path class="cls-3" d="M1.54,34.54c-.16-.19.06-.55.47-.89s.87-.48,1-.29Z"/><text class="cls-4" transform="translate(105.36 35.11)">UP</text><text class="cls-5" transform="translate(1.48 18.69)">S<tspan class="cls-6" x="26.81" y="0">QU</tspan></text><text class="cls-7" transform="translate(115.36 18.42)">D</text></g></svg>