<svg xmlns="http://www.w3.org/2000/svg" viewBox="0 0 73.78 21.96"><defs><style>.cls-1,.cls-3{fill:none;}.cls-1,.cls-3,.cls-4{stroke:#dfdd00;stroke-miterlimit:10;}.cls-1{stroke-width:4px;}.cls-2,.cls-4{fill:#dfdd00;}.cls-3,.cls-4{stroke-width:3px;}.cls-5,.cls-7{font-size:14px;font-family:SportyPro-Bold, Sporty Pro;font-weight:700;}.cls-5,.cls-7,.cls-8{fill:#fff;}.cls-5{letter-spacing:0.3em;}.cls-6{letter-spacing:0.3em;}.cls-8{font-size:5px;font-family:SportyPro-Black, Sporty Pro;font-weight:800;}</style></defs><g id="Logo"><line class="cls-1" x1="51.75" y1="11.83" x2="51.75" y2="15.16"/><line class="cls-1" x1="51.77" y1="11.79" x2="51.77" y2="15.12"/><line class="cls-1" x1="51.8" y1="11.75" x2="51.8" y2="15.08"/><line class="cls-1" x1="51.82" y1="11.71" x2="51.82" y2="15.04"/><line class="cls-1" x1="51.85" y1="11.67" x2="51.85" y2="15"/><line class="cls-1" x1="51.87" y1="11.63" x2="51.87" y2="14.96"/><line class="cls-1" x1="51.9" y1="11.59" x2="51.9" y2="14.92"/><line class="cls-1" x1="51.92" y1="11.55" x2="51.92" y2="14.88"/><line class="cls-1" x1="51.95" y1="11.51" x2="51.95" y2="14.84"/><line class="cls-1" x1="51.97" y1="11.47" x2="51.97" y2="14.8"/><line class="cls-1" x1="52" y1="11.43" x2="52" y2="14.76"/><line class="cls-1" x1="52.02" y1="11.39" x2="52.02" y2="14.72"/><line class="cls-1" x1="52.05" y1="11.35" x2="52.05" y2="14.68"/><line class="cls-1" x1="52.07" y1="11.31" x2="52.07" y2="14.64"/><line class="cls-1" x1="52.1" y1="11.27" x2="52.1" y2="14.6"/><line class="cls-1" x1="52.12" y1="11.23" x2="52.12" y2="14.56"/><line class="cls-1" x1="52.15" y1="11.19" x2="52.15" y2="14.52"/><line class="cls-1" x1="52.17" y1="11.15" x2="52.17" y2="14.48"/><line class="cls-1" x1="52.2" y1="11.11" x2="52.2" y2="14.44"/><line class="cls-1" x1="52.22" y1="11.07" x2="52.22" y2="14.4"/><line class="cls-1" x1="52.25" y1="11.03" x2="52.25" y2="14.36"/><line class="cls-1" x1="52.27" y1="10.99" x2="52.27" y2="14.32"/><line class="cls-1" x1="52.3" y1="10.95" x2="52.3" y2="14.28"/><line class="cls-1" x1="52.32" y1="10.91" x2="52.32" y2="14.24"/><line class="cls-1" x1="52.35" y1="10.87" x2="52.35" y2="14.2"/><line class="cls-1" x1="52.37" y1="10.83" x2="52.37" y2="14.16"/><line class="cls-1" x1="52.4" y1="10.79" x2="52.4" y2="14.12"/><line class="cls-1" x1="52.42" y1="10.75" x2="52.42" y2="14.08"/><line class="cls-1" x1="52.45" y1="10.71" x2="52.45" y2="14.04"/><line class="cls-1" x1="52.47" y1="10.67" x2="52.47" y2="14"/><line class="cls-1" x1="52.5" y1="10.63" x2="52.5" y2="13.96"/><line class="cls-1" x1="52.52" y1="10.59" x2="52.52" y2="13.92"/><line class="cls-1" x1="52.55" y1="10.55" x2="52.55" y2="13.88"/><line class="cls-1" x1="52.57" y1="10.51" x2="52.57" y2="13.84"/><line class="cls-1" x1="52.6" y1="10.47" x2="52.6" y2="13.8"/><line class="cls-1" x1="52.62" y1="10.43" x2="52.62" y2="13.76"/><line class="cls-1" x1="52.65" y1="10.39" x2="52.65" y2="13.72"/><line class="cls-1" x1="52.67" y1="10.35" x2="52.67" y2="13.68"/><line class="cls-1" x1="52.7" y1="10.31" x2="52.7" y2="13.64"/><line class="cls-1" x1="52.72" y1="10.27" x2="52.72" y2="13.6"/><line class="cls-1" x1="52.75" y1="10.23" x2="52.75" y2="13.56"/><line class="cls-1" x1="52.77" y1="10.19" x2="52.77" y2="13.52"/><line class="cls-1" x1="52.8" y1="10.15" x2="52.8" y2="13.48"/><line class="cls-1" x1="52.82" y1="10.11" x2="52.82" y2="13.44"/><line class="cls-1" x1="52.85" y1="10.07" x2="52.85" y2="13.4"/><line class="cls-1" x1="52.87" y1="10.03" x2="52.87" y2="13.36"/><line class="cls-1" x1="52.9" y1="9.99" x2="52.9" y2="13.32"/><line class="cls-1" x1="52.92" y1="9.95" x2="52.92" y2="13.28"/><line class="cls-1" x1="52.95" y1="9.91" x2="52.95" y2="13.24"/><line class="cls-1" x1="52.97" y1="9.87" x2="52.97" y2="13.2"/><line class="cls-1" x1="53" y1="9.83" x2="53" y2="13.16"/><line class="cls-1" x1="53" y1="9.83" x2="53" y2="13.16"/><path class="cls-1" d="M51.75,15.16a4.54,4.54,0,0,1-4.54,4.54"/><path class="cls-1" d="M51.77,15.12a4.54,4.54,0,0,1-4.54,4.54"/><path class="cls-1" d="M51.8,15.08a4.54,4.54,0,0,1-4.54,4.54"/><path class="cls-1" d="M51.82,15a4.54,4.54,0,0,1-4.54,4.54"/><path class="cls-1" d="M51.85,15a4.54,4.54,0,0,1-4.54,4.54"/><path class="cls-1" d="M51.87,15a4.54,4.54,0,0,1-4.54,4.54"/><path class="cls-1" d="M51.9,14.92a4.54,4.54,0,0,1-4.54,4.54"/><path class="cls-1" d="M51.92,14.88a4.54,4.54,0,0,1-4.54,4.54"/><path class="cls-1" d="M52,14.84a4.54,4.54,0,0,1-4.54,4.54"/><path class="cls-1" d="M52,14.8a4.54,4.54,0,0,1-4.54,4.54"/><path class="cls-1" d="M52,14.76a4.54,4.54,0,0,1-4.54,4.54"/><path class="cls-1" d="M52,14.72a4.54,4.54,0,0,1-4.54,4.54"/><path class="cls-1" d="M52.05,14.68a4.54,4.54,0,0,1-4.54,4.54"/><path class="cls-1" d="M52.07,14.64a4.54,4.54,0,0,1-4.54,4.54"/><path class="cls-1" d="M52.1,14.6a4.54,4.54,0,0,1-4.54,4.54"/><path class="cls-1" d="M52.12,14.56a4.54,4.54,0,0,1-4.54,4.54"/><path class="cls-1" d="M52.15,14.52a4.54,4.54,0,0,1-4.54,4.54"/><path class="cls-1" d="M52.17,14.48A4.54,4.54,0,0,1,47.63,19"/><path class="cls-1" d="M52.2,14.44A4.54,4.54,0,0,1,47.66,19"/><path class="cls-1" d="M52.22,14.4a4.54,4.54,0,0,1-4.54,4.54"/><path class="cls-1" d="M52.25,14.36a4.54,4.54,0,0,1-4.54,4.54"/><path class="cls-1" d="M52.27,14.32a4.54,4.54,0,0,1-4.54,4.54"/><path class="cls-1" d="M52.3,14.28a4.54,4.54,0,0,1-4.54,4.54"/><path class="cls-1" d="M52.32,14.24a4.54,4.54,0,0,1-4.54,4.54"/><path class="cls-1" d="M52.35,14.2a4.54,4.54,0,0,1-4.54,4.54"/><path class="cls-1" d="M52.37,14.16a4.54,4.54,0,0,1-4.54,4.54"/><path class="cls-1" d="M52.4,14.12a4.54,4.54,0,0,1-4.54,4.54"/><path class="cls-1" d="M52.42,14.08a4.54,4.54,0,0,1-4.54,4.54"/><path class="cls-1" d="M52.45,14a4.54,4.54,0,0,1-4.54,4.54"/><path class="cls-1" d="M52.47,14a4.54,4.54,0,0,1-4.54,4.54"/><path class="cls-1" d="M52.5,14A4.54,4.54,0,0,1,48,18.5"/><path class="cls-1" d="M52.52,13.92A4.54,4.54,0,0,1,48,18.46"/><path class="cls-1" d="M52.55,13.88A4.54,4.54,0,0,1,48,18.42"/><path class="cls-1" d="M52.57,13.84A4.54,4.54,0,0,1,48,18.38"/><path class="cls-1" d="M52.6,13.8a4.54,4.54,0,0,1-4.54,4.54"/><path class="cls-1" d="M52.62,13.76a4.54,4.54,0,0,1-4.54,4.54"/><path class="cls-1" d="M52.65,13.72a4.54,4.54,0,0,1-4.54,4.54"/><path class="cls-1" d="M52.67,13.68a4.54,4.54,0,0,1-4.54,4.54"/><path class="cls-1" d="M52.7,13.64a4.54,4.54,0,0,1-4.54,4.54"/><path class="cls-1" d="M52.72,13.6a4.54,4.54,0,0,1-4.54,4.54"/><path class="cls-1" d="M52.75,13.56a4.54,4.54,0,0,1-4.54,4.54"/><path class="cls-1" d="M52.77,13.52a4.54,4.54,0,0,1-4.54,4.54"/><path class="cls-1" d="M52.8,13.48A4.54,4.54,0,0,1,48.26,18"/><path class="cls-1" d="M52.82,13.44A4.54,4.54,0,0,1,48.28,18"/><path class="cls-1" d="M52.85,13.4a4.54,4.54,0,0,1-4.54,4.54"/><path class="cls-1" d="M52.87,13.36a4.54,4.54,0,0,1-4.54,4.54"/><path class="cls-1" d="M52.9,13.32a4.54,4.54,0,0,1-4.54,4.54"/><path class="cls-1" d="M52.92,13.28a4.54,4.54,0,0,1-4.54,4.54"/><path class="cls-1" d="M53,13.24a4.54,4.54,0,0,1-4.54,4.54"/><path class="cls-1" d="M53,13.2a4.54,4.54,0,0,1-4.54,4.54"/><path class="cls-1" d="M53,13.16a4.54,4.54,0,0,1-4.54,4.54"/><path class="cls-1" d="M53,13.16a4.54,4.54,0,0,1-4.54,4.54"/><line class="cls-1" x1="0.49" y1="19.7" x2="47.32" y2="19.7"/><line class="cls-1" x1="0.52" y1="19.66" x2="47.35" y2="19.66"/><line class="cls-1" x1="0.54" y1="19.62" x2="47.37" y2="19.62"/><line class="cls-1" x1="0.57" y1="19.58" x2="47.4" y2="19.58"/><line class="cls-1" x1="0.59" y1="19.54" x2="47.42" y2="19.54"/><line class="cls-1" x1="0.62" y1="19.5" x2="47.45" y2="19.5"/><line class="cls-1" x1="0.64" y1="19.46" x2="47.47" y2="19.46"/><line class="cls-1" x1="0.67" y1="19.42" x2="47.5" y2="19.42"/><line class="cls-1" x1="0.69" y1="19.38" x2="47.52" y2="19.38"/><line class="cls-1" x1="0.72" y1="19.34" x2="47.55" y2="19.34"/><line class="cls-1" x1="0.74" y1="19.3" x2="47.57" y2="19.3"/><line class="cls-1" x1="0.77" y1="19.26" x2="47.6" y2="19.26"/><line class="cls-1" x1="0.79" y1="19.22" x2="47.62" y2="19.22"/><line class="cls-1" x1="0.82" y1="19.18" x2="47.65" y2="19.18"/><line class="cls-1" x1="0.84" y1="19.14" x2="47.67" y2="19.14"/><line class="cls-1" x1="0.87" y1="19.1" x2="47.7" y2="19.1"/><line class="cls-1" x1="0.89" y1="19.06" x2="47.72" y2="19.06"/><line class="cls-1" x1="0.92" y1="19.02" x2="47.75" y2="19.02"/><line class="cls-1" x1="0.94" y1="18.98" x2="47.77" y2="18.98"/><line class="cls-1" x1="0.97" y1="18.94" x2="47.8" y2="18.94"/><line class="cls-1" x1="0.99" y1="18.9" x2="47.82" y2="18.9"/><line class="cls-1" x1="1.02" y1="18.86" x2="47.85" y2="18.86"/><line class="cls-1" x1="1.04" y1="18.82" x2="47.87" y2="18.82"/><line class="cls-1" x1="1.07" y1="18.78" x2="47.9" y2="18.78"/><line class="cls-1" x1="1.09" y1="18.74" x2="47.92" y2="18.74"/><line class="cls-1" x1="1.12" y1="18.7" x2="47.95" y2="18.7"/><line class="cls-1" x1="1.14" y1="18.66" x2="47.97" y2="18.66"/><line class="cls-1" x1="1.17" y1="18.62" x2="48" y2="18.62"/><line class="cls-1" x1="1.19" y1="18.58" x2="48.02" y2="18.58"/><line class="cls-1" x1="1.22" y1="18.54" x2="48.05" y2="18.54"/><line class="cls-1" x1="1.24" y1="18.5" x2="48.07" y2="18.5"/><line class="cls-1" x1="1.27" y1="18.46" x2="48.1" y2="18.46"/><line class="cls-1" x1="1.29" y1="18.42" x2="48.12" y2="18.42"/><line class="cls-1" x1="1.32" y1="18.38" x2="48.15" y2="18.38"/><line class="cls-1" x1="1.34" y1="18.34" x2="48.17" y2="18.34"/><line class="cls-1" x1="1.37" y1="18.3" x2="48.2" y2="18.3"/><line class="cls-1" x1="1.39" y1="18.26" x2="48.22" y2="18.26"/><line class="cls-1" x1="1.42" y1="18.22" x2="48.25" y2="18.22"/><line class="cls-1" x1="1.44" y1="18.18" x2="48.27" y2="18.18"/><line class="cls-1" x1="1.47" y1="18.14" x2="48.3" y2="18.14"/><line class="cls-1" x1="1.49" y1="18.1" x2="48.32" y2="18.1"/><line class="cls-1" x1="1.52" y1="18.06" x2="48.35" y2="18.06"/><line class="cls-1" x1="1.54" y1="18.02" x2="48.37" y2="18.02"/><line class="cls-1" x1="1.57" y1="17.98" x2="48.4" y2="17.98"/><line class="cls-1" x1="1.59" y1="17.94" x2="48.42" y2="17.94"/><line class="cls-1" x1="1.62" y1="17.9" x2="48.45" y2="17.9"/><line class="cls-1" x1="1.64" y1="17.86" x2="48.47" y2="17.86"/><line class="cls-1" x1="1.67" y1="17.82" x2="48.5" y2="17.82"/><line class="cls-1" x1="1.69" y1="17.78" x2="48.52" y2="17.78"/><line class="cls-1" x1="1.72" y1="17.74" x2="48.55" y2="17.74"/><line class="cls-1" x1="1.74" y1="17.7" x2="48.57" y2="17.7"/><line class="cls-1" x1="1.74" y1="17.7" x2="48.57" y2="17.7"/><polygon class="cls-2" points="51.11 1.77 53.89 7.09 56.67 12.41 51.11 12.41 45.56 12.41 48.33 7.09 51.11 1.77"/><polygon class="cls-2" points="51.15 1.75 53.93 7.07 56.71 12.39 51.15 12.39 45.6 12.39 48.37 7.07 51.15 1.75"/><polygon class="cls-2" points="51.19 1.72 53.97 7.04 56.75 12.36 51.19 12.36 45.64 12.36 48.41 7.04 51.19 1.72"/><polygon class="cls-2" points="51.23 1.7 54.01 7.02 56.79 12.34 51.23 12.34 45.68 12.34 48.45 7.02 51.23 1.7"/><polygon class="cls-2" points="51.27 1.67 54.05 6.99 56.83 12.31 51.27 12.31 45.72 12.31 48.49 6.99 51.27 1.67"/><polygon class="cls-2" points="51.31 1.65 54.09 6.97 56.87 12.29 51.31 12.29 45.76 12.29 48.53 6.97 51.31 1.65"/><polygon class="cls-2" points="51.35 1.62 54.13 6.94 56.91 12.26 51.35 12.26 45.8 12.26 48.57 6.94 51.35 1.62"/><polygon class="cls-2" points="51.39 1.59 54.17 6.92 56.95 12.24 51.39 12.24 45.84 12.24 48.61 6.92 51.39 1.59"/><polygon class="cls-2" points="51.43 1.57 54.21 6.89 56.99 12.21 51.43 12.21 45.88 12.21 48.65 6.89 51.43 1.57"/><polygon class="cls-2" points="51.47 1.54 54.25 6.87 57.03 12.19 51.47 12.19 45.92 12.19 48.69 6.87 51.47 1.54"/><polygon class="cls-2" points="51.51 1.52 54.29 6.84 57.07 12.16 51.51 12.16 45.96 12.16 48.73 6.84 51.51 1.52"/><polygon class="cls-2" points="51.55 1.5 54.33 6.82 57.11 12.14 51.55 12.14 46 12.14 48.77 6.82 51.55 1.5"/><polygon class="cls-2" points="51.59 1.47 54.37 6.79 57.15 12.11 51.59 12.11 46.04 12.11 48.81 6.79 51.59 1.47"/><polygon class="cls-2" points="51.63 1.45 54.41 6.77 57.19 12.09 51.63 12.09 46.08 12.09 48.85 6.77 51.63 1.45"/><polygon class="cls-2" points="51.67 1.42 54.45 6.74 57.23 12.06 51.67 12.06 46.12 12.06 48.89 6.74 51.67 1.42"/><polygon class="cls-2" points="51.71 1.4 54.49 6.72 57.27 12.04 51.71 12.04 46.16 12.04 48.93 6.72 51.71 1.4"/><polygon class="cls-2" points="51.75 1.37 54.53 6.69 57.31 12.01 51.75 12.01 46.2 12.01 48.97 6.69 51.75 1.37"/><polygon class="cls-2" points="51.79 1.34 54.57 6.67 57.35 11.99 51.79 11.99 46.24 11.99 49.01 6.67 51.79 1.34"/><polygon class="cls-2" points="51.83 1.32 54.61 6.64 57.39 11.96 51.83 11.96 46.28 11.96 49.05 6.64 51.83 1.32"/><polygon class="cls-2" points="51.87 1.29 54.65 6.62 57.43 11.94 51.87 11.94 46.32 11.94 49.09 6.62 51.87 1.29"/><polygon class="cls-2" points="51.91 1.27 54.69 6.59 57.47 11.91 51.91 11.91 46.36 11.91 49.13 6.59 51.91 1.27"/><polygon class="cls-2" points="51.95 1.25 54.73 6.57 57.51 11.89 51.95 11.89 46.4 11.89 49.17 6.57 51.95 1.25"/><polygon class="cls-2" points="51.99 1.22 54.77 6.54 57.55 11.86 51.99 11.86 46.44 11.86 49.21 6.54 51.99 1.22"/><polygon class="cls-2" points="52.03 1.2 54.81 6.52 57.59 11.84 52.03 11.84 46.48 11.84 49.25 6.52 52.03 1.2"/><polygon class="cls-2" points="52.07 1.17 54.85 6.49 57.63 11.81 52.07 11.81 46.52 11.81 49.29 6.49 52.07 1.17"/><polygon class="cls-2" points="52.11 1.15 54.89 6.47 57.67 11.79 52.11 11.79 46.56 11.79 49.33 6.47 52.11 1.15"/><polygon class="cls-2" points="52.15 1.12 54.93 6.44 57.71 11.76 52.15 11.76 46.6 11.76 49.37 6.44 52.15 1.12"/><polygon class="cls-2" points="52.19 1.09 54.97 6.42 57.75 11.74 52.19 11.74 46.64 11.74 49.41 6.42 52.19 1.09"/><polygon class="cls-2" points="52.23 1.07 55.01 6.39 57.79 11.71 52.23 11.71 46.68 11.71 49.45 6.39 52.23 1.07"/><polygon class="cls-2" points="52.27 1.04 55.05 6.37 57.83 11.69 52.27 11.69 46.72 11.69 49.49 6.37 52.27 1.04"/><polygon class="cls-2" points="52.31 1.02 55.09 6.34 57.87 11.66 52.31 11.66 46.76 11.66 49.53 6.34 52.31 1.02"/><polygon class="cls-2" points="52.35 0.99 55.13 6.32 57.91 11.64 52.35 11.64 46.8 11.64 49.57 6.32 52.35 0.99"/><polygon class="cls-2" points="52.39 0.97 55.17 6.29 57.95 11.61 52.39 11.61 46.84 11.61 49.61 6.29 52.39 0.97"/><polygon class="cls-2" points="52.43 0.94 55.21 6.27 57.99 11.59 52.43 11.59 46.88 11.59 49.65 6.27 52.43 0.94"/><polygon class="cls-2" points="52.47 0.92 55.25 6.24 58.03 11.56 52.47 11.56 46.92 11.56 49.69 6.24 52.47 0.92"/><polygon class="cls-2" points="52.51 0.9 55.29 6.22 58.07 11.54 52.51 11.54 46.96 11.54 49.73 6.22 52.51 0.9"/><polygon class="cls-2" points="52.55 0.87 55.33 6.19 58.11 11.51 52.55 11.51 47 11.51 49.77 6.19 52.55 0.87"/><polygon class="cls-2" points="52.59 0.84 55.37 6.17 58.15 11.49 52.59 11.49 47.04 11.49 49.81 6.17 52.59 0.84"/><polygon class="cls-2" points="52.63 0.82 55.41 6.14 58.19 11.46 52.63 11.46 47.08 11.46 49.85 6.14 52.63 0.82"/><polygon class="cls-2" points="52.67 0.8 55.45 6.12 58.23 11.44 52.67 11.44 47.12 11.44 49.89 6.12 52.67 0.8"/><polygon class="cls-2" points="52.71 0.77 55.49 6.09 58.27 11.41 52.71 11.41 47.16 11.41 49.93 6.09 52.71 0.77"/><polygon class="cls-2" points="52.75 0.74 55.53 6.07 58.31 11.39 52.75 11.39 47.2 11.39 49.97 6.07 52.75 0.74"/><polygon class="cls-2" points="52.79 0.72 55.57 6.04 58.35 11.36 52.79 11.36 47.24 11.36 50.01 6.04 52.79 0.72"/><polygon class="cls-2" points="52.83 0.69 55.61 6.02 58.39 11.34 52.83 11.34 47.28 11.34 50.05 6.02 52.83 0.69"/><polygon class="cls-2" points="52.87 0.67 55.65 5.99 58.43 11.31 52.87 11.31 47.32 11.31 50.09 5.99 52.87 0.67"/><polygon class="cls-2" points="52.91 0.65 55.69 5.97 58.47 11.29 52.91 11.29 47.36 11.29 50.13 5.97 52.91 0.65"/><polygon class="cls-2" points="52.95 0.62 55.73 5.94 58.51 11.26 52.95 11.26 47.4 11.26 50.17 5.94 52.95 0.62"/><polygon class="cls-2" points="52.99 0.59 55.77 5.92 58.55 11.24 52.99 11.24 47.44 11.24 50.21 5.92 52.99 0.59"/><polygon class="cls-2" points="53.03 0.57 55.81 5.89 58.59 11.21 53.03 11.21 47.48 11.21 50.25 5.89 53.03 0.57"/><polygon class="cls-2" points="53.07 0.55 55.85 5.87 58.63 11.19 53.07 11.19 47.52 11.19 50.29 5.87 53.07 0.55"/><polygon class="cls-2" points="53.11 0.52 55.89 5.84 58.67 11.16 53.11 11.16 47.56 11.16 50.33 5.84 53.11 0.52"/><polygon class="cls-2" points="47.97 10.91 53.11 1.06 58.26 10.91 47.97 10.91"/><path class="cls-2" d="M53.11,1.6l2.34,4.47,2.39,4.59H48.38l2.4-4.59L53.11,1.6m0-1.08L50.33,5.84l-2.77,5.32H58.67L55.89,5.84,53.11.52Z"/><line class="cls-3" x1="53.11" y1="9.83" x2="53.11" y2="13.16"/><path class="cls-3" d="M53.11,13.16a4.54,4.54,0,0,1-4.54,4.54"/><line class="cls-4" x1="1.9" y1="17.7" x2="48.57" y2="17.7"/><text class="cls-5" transform="translate(0.38 10.63)">S<tspan class="cls-6" x="15.26" y="0">QU</tspan></text><text class="cls-7" transform="translate(62.94 10.24)">D</text><text class="cls-8" transform="translate(58.44 18.78)">UP</text></g></svg>