<svg xmlns="http://www.w3.org/2000/svg" viewBox="0 0 1247 854"><defs><style>.cls-1{fill:#eaff00;}.cls-2{fill:#fd6326;}.cls-3{font-size:35px;}.cls-10,.cls-3,.cls-4{font-family:Comfortaa-Regular, Comfortaa;}.cls-4{font-size:25px;}.cls-5{letter-spacing:-0.04em;}.cls-6{letter-spacing:-0.03em;}.cls-7{letter-spacing:0em;}.cls-8{letter-spacing:-0.03em;}.cls-9{letter-spacing:0em;}.cls-10{font-size:22px;}.cls-11{letter-spacing:-0.04em;}.cls-12{letter-spacing:0em;}.cls-13{letter-spacing:-0.11em;}.cls-14{letter-spacing:-0.04em;}.cls-15{letter-spacing:-0.02em;}.cls-16{letter-spacing:-0.03em;}.cls-17{letter-spacing:0em;}.cls-18{letter-spacing:-0.04em;}.cls-19{font-family:Comfortaa-Bold, Comfortaa;font-weight:700;}.cls-20{letter-spacing:-0.02em;}.cls-21{letter-spacing:-0.03em;}.cls-22{letter-spacing:0em;}.cls-23{letter-spacing:-0.02em;}.cls-24{letter-spacing:-0.11em;}</style></defs><g id="Ebene_3" data-name="Ebene 3"><polygon points="647.38 592.08 647.38 100 603.91 100 603.91 592.07 533 592.05 624.49 733 716 592 647.38 592.08"/><polygon points="1097.35 591.74 1096.35 263 1052.89 263 1053.89 591.73 982.98 591.72 1074.47 732.57 1165.97 591.66 1097.35 591.74"/><polygon points="195.35 592.03 194.35 263.29 150.89 263.29 151.89 592.02 80.97 592 172.47 732.85 263.98 591.95 195.35 592.03"/><rect x="265.33" y="20.52" width="43" height="280.11" transform="translate(239.44 -164.71) rotate(52.47)"/><rect x="945.98" y="27.01" width="43" height="280.11" transform="translate(1689.32 -498.41) rotate(127.53)"/></g><g id="Ebene_1" data-name="Ebene 1"><rect class="cls-1" x="375" y="1.5" width="498" height="98"/><path d="M872,2.5v96H376V2.5H872m2-2H374v100H874V.5Z"/><rect class="cls-2" x="452.07" y="227" width="342.86" height="75"/><path d="M793.93,228v73H453.07V228H793.93m2-2H451.07v77H795.93V226Z"/><rect class="cls-2" x="903.14" y="227" width="342.86" height="75"/><path d="M1245,228v73H904.14V228H1245m2-2H902.14v77H1247V226Z"/><rect class="cls-2" x="1" y="227" width="342.86" height="75"/><path d="M342.86,228v73H2V228H342.86m2-2H0v77H344.86V226Z"/><rect class="cls-1" x="1" y="390" width="788.41" height="75"/><path d="M788.41,391v73H2V391H788.41m2-2H0v77H790.41V389Z"/><rect class="cls-1" x="901.76" y="385" width="344.24" height="147"/><path d="M1245,386V531H902.76V386H1245m2-2H900.76V533H1247V384Z"/><rect class="cls-1" x="1" y="505" width="788.41" height="75"/><path d="M788.41,506v73H2V506H788.41m2-2H0v77H790.41V504Z"/><rect class="cls-1" x="1" y="619" width="342.86" height="75"/><path d="M342.86,620v73H2V620H342.86m2-2H0v77H344.86V618Z"/><rect class="cls-1" x="452.07" y="617" width="342.86" height="75"/><path d="M793.93,618v73H453.07V618H793.93m2-2H451.07v77H795.93V616Z"/><rect class="cls-1" x="902.45" y="619.5" width="343.55" height="75"/><path d="M1245,620.5v73H903.45v-73H1245m2-2H901.45v77H1247v-77Z"/><rect class="cls-1" x="1" y="734" width="1245" height="119"/><path d="M1245,735V852H2V735H1245m2-2H0V854H1247V733Z"/><text class="cls-3" transform="translate(498.01 64.72)">Sport hilft bei...</text><text class="cls-4" transform="translate(125.85 274.24)">St<tspan class="cls-5" x="26.6" y="0">r</tspan><tspan x="37.05" y="0">ess</tspan></text><text class="cls-4" transform="translate(547.28 274.24)">Dep<tspan class="cls-5" x="52.27" y="0">r</tspan><tspan x="62.72" y="0">ession</tspan></text><text class="cls-4" transform="translate(961.38 274.71)">Sch<tspan class="cls-6" x="48.35" y="0">l</tspan><tspan class="cls-7" x="54.65" y="0">afp</tspan><tspan class="cls-5" x="98.4" y="0">r</tspan><tspan class="cls-7" x="108.85" y="0">ob</tspan><tspan class="cls-8" x="143.45" y="0">l</tspan><tspan class="cls-9" x="149.75" y="0">emen</tspan></text><text class="cls-10" transform="translate(111.63 437.24)">F<tspan class="cls-11" x="13.75" y="0">r</tspan><tspan class="cls-12" x="22.95" y="0">eisetzung der Endorphine (Glückshormome)</tspan></text><text class="cls-10" transform="translate(221.26 550.57)">Steigerung des <tspan class="cls-13" x="180.24" y="0">W</tspan><tspan class="cls-12" x="198.46" y="0">ohlbefindens</tspan></text><text class="cls-10" transform="translate(53.12 663.63)">Fö<tspan class="cls-14" x="28.64" y="0">r</tspan><tspan x="37.84" y="0">dert St</tspan><tspan class="cls-11" x="115.67" y="0">r</tspan><tspan x="124.87" y="0">essabbau</tspan></text><text class="cls-10" transform="translate(498.68 649.1)">R<tspan class="cls-15" x="13.6" y="0">e</tspan><tspan x="26.66" y="0">duziert Symptome</tspan><tspan x="21.97" y="26.4">um mehr als 20%</tspan></text><text class="cls-10" transform="translate(939.98 437.24)">Schnel<tspan class="cls-16" x="77.15" y="0">l</tspan><tspan class="cls-17" x="82.7" y="0">e</tspan><tspan class="cls-18" x="96.21" y="0">r</tspan><tspan x="105.4" y="0">es Einsch</tspan><tspan class="cls-16" x="213.53" y="0">l</tspan><tspan x="219.07" y="0">a</tspan><tspan class="cls-15" x="233.97" y="0">f</tspan><tspan x="241.58" y="0">en</tspan><tspan x="71.2" y="26.4">unterstützt</tspan><tspan x="18.9" y="52.8">die </tspan><tspan class="cls-19" x="60.76" y="52.8">Erholungsphase</tspan></text><text class="cls-10" transform="translate(1013.72 651.62)"><tspan class="cls-13">V</tspan><tspan x="13.33" y="0">erbessert</tspan><tspan x="-19.7" y="26.4">Sch</tspan><tspan class="cls-16" x="22.85" y="26.4">l</tspan><tspan x="28.39" y="26.4">afqualität</tspan></text><text class="cls-4" transform="translate(333.29 786.81)">Hilft nicht nur bei ps<tspan class="cls-20" x="266.57" y="0">y</tspan><tspan x="279.77" y="0">chischen </tspan><tspan class="cls-8" x="403.67" y="0">K</tspan><tspan class="cls-5" x="419.29" y="0">r</tspan><tspan x="429.74" y="0">ankheiten,</tspan><tspan x="-102.56" y="30">sondern auch beim al</tspan><tspan class="cls-21" x="181.68" y="30">l</tspan><tspan class="cls-22" x="187.98" y="30">gemeinen ps</tspan><tspan class="cls-23" x="354.18" y="30">y</tspan><tspan x="367.38" y="30">chischen </tspan><tspan class="cls-24" x="491.28" y="30">W</tspan><tspan x="511.98" y="30">ohlbefinden</tspan></text></g></svg>