<svg xmlns="http://www.w3.org/2000/svg" xmlns:xlink="http://www.w3.org/1999/xlink" viewBox="0 0 500 500"><defs><style>.cls-1{fill:#fff;}.cls-1,.cls-12,.cls-16,.cls-2,.cls-3,.cls-5,.cls-6{stroke:#000;stroke-miterlimit:10;}.cls-1,.cls-5{stroke-width:3px;}.cls-12,.cls-16,.cls-2,.cls-6{stroke-width:2px;}.cls-3,.cls-5{fill:#eaff00;}.cls-3{stroke-width:0.75px;}.cls-4{fill:url(#Unbenannter_Verlauf_5);}.cls-6{fill:#5d3c81;}.cls-7{fill:#1d1d1b;}.cls-16,.cls-8{fill:#336bff;}.cls-9{fill:url(#Unbenannter_Verlauf_5-2);}.cls-10{fill:url(#Unbenannter_Verlauf_5-3);}.cls-11{fill:url(#Unbenannter_Verlauf_5-4);}.cls-12{fill:#fd6326;}.cls-13{fill:url(#Unbenannter_Verlauf_5-5);}.cls-14{fill:url(#Unbenannter_Verlauf_5-6);}.cls-15{fill:url(#Unbenannter_Verlauf_5-7);}.cls-17{fill:url(#Unbenannter_Verlauf_5-8);}.cls-18{fill:url(#Unbenannter_Verlauf_5-9);}.cls-19{fill:url(#Unbenannter_Verlauf_5-10);}</style><linearGradient id="Unbenannter_Verlauf_5" x1="108.97" y1="71.41" x2="313.31" y2="71.41" gradientUnits="userSpaceOnUse"><stop offset="0" stop-color="#4d4d4d"/><stop offset="1" stop-color="#666"/></linearGradient><linearGradient id="Unbenannter_Verlauf_5-2" x1="55.87" y1="247.26" x2="153.85" y2="247.26" xlink:href="#Unbenannter_Verlauf_5"/><linearGradient id="Unbenannter_Verlauf_5-3" x1="55.87" y1="266.19" x2="138.26" y2="266.19" xlink:href="#Unbenannter_Verlauf_5"/><linearGradient id="Unbenannter_Verlauf_5-4" x1="55.87" y1="285.11" x2="161.64" y2="285.11" xlink:href="#Unbenannter_Verlauf_5"/><linearGradient id="Unbenannter_Verlauf_5-5" x1="245.39" y1="247.71" x2="343.37" y2="247.71" xlink:href="#Unbenannter_Verlauf_5"/><linearGradient id="Unbenannter_Verlauf_5-6" x1="245.39" y1="266.63" x2="327.78" y2="266.63" xlink:href="#Unbenannter_Verlauf_5"/><linearGradient id="Unbenannter_Verlauf_5-7" x1="245.39" y1="285.56" x2="351.16" y2="285.56" xlink:href="#Unbenannter_Verlauf_5"/><linearGradient id="Unbenannter_Verlauf_5-8" x1="438.72" y1="247.67" x2="536.7" y2="247.67" xlink:href="#Unbenannter_Verlauf_5"/><linearGradient id="Unbenannter_Verlauf_5-9" x1="438.72" y1="266.6" x2="521.11" y2="266.6" xlink:href="#Unbenannter_Verlauf_5"/><linearGradient id="Unbenannter_Verlauf_5-10" x1="438.72" y1="285.52" x2="544.49" y2="285.52" xlink:href="#Unbenannter_Verlauf_5"/></defs><g id="Ebene_2" data-name="Ebene 2"><rect class="cls-1" x="38.29" y="38" width="426.68" height="66.83"/><path class="cls-2" d="M89,85.8,78.11,75a13.48,13.48,0,1,0-3.76,3.52l11,11Z"/><circle class="cls-3" cx="67.2" cy="66.92" r="11.57"/><rect class="cls-4" x="108.97" y="58.56" width="204.34" height="25.7"/><rect class="cls-5" x="38.57" y="141.7" width="156.93" height="167.7"/><circle class="cls-6" cx="82.48" cy="185.68" r="25.61"/><polygon class="cls-7" points="161.22 158 172.28 158 175.71 147.27 179.15 158 190.21 158 181.27 164.56 184.66 175.06 175.69 168.65 166.78 175.06 170.17 164.61 161.22 158"/><polygon class="cls-7" points="161.19 158.02 172.25 158.02 175.69 147.29 179.13 158.02 190.19 158.02 181.24 164.58 184.64 175.09 175.67 168.67 166.76 175.09 170.15 164.63 161.19 158.02"/><polygon class="cls-7" points="161.16 158.04 172.23 158.04 175.66 147.31 179.1 158.04 190.16 158.04 181.22 164.6 184.62 175.1 175.64 168.69 166.73 175.1 170.12 164.65 161.16 158.04"/><polygon class="cls-7" points="161.14 158.06 172.2 158.06 175.64 147.33 179.07 158.06 190.14 158.06 181.19 164.62 184.59 175.13 175.62 168.71 166.71 175.13 170.09 164.67 161.14 158.06"/><polygon class="cls-7" points="161.12 158.08 172.18 158.08 175.61 147.35 179.05 158.08 190.11 158.08 181.17 164.64 184.56 175.15 175.59 168.73 166.68 175.15 170.07 164.69 161.12 158.08"/><polygon class="cls-7" points="161.09 158.1 172.15 158.1 175.59 147.37 179.03 158.1 190.09 158.1 181.14 164.66 184.54 175.16 175.57 168.75 166.66 175.16 170.04 164.71 161.09 158.1"/><polygon class="cls-7" points="161.06 158.12 172.13 158.12 175.56 147.39 179 158.12 190.06 158.12 181.12 164.68 184.51 175.19 175.54 168.77 166.63 175.19 170.02 164.73 161.06 158.12"/><polygon class="cls-7" points="161.04 158.14 172.1 158.14 175.54 147.41 178.97 158.14 190.04 158.14 181.09 164.7 184.49 175.21 175.52 168.79 166.61 175.21 170 164.75 161.04 158.14"/><polygon class="cls-7" points="161.01 158.16 172.08 158.16 175.51 147.43 178.95 158.16 190.01 158.16 181.07 164.72 184.47 175.22 175.49 168.81 166.58 175.22 169.97 164.77 161.01 158.16"/><polygon class="cls-7" points="160.99 158.18 172.05 158.18 175.49 147.45 178.93 158.18 189.99 158.18 181.04 164.74 184.44 175.25 175.47 168.83 166.56 175.25 169.94 164.79 160.99 158.18"/><polygon class="cls-7" points="160.97 158.2 172.03 158.2 175.46 147.47 178.9 158.2 189.96 158.2 181.02 164.76 184.41 175.26 175.44 168.85 166.53 175.26 169.92 164.81 160.97 158.2"/><polygon class="cls-7" points="160.94 158.22 172 158.22 175.44 147.49 178.88 158.22 189.94 158.22 180.99 164.78 184.39 175.28 175.42 168.87 166.51 175.28 169.9 164.83 160.94 158.22"/><polygon class="cls-7" points="160.91 158.24 171.98 158.24 175.41 147.51 178.85 158.24 189.91 158.24 180.97 164.8 184.37 175.31 175.39 168.89 166.48 175.31 169.87 164.85 160.91 158.24"/><polygon class="cls-7" points="160.89 158.26 171.95 158.26 175.39 147.53 178.82 158.26 189.89 158.26 180.94 164.82 184.34 175.32 175.37 168.91 166.46 175.32 169.84 164.87 160.89 158.26"/><polygon class="cls-7" points="160.87 158.28 171.93 158.28 175.36 147.55 178.8 158.28 189.86 158.28 180.92 164.84 184.31 175.34 175.34 168.93 166.43 175.34 169.82 164.89 160.87 158.28"/><polygon class="cls-7" points="160.84 158.3 171.9 158.3 175.34 147.57 178.78 158.3 189.84 158.3 180.89 164.86 184.29 175.37 175.32 168.95 166.41 175.37 169.79 164.91 160.84 158.3"/><polygon class="cls-7" points="160.81 158.32 171.88 158.32 175.31 147.59 178.75 158.32 189.81 158.32 180.87 164.88 184.26 175.38 175.29 168.97 166.38 175.38 169.77 164.93 160.81 158.32"/><polygon class="cls-7" points="160.79 158.34 171.85 158.34 175.29 147.61 178.72 158.34 189.79 158.34 180.84 164.9 184.24 175.41 175.27 168.99 166.36 175.41 169.75 164.95 160.79 158.34"/><polygon class="cls-7" points="160.76 158.36 171.83 158.36 175.26 147.63 178.7 158.36 189.76 158.36 180.82 164.92 184.22 175.43 175.24 169.01 166.33 175.43 169.72 164.97 160.76 158.36"/><polygon class="cls-7" points="160.74 158.38 171.8 158.38 175.24 147.65 178.68 158.38 189.74 158.38 180.79 164.94 184.19 175.44 175.22 169.03 166.31 175.44 169.69 164.99 160.74 158.38"/><polygon class="cls-7" points="160.72 158.4 171.78 158.4 175.21 147.67 178.65 158.4 189.71 158.4 180.77 164.96 184.16 175.47 175.19 169.05 166.28 175.47 169.67 165.01 160.72 158.4"/><polygon class="cls-7" points="160.69 158.42 171.75 158.42 175.19 147.69 178.63 158.42 189.69 158.42 180.74 164.98 184.14 175.49 175.17 169.07 166.26 175.49 169.65 165.03 160.69 158.42"/><polygon class="cls-7" points="160.66 158.44 171.73 158.44 175.16 147.71 178.6 158.44 189.66 158.44 180.72 165 184.12 175.5 175.14 169.09 166.23 175.5 169.62 165.05 160.66 158.44"/><polygon class="cls-7" points="160.64 158.46 171.7 158.46 175.14 147.73 178.57 158.46 189.64 158.46 180.69 165.02 184.09 175.53 175.12 169.11 166.21 175.53 169.59 165.07 160.64 158.46"/><polygon class="cls-7" points="160.62 158.48 171.68 158.48 175.11 147.75 178.55 158.48 189.61 158.48 180.67 165.04 184.06 175.54 175.09 169.13 166.18 175.54 169.57 165.09 160.62 158.48"/><polygon class="cls-7" points="160.59 158.5 171.65 158.5 175.09 147.77 178.53 158.5 189.59 158.5 180.64 165.06 184.04 175.56 175.07 169.15 166.16 175.56 169.54 165.11 160.59 158.5"/><polygon class="cls-7" points="160.56 158.52 171.63 158.52 175.06 147.79 178.5 158.52 189.56 158.52 180.62 165.08 184.01 175.59 175.04 169.17 166.13 175.59 169.52 165.13 160.56 158.52"/><polygon class="cls-7" points="160.54 158.54 171.6 158.54 175.04 147.81 178.47 158.54 189.54 158.54 180.59 165.1 183.99 175.6 175.02 169.19 166.11 175.6 169.5 165.15 160.54 158.54"/><polygon class="cls-7" points="160.51 158.56 171.58 158.56 175.01 147.83 178.45 158.56 189.51 158.56 180.57 165.12 183.97 175.63 174.99 169.21 166.08 175.63 169.47 165.17 160.51 158.56"/><polygon class="cls-7" points="160.49 158.58 171.55 158.58 174.99 147.85 178.43 158.58 189.49 158.58 180.54 165.14 183.94 175.65 174.97 169.23 166.06 175.65 169.44 165.19 160.49 158.58"/><polygon class="cls-7" points="160.47 158.6 171.53 158.6 174.96 147.87 178.4 158.6 189.46 158.6 180.52 165.16 183.91 175.66 174.94 169.25 166.03 175.66 169.42 165.21 160.47 158.6"/><polygon class="cls-7" points="160.44 158.62 171.5 158.62 174.94 147.89 178.38 158.62 189.44 158.62 180.49 165.18 183.89 175.69 174.92 169.27 166.01 175.69 169.4 165.23 160.44 158.62"/><polygon class="cls-7" points="160.41 158.64 171.48 158.64 174.91 147.91 178.35 158.64 189.41 158.64 180.47 165.2 183.87 175.71 174.89 169.29 165.98 175.71 169.37 165.25 160.41 158.64"/><polygon class="cls-7" points="160.39 158.66 171.45 158.66 174.89 147.93 178.32 158.66 189.39 158.66 180.44 165.22 183.84 175.72 174.87 169.31 165.96 175.72 169.34 165.27 160.39 158.66"/><polygon class="cls-7" points="160.37 158.68 171.43 158.68 174.86 147.95 178.3 158.68 189.36 158.68 180.42 165.24 183.81 175.75 174.84 169.33 165.93 175.75 169.32 165.29 160.37 158.68"/><polygon class="cls-7" points="160.34 158.7 171.4 158.7 174.84 147.97 178.28 158.7 189.34 158.7 180.39 165.26 183.79 175.76 174.82 169.35 165.91 175.76 169.29 165.31 160.34 158.7"/><polygon class="cls-7" points="160.31 158.72 171.38 158.72 174.81 147.99 178.25 158.72 189.31 158.72 180.37 165.28 183.76 175.78 174.79 169.37 165.88 175.78 169.27 165.33 160.31 158.72"/><polygon class="cls-7" points="160.29 158.74 171.35 158.74 174.79 148.01 178.22 158.74 189.29 158.74 180.34 165.3 183.74 175.81 174.77 169.39 165.86 175.81 169.25 165.35 160.29 158.74"/><polygon class="cls-7" points="160.26 158.76 171.33 158.76 174.76 148.03 178.2 158.76 189.26 158.76 180.32 165.32 183.72 175.82 174.74 169.41 165.83 175.82 169.22 165.37 160.26 158.76"/><polygon class="cls-7" points="160.24 158.78 171.3 158.78 174.74 148.05 178.18 158.78 189.24 158.78 180.29 165.34 183.69 175.84 174.72 169.43 165.81 175.84 169.19 165.39 160.24 158.78"/><polygon class="cls-7" points="160.22 158.8 171.28 158.8 174.71 148.07 178.15 158.8 189.21 158.8 180.27 165.36 183.66 175.87 174.69 169.45 165.78 175.87 169.17 165.41 160.22 158.8"/><polygon class="cls-7" points="160.19 158.82 171.25 158.82 174.69 148.09 178.13 158.82 189.19 158.82 180.24 165.38 183.64 175.88 174.67 169.47 165.76 175.88 169.15 165.43 160.19 158.82"/><polygon class="cls-7" points="160.16 158.84 171.23 158.84 174.66 148.11 178.1 158.84 189.16 158.84 180.22 165.4 183.62 175.91 174.64 169.49 165.73 175.91 169.12 165.45 160.16 158.84"/><polygon class="cls-7" points="160.14 158.86 171.2 158.86 174.64 148.13 178.07 158.86 189.14 158.86 180.19 165.42 183.59 175.93 174.62 169.51 165.71 175.93 169.09 165.47 160.14 158.86"/><polygon class="cls-7" points="160.12 158.88 171.18 158.88 174.61 148.15 178.05 158.88 189.11 158.88 180.17 165.44 183.56 175.94 174.59 169.53 165.68 175.94 169.07 165.49 160.12 158.88"/><polygon class="cls-7" points="160.09 158.9 171.15 158.9 174.59 148.17 178.03 158.9 189.09 158.9 180.14 165.46 183.54 175.97 174.57 169.55 165.66 175.97 169.04 165.51 160.09 158.9"/><polygon class="cls-7" points="160.06 158.92 171.13 158.92 174.56 148.19 178 158.92 189.06 158.92 180.12 165.48 183.51 175.99 174.54 169.57 165.63 175.99 169.02 165.53 160.06 158.92"/><polygon class="cls-7" points="160.04 158.94 171.1 158.94 174.54 148.21 177.97 158.94 189.04 158.94 180.09 165.5 183.49 176 174.52 169.59 165.61 176 169 165.55 160.04 158.94"/><polygon class="cls-7" points="160.01 158.96 171.08 158.96 174.51 148.23 177.95 158.96 189.01 158.96 180.07 165.52 183.47 176.03 174.49 169.61 165.58 176.03 168.97 165.57 160.01 158.96"/><polygon class="cls-7" points="159.99 158.98 171.05 158.98 174.49 148.25 177.93 158.98 188.99 158.98 180.04 165.54 183.44 176.04 174.47 169.63 165.56 176.04 168.94 165.59 159.99 158.98"/><polygon class="cls-7" points="159.97 159 171.03 159 174.46 148.27 177.9 159 188.96 159 180.02 165.56 183.41 176.06 174.44 169.65 165.53 176.06 168.92 165.61 159.97 159"/><polygon class="cls-8" points="174.44 169.35 166.01 175.42 169.21 165.52 160.72 159.25 171.21 159.25 174.46 149.09 177.72 159.25 188.2 159.25 179.72 165.47 182.94 175.42 174.44 169.35"/><path class="cls-7" d="M174.46,149.91l3,9.24.12.35h9.9l-7.72,5.66-.29.21.11.34,2.93,9.07-7.74-5.53-.29-.21-.29.21-7.67,5.52,2.92-9,.11-.35-.29-.21-7.74-5.71h9.91l.11-.35,3-9.24m0-1.64L171,159H160l8.95,6.61-3.39,10.46,8.91-6.42,9,6.42L180,165.56,189,159H177.9l-3.44-10.73Z"/><rect class="cls-9" x="55.87" y="240.58" width="97.98" height="13.36"/><rect class="cls-10" x="55.87" y="259.51" width="82.39" height="13.36"/><rect class="cls-11" x="55.87" y="278.43" width="105.77" height="13.36"/><rect class="cls-1" x="37.08" y="340.54" width="426.68" height="125.96"/><rect class="cls-5" x="228.09" y="142.15" width="156.93" height="167.7"/><circle class="cls-12" cx="272" cy="186.13" r="25.61"/><polygon class="cls-7" points="350.74 158.45 361.8 158.45 365.23 147.72 368.67 158.45 379.73 158.45 370.79 165.01 374.19 175.51 365.21 169.1 356.3 175.51 359.69 165.06 350.74 158.45"/><polygon class="cls-7" points="350.71 158.47 361.77 158.47 365.21 147.74 368.64 158.47 379.71 158.47 370.76 165.03 374.16 175.53 365.19 169.12 356.28 175.53 359.67 165.08 350.71 158.47"/><polygon class="cls-7" points="350.69 158.49 361.75 158.49 365.18 147.76 368.62 158.49 379.68 158.49 370.74 165.05 374.13 175.55 365.16 169.14 356.25 175.55 359.64 165.1 350.69 158.49"/><polygon class="cls-7" points="350.66 158.51 361.72 158.51 365.16 147.78 368.6 158.51 379.66 158.51 370.71 165.07 374.11 175.57 365.14 169.16 356.23 175.57 359.62 165.12 350.66 158.51"/><polygon class="cls-7" points="350.63 158.53 361.7 158.53 365.13 147.8 368.57 158.53 379.63 158.53 370.69 165.09 374.08 175.59 365.11 169.18 356.2 175.59 359.59 165.14 350.63 158.53"/><polygon class="cls-7" points="350.61 158.55 361.67 158.55 365.11 147.82 368.55 158.55 379.61 158.55 370.66 165.11 374.06 175.61 365.09 169.2 356.18 175.61 359.56 165.16 350.61 158.55"/><polygon class="cls-7" points="350.58 158.57 361.65 158.57 365.08 147.84 368.52 158.57 379.58 158.57 370.64 165.13 374.04 175.63 365.06 169.22 356.15 175.63 359.54 165.18 350.58 158.57"/><polygon class="cls-7" points="350.56 158.59 361.62 158.59 365.06 147.86 368.5 158.59 379.56 158.59 370.61 165.15 374.01 175.65 365.04 169.24 356.13 175.65 359.51 165.2 350.56 158.59"/><polygon class="cls-7" points="350.54 158.61 361.6 158.61 365.03 147.88 368.47 158.61 379.53 158.61 370.59 165.17 373.99 175.67 365.01 169.26 356.1 175.67 359.49 165.22 350.54 158.61"/><polygon class="cls-7" points="350.51 158.63 361.57 158.63 365.01 147.9 368.44 158.63 379.51 158.63 370.56 165.19 373.96 175.69 364.99 169.28 356.08 175.69 359.46 165.24 350.51 158.63"/><polygon class="cls-7" points="350.49 158.65 361.55 158.65 364.98 147.92 368.42 158.65 379.48 158.65 370.54 165.21 373.94 175.71 364.96 169.3 356.05 175.71 359.44 165.26 350.49 158.65"/><polygon class="cls-7" points="350.46 158.67 361.52 158.67 364.96 147.94 368.39 158.67 379.46 158.67 370.51 165.23 373.91 175.73 364.94 169.32 356.03 175.73 359.42 165.28 350.46 158.67"/><polygon class="cls-7" points="350.44 158.69 361.5 158.69 364.93 147.96 368.37 158.69 379.43 158.69 370.49 165.25 373.88 175.75 364.91 169.34 356 175.75 359.39 165.3 350.44 158.69"/><polygon class="cls-7" points="350.41 158.71 361.47 158.71 364.91 147.98 368.35 158.71 379.41 158.71 370.46 165.27 373.86 175.77 364.89 169.36 355.98 175.77 359.37 165.32 350.41 158.71"/><polygon class="cls-7" points="350.38 158.73 361.45 158.73 364.88 148 368.32 158.73 379.38 158.73 370.44 165.29 373.83 175.79 364.86 169.38 355.95 175.79 359.34 165.34 350.38 158.73"/><polygon class="cls-7" points="350.36 158.75 361.42 158.75 364.86 148.02 368.3 158.75 379.36 158.75 370.41 165.31 373.81 175.81 364.84 169.4 355.93 175.81 359.31 165.36 350.36 158.75"/><polygon class="cls-7" points="350.33 158.77 361.4 158.77 364.83 148.04 368.27 158.77 379.33 158.77 370.39 165.33 373.79 175.83 364.81 169.42 355.9 175.83 359.29 165.38 350.33 158.77"/><polygon class="cls-7" points="350.31 158.79 361.37 158.79 364.81 148.06 368.25 158.79 379.31 158.79 370.36 165.35 373.76 175.85 364.79 169.44 355.88 175.85 359.26 165.4 350.31 158.79"/><polygon class="cls-7" points="350.29 158.81 361.35 158.81 364.78 148.08 368.22 158.81 379.28 158.81 370.34 165.37 373.74 175.87 364.76 169.46 355.85 175.87 359.24 165.42 350.29 158.81"/><polygon class="cls-7" points="350.26 158.83 361.32 158.83 364.76 148.1 368.19 158.83 379.26 158.83 370.31 165.39 373.71 175.89 364.74 169.48 355.83 175.89 359.21 165.44 350.26 158.83"/><polygon class="cls-7" points="350.24 158.85 361.3 158.85 364.73 148.12 368.17 158.85 379.23 158.85 370.29 165.41 373.69 175.91 364.71 169.5 355.8 175.91 359.19 165.46 350.24 158.85"/><polygon class="cls-7" points="350.21 158.87 361.27 158.87 364.71 148.14 368.14 158.87 379.21 158.87 370.26 165.43 373.66 175.93 364.69 169.52 355.78 175.93 359.17 165.48 350.21 158.87"/><polygon class="cls-7" points="350.19 158.89 361.25 158.89 364.68 148.16 368.12 158.89 379.18 158.89 370.24 165.45 373.63 175.95 364.66 169.54 355.75 175.95 359.14 165.5 350.19 158.89"/><polygon class="cls-7" points="350.16 158.91 361.22 158.91 364.66 148.18 368.1 158.91 379.16 158.91 370.21 165.47 373.61 175.97 364.64 169.56 355.73 175.97 359.12 165.52 350.16 158.91"/><polygon class="cls-7" points="350.13 158.93 361.2 158.93 364.63 148.2 368.07 158.93 379.13 158.93 370.19 165.49 373.58 175.99 364.61 169.58 355.7 175.99 359.09 165.54 350.13 158.93"/><polygon class="cls-7" points="350.11 158.95 361.17 158.95 364.61 148.22 368.05 158.95 379.11 158.95 370.16 165.51 373.56 176.01 364.59 169.6 355.68 176.01 359.06 165.56 350.11 158.95"/><polygon class="cls-7" points="350.08 158.97 361.15 158.97 364.58 148.24 368.02 158.97 379.08 158.97 370.14 165.53 373.54 176.03 364.56 169.62 355.65 176.03 359.04 165.58 350.08 158.97"/><polygon class="cls-7" points="350.06 158.99 361.12 158.99 364.56 148.26 368 158.99 379.06 158.99 370.11 165.55 373.51 176.05 364.54 169.64 355.63 176.05 359.01 165.6 350.06 158.99"/><polygon class="cls-7" points="350.04 159.01 361.1 159.01 364.53 148.28 367.97 159.01 379.03 159.01 370.09 165.57 373.49 176.07 364.51 169.66 355.6 176.07 358.99 165.62 350.04 159.01"/><polygon class="cls-7" points="350.01 159.03 361.07 159.03 364.51 148.3 367.94 159.03 379.01 159.03 370.06 165.59 373.46 176.09 364.49 169.68 355.58 176.09 358.96 165.64 350.01 159.03"/><polygon class="cls-7" points="349.99 159.05 361.05 159.05 364.48 148.32 367.92 159.05 378.98 159.05 370.04 165.61 373.44 176.11 364.46 169.7 355.55 176.11 358.94 165.66 349.99 159.05"/><polygon class="cls-7" points="349.96 159.07 361.02 159.07 364.46 148.34 367.89 159.07 378.96 159.07 370.01 165.63 373.41 176.13 364.44 169.72 355.53 176.13 358.92 165.68 349.96 159.07"/><polygon class="cls-7" points="349.94 159.09 361 159.09 364.43 148.36 367.87 159.09 378.93 159.09 369.99 165.65 373.38 176.15 364.41 169.74 355.5 176.15 358.89 165.7 349.94 159.09"/><polygon class="cls-7" points="349.91 159.11 360.97 159.11 364.41 148.38 367.85 159.11 378.91 159.11 369.96 165.67 373.36 176.17 364.39 169.76 355.48 176.17 358.87 165.72 349.91 159.11"/><polygon class="cls-7" points="349.88 159.13 360.95 159.13 364.38 148.4 367.82 159.13 378.88 159.13 369.94 165.69 373.33 176.19 364.36 169.78 355.45 176.19 358.84 165.74 349.88 159.13"/><polygon class="cls-7" points="349.86 159.15 360.92 159.15 364.36 148.42 367.8 159.15 378.86 159.15 369.91 165.71 373.31 176.21 364.34 169.8 355.43 176.21 358.81 165.76 349.86 159.15"/><polygon class="cls-7" points="349.83 159.17 360.9 159.17 364.33 148.44 367.77 159.17 378.83 159.17 369.89 165.73 373.29 176.23 364.31 169.82 355.4 176.23 358.79 165.78 349.83 159.17"/><polygon class="cls-7" points="349.81 159.19 360.87 159.19 364.31 148.46 367.75 159.19 378.81 159.19 369.86 165.75 373.26 176.25 364.29 169.84 355.38 176.25 358.76 165.8 349.81 159.19"/><polygon class="cls-7" points="349.79 159.21 360.85 159.21 364.28 148.48 367.72 159.21 378.78 159.21 369.84 165.77 373.24 176.27 364.26 169.86 355.35 176.27 358.74 165.82 349.79 159.21"/><polygon class="cls-7" points="349.76 159.23 360.82 159.23 364.26 148.5 367.69 159.23 378.76 159.23 369.81 165.79 373.21 176.29 364.24 169.88 355.33 176.29 358.71 165.84 349.76 159.23"/><polygon class="cls-7" points="349.74 159.25 360.8 159.25 364.23 148.52 367.67 159.25 378.73 159.25 369.79 165.81 373.19 176.31 364.21 169.9 355.3 176.31 358.69 165.86 349.74 159.25"/><polygon class="cls-7" points="349.71 159.27 360.77 159.27 364.21 148.54 367.64 159.27 378.71 159.27 369.76 165.83 373.16 176.33 364.19 169.92 355.28 176.33 358.67 165.88 349.71 159.27"/><polygon class="cls-7" points="349.69 159.29 360.75 159.29 364.18 148.56 367.62 159.29 378.68 159.29 369.74 165.85 373.13 176.35 364.16 169.94 355.25 176.35 358.64 165.9 349.69 159.29"/><polygon class="cls-7" points="349.66 159.31 360.72 159.31 364.16 148.58 367.6 159.31 378.66 159.31 369.71 165.87 373.11 176.37 364.14 169.96 355.23 176.37 358.62 165.92 349.66 159.31"/><polygon class="cls-7" points="349.63 159.33 360.7 159.33 364.13 148.6 367.57 159.33 378.63 159.33 369.69 165.89 373.08 176.39 364.11 169.98 355.2 176.39 358.59 165.94 349.63 159.33"/><polygon class="cls-7" points="349.61 159.35 360.67 159.35 364.11 148.62 367.55 159.35 378.61 159.35 369.66 165.91 373.06 176.41 364.09 170 355.18 176.41 358.56 165.96 349.61 159.35"/><polygon class="cls-7" points="349.58 159.37 360.65 159.37 364.08 148.64 367.52 159.37 378.58 159.37 369.64 165.93 373.04 176.43 364.06 170.02 355.15 176.43 358.54 165.98 349.58 159.37"/><polygon class="cls-7" points="349.56 159.39 360.62 159.39 364.06 148.66 367.5 159.39 378.56 159.39 369.61 165.95 373.01 176.45 364.04 170.04 355.13 176.45 358.51 166 349.56 159.39"/><polygon class="cls-7" points="349.54 159.41 360.6 159.41 364.03 148.68 367.47 159.41 378.53 159.41 369.59 165.97 372.99 176.47 364.01 170.06 355.1 176.47 358.49 166.02 349.54 159.41"/><polygon class="cls-7" points="349.51 159.43 360.57 159.43 364.01 148.7 367.44 159.43 378.51 159.43 369.56 165.99 372.96 176.49 363.99 170.08 355.08 176.49 358.46 166.04 349.51 159.43"/><polygon class="cls-7" points="349.49 159.45 360.55 159.45 363.98 148.72 367.42 159.45 378.48 159.45 369.54 166.01 372.94 176.51 363.96 170.1 355.05 176.51 358.44 166.06 349.49 159.45"/><polygon class="cls-8" points="363.96 169.79 355.53 175.86 358.73 165.96 350.25 159.7 360.73 159.7 363.98 149.54 367.24 159.7 377.72 159.7 369.24 165.91 372.46 175.87 363.96 169.79"/><path class="cls-7" d="M364,150.36l3,9.24.12.35H377l-7.72,5.65-.29.22.11.34,2.93,9.06-7.74-5.53-.29-.2-.29.21L356,175.22l2.92-9,.11-.34-.29-.21L351,160h9.91l.11-.35,3-9.24m0-1.64-3.43,10.73H349.49l8.95,6.61-3.39,10.45L364,170.1l9,6.41L369.54,166l8.94-6.56H367.42L364,148.72Z"/><rect class="cls-13" x="245.39" y="241.03" width="97.98" height="13.36"/><rect class="cls-14" x="245.39" y="259.95" width="82.39" height="13.36"/><rect class="cls-15" x="245.39" y="278.88" width="105.77" height="13.36"/><rect class="cls-5" x="421.42" y="142.11" width="156.93" height="167.7"/><circle class="cls-16" cx="465.33" cy="186.09" r="25.61"/><rect class="cls-17" x="438.72" y="240.99" width="97.98" height="13.36"/><rect class="cls-18" x="438.72" y="259.92" width="82.39" height="13.36"/><rect class="cls-19" x="438.72" y="278.84" width="105.77" height="13.36"/></g></svg>